M48
; DRILL file {KiCad 9.0.1} date 2025-05-04T12:18:20+0330
; FORMAT={-:-/ absolute / metric / decimal}
; #@! TF.CreationDate,2025-05-04T12:18:20+03:30
; #@! TF.GenerationSoftware,Kicad,Pcbnew,9.0.1
; #@! TF.FileFunction,Plated,1,2,PTH
FMAT,2
METRIC
; #@! TA.AperFunction,Plated,PTH,ViaDrill
T1C0.500
; #@! TA.AperFunction,Plated,PTH,ComponentDrill
T2C0.750
; #@! TA.AperFunction,Plated,PTH,ComponentDrill
T3C0.800
; #@! TA.AperFunction,Plated,PTH,ComponentDrill
T4C1.000
; #@! TA.AperFunction,Plated,PTH,ComponentDrill
T5C1.100
; #@! TA.AperFunction,Plated,PTH,ComponentDrill
T6C1.520
; #@! TA.AperFunction,Plated,PTH,ComponentDrill
T7C3.200
%
G90
G05
T1
X49.75Y-35.75
X56.34Y-32.099
X57.5Y-41.5
X57.5Y-51.5
X59.0Y-31.0
X59.0Y-32.5
X60.5Y-42.0
X69.0Y-30.5
X69.0Y-31.5
X75.0Y-34.0
X82.5Y-30.5
T2
X92.0Y-23.96
X92.0Y-25.23
X92.0Y-26.5
T3
X17.995Y-24.235
X17.995Y-29.235
X19.223Y-60.02
X19.223Y-62.52
X19.377Y-65.77
X19.377Y-69.52
X19.5Y-41.46
X19.5Y-44.0
X19.5Y-46.54
X21.225Y-23.995
X21.225Y-26.535
X21.225Y-29.355
X21.225Y-31.895
X21.918Y-65.77
X21.918Y-69.52
X24.723Y-64.5
X24.723Y-69.5
X25.015Y-22.235
X25.015Y-29.855
X25.995Y-33.545
X25.995Y-36.045
X25.995Y-41.46
X25.995Y-44.0
X25.995Y-46.54
X27.545Y-15.735
X27.555Y-22.235
X27.555Y-29.855
X27.595Y-19.04
X29.245Y-33.995
X29.245Y-36.535
X30.045Y-15.735
X30.095Y-19.04
X30.095Y-22.235
X30.095Y-29.855
X30.5Y-84.0
X30.5Y-86.54
X31.38Y-65.46
X31.38Y-68.0
X31.38Y-70.54
X31.38Y-73.08
X32.42Y-78.0
X32.495Y-41.46
X32.495Y-44.0
X32.495Y-46.54
X32.635Y-22.235
X32.635Y-29.855
X32.745Y-33.995
X32.745Y-36.535
X33.5Y-84.0
X33.5Y-86.54
X34.96Y-78.0
X35.175Y-22.235
X35.175Y-29.855
X36.5Y-82.78
X36.5Y-87.78
X37.5Y-78.0
X37.715Y-22.235
X37.715Y-29.855
X38.265Y-41.04
X38.265Y-44.54
X39.0Y-65.46
X39.0Y-68.0
X39.0Y-70.54
X39.0Y-73.08
X39.5Y-82.78
X39.5Y-87.78
X40.14Y-61.99
X40.255Y-22.235
X40.255Y-29.855
X40.275Y-34.04
X40.725Y-37.54
X42.185Y-64.99
X42.185Y-69.99
X42.68Y-61.99
X42.795Y-22.235
X42.795Y-29.855
X42.815Y-34.04
X43.265Y-37.54
X43.265Y-41.04
X43.265Y-44.54
X46.495Y-26.0
X46.495Y-31.0
X46.495Y-33.55
X46.495Y-38.55
X47.0Y-72.0
X49.165Y-69.0
X51.705Y-69.0
X52.0Y-72.0
X53.8Y-27.5
X53.8Y-35.12
X54.18Y-15.0
X54.18Y-21.0
X54.18Y-24.0
X54.185Y-18.0
X54.76Y-59.0
X54.76Y-66.62
X55.0Y-70.505
X55.0Y-73.045
X55.195Y-39.38
X55.195Y-41.92
X55.195Y-44.46
X55.195Y-47.0
X55.195Y-49.54
X55.195Y-52.08
X55.195Y-54.62
X56.34Y-27.5
X56.34Y-35.12
X56.72Y-15.0
X56.72Y-21.0
X56.72Y-24.0
X56.725Y-18.0
X57.3Y-59.0
X57.3Y-66.62
X58.88Y-27.5
X58.88Y-35.12
X59.84Y-59.0
X59.84Y-66.62
X61.0Y-81.5
X61.42Y-27.5
X61.42Y-35.12
X62.38Y-59.0
X62.38Y-66.62
X62.815Y-39.38
X62.815Y-41.92
X62.815Y-44.46
X62.815Y-47.0
X62.815Y-49.54
X62.815Y-52.08
X62.815Y-54.62
X63.96Y-27.5
X63.96Y-35.12
X64.92Y-59.0
X64.92Y-66.62
X65.815Y-38.0
X65.815Y-43.0
X66.0Y-81.5
X66.5Y-27.5
X66.5Y-35.12
X67.0Y-17.955
X67.0Y-20.495
X67.46Y-59.0
X67.46Y-66.62
X69.04Y-27.5
X69.04Y-35.12
X70.0Y-17.505
X70.0Y-20.045
X70.0Y-59.0
X70.0Y-66.62
X71.695Y-44.19
X71.695Y-46.73
X71.695Y-49.27
X71.695Y-51.81
X72.5Y-81.5
X72.84Y-28.12
X72.84Y-33.12
X73.0Y-17.505
X73.0Y-20.045
X73.0Y-38.5
X73.0Y-55.0
X73.5Y-61.62
X73.5Y-66.62
X76.5Y-17.816
X76.5Y-20.356
X77.5Y-81.5
X78.0Y-38.5
X78.0Y-55.0
X79.315Y-44.19
X79.315Y-46.73
X79.315Y-49.27
X79.315Y-51.81
X81.0Y-15.955
X81.0Y-20.955
X81.882Y-36.8
X81.882Y-39.34
X82.0Y-61.0
X82.0Y-63.54
X84.882Y-37.111
X84.882Y-39.651
X85.0Y-60.886
X85.0Y-63.426
X85.145Y-26.791
X85.145Y-31.791
X85.395Y-23.915
X85.5Y-16.33
X85.5Y-18.87
X87.935Y-23.915
X88.0Y-44.0
X88.0Y-49.0
X88.0Y-51.5
X88.0Y-56.5
X88.0Y-59.0
X88.0Y-64.0
X88.067Y-36.8
X88.067Y-41.8
X88.195Y-29.602
X88.195Y-32.142
X91.505Y-29.291
X91.505Y-31.831
X93.88Y-68.0
X93.88Y-73.08
X95.505Y-29.291
X95.505Y-31.831
X96.0Y-23.92
X96.0Y-26.46
X98.0Y-16.78
X98.0Y-19.32
X98.791Y-29.602
X101.331Y-29.602
X101.5Y-68.0
X101.5Y-73.08
X104.5Y-39.5
X104.5Y-43.5
X105.13Y-47.46
X107.67Y-47.46
X109.5Y-39.5
X109.5Y-43.5
T4
X15.797Y-54.92
X15.797Y-57.46
X15.797Y-60.0
X15.797Y-62.54
X15.797Y-65.08
X15.797Y-67.62
X17.5Y-75.72
X17.5Y-78.22
X25.0Y-61.305
X27.54Y-61.305
X33.235Y-19.0
X35.775Y-19.0
X42.225Y-57.5
X43.0Y-83.5
X44.765Y-57.5
X49.5Y-57.5
X49.5Y-60.04
X49.5Y-62.58
X49.5Y-65.12
X59.725Y-15.5
X59.725Y-18.04
X59.725Y-20.58
X59.725Y-23.12
X62.0Y-74.0
X62.265Y-15.5
X62.265Y-18.04
X62.265Y-20.58
X62.265Y-23.12
X66.815Y-47.42
X66.815Y-49.96
X66.815Y-52.5
X67.0Y-74.0
X73.0Y-74.0
X78.0Y-74.0
X84.132Y-74.0
X85.0Y-87.975
X87.5Y-87.975
X89.132Y-74.0
X90.5Y-16.78
X93.0Y-16.78
T5
X22.5Y-83.428
X22.5Y-85.968
X23.46Y-75.0
X23.46Y-79.0
X26.0Y-75.0
X26.0Y-79.0
X26.5Y-83.428
X26.5Y-85.968
X60.96Y-85.055
X63.5Y-85.055
X66.04Y-85.055
X72.42Y-85.0
X74.96Y-85.0
X77.5Y-85.0
X91.067Y-37.0
X91.067Y-39.29
X91.067Y-41.58
X91.067Y-44.21
X91.067Y-46.5
X91.067Y-48.79
X91.067Y-51.71
X91.067Y-54.0
X91.067Y-56.29
X91.067Y-58.92
X91.067Y-61.21
X91.067Y-63.5
T6
X107.0Y-52.96
X107.0Y-58.04
X107.0Y-72.5
X107.0Y-77.58
T7
X17.0Y-17.0
X17.0Y-87.0
X107.0Y-17.0
X107.0Y-87.0
T4
G00X95.042Y-78.0
M15
G01X97.042Y-78.0
M16
G05
G00X95.042Y-84.0
M15
G01X97.042Y-84.0
M16
G05
G00X100.742Y-82.0
M15
G01X100.742Y-80.0
M16
G05
M30
