%TF.GenerationSoftware,KiCad,Pcbnew,9.0.1*%
%TF.CreationDate,2025-05-04T12:18:18+03:30*%
%TF.ProjectId,sstc-v3,73737463-2d76-4332-9e6b-696361645f70,rev?*%
%TF.SameCoordinates,Original*%
%TF.FileFunction,Copper,L1,Top*%
%TF.FilePolarity,Positive*%
%FSLAX46Y46*%
G04 Gerber Fmt 4.6, Leading zero omitted, Abs format (unit mm)*
G04 Created by KiCad (PCBNEW 9.0.1) date 2025-05-04 12:18:18*
%MOMM*%
%LPD*%
G01*
G04 APERTURE LIST*
G04 Aperture macros list*
%AMRoundRect*
0 Rectangle with rounded corners*
0 $1 Rounding radius*
0 $2 $3 $4 $5 $6 $7 $8 $9 X,Y pos of 4 corners*
0 Add a 4 corners polygon primitive as box body*
4,1,4,$2,$3,$4,$5,$6,$7,$8,$9,$2,$3,0*
0 Add four circle primitives for the rounded corners*
1,1,$1+$1,$2,$3*
1,1,$1+$1,$4,$5*
1,1,$1+$1,$6,$7*
1,1,$1+$1,$8,$9*
0 Add four rect primitives between the rounded corners*
20,1,$1+$1,$2,$3,$4,$5,0*
20,1,$1+$1,$4,$5,$6,$7,0*
20,1,$1+$1,$6,$7,$8,$9,0*
20,1,$1+$1,$8,$9,$2,$3,0*%
G04 Aperture macros list end*
%TA.AperFunction,Conductor*%
%ADD10C,0.200000*%
%TD*%
%TA.AperFunction,ComponentPad*%
%ADD11R,1.600000X1.600000*%
%TD*%
%TA.AperFunction,ComponentPad*%
%ADD12O,1.600000X1.600000*%
%TD*%
%TA.AperFunction,ComponentPad*%
%ADD13C,1.600000*%
%TD*%
%TA.AperFunction,ComponentPad*%
%ADD14R,3.000000X3.000000*%
%TD*%
%TA.AperFunction,ComponentPad*%
%ADD15C,3.000000*%
%TD*%
%TA.AperFunction,ComponentPad*%
%ADD16R,2.000000X2.000000*%
%TD*%
%TA.AperFunction,ComponentPad*%
%ADD17C,2.000000*%
%TD*%
%TA.AperFunction,ComponentPad*%
%ADD18RoundRect,0.250000X-0.550000X0.550000X-0.550000X-0.550000X0.550000X-0.550000X0.550000X0.550000X0*%
%TD*%
%TA.AperFunction,ComponentPad*%
%ADD19R,3.500000X3.500000*%
%TD*%
%TA.AperFunction,ComponentPad*%
%ADD20RoundRect,0.750000X1.000000X-0.750000X1.000000X0.750000X-1.000000X0.750000X-1.000000X-0.750000X0*%
%TD*%
%TA.AperFunction,ComponentPad*%
%ADD21RoundRect,0.875000X0.875000X-0.875000X0.875000X0.875000X-0.875000X0.875000X-0.875000X-0.875000X0*%
%TD*%
%TA.AperFunction,ComponentPad*%
%ADD22C,3.600000*%
%TD*%
%TA.AperFunction,ConnectorPad*%
%ADD23C,5.600000*%
%TD*%
%TA.AperFunction,ComponentPad*%
%ADD24RoundRect,0.250000X0.600000X0.750000X-0.600000X0.750000X-0.600000X-0.750000X0.600000X-0.750000X0*%
%TD*%
%TA.AperFunction,ComponentPad*%
%ADD25O,1.700000X2.000000*%
%TD*%
%TA.AperFunction,ComponentPad*%
%ADD26RoundRect,0.250000X-0.750000X0.600000X-0.750000X-0.600000X0.750000X-0.600000X0.750000X0.600000X0*%
%TD*%
%TA.AperFunction,ComponentPad*%
%ADD27O,2.000000X1.700000*%
%TD*%
%TA.AperFunction,ComponentPad*%
%ADD28RoundRect,0.250000X-0.550000X-0.550000X0.550000X-0.550000X0.550000X0.550000X-0.550000X0.550000X0*%
%TD*%
%TA.AperFunction,ComponentPad*%
%ADD29R,2.200000X2.200000*%
%TD*%
%TA.AperFunction,ComponentPad*%
%ADD30O,2.200000X2.200000*%
%TD*%
%TA.AperFunction,ComponentPad*%
%ADD31R,1.700000X1.700000*%
%TD*%
%TA.AperFunction,ComponentPad*%
%ADD32C,1.700000*%
%TD*%
%TA.AperFunction,ComponentPad*%
%ADD33RoundRect,0.250000X-0.600000X-0.750000X0.600000X-0.750000X0.600000X0.750000X-0.600000X0.750000X0*%
%TD*%
%TA.AperFunction,ComponentPad*%
%ADD34R,1.800000X1.717500*%
%TD*%
%TA.AperFunction,SMDPad,CuDef*%
%ADD35R,6.200000X5.700000*%
%TD*%
%TA.AperFunction,ComponentPad*%
%ADD36O,1.800000X1.717500*%
%TD*%
%TA.AperFunction,ComponentPad*%
%ADD37C,1.440000*%
%TD*%
%TA.AperFunction,ComponentPad*%
%ADD38R,1.500000X1.050000*%
%TD*%
%TA.AperFunction,ComponentPad*%
%ADD39O,1.500000X1.050000*%
%TD*%
%TA.AperFunction,ComponentPad*%
%ADD40R,1.905000X2.000000*%
%TD*%
%TA.AperFunction,ComponentPad*%
%ADD41O,1.905000X2.000000*%
%TD*%
%TA.AperFunction,ViaPad*%
%ADD42C,0.800000*%
%TD*%
%TA.AperFunction,Conductor*%
%ADD43C,1.000000*%
%TD*%
%TA.AperFunction,Conductor*%
%ADD44C,0.300000*%
%TD*%
%TA.AperFunction,Conductor*%
%ADD45C,2.000000*%
%TD*%
G04 APERTURE END LIST*
%TO.N,Net-(J12-Pin_2)*%
D10*
X101000000Y-56500000D02*
X103000000Y-56500000D01*
X103000000Y-58000000D01*
X101000000Y-58000000D01*
X101000000Y-56500000D01*
%TA.AperFunction,Conductor*%
G36*
X101000000Y-56500000D02*
G01*
X103000000Y-56500000D01*
X103000000Y-58000000D01*
X101000000Y-58000000D01*
X101000000Y-56500000D01*
G37*
%TD.AperFunction*%
%TO.N,Net-(Q2-D)*%
X95500000Y-40000000D02*
X104000000Y-40000000D01*
X104000000Y-46000000D01*
X95500000Y-46000000D01*
X95500000Y-40000000D01*
%TA.AperFunction,Conductor*%
G36*
X95500000Y-40000000D02*
G01*
X104000000Y-40000000D01*
X104000000Y-46000000D01*
X95500000Y-46000000D01*
X95500000Y-40000000D01*
G37*
%TD.AperFunction*%
%TO.N,Net-(J12-Pin_2)*%
X95500000Y-56000000D02*
X101500000Y-56000000D01*
X101500000Y-60000000D01*
X95500000Y-60000000D01*
X95500000Y-56000000D01*
%TA.AperFunction,Conductor*%
G36*
X95500000Y-56000000D02*
G01*
X101500000Y-56000000D01*
X101500000Y-60000000D01*
X95500000Y-60000000D01*
X95500000Y-56000000D01*
G37*
%TD.AperFunction*%
%TD*%
D11*
%TO.P,D10,1,K*%
%TO.N,VDC*%
X101330686Y-29602056D03*
D12*
%TO.P,D10,2,A*%
%TO.N,Net-(D10-A)*%
X98790686Y-29602056D03*
%TD*%
D13*
%TO.P,R24,1*%
%TO.N,Net-(D6-K)*%
X91505000Y-31830685D03*
D12*
%TO.P,R24,2*%
%TO.N,Net-(D6-A)*%
X91505000Y-29290685D03*
%TD*%
D14*
%TO.P,J13,1,Pin_1*%
%TO.N,Net-(J13-Pin_1)*%
X107000000Y-72500000D03*
D15*
%TO.P,J13,2,Pin_2*%
%TO.N,Net-(J13-Pin_2)*%
X107000000Y-77580000D03*
%TD*%
D13*
%TO.P,R8,1*%
%TO.N,OC*%
X33500000Y-84000000D03*
D12*
%TO.P,R8,2*%
%TO.N,GND*%
X33500000Y-86540000D03*
%TD*%
D13*
%TO.P,C30,1*%
%TO.N,VDC*%
X88000000Y-64000000D03*
%TO.P,C30,2*%
%TO.N,GND*%
X88000000Y-59000000D03*
%TD*%
D16*
%TO.P,C16,1*%
%TO.N,+5V*%
X62000000Y-74000000D03*
D17*
%TO.P,C16,2*%
%TO.N,GND*%
X67000000Y-74000000D03*
%TD*%
D13*
%TO.P,C9,1*%
%TO.N,+5V*%
X46495000Y-31000000D03*
%TO.P,C9,2*%
%TO.N,GND*%
X46495000Y-26000000D03*
%TD*%
%TO.P,C4,1*%
%TO.N,Net-(U2-C1)*%
X30095000Y-19040000D03*
%TO.P,C4,2*%
%TO.N,Net-(U2-C2)*%
X27595000Y-19040000D03*
%TD*%
%TO.P,R23,1*%
%TO.N,VDC*%
X82000000Y-63540000D03*
D12*
%TO.P,R23,2*%
%TO.N,Net-(D9-A)*%
X82000000Y-61000000D03*
%TD*%
D13*
%TO.P,R18,1*%
%TO.N,+5V*%
X85395000Y-23915000D03*
D12*
%TO.P,R18,2*%
%TO.N,Net-(D6-A)*%
X87935000Y-23915000D03*
%TD*%
D13*
%TO.P,C17,1*%
%TO.N,GND*%
X72840000Y-28120000D03*
%TO.P,C17,2*%
%TO.N,+5V*%
X72840000Y-33120000D03*
%TD*%
%TO.P,C7,1*%
%TO.N,Net-(J3-Pin_2)*%
X24722500Y-64500000D03*
%TO.P,C7,2*%
%TO.N,Net-(C7-Pad2)*%
X24722500Y-69500000D03*
%TD*%
D18*
%TO.P,U2,1,PCP*%
%TO.N,unconnected-(U2-PCP-Pad1)*%
X42795000Y-22235000D03*
D13*
%TO.P,U2,2,PC1*%
%TO.N,Net-(U2-PC1)*%
X40255000Y-22235000D03*
%TO.P,U2,3,RefIn*%
%TO.N,SIGNAL*%
X37715000Y-22235000D03*
%TO.P,U2,4,FOUT*%
X35175000Y-22235000D03*
%TO.P,U2,5,Inh*%
%TO.N,GND*%
X32635000Y-22235000D03*
%TO.P,U2,6,C1*%
%TO.N,Net-(U2-C1)*%
X30095000Y-22235000D03*
%TO.P,U2,7,C2*%
%TO.N,Net-(U2-C2)*%
X27555000Y-22235000D03*
%TO.P,U2,8,VSS*%
%TO.N,GND*%
X25015000Y-22235000D03*
%TO.P,U2,9,VCOin*%
%TO.N,AUDIO*%
X25015000Y-29855000D03*
%TO.P,U2,10,SFout*%
%TO.N,unconnected-(U2-SFout-Pad10)*%
X27555000Y-29855000D03*
%TO.P,U2,11,R1*%
%TO.N,Net-(U2-R1)*%
X30095000Y-29855000D03*
%TO.P,U2,12,R2*%
%TO.N,Net-(U2-R2)*%
X32635000Y-29855000D03*
%TO.P,U2,13,PC2*%
%TO.N,unconnected-(U2-PC2-Pad13)*%
X35175000Y-29855000D03*
%TO.P,U2,14,SigIn*%
%TO.N,FEEDBACK*%
X37715000Y-29855000D03*
%TO.P,U2,15,ZOUT*%
%TO.N,unconnected-(U2-ZOUT-Pad15)*%
X40255000Y-29855000D03*
%TO.P,U2,16,VDD*%
%TO.N,+5V*%
X42795000Y-29855000D03*
%TD*%
%TO.P,C18,1*%
%TO.N,Net-(D8-A)*%
X88066667Y-36800000D03*
%TO.P,C18,2*%
%TO.N,Net-(Q5-G)*%
X88066667Y-41800000D03*
%TD*%
%TO.P,C25,1*%
%TO.N,Net-(D9-A)*%
X88000000Y-56500000D03*
%TO.P,C25,2*%
%TO.N,Net-(Q3-G)*%
X88000000Y-51500000D03*
%TD*%
D19*
%TO.P,J14,1*%
%TO.N,VDC*%
X96042500Y-78000000D03*
D20*
%TO.P,J14,2*%
%TO.N,GND*%
X96042500Y-84000000D03*
D21*
X100742500Y-81000000D03*
%TD*%
D22*
%TO.P,H2,1,1*%
%TO.N,GND*%
X17000000Y-87000000D03*
D23*
X17000000Y-87000000D03*
%TD*%
D13*
%TO.P,R6,1*%
%TO.N,AUDIO  LEFT*%
X19377500Y-65770000D03*
D12*
%TO.P,R6,2*%
%TO.N,Net-(C7-Pad2)*%
X21917500Y-65770000D03*
%TD*%
D13*
%TO.P,R1,1*%
%TO.N,Net-(U2-R1)*%
X29245000Y-33995000D03*
D12*
%TO.P,R1,2*%
%TO.N,Net-(R1-Pad2)*%
X29245000Y-36535000D03*
%TD*%
D13*
%TO.P,C15,1*%
%TO.N,Net-(U5B-~{R})*%
X47000000Y-72000000D03*
%TO.P,C15,2*%
%TO.N,GND*%
X52000000Y-72000000D03*
%TD*%
D24*
%TO.P,J11,1,Pin_1*%
%TO.N,Net-(J11-Pin_1)*%
X93000000Y-16780000D03*
D25*
%TO.P,J11,2,Pin_2*%
%TO.N,GND*%
X90500000Y-16780000D03*
%TD*%
D26*
%TO.P,J4,1,Pin_1*%
%TO.N,Net-(D3-A)*%
X17500000Y-75720000D03*
D27*
%TO.P,J4,2,Pin_2*%
%TO.N,Net-(D1-A)*%
X17500000Y-78220000D03*
%TD*%
D28*
%TO.P,U6,1,NC*%
%TO.N,unconnected-(U6-NC-Pad1)*%
X71695000Y-44190000D03*
D13*
%TO.P,U6,2,IN_A*%
%TO.N,DRV2*%
X71695000Y-46730000D03*
%TO.P,U6,3,GND*%
%TO.N,GND*%
X71695000Y-49270000D03*
%TO.P,U6,4,IN_B*%
%TO.N,DRV1*%
X71695000Y-51810000D03*
%TO.P,U6,5,OUT_B*%
%TO.N,Net-(Q3-G)*%
X79315000Y-51810000D03*
%TO.P,U6,6,VDD*%
%TO.N,+9V*%
X79315000Y-49270000D03*
%TO.P,U6,7,OUT_A*%
%TO.N,Net-(Q5-G)*%
X79315000Y-46730000D03*
%TO.P,U6,8,NC*%
%TO.N,unconnected-(U6-NC-Pad8)*%
X79315000Y-44190000D03*
%TD*%
D29*
%TO.P,D3,1,K*%
%TO.N,OC*%
X22500000Y-85968234D03*
D30*
%TO.P,D3,2,A*%
%TO.N,Net-(D3-A)*%
X22500000Y-83428234D03*
%TD*%
D16*
%TO.P,C29,1*%
%TO.N,VDC*%
X84132323Y-74000000D03*
D17*
%TO.P,C29,2*%
%TO.N,GND*%
X89132323Y-74000000D03*
%TD*%
D13*
%TO.P,C31,1*%
%TO.N,Net-(Q2-D)*%
X104500000Y-43500000D03*
%TO.P,C31,2*%
%TO.N,Net-(J12-Pin_1)*%
X109500000Y-43500000D03*
%TD*%
%TO.P,C24,1*%
%TO.N,GND*%
X73500000Y-61620000D03*
%TO.P,C24,2*%
%TO.N,+5V*%
X73500000Y-66620000D03*
%TD*%
%TO.P,R10,1*%
%TO.N,INT*%
X54180000Y-21000000D03*
D12*
%TO.P,R10,2*%
%TO.N,Net-(J5-Pin_5)*%
X56720000Y-21000000D03*
%TD*%
D29*
%TO.P,D1,1,K*%
%TO.N,OC*%
X26500000Y-85968234D03*
D30*
%TO.P,D1,2,A*%
%TO.N,Net-(D1-A)*%
X26500000Y-83428234D03*
%TD*%
D31*
%TO.P,J7,1,Pin_1*%
%TO.N,INT_INPUT*%
X49500000Y-57500000D03*
D32*
%TO.P,J7,2,Pin_2*%
%TO.N,GND*%
X49500000Y-60040000D03*
%TO.P,J7,3,Pin_3*%
X49500000Y-62580000D03*
%TO.P,J7,4,Pin_4*%
%TO.N,INT_INPUT*%
X49500000Y-65120000D03*
%TD*%
D33*
%TO.P,J10,1,Pin_1*%
%TO.N,VDC*%
X85000000Y-87975000D03*
D25*
%TO.P,J10,2,Pin_2*%
%TO.N,GND*%
X87500000Y-87975000D03*
%TD*%
D13*
%TO.P,R17,1*%
%TO.N,+5V*%
X55000000Y-73045000D03*
D12*
%TO.P,R17,2*%
%TO.N,Net-(U5B-~{R})*%
X55000000Y-70505000D03*
%TD*%
D14*
%TO.P,J12,1,Pin_1*%
%TO.N,Net-(J12-Pin_1)*%
X107000000Y-52960000D03*
D15*
%TO.P,J12,2,Pin_2*%
%TO.N,Net-(J12-Pin_2)*%
X107000000Y-58040000D03*
%TD*%
D29*
%TO.P,D2,1,K*%
%TO.N,Net-(D1-A)*%
X23460000Y-79000000D03*
D30*
%TO.P,D2,2,A*%
%TO.N,GND*%
X26000000Y-79000000D03*
%TD*%
D13*
%TO.P,C26,1*%
%TO.N,GND*%
X73000000Y-55000000D03*
%TO.P,C26,2*%
%TO.N,+9V*%
X78000000Y-55000000D03*
%TD*%
D31*
%TO.P,J9,1,Pin_1*%
%TO.N,DRV2*%
X66815000Y-47420000D03*
D32*
%TO.P,J9,2,Pin_2*%
%TO.N,GND*%
X66815000Y-49960000D03*
%TO.P,J9,3,Pin_3*%
%TO.N,DRV1*%
X66815000Y-52500000D03*
%TD*%
D13*
%TO.P,R27,1*%
%TO.N,Net-(Q1-B)*%
X96000000Y-26460000D03*
D12*
%TO.P,R27,2*%
%TO.N,GND*%
X96000000Y-23920000D03*
%TD*%
D13*
%TO.P,R14,1*%
%TO.N,OCD_STATUS*%
X54180000Y-24000000D03*
D12*
%TO.P,R14,2*%
%TO.N,Net-(J5-Pin_7)*%
X56720000Y-24000000D03*
%TD*%
D34*
%TO.P,Q2,1,G*%
%TO.N,Net-(D8-A)*%
X91066667Y-37000000D03*
D35*
%TO.P,Q2,2,D*%
%TO.N,Net-(Q2-D)*%
X98500000Y-39290000D03*
D36*
X91066667Y-39290000D03*
%TO.P,Q2,3,S*%
%TO.N,VDC*%
X91066667Y-41580000D03*
%TD*%
D13*
%TO.P,R22,1*%
%TO.N,VDC*%
X81881667Y-39340000D03*
D12*
%TO.P,R22,2*%
%TO.N,Net-(D8-A)*%
X81881667Y-36800000D03*
%TD*%
D18*
%TO.P,U5,1,~{R}*%
%TO.N,Net-(U5A-~{R})*%
X70000000Y-59000000D03*
D13*
%TO.P,U5,2,D*%
%TO.N,+5V*%
X67460000Y-59000000D03*
%TO.P,U5,3,C*%
%TO.N,SIGNAL*%
X64920000Y-59000000D03*
%TO.P,U5,4,~{S}*%
%TO.N,+5V*%
X62380000Y-59000000D03*
%TO.P,U5,5,Q*%
%TO.N,unconnected-(U5A-Q-Pad5)*%
X59840000Y-59000000D03*
%TO.P,U5,6,~{Q}*%
%TO.N,Net-(U5A-~{Q})*%
X57300000Y-59000000D03*
%TO.P,U5,7,GND*%
%TO.N,GND*%
X54760000Y-59000000D03*
%TO.P,U5,8,~{Q}*%
%TO.N,OCD_STATUS*%
X54760000Y-66620000D03*
%TO.P,U5,9,Q*%
%TO.N,OCD*%
X57300000Y-66620000D03*
%TO.P,U5,10,~{S}*%
%TO.N,+5V*%
X59840000Y-66620000D03*
%TO.P,U5,11,C*%
%TO.N,INT*%
X62380000Y-66620000D03*
%TO.P,U5,12,D*%
%TO.N,+5V*%
X64920000Y-66620000D03*
%TO.P,U5,13,~{R}*%
%TO.N,Net-(U5B-~{R})*%
X67460000Y-66620000D03*
%TO.P,U5,14,VCC*%
%TO.N,+5V*%
X70000000Y-66620000D03*
%TD*%
%TO.P,C19,1*%
%TO.N,+5V*%
X65815000Y-38000000D03*
%TO.P,C19,2*%
%TO.N,GND*%
X65815000Y-43000000D03*
%TD*%
%TO.P,C11,1*%
%TO.N,FEEDBACK*%
X38265000Y-41040000D03*
%TO.P,C11,2*%
%TO.N,GND*%
X43265000Y-41040000D03*
%TD*%
D11*
%TO.P,D8,1,K*%
%TO.N,VDC*%
X84881667Y-39651371D03*
D12*
%TO.P,D8,2,A*%
%TO.N,Net-(D8-A)*%
X84881667Y-37111371D03*
%TD*%
D31*
%TO.P,J6,1,Pin_1*%
%TO.N,+5V*%
X42225000Y-57500000D03*
D32*
%TO.P,J6,2,Pin_2*%
%TO.N,INT_INPUT*%
X44765000Y-57500000D03*
%TD*%
D13*
%TO.P,R9,1*%
%TO.N,+5V*%
X42815000Y-34040000D03*
D12*
%TO.P,R9,2*%
%TO.N,FEEDBACK*%
X40275000Y-34040000D03*
%TD*%
D13*
%TO.P,R5,1*%
%TO.N,AUDIO  RIGHT*%
X19377500Y-69520000D03*
D12*
%TO.P,R5,2*%
%TO.N,Net-(C7-Pad2)*%
X21917500Y-69520000D03*
%TD*%
D13*
%TO.P,C8,1*%
%TO.N,+5V*%
X46495000Y-33550000D03*
%TO.P,C8,2*%
%TO.N,GND*%
X46495000Y-38550000D03*
%TD*%
%TO.P,R13,1*%
%TO.N,+5V*%
X54180000Y-15000000D03*
D12*
%TO.P,R13,2*%
%TO.N,Net-(J5-Pin_1)*%
X56720000Y-15000000D03*
%TD*%
D11*
%TO.P,D9,1,K*%
%TO.N,VDC*%
X85000000Y-63425686D03*
D12*
%TO.P,D9,2,A*%
%TO.N,Net-(D9-A)*%
X85000000Y-60885686D03*
%TD*%
D22*
%TO.P,H1,1,1*%
%TO.N,GND*%
X17000000Y-17000000D03*
D23*
X17000000Y-17000000D03*
%TD*%
D13*
%TO.P,C5,1*%
%TO.N,+5V*%
X19222500Y-60020000D03*
%TO.P,C5,2*%
%TO.N,GND*%
X19222500Y-62520000D03*
%TD*%
%TO.P,R20,1*%
%TO.N,+5V*%
X67000000Y-17955000D03*
D12*
%TO.P,R20,2*%
%TO.N,Net-(D5-A)*%
X67000000Y-20495000D03*
%TD*%
D13*
%TO.P,C3,1*%
%TO.N,AUDIO*%
X17995000Y-29235000D03*
%TO.P,C3,2*%
%TO.N,GND*%
X17995000Y-24235000D03*
%TD*%
%TO.P,R19,1*%
%TO.N,Net-(C20-Pad2)*%
X85500000Y-18870000D03*
D12*
%TO.P,R19,2*%
%TO.N,Net-(J11-Pin_1)*%
X85500000Y-16330000D03*
%TD*%
D13*
%TO.P,R2,1*%
%TO.N,Net-(U2-R2)*%
X32745000Y-33995000D03*
D12*
%TO.P,R2,2*%
%TO.N,Net-(R2-Pad2)*%
X32745000Y-36535000D03*
%TD*%
D11*
%TO.P,D7,1,K*%
%TO.N,Net-(D5-A)*%
X76500000Y-20356371D03*
D12*
%TO.P,D7,2,A*%
%TO.N,GND*%
X76500000Y-17816371D03*
%TD*%
D13*
%TO.P,C20,1*%
%TO.N,Net-(D5-A)*%
X81000000Y-20955000D03*
%TO.P,C20,2*%
%TO.N,Net-(C20-Pad2)*%
X81000000Y-15955000D03*
%TD*%
%TO.P,R21,1*%
%TO.N,Net-(D5-A)*%
X73000000Y-20045000D03*
D12*
%TO.P,R21,2*%
%TO.N,GND*%
X73000000Y-17505000D03*
%TD*%
D28*
%TO.P,U3,1*%
%TO.N,INT*%
X55195000Y-39380000D03*
D13*
%TO.P,U3,2*%
%TO.N,POWER_GOOD*%
X55195000Y-41920000D03*
%TO.P,U3,3*%
%TO.N,Net-(U3-Pad3)*%
X55195000Y-44460000D03*
%TO.P,U3,4*%
X55195000Y-47000000D03*
%TO.P,U3,5*%
%TO.N,OCD*%
X55195000Y-49540000D03*
%TO.P,U3,6*%
%TO.N,Net-(U3-Pad6)*%
X55195000Y-52080000D03*
%TO.P,U3,7,GND*%
%TO.N,GND*%
X55195000Y-54620000D03*
%TO.P,U3,8*%
%TO.N,DRV1*%
X62815000Y-54620000D03*
%TO.P,U3,9*%
%TO.N,Net-(U3-Pad9)*%
X62815000Y-52080000D03*
%TO.P,U3,10*%
%TO.N,Net-(U5A-~{Q})*%
X62815000Y-49540000D03*
%TO.P,U3,11*%
%TO.N,DRV2*%
X62815000Y-47000000D03*
%TO.P,U3,12*%
%TO.N,Net-(U5A-~{Q})*%
X62815000Y-44460000D03*
%TO.P,U3,13*%
%TO.N,SIGNAL*%
X62815000Y-41920000D03*
%TO.P,U3,14,VCC*%
%TO.N,+5V*%
X62815000Y-39380000D03*
%TD*%
%TO.P,R26,1*%
%TO.N,Net-(J11-Pin_1)*%
X98000000Y-16780000D03*
D12*
%TO.P,R26,2*%
%TO.N,GND*%
X98000000Y-19320000D03*
%TD*%
D13*
%TO.P,R4,1*%
%TO.N,AUDIO*%
X21225000Y-29355000D03*
D12*
%TO.P,R4,2*%
%TO.N,Net-(R4-Pad2)*%
X21225000Y-31895000D03*
%TD*%
D28*
%TO.P,U1,1,GND*%
%TO.N,GND*%
X31380000Y-65460000D03*
D13*
%TO.P,U1,2,+*%
%TO.N,Net-(J8-Pin_1)*%
X31380000Y-68000000D03*
%TO.P,U1,3,-*%
%TO.N,OC*%
X31380000Y-70540000D03*
%TO.P,U1,4,V-*%
%TO.N,GND*%
X31380000Y-73080000D03*
%TO.P,U1,5,BAL*%
%TO.N,Net-(U1-BAL)*%
X39000000Y-73080000D03*
%TO.P,U1,6,STRB*%
X39000000Y-70540000D03*
%TO.P,U1,7*%
%TO.N,Net-(U5B-~{R})*%
X39000000Y-68000000D03*
%TO.P,U1,8,V+*%
%TO.N,+9V*%
X39000000Y-65460000D03*
%TD*%
%TO.P,R12,1*%
%TO.N,FEEDBACK*%
X40725000Y-37540000D03*
D12*
%TO.P,R12,2*%
%TO.N,GND*%
X43265000Y-37540000D03*
%TD*%
D18*
%TO.P,U4,1*%
%TO.N,Net-(D5-A)*%
X69040000Y-27500000D03*
D13*
%TO.P,U4,2*%
%TO.N,Net-(C10-Pad1)*%
X66500000Y-27500000D03*
%TO.P,U4,3*%
%TO.N,INT_INPUT*%
X63960000Y-27500000D03*
%TO.P,U4,4*%
%TO.N,Net-(U4-Pad4)*%
X61420000Y-27500000D03*
%TO.P,U4,5*%
X58880000Y-27500000D03*
%TO.P,U4,6*%
%TO.N,INT*%
X56340000Y-27500000D03*
%TO.P,U4,7,GND*%
%TO.N,GND*%
X53800000Y-27500000D03*
%TO.P,U4,8*%
%TO.N,Net-(U3-Pad9)*%
X53800000Y-35120000D03*
%TO.P,U4,9*%
%TO.N,SIGNAL*%
X56340000Y-35120000D03*
%TO.P,U4,10*%
%TO.N,POWER_GOOD*%
X58880000Y-35120000D03*
%TO.P,U4,11*%
%TO.N,Net-(D6-K)*%
X61420000Y-35120000D03*
%TO.P,U4,12*%
%TO.N,Net-(U5A-~{R})*%
X63960000Y-35120000D03*
%TO.P,U4,13*%
%TO.N,Net-(U3-Pad6)*%
X66500000Y-35120000D03*
%TO.P,U4,14,VCC*%
%TO.N,+5V*%
X69040000Y-35120000D03*
%TD*%
D37*
%TO.P,RV2,1,1*%
%TO.N,Net-(R1-Pad2)*%
X25995000Y-41460000D03*
%TO.P,RV2,2,2*%
%TO.N,GND*%
X25995000Y-44000000D03*
%TO.P,RV2,3,3*%
X25995000Y-46540000D03*
%TD*%
D13*
%TO.P,R28,1*%
%TO.N,Net-(Q2-D)*%
X105130000Y-47460000D03*
D12*
%TO.P,R28,2*%
%TO.N,Net-(J12-Pin_1)*%
X107670000Y-47460000D03*
%TD*%
D34*
%TO.P,Q5,1,G*%
%TO.N,Net-(Q5-G)*%
X91066667Y-44210000D03*
D35*
%TO.P,Q5,2,D*%
%TO.N,Net-(Q2-D)*%
X98500000Y-46500000D03*
D36*
X91066667Y-46500000D03*
%TO.P,Q5,3,S*%
%TO.N,GND*%
X91066667Y-48790000D03*
%TD*%
D13*
%TO.P,R25,1*%
%TO.N,Net-(D10-A)*%
X95505000Y-31830685D03*
D12*
%TO.P,R25,2*%
%TO.N,Net-(Q1-B)*%
X95505000Y-29290685D03*
%TD*%
D13*
%TO.P,R16,1*%
%TO.N,INT_INPUT*%
X49165000Y-69000000D03*
D12*
%TO.P,R16,2*%
%TO.N,GND*%
X51705000Y-69000000D03*
%TD*%
D13*
%TO.P,C10,1*%
%TO.N,Net-(C10-Pad1)*%
X43265000Y-44540000D03*
%TO.P,C10,2*%
%TO.N,FEEDBACK*%
X38265000Y-44540000D03*
%TD*%
%TO.P,C13,1*%
%TO.N,+5V*%
X61000000Y-81500000D03*
%TO.P,C13,2*%
%TO.N,GND*%
X66000000Y-81500000D03*
%TD*%
D34*
%TO.P,Q4,1,G*%
%TO.N,Net-(D9-A)*%
X91066667Y-58920000D03*
D35*
%TO.P,Q4,2,D*%
%TO.N,Net-(J12-Pin_2)*%
X98500000Y-61210000D03*
D36*
X91066667Y-61210000D03*
%TO.P,Q4,3,S*%
%TO.N,VDC*%
X91066667Y-63500000D03*
%TD*%
D13*
%TO.P,C2,1*%
%TO.N,Net-(U2-C1)*%
X30045000Y-15735000D03*
%TO.P,C2,2*%
%TO.N,Net-(U2-C2)*%
X27545000Y-15735000D03*
%TD*%
%TO.P,C12,1*%
%TO.N,GND*%
X42185000Y-69990000D03*
%TO.P,C12,2*%
%TO.N,+9V*%
X42185000Y-64990000D03*
%TD*%
D22*
%TO.P,H3,1,1*%
%TO.N,GND*%
X107000000Y-17000000D03*
D23*
X107000000Y-17000000D03*
%TD*%
D11*
%TO.P,D6,1,K*%
%TO.N,Net-(D6-K)*%
X88195000Y-32142056D03*
D12*
%TO.P,D6,2,A*%
%TO.N,Net-(D6-A)*%
X88195000Y-29602056D03*
%TD*%
D13*
%TO.P,C22,1*%
%TO.N,VDC*%
X88000000Y-44000000D03*
%TO.P,C22,2*%
%TO.N,GND*%
X88000000Y-49000000D03*
%TD*%
D29*
%TO.P,D4,1,K*%
%TO.N,Net-(D3-A)*%
X23460000Y-75000000D03*
D30*
%TO.P,D4,2,A*%
%TO.N,GND*%
X26000000Y-75000000D03*
%TD*%
D13*
%TO.P,C1,1*%
%TO.N,Net-(U2-R1)*%
X25995000Y-33545000D03*
%TO.P,C1,2*%
%TO.N,GND*%
X25995000Y-36045000D03*
%TD*%
D31*
%TO.P,J8,1,Pin_1*%
%TO.N,Net-(J8-Pin_1)*%
X43000000Y-83500000D03*
%TD*%
D13*
%TO.P,R15,1*%
%TO.N,Net-(R15-Pad1)*%
X40140000Y-61990000D03*
D12*
%TO.P,R15,2*%
%TO.N,+9V*%
X42680000Y-61990000D03*
%TD*%
D13*
%TO.P,R11,1*%
%TO.N,POWER_GOOD*%
X54185000Y-18000000D03*
D12*
%TO.P,R11,2*%
%TO.N,Net-(J5-Pin_3)*%
X56725000Y-18000000D03*
%TD*%
D16*
%TO.P,C27,1*%
%TO.N,+9V*%
X78000000Y-74000000D03*
D17*
%TO.P,C27,2*%
%TO.N,GND*%
X73000000Y-74000000D03*
%TD*%
D37*
%TO.P,RV1,1,1*%
%TO.N,+5V*%
X19500000Y-41460000D03*
%TO.P,RV1,2,2*%
%TO.N,Net-(R4-Pad2)*%
X19500000Y-44000000D03*
%TO.P,RV1,3,3*%
%TO.N,GND*%
X19500000Y-46540000D03*
%TD*%
D38*
%TO.P,Q1,1,C*%
%TO.N,Net-(D6-A)*%
X92000000Y-26500000D03*
D39*
%TO.P,Q1,2,B*%
%TO.N,Net-(Q1-B)*%
X92000000Y-25230000D03*
%TO.P,Q1,3,E*%
%TO.N,GND*%
X92000000Y-23960000D03*
%TD*%
D31*
%TO.P,J3,1,Pin_1*%
%TO.N,AUDIO*%
X25000000Y-61305000D03*
D32*
%TO.P,J3,2,Pin_2*%
%TO.N,Net-(J3-Pin_2)*%
X27540000Y-61305000D03*
%TD*%
D13*
%TO.P,C6,1*%
%TO.N,OC*%
X36500000Y-82780000D03*
%TO.P,C6,2*%
%TO.N,GND*%
X36500000Y-87780000D03*
%TD*%
D11*
%TO.P,D5,1,K*%
%TO.N,+5V*%
X70000000Y-17505000D03*
D12*
%TO.P,D5,2,A*%
%TO.N,Net-(D5-A)*%
X70000000Y-20045000D03*
%TD*%
D34*
%TO.P,Q3,1,G*%
%TO.N,Net-(Q3-G)*%
X91066667Y-51710000D03*
D35*
%TO.P,Q3,2,D*%
%TO.N,Net-(J12-Pin_2)*%
X98500000Y-54000000D03*
D36*
X91066667Y-54000000D03*
%TO.P,Q3,3,S*%
%TO.N,GND*%
X91066667Y-56290000D03*
%TD*%
D37*
%TO.P,RV4,1,1*%
%TO.N,GND*%
X37500000Y-78000000D03*
%TO.P,RV4,2,2*%
%TO.N,Net-(J8-Pin_1)*%
X34960000Y-78000000D03*
%TO.P,RV4,3,3*%
%TO.N,Net-(R15-Pad1)*%
X32420000Y-78000000D03*
%TD*%
D40*
%TO.P,U7,1,VI*%
%TO.N,+9V*%
X66040000Y-85055000D03*
D41*
%TO.P,U7,2,GND*%
%TO.N,GND*%
X63500000Y-85055000D03*
%TO.P,U7,3,VO*%
%TO.N,+5V*%
X60960000Y-85055000D03*
%TD*%
D13*
%TO.P,C23,1*%
%TO.N,GND*%
X73000000Y-38500000D03*
%TO.P,C23,2*%
%TO.N,+9V*%
X78000000Y-38500000D03*
%TD*%
D40*
%TO.P,U8,1,VI*%
%TO.N,VDC*%
X77500000Y-85000000D03*
D41*
%TO.P,U8,2,GND*%
%TO.N,GND*%
X74960000Y-85000000D03*
%TO.P,U8,3,VO*%
%TO.N,+9V*%
X72420000Y-85000000D03*
%TD*%
D11*
%TO.P,D11,1,+*%
%TO.N,VDC*%
X93880000Y-68000000D03*
D12*
%TO.P,D11,2,-*%
%TO.N,GND*%
X93880000Y-73080000D03*
%TO.P,D11,3*%
%TO.N,Net-(J13-Pin_2)*%
X101500000Y-73080000D03*
%TO.P,D11,4*%
%TO.N,Net-(J13-Pin_1)*%
X101500000Y-68000000D03*
%TD*%
D13*
%TO.P,C28,1*%
%TO.N,+9V*%
X72500000Y-81500000D03*
%TO.P,C28,2*%
%TO.N,GND*%
X77500000Y-81500000D03*
%TD*%
D22*
%TO.P,H4,1,1*%
%TO.N,GND*%
X107000000Y-87000000D03*
D23*
X107000000Y-87000000D03*
%TD*%
D31*
%TO.P,J1,1,Pin_1*%
%TO.N,SIGNAL*%
X35775000Y-19000000D03*
D32*
%TO.P,J1,2,Pin_2*%
%TO.N,GND*%
X33235000Y-19000000D03*
%TD*%
D13*
%TO.P,C32,1*%
%TO.N,Net-(Q2-D)*%
X104500000Y-39500000D03*
%TO.P,C32,2*%
%TO.N,Net-(J12-Pin_1)*%
X109500000Y-39500000D03*
%TD*%
%TO.P,R3,1*%
%TO.N,Net-(U2-PC1)*%
X21225000Y-23995000D03*
D12*
%TO.P,R3,2*%
%TO.N,AUDIO*%
X21225000Y-26535000D03*
%TD*%
D13*
%TO.P,R7,1*%
%TO.N,OC*%
X30500000Y-84000000D03*
D12*
%TO.P,R7,2*%
%TO.N,GND*%
X30500000Y-86540000D03*
%TD*%
D37*
%TO.P,RV3,1,1*%
%TO.N,Net-(R2-Pad2)*%
X32495000Y-41460000D03*
%TO.P,RV3,2,2*%
%TO.N,GND*%
X32495000Y-44000000D03*
%TO.P,RV3,3,3*%
X32495000Y-46540000D03*
%TD*%
D13*
%TO.P,C21,1*%
%TO.N,Net-(D6-K)*%
X85145000Y-31790685D03*
%TO.P,C21,2*%
%TO.N,+5V*%
X85145000Y-26790685D03*
%TD*%
D31*
%TO.P,J5,1,Pin_1*%
%TO.N,Net-(J5-Pin_1)*%
X59725000Y-15500000D03*
D32*
%TO.P,J5,2,Pin_2*%
%TO.N,GND*%
X62265000Y-15500000D03*
%TO.P,J5,3,Pin_3*%
%TO.N,Net-(J5-Pin_3)*%
X59725000Y-18040000D03*
%TO.P,J5,4,Pin_4*%
%TO.N,GND*%
X62265000Y-18040000D03*
%TO.P,J5,5,Pin_5*%
%TO.N,Net-(J5-Pin_5)*%
X59725000Y-20580000D03*
%TO.P,J5,6,Pin_6*%
%TO.N,GND*%
X62265000Y-20580000D03*
%TO.P,J5,7,Pin_7*%
%TO.N,Net-(J5-Pin_7)*%
X59725000Y-23120000D03*
%TO.P,J5,8,Pin_8*%
%TO.N,GND*%
X62265000Y-23120000D03*
%TD*%
D31*
%TO.P,J2,1,Pin_1*%
%TO.N,unconnected-(J2-Pin_1-Pad1)*%
X15797500Y-54920000D03*
D32*
%TO.P,J2,2,Pin_2*%
%TO.N,unconnected-(J2-Pin_2-Pad2)*%
X15797500Y-57460000D03*
%TO.P,J2,3,Pin_3*%
%TO.N,+5V*%
X15797500Y-60000000D03*
%TO.P,J2,4,Pin_4*%
%TO.N,GND*%
X15797500Y-62540000D03*
%TO.P,J2,5,Pin_5*%
%TO.N,AUDIO  LEFT*%
X15797500Y-65080000D03*
%TO.P,J2,6,Pin_6*%
%TO.N,AUDIO  RIGHT*%
X15797500Y-67620000D03*
%TD*%
D13*
%TO.P,C14,1*%
%TO.N,GND*%
X39500000Y-87780000D03*
%TO.P,C14,2*%
%TO.N,Net-(J8-Pin_1)*%
X39500000Y-82780000D03*
%TD*%
D42*
%TO.N,POWER_GOOD*%
X57500000Y-41500000D03*
%TO.N,SIGNAL*%
X56340000Y-32099000D03*
%TO.N,Net-(U5A-~{R})*%
X75000000Y-34000000D03*
X69000000Y-31500000D03*
%TO.N,INT_INPUT*%
X59000000Y-31000000D03*
X49750000Y-35750000D03*
%TO.N,Net-(C10-Pad1)*%
X59000000Y-32500000D03*
%TO.N,Net-(D6-K)*%
X69000000Y-30500000D03*
X82500000Y-30500000D03*
%TO.N,Net-(U3-Pad6)*%
X57500000Y-51500000D03*
%TO.N,Net-(U3-Pad9)*%
X60500000Y-42000000D03*
%TD*%
D43*
%TO.N,Net-(J13-Pin_2)*%
X107000000Y-77580000D02*
X106000000Y-77580000D01*
X106000000Y-77580000D02*
X101500000Y-73080000D01*
%TO.N,Net-(J13-Pin_1)*%
X101500000Y-68000000D02*
X102500000Y-68000000D01*
X102500000Y-68000000D02*
X107000000Y-72500000D01*
%TO.N,+5V*%
X67450000Y-17505000D02*
X67000000Y-17955000D01*
X42225000Y-58995001D02*
X42000000Y-59220001D01*
X62380000Y-59880000D02*
X62380000Y-59000000D01*
X70000000Y-66000000D02*
X70000000Y-61540000D01*
X66371000Y-65169000D02*
X69169000Y-65169000D01*
X70840000Y-35120000D02*
X72840000Y-33120000D01*
X70000000Y-17505000D02*
X67450000Y-17505000D01*
X42795000Y-29855000D02*
X45350000Y-29855000D01*
X85395000Y-23915000D02*
X85395000Y-22895000D01*
X70000000Y-66620000D02*
X70000000Y-66000000D01*
X55631000Y-13549000D02*
X62594000Y-13549000D01*
X20022499Y-59220001D02*
X20022499Y-50977501D01*
X66000000Y-61000000D02*
X63500000Y-61000000D01*
X64920000Y-66620000D02*
X66371000Y-65169000D01*
X85145000Y-26790685D02*
X85145000Y-24165000D01*
X60960000Y-85000000D02*
X60960000Y-75040000D01*
X62000000Y-74000000D02*
X64000000Y-72000000D01*
X43305000Y-33550000D02*
X42815000Y-34040000D01*
X46495000Y-31000000D02*
X46495000Y-33550000D01*
X20022499Y-59220001D02*
X19222500Y-60020000D01*
X69040000Y-57420000D02*
X69040000Y-35120000D01*
X44246000Y-28751000D02*
X44246000Y-16254000D01*
X55000000Y-73045000D02*
X61045000Y-73045000D01*
X65815000Y-38000000D02*
X66160000Y-38000000D01*
X72840000Y-33120000D02*
X79169315Y-26790685D01*
X62815000Y-39380000D02*
X64435000Y-39380000D01*
X38500000Y-46500000D02*
X36500000Y-48500000D01*
X36500000Y-48500000D02*
X22500000Y-48500000D01*
X67460000Y-59000000D02*
X67460000Y-59540000D01*
X69169000Y-65169000D02*
X70000000Y-66000000D01*
X44995000Y-46500000D02*
X38500000Y-46500000D01*
X65066012Y-72000000D02*
X70446012Y-66620000D01*
X44500000Y-74357024D02*
X44500000Y-61270001D01*
X61045000Y-73045000D02*
X62000000Y-74000000D01*
X22500000Y-48500000D02*
X22500000Y-44460000D01*
X15797500Y-60000000D02*
X19202500Y-60000000D01*
X48500000Y-35555000D02*
X48500000Y-42995000D01*
X20022499Y-50977501D02*
X22500000Y-48500000D01*
X61291000Y-68071000D02*
X59840000Y-66620000D01*
X42000000Y-59220001D02*
X20022499Y-59220001D01*
X60960000Y-75040000D02*
X62000000Y-74000000D01*
X70446012Y-66620000D02*
X72000000Y-66620000D01*
X46495000Y-33550000D02*
X48500000Y-35555000D01*
X63500000Y-61000000D02*
X62380000Y-59880000D01*
X45500000Y-15000000D02*
X54180000Y-15000000D01*
X64920000Y-66620000D02*
X63469000Y-68071000D01*
X79169315Y-26790685D02*
X85145000Y-26790685D01*
X66160000Y-38000000D02*
X69040000Y-35120000D01*
X22500000Y-44460000D02*
X19500000Y-41460000D01*
X44246000Y-16254000D02*
X45500000Y-15000000D01*
X70000000Y-61540000D02*
X67460000Y-59000000D01*
X54180000Y-15000000D02*
X55631000Y-13549000D01*
X60960000Y-85055000D02*
X55197976Y-85055000D01*
X45350000Y-29855000D02*
X46495000Y-31000000D01*
X67460000Y-59000000D02*
X69040000Y-57420000D01*
X64435000Y-39380000D02*
X65815000Y-38000000D01*
X71451000Y-16054000D02*
X70000000Y-17505000D01*
X48500000Y-42995000D02*
X44995000Y-46500000D01*
X69040000Y-35120000D02*
X70840000Y-35120000D01*
X85395000Y-22895000D02*
X78554000Y-16054000D01*
X62594000Y-13549000D02*
X67000000Y-17955000D01*
X44500000Y-61270001D02*
X42225000Y-58995001D01*
X64000000Y-72000000D02*
X65066012Y-72000000D01*
X67460000Y-59540000D02*
X66000000Y-61000000D01*
X46495000Y-31000000D02*
X44246000Y-28751000D01*
X72000000Y-66620000D02*
X73500000Y-66620000D01*
X42225000Y-57500000D02*
X42225000Y-58995001D01*
X55197976Y-85055000D02*
X44500000Y-74357024D01*
X46495000Y-33550000D02*
X43305000Y-33550000D01*
X78554000Y-16054000D02*
X71451000Y-16054000D01*
X70000000Y-66620000D02*
X72000000Y-66620000D01*
X61291000Y-68071000D02*
X63469000Y-68071000D01*
X85145000Y-24165000D02*
X85395000Y-23915000D01*
D44*
%TO.N,Net-(U5B-~{R})*%
X55000000Y-70505000D02*
X48495000Y-70505000D01*
X48495000Y-70505000D02*
X47000000Y-72000000D01*
X63575000Y-70505000D02*
X67460000Y-66620000D01*
X55000000Y-70505000D02*
X63575000Y-70505000D01*
%TO.N,FEEDBACK*%
X40275000Y-34040000D02*
X40275000Y-37090000D01*
X37715000Y-31480000D02*
X40275000Y-34040000D01*
X38265000Y-40000000D02*
X38265000Y-41040000D01*
X40725000Y-37540000D02*
X38265000Y-40000000D01*
X38265000Y-41040000D02*
X38265000Y-44540000D01*
X37715000Y-29855000D02*
X37715000Y-31480000D01*
D43*
%TO.N,GND*%
X88000000Y-49000000D02*
X90856667Y-49000000D01*
X73000000Y-74000000D02*
X67000000Y-74000000D01*
X99500000Y-81000000D02*
X96500000Y-84000000D01*
X32495000Y-44000000D02*
X32495000Y-46540000D01*
X87500000Y-87975000D02*
X87500000Y-75632323D01*
X73146000Y-47819000D02*
X71695000Y-49270000D01*
X49500000Y-60040000D02*
X49500000Y-62580000D01*
X90052323Y-73080000D02*
X89132323Y-74000000D01*
X73146000Y-54854000D02*
X73146000Y-50721000D01*
X93880000Y-73080000D02*
X90052323Y-73080000D01*
X26000000Y-75000000D02*
X26000000Y-79000000D01*
X73146000Y-38646000D02*
X73146000Y-47819000D01*
X19222500Y-62520000D02*
X15817500Y-62520000D01*
X71695000Y-49270000D02*
X73146000Y-50721000D01*
X25995000Y-44000000D02*
X25995000Y-46540000D01*
X87500000Y-75632323D02*
X89132323Y-74000000D01*
D44*
%TO.N,Net-(D6-A)*%
X91505000Y-29290685D02*
X91505000Y-26995000D01*
X91505000Y-26995000D02*
X92000000Y-26500000D01*
X90520000Y-26500000D02*
X87935000Y-23915000D01*
X92000000Y-26500000D02*
X90520000Y-26500000D01*
X91505000Y-29290685D02*
X88506371Y-29290685D01*
%TO.N,AUDIO*%
X25015000Y-29855000D02*
X21725000Y-29855000D01*
X21725000Y-29855000D02*
X21225000Y-29355000D01*
X21225000Y-29355000D02*
X21225000Y-26535000D01*
X17995000Y-29235000D02*
X21105000Y-29235000D01*
D43*
%TO.N,Net-(D1-A)*%
X17500000Y-78220000D02*
X21291766Y-78220000D01*
X21291766Y-78220000D02*
X26500000Y-83428234D01*
D44*
%TO.N,AUDIO  RIGHT*%
X15797500Y-67620000D02*
X17697500Y-69520000D01*
X17697500Y-69520000D02*
X19377500Y-69520000D01*
%TO.N,AUDIO  LEFT*%
X15797500Y-65080000D02*
X18687500Y-65080000D01*
X18687500Y-65080000D02*
X19377500Y-65770000D01*
D43*
%TO.N,+9V*%
X39000000Y-65460000D02*
X37549000Y-66911000D01*
X42680000Y-64495000D02*
X42185000Y-64990000D01*
X42185000Y-64990000D02*
X39470000Y-64990000D01*
X77864000Y-38636000D02*
X77864000Y-47819000D01*
X77864000Y-47819000D02*
X79315000Y-49270000D01*
X72420000Y-79580000D02*
X78000000Y-74000000D01*
X77864000Y-50721000D02*
X79315000Y-49270000D01*
X37549000Y-66911000D02*
X37549000Y-74049000D01*
X42680000Y-61990000D02*
X42680000Y-64495000D01*
X72420000Y-85000000D02*
X72420000Y-79580000D01*
X64389000Y-86706000D02*
X66040000Y-85055000D01*
X77864000Y-54864000D02*
X77864000Y-50721000D01*
X37549000Y-74049000D02*
X50206000Y-86706000D01*
X72420000Y-85000000D02*
X66095000Y-85000000D01*
X39470000Y-64990000D02*
X39000000Y-65460000D01*
X50206000Y-86706000D02*
X64389000Y-86706000D01*
X78000000Y-74000000D02*
X78000000Y-55000000D01*
%TO.N,VDC*%
X88000000Y-70132323D02*
X84132323Y-74000000D01*
X88000000Y-44000000D02*
X84881667Y-44000000D01*
X81881667Y-39340000D02*
X81340000Y-39340000D01*
X90550900Y-41580000D02*
X91021800Y-41580000D01*
X91066667Y-63500000D02*
X88500000Y-63500000D01*
X80475000Y-87975000D02*
X77500000Y-85000000D01*
X96500000Y-78000000D02*
X96500000Y-70620000D01*
X96500000Y-70620000D02*
X93880000Y-68000000D01*
X81500000Y-34500000D02*
X96432742Y-34500000D01*
X84132323Y-74000000D02*
X79500000Y-69367677D01*
X90132323Y-68000000D02*
X88000000Y-70132323D01*
X84881667Y-39651371D02*
X88622271Y-39651371D01*
X93880000Y-68000000D02*
X90132323Y-68000000D01*
X88000000Y-64000000D02*
X88000000Y-70132323D01*
X79500000Y-55049000D02*
X84881667Y-49667333D01*
X88500000Y-63500000D02*
X82000000Y-63500000D01*
X80000000Y-38000000D02*
X80000000Y-36000000D01*
X80000000Y-36000000D02*
X81500000Y-34500000D01*
X82193038Y-39651371D02*
X81881667Y-39340000D01*
X96432742Y-34500000D02*
X101330686Y-29602056D01*
X85000000Y-87975000D02*
X80475000Y-87975000D01*
X88622271Y-39651371D02*
X90550900Y-41580000D01*
X84881667Y-49667333D02*
X84881667Y-44000000D01*
X79500000Y-69367677D02*
X79500000Y-55049000D01*
X81340000Y-39340000D02*
X80000000Y-38000000D01*
X84881667Y-39651371D02*
X82193038Y-39651371D01*
X84132323Y-87107323D02*
X85000000Y-87975000D01*
X84132323Y-74000000D02*
X84132323Y-87107323D01*
X84881667Y-44000000D02*
X84881667Y-39651371D01*
X90617677Y-63500000D02*
X88500000Y-63500000D01*
D44*
%TO.N,INT*%
X62380000Y-66620000D02*
X56000000Y-60240000D01*
X56500000Y-40685000D02*
X55195000Y-39380000D01*
X56340000Y-27500000D02*
X54901000Y-28939000D01*
X54901000Y-28939000D02*
X54901000Y-39000000D01*
X56000000Y-60240000D02*
X56000000Y-57500000D01*
X55500000Y-26660000D02*
X56340000Y-27500000D01*
X56500000Y-57000000D02*
X56500000Y-40685000D01*
X56000000Y-57500000D02*
X56500000Y-57000000D01*
X55500000Y-22320000D02*
X54180000Y-21000000D01*
X55500000Y-22320000D02*
X55500000Y-26660000D01*
%TO.N,POWER_GOOD*%
X57779000Y-26693760D02*
X61000000Y-23472760D01*
X57500000Y-41500000D02*
X57500000Y-41000000D01*
X57500000Y-41000000D02*
X58880000Y-39620000D01*
X58880000Y-35120000D02*
X57779000Y-34019000D01*
X61000000Y-20227240D02*
X60201760Y-19429000D01*
X58880000Y-39620000D02*
X58880000Y-35120000D01*
X57779000Y-34019000D02*
X57779000Y-26693760D01*
X55614000Y-19429000D02*
X54185000Y-18000000D01*
X61000000Y-23472760D02*
X61000000Y-20227240D01*
X60201760Y-19429000D02*
X55614000Y-19429000D01*
%TO.N,SIGNAL*%
X35175000Y-22235000D02*
X35175000Y-19600000D01*
X62815000Y-41920000D02*
X64920000Y-44025000D01*
X37715000Y-20940000D02*
X35775000Y-19000000D01*
X64920000Y-44025000D02*
X64920000Y-59000000D01*
X56340000Y-32099000D02*
X56340000Y-35120000D01*
X37715000Y-22235000D02*
X37715000Y-20940000D01*
X37715000Y-22235000D02*
X35175000Y-22235000D01*
%TO.N,Net-(U5A-~{R})*%
X70000000Y-39000000D02*
X70000000Y-58200000D01*
X75000000Y-34000000D02*
X70000000Y-39000000D01*
X63960000Y-35120000D02*
X67580000Y-31500000D01*
X67580000Y-31500000D02*
X69000000Y-31500000D01*
%TO.N,Net-(U5A-~{Q})*%
X62815000Y-49540000D02*
X64000000Y-50725000D01*
X61714000Y-45561000D02*
X62815000Y-44460000D01*
X59300000Y-57000000D02*
X57300000Y-59000000D01*
X64000000Y-50725000D02*
X64000000Y-56000000D01*
X61714000Y-48439000D02*
X61714000Y-45561000D01*
X64000000Y-56000000D02*
X63000000Y-57000000D01*
X63000000Y-57000000D02*
X59300000Y-57000000D01*
X62815000Y-49540000D02*
X61714000Y-48439000D01*
D43*
%TO.N,OC*%
X35280000Y-84000000D02*
X36500000Y-82780000D01*
X26500000Y-85968234D02*
X28468234Y-84000000D01*
X22500000Y-85968234D02*
X26500000Y-85968234D01*
D44*
X33939000Y-73099000D02*
X31380000Y-70540000D01*
D43*
X33500000Y-84000000D02*
X35280000Y-84000000D01*
D44*
X36500000Y-82780000D02*
X33939000Y-80219000D01*
X33939000Y-80219000D02*
X33939000Y-73099000D01*
D43*
X28468234Y-84000000D02*
X33500000Y-84000000D01*
D44*
%TO.N,OCD*%
X53659000Y-62979000D02*
X57300000Y-66620000D01*
X53659000Y-51076000D02*
X53659000Y-62979000D01*
X55195000Y-49540000D02*
X53659000Y-51076000D01*
%TO.N,OCD_STATUS*%
X52000000Y-26180000D02*
X52000000Y-63860000D01*
X52000000Y-63860000D02*
X54760000Y-66620000D01*
X54180000Y-24000000D02*
X52000000Y-26180000D01*
%TO.N,INT_INPUT*%
X49500000Y-57500000D02*
X50651000Y-58651000D01*
X50651000Y-63969000D02*
X49500000Y-65120000D01*
X49165000Y-66335000D02*
X49165000Y-69500000D01*
X49500000Y-36000000D02*
X49500000Y-57500000D01*
X49500000Y-66000000D02*
X49165000Y-66335000D01*
X49500000Y-65120000D02*
X49500000Y-66000000D01*
X59000000Y-31000000D02*
X60460000Y-31000000D01*
X50651000Y-58651000D02*
X50651000Y-63969000D01*
X60460000Y-31000000D02*
X63960000Y-27500000D01*
X49750000Y-35750000D02*
X49500000Y-36000000D01*
X45500000Y-57500000D02*
X49500000Y-57500000D01*
%TO.N,Net-(D9-A)*%
X85000000Y-61010000D02*
X82010000Y-61010000D01*
X85000000Y-60950000D02*
X89036667Y-60950000D01*
X89036667Y-60950000D02*
X91066667Y-58920000D01*
X90420000Y-58920000D02*
X88000000Y-56500000D01*
%TO.N,Net-(J11-Pin_1)*%
X93000000Y-16780000D02*
X98000000Y-16780000D01*
X86830000Y-15000000D02*
X91220000Y-15000000D01*
X91220000Y-15000000D02*
X93000000Y-16780000D01*
X85500000Y-16330000D02*
X86830000Y-15000000D01*
%TO.N,Net-(C10-Pad1)*%
X59000000Y-32500000D02*
X61500000Y-32500000D01*
X61500000Y-32500000D02*
X66500000Y-27500000D01*
%TO.N,Net-(J8-Pin_1)*%
X34960000Y-78000000D02*
X39500000Y-82540000D01*
X40280000Y-82780000D02*
X41000000Y-83500000D01*
X31380000Y-68000000D02*
X34960000Y-71580000D01*
X41000000Y-83500000D02*
X43000000Y-83500000D01*
X39500000Y-82780000D02*
X40280000Y-82780000D01*
X34960000Y-71580000D02*
X34960000Y-78000000D01*
%TO.N,Net-(D6-K)*%
X61420000Y-35120000D02*
X66040000Y-30500000D01*
X83854315Y-30500000D02*
X85145000Y-31790685D01*
X91505000Y-31830685D02*
X85185000Y-31830685D01*
X66040000Y-30500000D02*
X69000000Y-30500000D01*
X82500000Y-30500000D02*
X83854315Y-30500000D01*
%TO.N,Net-(D5-A)*%
X79500000Y-20955000D02*
X81000000Y-20955000D01*
X67000000Y-25460000D02*
X69040000Y-27500000D01*
X78590000Y-20045000D02*
X79500000Y-20955000D01*
X67450000Y-20045000D02*
X78590000Y-20045000D01*
X67000000Y-20495000D02*
X67000000Y-25460000D01*
D43*
%TO.N,Net-(D3-A)*%
X17500000Y-75720000D02*
X22740000Y-75720000D01*
X18928234Y-83428234D02*
X15849000Y-80349000D01*
X22500000Y-83428234D02*
X18928234Y-83428234D01*
X15849000Y-80349000D02*
X15849000Y-77371000D01*
X22740000Y-75720000D02*
X23460000Y-75000000D01*
X15849000Y-77371000D02*
X17500000Y-75720000D01*
D44*
%TO.N,Net-(D10-A)*%
X95505000Y-31830685D02*
X97733629Y-29602056D01*
X97733629Y-29602056D02*
X98790686Y-29602056D01*
%TO.N,Net-(Q1-B)*%
X95505000Y-29290685D02*
X95505000Y-26955000D01*
X96000000Y-26460000D02*
X94770000Y-25230000D01*
X95505000Y-26955000D02*
X96000000Y-26460000D01*
X94770000Y-25230000D02*
X92000000Y-25230000D01*
%TO.N,Net-(R1-Pad2)*%
X25995000Y-41460000D02*
X25995000Y-39785000D01*
X25995000Y-39785000D02*
X29245000Y-36535000D01*
%TO.N,Net-(R4-Pad2)*%
X17500000Y-35620000D02*
X17500000Y-42000000D01*
X17500000Y-42000000D02*
X19500000Y-44000000D01*
X21225000Y-31895000D02*
X17500000Y-35620000D01*
%TO.N,Net-(U3-Pad3)*%
X55195000Y-44460000D02*
X55195000Y-47000000D01*
%TO.N,Net-(U3-Pad6)*%
X57500000Y-43137950D02*
X65517950Y-35120000D01*
X65517950Y-35120000D02*
X66500000Y-35120000D01*
X57500000Y-51500000D02*
X57500000Y-43137950D01*
%TO.N,Net-(U3-Pad9)*%
X60500000Y-49765000D02*
X62815000Y-52080000D01*
X60500000Y-42000000D02*
X60500000Y-49765000D01*
%TO.N,Net-(U4-Pad4)*%
X58880000Y-27500000D02*
X61420000Y-27500000D01*
%TO.N,Net-(U2-R1)*%
X29245000Y-33995000D02*
X26445000Y-33995000D01*
X29245000Y-33995000D02*
X29245000Y-30705000D01*
X29245000Y-30705000D02*
X30095000Y-29855000D01*
%TO.N,Net-(U2-C1)*%
X30095000Y-22235000D02*
X30095000Y-15785000D01*
%TO.N,Net-(U2-C2)*%
X27555000Y-22235000D02*
X27555000Y-15745000D01*
%TO.N,Net-(D8-A)*%
X91066667Y-37000000D02*
X82081667Y-37000000D01*
%TO.N,Net-(C20-Pad2)*%
X85500000Y-18870000D02*
X83915000Y-18870000D01*
X83915000Y-18870000D02*
X81000000Y-15955000D01*
%TO.N,Net-(Q3-G)*%
X88000000Y-51500000D02*
X90856667Y-51500000D01*
D45*
%TO.N,Net-(Q2-D)*%
X91066667Y-46500000D02*
X104170000Y-46500000D01*
X104500000Y-39500000D02*
X104500000Y-46830000D01*
X91066667Y-39290000D02*
X104290000Y-39290000D01*
X104500000Y-46830000D02*
X105130000Y-47460000D01*
X104290000Y-39290000D02*
X104500000Y-39500000D01*
X104170000Y-46500000D02*
X104500000Y-46830000D01*
%TO.N,Net-(J12-Pin_1)*%
X109500000Y-39500000D02*
X109500000Y-45630000D01*
X107670000Y-52290000D02*
X107000000Y-52960000D01*
X109500000Y-45630000D02*
X107670000Y-47460000D01*
X107670000Y-47460000D02*
X107670000Y-52290000D01*
%TO.N,Net-(J12-Pin_2)*%
X105540000Y-59500000D02*
X100210000Y-59500000D01*
X98500000Y-58000000D02*
X106960000Y-58000000D01*
X101000000Y-56500000D02*
X98500000Y-54000000D01*
X107000000Y-58040000D02*
X105540000Y-59500000D01*
X107000000Y-58040000D02*
X105460000Y-56500000D01*
X91066667Y-61210000D02*
X98500000Y-61210000D01*
X105460000Y-56500000D02*
X101000000Y-56500000D01*
X91066667Y-54000000D02*
X98500000Y-54000000D01*
D44*
%TO.N,Net-(U2-R2)*%
X32745000Y-33995000D02*
X32745000Y-29965000D01*
%TO.N,Net-(R2-Pad2)*%
X32495000Y-41460000D02*
X32495000Y-36785000D01*
%TO.N,Net-(U2-PC1)*%
X38495000Y-23995000D02*
X21225000Y-23995000D01*
X40255000Y-22235000D02*
X38495000Y-23995000D01*
%TO.N,Net-(R15-Pad1)*%
X32010000Y-61990000D02*
X40140000Y-61990000D01*
X32420000Y-78000000D02*
X29500000Y-75080000D01*
X29500000Y-75080000D02*
X29500000Y-64500000D01*
X29500000Y-64500000D02*
X32010000Y-61990000D01*
%TO.N,Net-(U1-BAL)*%
X39000000Y-70540000D02*
X39000000Y-73080000D01*
%TO.N,Net-(C7-Pad2)*%
X21917500Y-65770000D02*
X21917500Y-69520000D01*
X21917500Y-69520000D02*
X24702500Y-69520000D01*
%TO.N,Net-(J3-Pin_2)*%
X24722500Y-64500000D02*
X27540000Y-61682500D01*
%TO.N,Net-(J5-Pin_1)*%
X57220000Y-15500000D02*
X56720000Y-15000000D01*
X59725000Y-15500000D02*
X57220000Y-15500000D01*
%TO.N,Net-(J5-Pin_5)*%
X59725000Y-20580000D02*
X57140000Y-20580000D01*
%TO.N,Net-(J5-Pin_3)*%
X59725000Y-18040000D02*
X56765000Y-18040000D01*
%TO.N,Net-(J5-Pin_7)*%
X58845000Y-24000000D02*
X56720000Y-24000000D01*
X59725000Y-23120000D02*
X58845000Y-24000000D01*
%TD*%
M02*
