%TF.GenerationSoftware,KiCad,Pcbnew,9.0.1*%
%TF.CreationDate,2025-05-04T12:18:18+03:30*%
%TF.ProjectId,sstc-v3,73737463-2d76-4332-9e6b-696361645f70,rev?*%
%TF.SameCoordinates,Original*%
%TF.FileFunction,Soldermask,Top*%
%TF.FilePolarity,Negative*%
%FSLAX46Y46*%
G04 Gerber Fmt 4.6, Leading zero omitted, Abs format (unit mm)*
G04 Created by KiCad (PCBNEW 9.0.1) date 2025-05-04 12:18:18*
%MOMM*%
%LPD*%
G01*
G04 APERTURE LIST*
G04 Aperture macros list*
%AMRoundRect*
0 Rectangle with rounded corners*
0 $1 Rounding radius*
0 $2 $3 $4 $5 $6 $7 $8 $9 X,Y pos of 4 corners*
0 Add a 4 corners polygon primitive as box body*
4,1,4,$2,$3,$4,$5,$6,$7,$8,$9,$2,$3,0*
0 Add four circle primitives for the rounded corners*
1,1,$1+$1,$2,$3*
1,1,$1+$1,$4,$5*
1,1,$1+$1,$6,$7*
1,1,$1+$1,$8,$9*
0 Add four rect primitives between the rounded corners*
20,1,$1+$1,$2,$3,$4,$5,0*
20,1,$1+$1,$4,$5,$6,$7,0*
20,1,$1+$1,$6,$7,$8,$9,0*
20,1,$1+$1,$8,$9,$2,$3,0*%
G04 Aperture macros list end*
%ADD10R,1.600000X1.600000*%
%ADD11O,1.600000X1.600000*%
%ADD12C,1.600000*%
%ADD13R,3.000000X3.000000*%
%ADD14C,3.000000*%
%ADD15R,2.000000X2.000000*%
%ADD16C,2.000000*%
%ADD17RoundRect,0.250000X-0.550000X0.550000X-0.550000X-0.550000X0.550000X-0.550000X0.550000X0.550000X0*%
%ADD18R,3.500000X3.500000*%
%ADD19RoundRect,0.750000X1.000000X-0.750000X1.000000X0.750000X-1.000000X0.750000X-1.000000X-0.750000X0*%
%ADD20RoundRect,0.875000X0.875000X-0.875000X0.875000X0.875000X-0.875000X0.875000X-0.875000X-0.875000X0*%
%ADD21C,3.600000*%
%ADD22C,5.600000*%
%ADD23RoundRect,0.250000X0.600000X0.750000X-0.600000X0.750000X-0.600000X-0.750000X0.600000X-0.750000X0*%
%ADD24O,1.700000X2.000000*%
%ADD25RoundRect,0.250000X-0.750000X0.600000X-0.750000X-0.600000X0.750000X-0.600000X0.750000X0.600000X0*%
%ADD26O,2.000000X1.700000*%
%ADD27RoundRect,0.250000X-0.550000X-0.550000X0.550000X-0.550000X0.550000X0.550000X-0.550000X0.550000X0*%
%ADD28R,2.200000X2.200000*%
%ADD29O,2.200000X2.200000*%
%ADD30R,1.700000X1.700000*%
%ADD31C,1.700000*%
%ADD32RoundRect,0.250000X-0.600000X-0.750000X0.600000X-0.750000X0.600000X0.750000X-0.600000X0.750000X0*%
%ADD33R,1.800000X1.717500*%
%ADD34R,6.200000X5.700000*%
%ADD35O,1.800000X1.717500*%
%ADD36C,1.440000*%
%ADD37R,1.500000X1.050000*%
%ADD38O,1.500000X1.050000*%
%ADD39R,1.905000X2.000000*%
%ADD40O,1.905000X2.000000*%
G04 APERTURE END LIST*
D10*
%TO.C,D10*%
X101330686Y-29602056D03*
D11*
X98790686Y-29602056D03*
%TD*%
D12*
%TO.C,R24*%
X91505000Y-31830685D03*
D11*
X91505000Y-29290685D03*
%TD*%
D13*
%TO.C,J13*%
X107000000Y-72500000D03*
D14*
X107000000Y-77580000D03*
%TD*%
D12*
%TO.C,R8*%
X33500000Y-84000000D03*
D11*
X33500000Y-86540000D03*
%TD*%
D12*
%TO.C,C30*%
X88000000Y-64000000D03*
X88000000Y-59000000D03*
%TD*%
D15*
%TO.C,C16*%
X62000000Y-74000000D03*
D16*
X67000000Y-74000000D03*
%TD*%
D12*
%TO.C,C9*%
X46495000Y-31000000D03*
X46495000Y-26000000D03*
%TD*%
%TO.C,C4*%
X30095000Y-19040000D03*
X27595000Y-19040000D03*
%TD*%
%TO.C,R23*%
X82000000Y-63540000D03*
D11*
X82000000Y-61000000D03*
%TD*%
D12*
%TO.C,R18*%
X85395000Y-23915000D03*
D11*
X87935000Y-23915000D03*
%TD*%
D12*
%TO.C,C17*%
X72840000Y-28120000D03*
X72840000Y-33120000D03*
%TD*%
%TO.C,C7*%
X24722500Y-64500000D03*
X24722500Y-69500000D03*
%TD*%
D17*
%TO.C,U2*%
X42795000Y-22235000D03*
D12*
X40255000Y-22235000D03*
X37715000Y-22235000D03*
X35175000Y-22235000D03*
X32635000Y-22235000D03*
X30095000Y-22235000D03*
X27555000Y-22235000D03*
X25015000Y-22235000D03*
X25015000Y-29855000D03*
X27555000Y-29855000D03*
X30095000Y-29855000D03*
X32635000Y-29855000D03*
X35175000Y-29855000D03*
X37715000Y-29855000D03*
X40255000Y-29855000D03*
X42795000Y-29855000D03*
%TD*%
%TO.C,C18*%
X88066667Y-36800000D03*
X88066667Y-41800000D03*
%TD*%
%TO.C,C25*%
X88000000Y-56500000D03*
X88000000Y-51500000D03*
%TD*%
D18*
%TO.C,J14*%
X96042500Y-78000000D03*
D19*
X96042500Y-84000000D03*
D20*
X100742500Y-81000000D03*
%TD*%
D21*
%TO.C,H2*%
X17000000Y-87000000D03*
D22*
X17000000Y-87000000D03*
%TD*%
D12*
%TO.C,R6*%
X19377500Y-65770000D03*
D11*
X21917500Y-65770000D03*
%TD*%
D12*
%TO.C,R1*%
X29245000Y-33995000D03*
D11*
X29245000Y-36535000D03*
%TD*%
D12*
%TO.C,C15*%
X47000000Y-72000000D03*
X52000000Y-72000000D03*
%TD*%
D23*
%TO.C,J11*%
X93000000Y-16780000D03*
D24*
X90500000Y-16780000D03*
%TD*%
D25*
%TO.C,J4*%
X17500000Y-75720000D03*
D26*
X17500000Y-78220000D03*
%TD*%
D27*
%TO.C,U6*%
X71695000Y-44190000D03*
D12*
X71695000Y-46730000D03*
X71695000Y-49270000D03*
X71695000Y-51810000D03*
X79315000Y-51810000D03*
X79315000Y-49270000D03*
X79315000Y-46730000D03*
X79315000Y-44190000D03*
%TD*%
D28*
%TO.C,D3*%
X22500000Y-85968234D03*
D29*
X22500000Y-83428234D03*
%TD*%
D15*
%TO.C,C29*%
X84132323Y-74000000D03*
D16*
X89132323Y-74000000D03*
%TD*%
D12*
%TO.C,C31*%
X104500000Y-43500000D03*
X109500000Y-43500000D03*
%TD*%
%TO.C,C24*%
X73500000Y-61620000D03*
X73500000Y-66620000D03*
%TD*%
%TO.C,R10*%
X54180000Y-21000000D03*
D11*
X56720000Y-21000000D03*
%TD*%
D28*
%TO.C,D1*%
X26500000Y-85968234D03*
D29*
X26500000Y-83428234D03*
%TD*%
D30*
%TO.C,J7*%
X49500000Y-57500000D03*
D31*
X49500000Y-60040000D03*
X49500000Y-62580000D03*
X49500000Y-65120000D03*
%TD*%
D32*
%TO.C,J10*%
X85000000Y-87975000D03*
D24*
X87500000Y-87975000D03*
%TD*%
D12*
%TO.C,R17*%
X55000000Y-73045000D03*
D11*
X55000000Y-70505000D03*
%TD*%
D13*
%TO.C,J12*%
X107000000Y-52960000D03*
D14*
X107000000Y-58040000D03*
%TD*%
D28*
%TO.C,D2*%
X23460000Y-79000000D03*
D29*
X26000000Y-79000000D03*
%TD*%
D12*
%TO.C,C26*%
X73000000Y-55000000D03*
X78000000Y-55000000D03*
%TD*%
D30*
%TO.C,J9*%
X66815000Y-47420000D03*
D31*
X66815000Y-49960000D03*
X66815000Y-52500000D03*
%TD*%
D12*
%TO.C,R27*%
X96000000Y-26460000D03*
D11*
X96000000Y-23920000D03*
%TD*%
D12*
%TO.C,R14*%
X54180000Y-24000000D03*
D11*
X56720000Y-24000000D03*
%TD*%
D33*
%TO.C,Q2*%
X91066667Y-37000000D03*
D34*
X98500000Y-39290000D03*
D35*
X91066667Y-39290000D03*
X91066667Y-41580000D03*
%TD*%
D12*
%TO.C,R22*%
X81881667Y-39340000D03*
D11*
X81881667Y-36800000D03*
%TD*%
D17*
%TO.C,U5*%
X70000000Y-59000000D03*
D12*
X67460000Y-59000000D03*
X64920000Y-59000000D03*
X62380000Y-59000000D03*
X59840000Y-59000000D03*
X57300000Y-59000000D03*
X54760000Y-59000000D03*
X54760000Y-66620000D03*
X57300000Y-66620000D03*
X59840000Y-66620000D03*
X62380000Y-66620000D03*
X64920000Y-66620000D03*
X67460000Y-66620000D03*
X70000000Y-66620000D03*
%TD*%
%TO.C,C19*%
X65815000Y-38000000D03*
X65815000Y-43000000D03*
%TD*%
%TO.C,C11*%
X38265000Y-41040000D03*
X43265000Y-41040000D03*
%TD*%
D10*
%TO.C,D8*%
X84881667Y-39651371D03*
D11*
X84881667Y-37111371D03*
%TD*%
D30*
%TO.C,J6*%
X42225000Y-57500000D03*
D31*
X44765000Y-57500000D03*
%TD*%
D12*
%TO.C,R9*%
X42815000Y-34040000D03*
D11*
X40275000Y-34040000D03*
%TD*%
D12*
%TO.C,R5*%
X19377500Y-69520000D03*
D11*
X21917500Y-69520000D03*
%TD*%
D12*
%TO.C,C8*%
X46495000Y-33550000D03*
X46495000Y-38550000D03*
%TD*%
%TO.C,R13*%
X54180000Y-15000000D03*
D11*
X56720000Y-15000000D03*
%TD*%
D10*
%TO.C,D9*%
X85000000Y-63425686D03*
D11*
X85000000Y-60885686D03*
%TD*%
D21*
%TO.C,H1*%
X17000000Y-17000000D03*
D22*
X17000000Y-17000000D03*
%TD*%
D12*
%TO.C,C5*%
X19222500Y-60020000D03*
X19222500Y-62520000D03*
%TD*%
%TO.C,R20*%
X67000000Y-17955000D03*
D11*
X67000000Y-20495000D03*
%TD*%
D12*
%TO.C,C3*%
X17995000Y-29235000D03*
X17995000Y-24235000D03*
%TD*%
%TO.C,R19*%
X85500000Y-18870000D03*
D11*
X85500000Y-16330000D03*
%TD*%
D12*
%TO.C,R2*%
X32745000Y-33995000D03*
D11*
X32745000Y-36535000D03*
%TD*%
D10*
%TO.C,D7*%
X76500000Y-20356371D03*
D11*
X76500000Y-17816371D03*
%TD*%
D12*
%TO.C,C20*%
X81000000Y-20955000D03*
X81000000Y-15955000D03*
%TD*%
%TO.C,R21*%
X73000000Y-20045000D03*
D11*
X73000000Y-17505000D03*
%TD*%
D27*
%TO.C,U3*%
X55195000Y-39380000D03*
D12*
X55195000Y-41920000D03*
X55195000Y-44460000D03*
X55195000Y-47000000D03*
X55195000Y-49540000D03*
X55195000Y-52080000D03*
X55195000Y-54620000D03*
X62815000Y-54620000D03*
X62815000Y-52080000D03*
X62815000Y-49540000D03*
X62815000Y-47000000D03*
X62815000Y-44460000D03*
X62815000Y-41920000D03*
X62815000Y-39380000D03*
%TD*%
%TO.C,R26*%
X98000000Y-16780000D03*
D11*
X98000000Y-19320000D03*
%TD*%
D12*
%TO.C,R4*%
X21225000Y-29355000D03*
D11*
X21225000Y-31895000D03*
%TD*%
D27*
%TO.C,U1*%
X31380000Y-65460000D03*
D12*
X31380000Y-68000000D03*
X31380000Y-70540000D03*
X31380000Y-73080000D03*
X39000000Y-73080000D03*
X39000000Y-70540000D03*
X39000000Y-68000000D03*
X39000000Y-65460000D03*
%TD*%
%TO.C,R12*%
X40725000Y-37540000D03*
D11*
X43265000Y-37540000D03*
%TD*%
D17*
%TO.C,U4*%
X69040000Y-27500000D03*
D12*
X66500000Y-27500000D03*
X63960000Y-27500000D03*
X61420000Y-27500000D03*
X58880000Y-27500000D03*
X56340000Y-27500000D03*
X53800000Y-27500000D03*
X53800000Y-35120000D03*
X56340000Y-35120000D03*
X58880000Y-35120000D03*
X61420000Y-35120000D03*
X63960000Y-35120000D03*
X66500000Y-35120000D03*
X69040000Y-35120000D03*
%TD*%
D36*
%TO.C,RV2*%
X25995000Y-41460000D03*
X25995000Y-44000000D03*
X25995000Y-46540000D03*
%TD*%
D12*
%TO.C,R28*%
X105130000Y-47460000D03*
D11*
X107670000Y-47460000D03*
%TD*%
D33*
%TO.C,Q5*%
X91066667Y-44210000D03*
D34*
X98500000Y-46500000D03*
D35*
X91066667Y-46500000D03*
X91066667Y-48790000D03*
%TD*%
D12*
%TO.C,R25*%
X95505000Y-31830685D03*
D11*
X95505000Y-29290685D03*
%TD*%
D12*
%TO.C,R16*%
X49165000Y-69000000D03*
D11*
X51705000Y-69000000D03*
%TD*%
D12*
%TO.C,C10*%
X43265000Y-44540000D03*
X38265000Y-44540000D03*
%TD*%
%TO.C,C13*%
X61000000Y-81500000D03*
X66000000Y-81500000D03*
%TD*%
D33*
%TO.C,Q4*%
X91066667Y-58920000D03*
D34*
X98500000Y-61210000D03*
D35*
X91066667Y-61210000D03*
X91066667Y-63500000D03*
%TD*%
D12*
%TO.C,C2*%
X30045000Y-15735000D03*
X27545000Y-15735000D03*
%TD*%
%TO.C,C12*%
X42185000Y-69990000D03*
X42185000Y-64990000D03*
%TD*%
D21*
%TO.C,H3*%
X107000000Y-17000000D03*
D22*
X107000000Y-17000000D03*
%TD*%
D10*
%TO.C,D6*%
X88195000Y-32142056D03*
D11*
X88195000Y-29602056D03*
%TD*%
D12*
%TO.C,C22*%
X88000000Y-44000000D03*
X88000000Y-49000000D03*
%TD*%
D28*
%TO.C,D4*%
X23460000Y-75000000D03*
D29*
X26000000Y-75000000D03*
%TD*%
D12*
%TO.C,C1*%
X25995000Y-33545000D03*
X25995000Y-36045000D03*
%TD*%
D30*
%TO.C,J8*%
X43000000Y-83500000D03*
%TD*%
D12*
%TO.C,R15*%
X40140000Y-61990000D03*
D11*
X42680000Y-61990000D03*
%TD*%
D12*
%TO.C,R11*%
X54185000Y-18000000D03*
D11*
X56725000Y-18000000D03*
%TD*%
D15*
%TO.C,C27*%
X78000000Y-74000000D03*
D16*
X73000000Y-74000000D03*
%TD*%
D36*
%TO.C,RV1*%
X19500000Y-41460000D03*
X19500000Y-44000000D03*
X19500000Y-46540000D03*
%TD*%
D37*
%TO.C,Q1*%
X92000000Y-26500000D03*
D38*
X92000000Y-25230000D03*
X92000000Y-23960000D03*
%TD*%
D30*
%TO.C,J3*%
X25000000Y-61305000D03*
D31*
X27540000Y-61305000D03*
%TD*%
D12*
%TO.C,C6*%
X36500000Y-82780000D03*
X36500000Y-87780000D03*
%TD*%
D10*
%TO.C,D5*%
X70000000Y-17505000D03*
D11*
X70000000Y-20045000D03*
%TD*%
D33*
%TO.C,Q3*%
X91066667Y-51710000D03*
D34*
X98500000Y-54000000D03*
D35*
X91066667Y-54000000D03*
X91066667Y-56290000D03*
%TD*%
D36*
%TO.C,RV4*%
X37500000Y-78000000D03*
X34960000Y-78000000D03*
X32420000Y-78000000D03*
%TD*%
D39*
%TO.C,U7*%
X66040000Y-85055000D03*
D40*
X63500000Y-85055000D03*
X60960000Y-85055000D03*
%TD*%
D12*
%TO.C,C23*%
X73000000Y-38500000D03*
X78000000Y-38500000D03*
%TD*%
D39*
%TO.C,U8*%
X77500000Y-85000000D03*
D40*
X74960000Y-85000000D03*
X72420000Y-85000000D03*
%TD*%
D10*
%TO.C,D11*%
X93880000Y-68000000D03*
D11*
X93880000Y-73080000D03*
X101500000Y-73080000D03*
X101500000Y-68000000D03*
%TD*%
D12*
%TO.C,C28*%
X72500000Y-81500000D03*
X77500000Y-81500000D03*
%TD*%
D21*
%TO.C,H4*%
X107000000Y-87000000D03*
D22*
X107000000Y-87000000D03*
%TD*%
D30*
%TO.C,J1*%
X35775000Y-19000000D03*
D31*
X33235000Y-19000000D03*
%TD*%
D12*
%TO.C,C32*%
X104500000Y-39500000D03*
X109500000Y-39500000D03*
%TD*%
%TO.C,R3*%
X21225000Y-23995000D03*
D11*
X21225000Y-26535000D03*
%TD*%
D12*
%TO.C,R7*%
X30500000Y-84000000D03*
D11*
X30500000Y-86540000D03*
%TD*%
D36*
%TO.C,RV3*%
X32495000Y-41460000D03*
X32495000Y-44000000D03*
X32495000Y-46540000D03*
%TD*%
D12*
%TO.C,C21*%
X85145000Y-31790685D03*
X85145000Y-26790685D03*
%TD*%
D30*
%TO.C,J5*%
X59725000Y-15500000D03*
D31*
X62265000Y-15500000D03*
X59725000Y-18040000D03*
X62265000Y-18040000D03*
X59725000Y-20580000D03*
X62265000Y-20580000D03*
X59725000Y-23120000D03*
X62265000Y-23120000D03*
%TD*%
D30*
%TO.C,J2*%
X15797500Y-54920000D03*
D31*
X15797500Y-57460000D03*
X15797500Y-60000000D03*
X15797500Y-62540000D03*
X15797500Y-65080000D03*
X15797500Y-67620000D03*
%TD*%
D12*
%TO.C,C14*%
X39500000Y-87780000D03*
X39500000Y-82780000D03*
%TD*%
M02*
