%TF.GenerationSoftware,KiCad,Pcbnew,9.0.1*%
%TF.CreationDate,2025-05-04T12:18:20+03:30*%
%TF.ProjectId,sstc-v3,73737463-2d76-4332-9e6b-696361645f70,rev?*%
%TF.SameCoordinates,Original*%
%TF.FileFunction,Drillmap*%
%TF.FilePolarity,Positive*%
%FSLAX45Y45*%
G04 Gerber Fmt 4.5, Leading zero omitted, Abs format (unit mm)*
G04 Created by KiCad (PCBNEW 9.0.1) date 2025-05-04 12:18:20*
%MOMM*%
%LPD*%
G01*
G04 APERTURE LIST*
%ADD10C,0.050000*%
%ADD11C,0.200000*%
%ADD12C,0.100000*%
%ADD13C,0.110000*%
%ADD14C,0.152000*%
%ADD15C,0.320000*%
G04 APERTURE END LIST*
D10*
X10700000Y-9200000D02*
X1700000Y-9200000D01*
X1200000Y-8700000D02*
X1200000Y-1700000D01*
X1700000Y-1200000D02*
X10700000Y-1200000D01*
X10700000Y-1200000D02*
G75*
G02*
X11200000Y-1700000I0J-500000D01*
G01*
X1200000Y-1700000D02*
G75*
G02*
X1700000Y-1200000I500000J0D01*
G01*
X1700000Y-9200000D02*
G75*
G02*
X1200000Y-8700000I0J500000D01*
G01*
X11200000Y-1700000D02*
X11200000Y-8700000D01*
X11200000Y-8700000D02*
G75*
G02*
X10700000Y-9200000I-500000J0D01*
G01*
D11*
D12*
X4950000Y-3550000D02*
X5000000Y-3600000D01*
X5000000Y-3550000D02*
X4950000Y-3600000D01*
X5609000Y-3184900D02*
X5659000Y-3234900D01*
X5659000Y-3184900D02*
X5609000Y-3234900D01*
X5725000Y-4125000D02*
X5775000Y-4175000D01*
X5775000Y-4125000D02*
X5725000Y-4175000D01*
X5725000Y-5125000D02*
X5775000Y-5175000D01*
X5775000Y-5125000D02*
X5725000Y-5175000D01*
X5875000Y-3075000D02*
X5925000Y-3125000D01*
X5925000Y-3075000D02*
X5875000Y-3125000D01*
X5875000Y-3225000D02*
X5925000Y-3275000D01*
X5925000Y-3225000D02*
X5875000Y-3275000D01*
X6025000Y-4175000D02*
X6075000Y-4225000D01*
X6075000Y-4175000D02*
X6025000Y-4225000D01*
X6875000Y-3025000D02*
X6925000Y-3075000D01*
X6925000Y-3025000D02*
X6875000Y-3075000D01*
X6875000Y-3125000D02*
X6925000Y-3175000D01*
X6925000Y-3125000D02*
X6875000Y-3175000D01*
X7475000Y-3375000D02*
X7525000Y-3425000D01*
X7525000Y-3375000D02*
X7475000Y-3425000D01*
X8225000Y-3025000D02*
X8275000Y-3075000D01*
X8275000Y-3025000D02*
X8225000Y-3075000D01*
X9237500Y-2396000D02*
G75*
G02*
X9162500Y-2396000I-37500J0D01*
G01*
X9162500Y-2396000D02*
G75*
G02*
X9237500Y-2396000I37500J0D01*
G01*
X9237500Y-2523000D02*
G75*
G02*
X9162500Y-2523000I-37500J0D01*
G01*
X9162500Y-2523000D02*
G75*
G02*
X9237500Y-2523000I37500J0D01*
G01*
X9237500Y-2650000D02*
G75*
G02*
X9162500Y-2650000I-37500J0D01*
G01*
X9162500Y-2650000D02*
G75*
G02*
X9237500Y-2650000I37500J0D01*
G01*
X1799500Y-2383500D02*
X1799500Y-2463500D01*
X1759500Y-2423500D02*
X1839500Y-2423500D01*
X1799500Y-2883500D02*
X1799500Y-2963500D01*
X1759500Y-2923500D02*
X1839500Y-2923500D01*
X1922250Y-5962000D02*
X1922250Y-6042000D01*
X1882250Y-6002000D02*
X1962250Y-6002000D01*
X1922250Y-6212000D02*
X1922250Y-6292000D01*
X1882250Y-6252000D02*
X1962250Y-6252000D01*
X1937750Y-6537000D02*
X1937750Y-6617000D01*
X1897750Y-6577000D02*
X1977750Y-6577000D01*
X1937750Y-6912000D02*
X1937750Y-6992000D01*
X1897750Y-6952000D02*
X1977750Y-6952000D01*
X1950000Y-4106000D02*
X1950000Y-4186000D01*
X1910000Y-4146000D02*
X1990000Y-4146000D01*
X1950000Y-4360000D02*
X1950000Y-4440000D01*
X1910000Y-4400000D02*
X1990000Y-4400000D01*
X1950000Y-4614000D02*
X1950000Y-4694000D01*
X1910000Y-4654000D02*
X1990000Y-4654000D01*
X2122500Y-2359500D02*
X2122500Y-2439500D01*
X2082500Y-2399500D02*
X2162500Y-2399500D01*
X2122500Y-2613500D02*
X2122500Y-2693500D01*
X2082500Y-2653500D02*
X2162500Y-2653500D01*
X2122500Y-2895500D02*
X2122500Y-2975500D01*
X2082500Y-2935500D02*
X2162500Y-2935500D01*
X2122500Y-3149500D02*
X2122500Y-3229500D01*
X2082500Y-3189500D02*
X2162500Y-3189500D01*
X2191750Y-6537000D02*
X2191750Y-6617000D01*
X2151750Y-6577000D02*
X2231750Y-6577000D01*
X2191750Y-6912000D02*
X2191750Y-6992000D01*
X2151750Y-6952000D02*
X2231750Y-6952000D01*
X2472250Y-6410000D02*
X2472250Y-6490000D01*
X2432250Y-6450000D02*
X2512250Y-6450000D01*
X2472250Y-6910000D02*
X2472250Y-6990000D01*
X2432250Y-6950000D02*
X2512250Y-6950000D01*
X2501500Y-2183500D02*
X2501500Y-2263500D01*
X2461500Y-2223500D02*
X2541500Y-2223500D01*
X2501500Y-2945500D02*
X2501500Y-3025500D01*
X2461500Y-2985500D02*
X2541500Y-2985500D01*
X2599500Y-3314500D02*
X2599500Y-3394500D01*
X2559500Y-3354500D02*
X2639500Y-3354500D01*
X2599500Y-3564500D02*
X2599500Y-3644500D01*
X2559500Y-3604500D02*
X2639500Y-3604500D01*
X2599500Y-4106000D02*
X2599500Y-4186000D01*
X2559500Y-4146000D02*
X2639500Y-4146000D01*
X2599500Y-4360000D02*
X2599500Y-4440000D01*
X2559500Y-4400000D02*
X2639500Y-4400000D01*
X2599500Y-4614000D02*
X2599500Y-4694000D01*
X2559500Y-4654000D02*
X2639500Y-4654000D01*
X2754500Y-1533500D02*
X2754500Y-1613500D01*
X2714500Y-1573500D02*
X2794500Y-1573500D01*
X2755500Y-2183500D02*
X2755500Y-2263500D01*
X2715500Y-2223500D02*
X2795500Y-2223500D01*
X2755500Y-2945500D02*
X2755500Y-3025500D01*
X2715500Y-2985500D02*
X2795500Y-2985500D01*
X2759500Y-1864000D02*
X2759500Y-1944000D01*
X2719500Y-1904000D02*
X2799500Y-1904000D01*
X2924500Y-3359500D02*
X2924500Y-3439500D01*
X2884500Y-3399500D02*
X2964500Y-3399500D01*
X2924500Y-3613500D02*
X2924500Y-3693500D01*
X2884500Y-3653500D02*
X2964500Y-3653500D01*
X3004500Y-1533500D02*
X3004500Y-1613500D01*
X2964500Y-1573500D02*
X3044500Y-1573500D01*
X3009500Y-1864000D02*
X3009500Y-1944000D01*
X2969500Y-1904000D02*
X3049500Y-1904000D01*
X3009500Y-2183500D02*
X3009500Y-2263500D01*
X2969500Y-2223500D02*
X3049500Y-2223500D01*
X3009500Y-2945500D02*
X3009500Y-3025500D01*
X2969500Y-2985500D02*
X3049500Y-2985500D01*
X3050000Y-8360000D02*
X3050000Y-8440000D01*
X3010000Y-8400000D02*
X3090000Y-8400000D01*
X3050000Y-8614000D02*
X3050000Y-8694000D01*
X3010000Y-8654000D02*
X3090000Y-8654000D01*
X3138000Y-6506000D02*
X3138000Y-6586000D01*
X3098000Y-6546000D02*
X3178000Y-6546000D01*
X3138000Y-6760000D02*
X3138000Y-6840000D01*
X3098000Y-6800000D02*
X3178000Y-6800000D01*
X3138000Y-7014000D02*
X3138000Y-7094000D01*
X3098000Y-7054000D02*
X3178000Y-7054000D01*
X3138000Y-7268000D02*
X3138000Y-7348000D01*
X3098000Y-7308000D02*
X3178000Y-7308000D01*
X3242000Y-7760000D02*
X3242000Y-7840000D01*
X3202000Y-7800000D02*
X3282000Y-7800000D01*
X3249500Y-4106000D02*
X3249500Y-4186000D01*
X3209500Y-4146000D02*
X3289500Y-4146000D01*
X3249500Y-4360000D02*
X3249500Y-4440000D01*
X3209500Y-4400000D02*
X3289500Y-4400000D01*
X3249500Y-4614000D02*
X3249500Y-4694000D01*
X3209500Y-4654000D02*
X3289500Y-4654000D01*
X3263500Y-2183500D02*
X3263500Y-2263500D01*
X3223500Y-2223500D02*
X3303500Y-2223500D01*
X3263500Y-2945500D02*
X3263500Y-3025500D01*
X3223500Y-2985500D02*
X3303500Y-2985500D01*
X3274500Y-3359500D02*
X3274500Y-3439500D01*
X3234500Y-3399500D02*
X3314500Y-3399500D01*
X3274500Y-3613500D02*
X3274500Y-3693500D01*
X3234500Y-3653500D02*
X3314500Y-3653500D01*
X3350000Y-8360000D02*
X3350000Y-8440000D01*
X3310000Y-8400000D02*
X3390000Y-8400000D01*
X3350000Y-8614000D02*
X3350000Y-8694000D01*
X3310000Y-8654000D02*
X3390000Y-8654000D01*
X3496000Y-7760000D02*
X3496000Y-7840000D01*
X3456000Y-7800000D02*
X3536000Y-7800000D01*
X3517500Y-2183500D02*
X3517500Y-2263500D01*
X3477500Y-2223500D02*
X3557500Y-2223500D01*
X3517500Y-2945500D02*
X3517500Y-3025500D01*
X3477500Y-2985500D02*
X3557500Y-2985500D01*
X3650000Y-8238000D02*
X3650000Y-8318000D01*
X3610000Y-8278000D02*
X3690000Y-8278000D01*
X3650000Y-8738000D02*
X3650000Y-8818000D01*
X3610000Y-8778000D02*
X3690000Y-8778000D01*
X3750000Y-7760000D02*
X3750000Y-7840000D01*
X3710000Y-7800000D02*
X3790000Y-7800000D01*
X3771500Y-2183500D02*
X3771500Y-2263500D01*
X3731500Y-2223500D02*
X3811500Y-2223500D01*
X3771500Y-2945500D02*
X3771500Y-3025500D01*
X3731500Y-2985500D02*
X3811500Y-2985500D01*
X3826500Y-4064000D02*
X3826500Y-4144000D01*
X3786500Y-4104000D02*
X3866500Y-4104000D01*
X3826500Y-4414000D02*
X3826500Y-4494000D01*
X3786500Y-4454000D02*
X3866500Y-4454000D01*
X3900000Y-6506000D02*
X3900000Y-6586000D01*
X3860000Y-6546000D02*
X3940000Y-6546000D01*
X3900000Y-6760000D02*
X3900000Y-6840000D01*
X3860000Y-6800000D02*
X3940000Y-6800000D01*
X3900000Y-7014000D02*
X3900000Y-7094000D01*
X3860000Y-7054000D02*
X3940000Y-7054000D01*
X3900000Y-7268000D02*
X3900000Y-7348000D01*
X3860000Y-7308000D02*
X3940000Y-7308000D01*
X3950000Y-8238000D02*
X3950000Y-8318000D01*
X3910000Y-8278000D02*
X3990000Y-8278000D01*
X3950000Y-8738000D02*
X3950000Y-8818000D01*
X3910000Y-8778000D02*
X3990000Y-8778000D01*
X4014000Y-6159000D02*
X4014000Y-6239000D01*
X3974000Y-6199000D02*
X4054000Y-6199000D01*
X4025500Y-2183500D02*
X4025500Y-2263500D01*
X3985500Y-2223500D02*
X4065500Y-2223500D01*
X4025500Y-2945500D02*
X4025500Y-3025500D01*
X3985500Y-2985500D02*
X4065500Y-2985500D01*
X4027500Y-3364000D02*
X4027500Y-3444000D01*
X3987500Y-3404000D02*
X4067500Y-3404000D01*
X4072500Y-3714000D02*
X4072500Y-3794000D01*
X4032500Y-3754000D02*
X4112500Y-3754000D01*
X4218500Y-6459000D02*
X4218500Y-6539000D01*
X4178500Y-6499000D02*
X4258500Y-6499000D01*
X4218500Y-6959000D02*
X4218500Y-7039000D01*
X4178500Y-6999000D02*
X4258500Y-6999000D01*
X4268000Y-6159000D02*
X4268000Y-6239000D01*
X4228000Y-6199000D02*
X4308000Y-6199000D01*
X4279500Y-2183500D02*
X4279500Y-2263500D01*
X4239500Y-2223500D02*
X4319500Y-2223500D01*
X4279500Y-2945500D02*
X4279500Y-3025500D01*
X4239500Y-2985500D02*
X4319500Y-2985500D01*
X4281500Y-3364000D02*
X4281500Y-3444000D01*
X4241500Y-3404000D02*
X4321500Y-3404000D01*
X4326500Y-3714000D02*
X4326500Y-3794000D01*
X4286500Y-3754000D02*
X4366500Y-3754000D01*
X4326500Y-4064000D02*
X4326500Y-4144000D01*
X4286500Y-4104000D02*
X4366500Y-4104000D01*
X4326500Y-4414000D02*
X4326500Y-4494000D01*
X4286500Y-4454000D02*
X4366500Y-4454000D01*
X4649500Y-2560000D02*
X4649500Y-2640000D01*
X4609500Y-2600000D02*
X4689500Y-2600000D01*
X4649500Y-3060000D02*
X4649500Y-3140000D01*
X4609500Y-3100000D02*
X4689500Y-3100000D01*
X4649500Y-3315000D02*
X4649500Y-3395000D01*
X4609500Y-3355000D02*
X4689500Y-3355000D01*
X4649500Y-3815000D02*
X4649500Y-3895000D01*
X4609500Y-3855000D02*
X4689500Y-3855000D01*
X4700000Y-7160000D02*
X4700000Y-7240000D01*
X4660000Y-7200000D02*
X4740000Y-7200000D01*
X4916500Y-6860000D02*
X4916500Y-6940000D01*
X4876500Y-6900000D02*
X4956500Y-6900000D01*
X5170500Y-6860000D02*
X5170500Y-6940000D01*
X5130500Y-6900000D02*
X5210500Y-6900000D01*
X5200000Y-7160000D02*
X5200000Y-7240000D01*
X5160000Y-7200000D02*
X5240000Y-7200000D01*
X5380000Y-2710000D02*
X5380000Y-2790000D01*
X5340000Y-2750000D02*
X5420000Y-2750000D01*
X5380000Y-3472000D02*
X5380000Y-3552000D01*
X5340000Y-3512000D02*
X5420000Y-3512000D01*
X5418000Y-1460000D02*
X5418000Y-1540000D01*
X5378000Y-1500000D02*
X5458000Y-1500000D01*
X5418000Y-2060000D02*
X5418000Y-2140000D01*
X5378000Y-2100000D02*
X5458000Y-2100000D01*
X5418000Y-2360000D02*
X5418000Y-2440000D01*
X5378000Y-2400000D02*
X5458000Y-2400000D01*
X5418500Y-1760000D02*
X5418500Y-1840000D01*
X5378500Y-1800000D02*
X5458500Y-1800000D01*
X5476000Y-5860000D02*
X5476000Y-5940000D01*
X5436000Y-5900000D02*
X5516000Y-5900000D01*
X5476000Y-6622000D02*
X5476000Y-6702000D01*
X5436000Y-6662000D02*
X5516000Y-6662000D01*
X5500000Y-7010500D02*
X5500000Y-7090500D01*
X5460000Y-7050500D02*
X5540000Y-7050500D01*
X5500000Y-7264500D02*
X5500000Y-7344500D01*
X5460000Y-7304500D02*
X5540000Y-7304500D01*
X5519500Y-3898000D02*
X5519500Y-3978000D01*
X5479500Y-3938000D02*
X5559500Y-3938000D01*
X5519500Y-4152000D02*
X5519500Y-4232000D01*
X5479500Y-4192000D02*
X5559500Y-4192000D01*
X5519500Y-4406000D02*
X5519500Y-4486000D01*
X5479500Y-4446000D02*
X5559500Y-4446000D01*
X5519500Y-4660000D02*
X5519500Y-4740000D01*
X5479500Y-4700000D02*
X5559500Y-4700000D01*
X5519500Y-4914000D02*
X5519500Y-4994000D01*
X5479500Y-4954000D02*
X5559500Y-4954000D01*
X5519500Y-5168000D02*
X5519500Y-5248000D01*
X5479500Y-5208000D02*
X5559500Y-5208000D01*
X5519500Y-5422000D02*
X5519500Y-5502000D01*
X5479500Y-5462000D02*
X5559500Y-5462000D01*
X5634000Y-2710000D02*
X5634000Y-2790000D01*
X5594000Y-2750000D02*
X5674000Y-2750000D01*
X5634000Y-3472000D02*
X5634000Y-3552000D01*
X5594000Y-3512000D02*
X5674000Y-3512000D01*
X5672000Y-1460000D02*
X5672000Y-1540000D01*
X5632000Y-1500000D02*
X5712000Y-1500000D01*
X5672000Y-2060000D02*
X5672000Y-2140000D01*
X5632000Y-2100000D02*
X5712000Y-2100000D01*
X5672000Y-2360000D02*
X5672000Y-2440000D01*
X5632000Y-2400000D02*
X5712000Y-2400000D01*
X5672500Y-1760000D02*
X5672500Y-1840000D01*
X5632500Y-1800000D02*
X5712500Y-1800000D01*
X5730000Y-5860000D02*
X5730000Y-5940000D01*
X5690000Y-5900000D02*
X5770000Y-5900000D01*
X5730000Y-6622000D02*
X5730000Y-6702000D01*
X5690000Y-6662000D02*
X5770000Y-6662000D01*
X5888000Y-2710000D02*
X5888000Y-2790000D01*
X5848000Y-2750000D02*
X5928000Y-2750000D01*
X5888000Y-3472000D02*
X5888000Y-3552000D01*
X5848000Y-3512000D02*
X5928000Y-3512000D01*
X5984000Y-5860000D02*
X5984000Y-5940000D01*
X5944000Y-5900000D02*
X6024000Y-5900000D01*
X5984000Y-6622000D02*
X5984000Y-6702000D01*
X5944000Y-6662000D02*
X6024000Y-6662000D01*
X6100000Y-8110000D02*
X6100000Y-8190000D01*
X6060000Y-8150000D02*
X6140000Y-8150000D01*
X6142000Y-2710000D02*
X6142000Y-2790000D01*
X6102000Y-2750000D02*
X6182000Y-2750000D01*
X6142000Y-3472000D02*
X6142000Y-3552000D01*
X6102000Y-3512000D02*
X6182000Y-3512000D01*
X6238000Y-5860000D02*
X6238000Y-5940000D01*
X6198000Y-5900000D02*
X6278000Y-5900000D01*
X6238000Y-6622000D02*
X6238000Y-6702000D01*
X6198000Y-6662000D02*
X6278000Y-6662000D01*
X6281500Y-3898000D02*
X6281500Y-3978000D01*
X6241500Y-3938000D02*
X6321500Y-3938000D01*
X6281500Y-4152000D02*
X6281500Y-4232000D01*
X6241500Y-4192000D02*
X6321500Y-4192000D01*
X6281500Y-4406000D02*
X6281500Y-4486000D01*
X6241500Y-4446000D02*
X6321500Y-4446000D01*
X6281500Y-4660000D02*
X6281500Y-4740000D01*
X6241500Y-4700000D02*
X6321500Y-4700000D01*
X6281500Y-4914000D02*
X6281500Y-4994000D01*
X6241500Y-4954000D02*
X6321500Y-4954000D01*
X6281500Y-5168000D02*
X6281500Y-5248000D01*
X6241500Y-5208000D02*
X6321500Y-5208000D01*
X6281500Y-5422000D02*
X6281500Y-5502000D01*
X6241500Y-5462000D02*
X6321500Y-5462000D01*
X6396000Y-2710000D02*
X6396000Y-2790000D01*
X6356000Y-2750000D02*
X6436000Y-2750000D01*
X6396000Y-3472000D02*
X6396000Y-3552000D01*
X6356000Y-3512000D02*
X6436000Y-3512000D01*
X6492000Y-5860000D02*
X6492000Y-5940000D01*
X6452000Y-5900000D02*
X6532000Y-5900000D01*
X6492000Y-6622000D02*
X6492000Y-6702000D01*
X6452000Y-6662000D02*
X6532000Y-6662000D01*
X6581500Y-3760000D02*
X6581500Y-3840000D01*
X6541500Y-3800000D02*
X6621500Y-3800000D01*
X6581500Y-4260000D02*
X6581500Y-4340000D01*
X6541500Y-4300000D02*
X6621500Y-4300000D01*
X6600000Y-8110000D02*
X6600000Y-8190000D01*
X6560000Y-8150000D02*
X6640000Y-8150000D01*
X6650000Y-2710000D02*
X6650000Y-2790000D01*
X6610000Y-2750000D02*
X6690000Y-2750000D01*
X6650000Y-3472000D02*
X6650000Y-3552000D01*
X6610000Y-3512000D02*
X6690000Y-3512000D01*
X6700000Y-1755500D02*
X6700000Y-1835500D01*
X6660000Y-1795500D02*
X6740000Y-1795500D01*
X6700000Y-2009500D02*
X6700000Y-2089500D01*
X6660000Y-2049500D02*
X6740000Y-2049500D01*
X6746000Y-5860000D02*
X6746000Y-5940000D01*
X6706000Y-5900000D02*
X6786000Y-5900000D01*
X6746000Y-6622000D02*
X6746000Y-6702000D01*
X6706000Y-6662000D02*
X6786000Y-6662000D01*
X6904000Y-2710000D02*
X6904000Y-2790000D01*
X6864000Y-2750000D02*
X6944000Y-2750000D01*
X6904000Y-3472000D02*
X6904000Y-3552000D01*
X6864000Y-3512000D02*
X6944000Y-3512000D01*
X7000000Y-1710500D02*
X7000000Y-1790500D01*
X6960000Y-1750500D02*
X7040000Y-1750500D01*
X7000000Y-1964500D02*
X7000000Y-2044500D01*
X6960000Y-2004500D02*
X7040000Y-2004500D01*
X7000000Y-5860000D02*
X7000000Y-5940000D01*
X6960000Y-5900000D02*
X7040000Y-5900000D01*
X7000000Y-6622000D02*
X7000000Y-6702000D01*
X6960000Y-6662000D02*
X7040000Y-6662000D01*
X7169500Y-4379000D02*
X7169500Y-4459000D01*
X7129500Y-4419000D02*
X7209500Y-4419000D01*
X7169500Y-4633000D02*
X7169500Y-4713000D01*
X7129500Y-4673000D02*
X7209500Y-4673000D01*
X7169500Y-4887000D02*
X7169500Y-4967000D01*
X7129500Y-4927000D02*
X7209500Y-4927000D01*
X7169500Y-5141000D02*
X7169500Y-5221000D01*
X7129500Y-5181000D02*
X7209500Y-5181000D01*
X7250000Y-8110000D02*
X7250000Y-8190000D01*
X7210000Y-8150000D02*
X7290000Y-8150000D01*
X7284000Y-2772000D02*
X7284000Y-2852000D01*
X7244000Y-2812000D02*
X7324000Y-2812000D01*
X7284000Y-3272000D02*
X7284000Y-3352000D01*
X7244000Y-3312000D02*
X7324000Y-3312000D01*
X7300000Y-1710500D02*
X7300000Y-1790500D01*
X7260000Y-1750500D02*
X7340000Y-1750500D01*
X7300000Y-1964500D02*
X7300000Y-2044500D01*
X7260000Y-2004500D02*
X7340000Y-2004500D01*
X7300000Y-3810000D02*
X7300000Y-3890000D01*
X7260000Y-3850000D02*
X7340000Y-3850000D01*
X7300000Y-5460000D02*
X7300000Y-5540000D01*
X7260000Y-5500000D02*
X7340000Y-5500000D01*
X7350000Y-6122000D02*
X7350000Y-6202000D01*
X7310000Y-6162000D02*
X7390000Y-6162000D01*
X7350000Y-6622000D02*
X7350000Y-6702000D01*
X7310000Y-6662000D02*
X7390000Y-6662000D01*
X7650000Y-1741637D02*
X7650000Y-1821637D01*
X7610000Y-1781637D02*
X7690000Y-1781637D01*
X7650000Y-1995637D02*
X7650000Y-2075637D01*
X7610000Y-2035637D02*
X7690000Y-2035637D01*
X7750000Y-8110000D02*
X7750000Y-8190000D01*
X7710000Y-8150000D02*
X7790000Y-8150000D01*
X7800000Y-3810000D02*
X7800000Y-3890000D01*
X7760000Y-3850000D02*
X7840000Y-3850000D01*
X7800000Y-5460000D02*
X7800000Y-5540000D01*
X7760000Y-5500000D02*
X7840000Y-5500000D01*
X7931500Y-4379000D02*
X7931500Y-4459000D01*
X7891500Y-4419000D02*
X7971500Y-4419000D01*
X7931500Y-4633000D02*
X7931500Y-4713000D01*
X7891500Y-4673000D02*
X7971500Y-4673000D01*
X7931500Y-4887000D02*
X7931500Y-4967000D01*
X7891500Y-4927000D02*
X7971500Y-4927000D01*
X7931500Y-5141000D02*
X7931500Y-5221000D01*
X7891500Y-5181000D02*
X7971500Y-5181000D01*
X8100000Y-1555500D02*
X8100000Y-1635500D01*
X8060000Y-1595500D02*
X8140000Y-1595500D01*
X8100000Y-2055500D02*
X8100000Y-2135500D01*
X8060000Y-2095500D02*
X8140000Y-2095500D01*
X8188167Y-3640000D02*
X8188167Y-3720000D01*
X8148167Y-3680000D02*
X8228167Y-3680000D01*
X8188167Y-3894000D02*
X8188167Y-3974000D01*
X8148167Y-3934000D02*
X8228167Y-3934000D01*
X8200000Y-6060000D02*
X8200000Y-6140000D01*
X8160000Y-6100000D02*
X8240000Y-6100000D01*
X8200000Y-6314000D02*
X8200000Y-6394000D01*
X8160000Y-6354000D02*
X8240000Y-6354000D01*
X8488167Y-3671137D02*
X8488167Y-3751137D01*
X8448167Y-3711137D02*
X8528167Y-3711137D01*
X8488167Y-3925137D02*
X8488167Y-4005137D01*
X8448167Y-3965137D02*
X8528167Y-3965137D01*
X8500000Y-6048569D02*
X8500000Y-6128569D01*
X8460000Y-6088569D02*
X8540000Y-6088569D01*
X8500000Y-6302569D02*
X8500000Y-6382569D01*
X8460000Y-6342569D02*
X8540000Y-6342569D01*
X8514500Y-2639069D02*
X8514500Y-2719069D01*
X8474500Y-2679069D02*
X8554500Y-2679069D01*
X8514500Y-3139068D02*
X8514500Y-3219068D01*
X8474500Y-3179068D02*
X8554500Y-3179068D01*
X8539500Y-2351500D02*
X8539500Y-2431500D01*
X8499500Y-2391500D02*
X8579500Y-2391500D01*
X8550000Y-1593000D02*
X8550000Y-1673000D01*
X8510000Y-1633000D02*
X8590000Y-1633000D01*
X8550000Y-1847000D02*
X8550000Y-1927000D01*
X8510000Y-1887000D02*
X8590000Y-1887000D01*
X8793500Y-2351500D02*
X8793500Y-2431500D01*
X8753500Y-2391500D02*
X8833500Y-2391500D01*
X8800000Y-4360000D02*
X8800000Y-4440000D01*
X8760000Y-4400000D02*
X8840000Y-4400000D01*
X8800000Y-4860000D02*
X8800000Y-4940000D01*
X8760000Y-4900000D02*
X8840000Y-4900000D01*
X8800000Y-5110000D02*
X8800000Y-5190000D01*
X8760000Y-5150000D02*
X8840000Y-5150000D01*
X8800000Y-5610000D02*
X8800000Y-5690000D01*
X8760000Y-5650000D02*
X8840000Y-5650000D01*
X8800000Y-5860000D02*
X8800000Y-5940000D01*
X8760000Y-5900000D02*
X8840000Y-5900000D01*
X8800000Y-6360000D02*
X8800000Y-6440000D01*
X8760000Y-6400000D02*
X8840000Y-6400000D01*
X8806667Y-3640000D02*
X8806667Y-3720000D01*
X8766667Y-3680000D02*
X8846667Y-3680000D01*
X8806667Y-4140000D02*
X8806667Y-4220000D01*
X8766667Y-4180000D02*
X8846667Y-4180000D01*
X8819500Y-2920206D02*
X8819500Y-3000206D01*
X8779500Y-2960206D02*
X8859500Y-2960206D01*
X8819500Y-3174206D02*
X8819500Y-3254206D01*
X8779500Y-3214206D02*
X8859500Y-3214206D01*
X9150500Y-2889068D02*
X9150500Y-2969068D01*
X9110500Y-2929068D02*
X9190500Y-2929068D01*
X9150500Y-3143068D02*
X9150500Y-3223068D01*
X9110500Y-3183068D02*
X9190500Y-3183068D01*
X9388000Y-6760000D02*
X9388000Y-6840000D01*
X9348000Y-6800000D02*
X9428000Y-6800000D01*
X9388000Y-7268000D02*
X9388000Y-7348000D01*
X9348000Y-7308000D02*
X9428000Y-7308000D01*
X9550500Y-2889068D02*
X9550500Y-2969068D01*
X9510500Y-2929068D02*
X9590500Y-2929068D01*
X9550500Y-3143068D02*
X9550500Y-3223068D01*
X9510500Y-3183068D02*
X9590500Y-3183068D01*
X9600000Y-2352000D02*
X9600000Y-2432000D01*
X9560000Y-2392000D02*
X9640000Y-2392000D01*
X9600000Y-2606000D02*
X9600000Y-2686000D01*
X9560000Y-2646000D02*
X9640000Y-2646000D01*
X9800000Y-1638000D02*
X9800000Y-1718000D01*
X9760000Y-1678000D02*
X9840000Y-1678000D01*
X9800000Y-1892000D02*
X9800000Y-1972000D01*
X9760000Y-1932000D02*
X9840000Y-1932000D01*
X9879069Y-2920206D02*
X9879069Y-3000206D01*
X9839069Y-2960206D02*
X9919069Y-2960206D01*
X10133069Y-2920206D02*
X10133069Y-3000206D01*
X10093069Y-2960206D02*
X10173069Y-2960206D01*
X10150000Y-6760000D02*
X10150000Y-6840000D01*
X10110000Y-6800000D02*
X10190000Y-6800000D01*
X10150000Y-7268000D02*
X10150000Y-7348000D01*
X10110000Y-7308000D02*
X10190000Y-7308000D01*
X10450000Y-3910000D02*
X10450000Y-3990000D01*
X10410000Y-3950000D02*
X10490000Y-3950000D01*
X10450000Y-4310000D02*
X10450000Y-4390000D01*
X10410000Y-4350000D02*
X10490000Y-4350000D01*
X10513000Y-4706000D02*
X10513000Y-4786000D01*
X10473000Y-4746000D02*
X10553000Y-4746000D01*
X10767000Y-4706000D02*
X10767000Y-4786000D01*
X10727000Y-4746000D02*
X10807000Y-4746000D01*
X10950000Y-3910000D02*
X10950000Y-3990000D01*
X10910000Y-3950000D02*
X10990000Y-3950000D01*
X10950000Y-4310000D02*
X10950000Y-4390000D01*
X10910000Y-4350000D02*
X10990000Y-4350000D01*
X1615106Y-5527356D02*
X1615106Y-5456644D01*
X1544394Y-5456644D01*
X1544394Y-5527356D01*
X1615106Y-5527356D01*
X1615106Y-5781356D02*
X1615106Y-5710644D01*
X1544394Y-5710644D01*
X1544394Y-5781356D01*
X1615106Y-5781356D01*
X1615106Y-6035356D02*
X1615106Y-5964644D01*
X1544394Y-5964644D01*
X1544394Y-6035356D01*
X1615106Y-6035356D01*
X1615106Y-6289356D02*
X1615106Y-6218644D01*
X1544394Y-6218644D01*
X1544394Y-6289356D01*
X1615106Y-6289356D01*
X1615106Y-6543356D02*
X1615106Y-6472644D01*
X1544394Y-6472644D01*
X1544394Y-6543356D01*
X1615106Y-6543356D01*
X1615106Y-6797356D02*
X1615106Y-6726644D01*
X1544394Y-6726644D01*
X1544394Y-6797356D01*
X1615106Y-6797356D01*
X1785356Y-7607356D02*
X1785356Y-7536644D01*
X1714644Y-7536644D01*
X1714644Y-7607356D01*
X1785356Y-7607356D01*
X1785356Y-7857356D02*
X1785356Y-7786644D01*
X1714644Y-7786644D01*
X1714644Y-7857356D01*
X1785356Y-7857356D01*
X2535356Y-6165856D02*
X2535356Y-6095144D01*
X2464644Y-6095144D01*
X2464644Y-6165856D01*
X2535356Y-6165856D01*
X2789356Y-6165856D02*
X2789356Y-6095144D01*
X2718644Y-6095144D01*
X2718644Y-6165856D01*
X2789356Y-6165856D01*
X3358856Y-1935356D02*
X3358856Y-1864644D01*
X3288144Y-1864644D01*
X3288144Y-1935356D01*
X3358856Y-1935356D01*
X3612856Y-1935356D02*
X3612856Y-1864644D01*
X3542144Y-1864644D01*
X3542144Y-1935356D01*
X3612856Y-1935356D01*
X4257856Y-5785356D02*
X4257856Y-5714644D01*
X4187144Y-5714644D01*
X4187144Y-5785356D01*
X4257856Y-5785356D01*
X4335356Y-8385356D02*
X4335356Y-8314644D01*
X4264644Y-8314644D01*
X4264644Y-8385356D01*
X4335356Y-8385356D01*
X4511856Y-5785356D02*
X4511856Y-5714644D01*
X4441144Y-5714644D01*
X4441144Y-5785356D01*
X4511856Y-5785356D01*
X4985356Y-5785356D02*
X4985356Y-5714644D01*
X4914644Y-5714644D01*
X4914644Y-5785356D01*
X4985356Y-5785356D01*
X4985356Y-6039356D02*
X4985356Y-5968644D01*
X4914644Y-5968644D01*
X4914644Y-6039356D01*
X4985356Y-6039356D01*
X4985356Y-6293356D02*
X4985356Y-6222644D01*
X4914644Y-6222644D01*
X4914644Y-6293356D01*
X4985356Y-6293356D01*
X4985356Y-6547356D02*
X4985356Y-6476644D01*
X4914644Y-6476644D01*
X4914644Y-6547356D01*
X4985356Y-6547356D01*
X6007856Y-1585356D02*
X6007856Y-1514644D01*
X5937144Y-1514644D01*
X5937144Y-1585356D01*
X6007856Y-1585356D01*
X6007856Y-1839356D02*
X6007856Y-1768644D01*
X5937144Y-1768644D01*
X5937144Y-1839356D01*
X6007856Y-1839356D01*
X6007856Y-2093356D02*
X6007856Y-2022644D01*
X5937144Y-2022644D01*
X5937144Y-2093356D01*
X6007856Y-2093356D01*
X6007856Y-2347356D02*
X6007856Y-2276644D01*
X5937144Y-2276644D01*
X5937144Y-2347356D01*
X6007856Y-2347356D01*
X6235356Y-7435356D02*
X6235356Y-7364644D01*
X6164644Y-7364644D01*
X6164644Y-7435356D01*
X6235356Y-7435356D01*
X6261856Y-1585356D02*
X6261856Y-1514644D01*
X6191144Y-1514644D01*
X6191144Y-1585356D01*
X6261856Y-1585356D01*
X6261856Y-1839356D02*
X6261856Y-1768644D01*
X6191144Y-1768644D01*
X6191144Y-1839356D01*
X6261856Y-1839356D01*
X6261856Y-2093356D02*
X6261856Y-2022644D01*
X6191144Y-2022644D01*
X6191144Y-2093356D01*
X6261856Y-2093356D01*
X6261856Y-2347356D02*
X6261856Y-2276644D01*
X6191144Y-2276644D01*
X6191144Y-2347356D01*
X6261856Y-2347356D01*
X6716856Y-4777356D02*
X6716856Y-4706644D01*
X6646144Y-4706644D01*
X6646144Y-4777356D01*
X6716856Y-4777356D01*
X6716856Y-5031356D02*
X6716856Y-4960644D01*
X6646144Y-4960644D01*
X6646144Y-5031356D01*
X6716856Y-5031356D01*
X6716856Y-5285356D02*
X6716856Y-5214644D01*
X6646144Y-5214644D01*
X6646144Y-5285356D01*
X6716856Y-5285356D01*
X6735356Y-7435356D02*
X6735356Y-7364644D01*
X6664644Y-7364644D01*
X6664644Y-7435356D01*
X6735356Y-7435356D01*
X7335356Y-7435356D02*
X7335356Y-7364644D01*
X7264644Y-7364644D01*
X7264644Y-7435356D01*
X7335356Y-7435356D01*
X7835356Y-7435356D02*
X7835356Y-7364644D01*
X7764644Y-7364644D01*
X7764644Y-7435356D01*
X7835356Y-7435356D01*
X8448588Y-7435356D02*
X8448588Y-7364644D01*
X8377877Y-7364644D01*
X8377877Y-7435356D01*
X8448588Y-7435356D01*
X8535356Y-8832856D02*
X8535356Y-8762144D01*
X8464644Y-8762144D01*
X8464644Y-8832856D01*
X8535356Y-8832856D01*
X8785356Y-8832856D02*
X8785356Y-8762144D01*
X8714644Y-8762144D01*
X8714644Y-8832856D01*
X8785356Y-8832856D01*
X8948588Y-7435356D02*
X8948588Y-7364644D01*
X8877877Y-7364644D01*
X8877877Y-7435356D01*
X8948588Y-7435356D01*
X9085356Y-1713356D02*
X9085356Y-1642644D01*
X9014644Y-1642644D01*
X9014644Y-1713356D01*
X9085356Y-1713356D01*
X9335356Y-1713356D02*
X9335356Y-1642644D01*
X9264644Y-1642644D01*
X9264644Y-1713356D01*
X9335356Y-1713356D01*
X9639606Y-7835356D02*
X9639606Y-7764644D01*
X9568894Y-7764644D01*
X9568894Y-7835356D01*
X9639606Y-7835356D01*
X9504250Y-7850000D02*
X9704250Y-7850000D01*
X9704250Y-7750000D02*
G75*
G02*
X9704250Y-7850000I0J-50000D01*
G01*
X9704250Y-7750000D02*
X9504250Y-7750000D01*
X9504250Y-7750000D02*
G75*
G03*
X9504250Y-7850000I0J-50000D01*
G01*
X9639606Y-8435356D02*
X9639606Y-8364644D01*
X9568894Y-8364644D01*
X9568894Y-8435356D01*
X9639606Y-8435356D01*
X9504250Y-8450000D02*
X9704250Y-8450000D01*
X9704250Y-8350000D02*
G75*
G02*
X9704250Y-8450000I0J-50000D01*
G01*
X9704250Y-8350000D02*
X9504250Y-8350000D01*
X9504250Y-8350000D02*
G75*
G03*
X9504250Y-8450000I0J-50000D01*
G01*
X10109606Y-8135356D02*
X10109606Y-8064644D01*
X10038894Y-8064644D01*
X10038894Y-8135356D01*
X10109606Y-8135356D01*
X10124250Y-8200000D02*
X10124250Y-8000000D01*
X10024250Y-8000000D02*
G75*
G02*
X10124250Y-8000000I50000J0D01*
G01*
X10024250Y-8000000D02*
X10024250Y-8200000D01*
X10024250Y-8200000D02*
G75*
G03*
X10124250Y-8200000I50000J0D01*
G01*
D13*
X2250000Y-8397823D02*
X2305000Y-8342823D01*
X2250000Y-8287823D01*
X2195000Y-8342823D01*
X2250000Y-8397823D01*
X2250000Y-8651823D02*
X2305000Y-8596823D01*
X2250000Y-8541823D01*
X2195000Y-8596823D01*
X2250000Y-8651823D01*
X2346000Y-7555000D02*
X2401000Y-7500000D01*
X2346000Y-7445000D01*
X2291000Y-7500000D01*
X2346000Y-7555000D01*
X2346000Y-7955000D02*
X2401000Y-7900000D01*
X2346000Y-7845000D01*
X2291000Y-7900000D01*
X2346000Y-7955000D01*
X2600000Y-7555000D02*
X2655000Y-7500000D01*
X2600000Y-7445000D01*
X2545000Y-7500000D01*
X2600000Y-7555000D01*
X2600000Y-7955000D02*
X2655000Y-7900000D01*
X2600000Y-7845000D01*
X2545000Y-7900000D01*
X2600000Y-7955000D01*
X2650000Y-8397823D02*
X2705000Y-8342823D01*
X2650000Y-8287823D01*
X2595000Y-8342823D01*
X2650000Y-8397823D01*
X2650000Y-8651823D02*
X2705000Y-8596823D01*
X2650000Y-8541823D01*
X2595000Y-8596823D01*
X2650000Y-8651823D01*
X6096000Y-8560500D02*
X6151000Y-8505500D01*
X6096000Y-8450500D01*
X6041000Y-8505500D01*
X6096000Y-8560500D01*
X6350000Y-8560500D02*
X6405000Y-8505500D01*
X6350000Y-8450500D01*
X6295000Y-8505500D01*
X6350000Y-8560500D01*
X6604000Y-8560500D02*
X6659000Y-8505500D01*
X6604000Y-8450500D01*
X6549000Y-8505500D01*
X6604000Y-8560500D01*
X7242000Y-8555000D02*
X7297000Y-8500000D01*
X7242000Y-8445000D01*
X7187000Y-8500000D01*
X7242000Y-8555000D01*
X7496000Y-8555000D02*
X7551000Y-8500000D01*
X7496000Y-8445000D01*
X7441000Y-8500000D01*
X7496000Y-8555000D01*
X7750000Y-8555000D02*
X7805000Y-8500000D01*
X7750000Y-8445000D01*
X7695000Y-8500000D01*
X7750000Y-8555000D01*
X9106667Y-3755000D02*
X9161667Y-3700000D01*
X9106667Y-3645000D01*
X9051667Y-3700000D01*
X9106667Y-3755000D01*
X9106667Y-3984000D02*
X9161667Y-3929000D01*
X9106667Y-3874000D01*
X9051667Y-3929000D01*
X9106667Y-3984000D01*
X9106667Y-4213000D02*
X9161667Y-4158000D01*
X9106667Y-4103000D01*
X9051667Y-4158000D01*
X9106667Y-4213000D01*
X9106667Y-4476000D02*
X9161667Y-4421000D01*
X9106667Y-4366000D01*
X9051667Y-4421000D01*
X9106667Y-4476000D01*
X9106667Y-4705000D02*
X9161667Y-4650000D01*
X9106667Y-4595000D01*
X9051667Y-4650000D01*
X9106667Y-4705000D01*
X9106667Y-4934000D02*
X9161667Y-4879000D01*
X9106667Y-4824000D01*
X9051667Y-4879000D01*
X9106667Y-4934000D01*
X9106667Y-5226000D02*
X9161667Y-5171000D01*
X9106667Y-5116000D01*
X9051667Y-5171000D01*
X9106667Y-5226000D01*
X9106667Y-5455000D02*
X9161667Y-5400000D01*
X9106667Y-5345000D01*
X9051667Y-5400000D01*
X9106667Y-5455000D01*
X9106667Y-5684000D02*
X9161667Y-5629000D01*
X9106667Y-5574000D01*
X9051667Y-5629000D01*
X9106667Y-5684000D01*
X9106667Y-5947000D02*
X9161667Y-5892000D01*
X9106667Y-5837000D01*
X9051667Y-5892000D01*
X9106667Y-5947000D01*
X9106667Y-6176000D02*
X9161667Y-6121000D01*
X9106667Y-6066000D01*
X9051667Y-6121000D01*
X9106667Y-6176000D01*
X9106667Y-6405000D02*
X9161667Y-6350000D01*
X9106667Y-6295000D01*
X9051667Y-6350000D01*
X9106667Y-6405000D01*
D14*
X10624000Y-5220000D02*
X10776000Y-5372000D01*
X10776000Y-5220000D02*
X10624000Y-5372000D01*
X10776000Y-5296000D02*
G75*
G02*
X10624000Y-5296000I-76000J0D01*
G01*
X10624000Y-5296000D02*
G75*
G02*
X10776000Y-5296000I76000J0D01*
G01*
X10624000Y-5728000D02*
X10776000Y-5880000D01*
X10776000Y-5728000D02*
X10624000Y-5880000D01*
X10776000Y-5804000D02*
G75*
G02*
X10624000Y-5804000I-76000J0D01*
G01*
X10624000Y-5804000D02*
G75*
G02*
X10776000Y-5804000I76000J0D01*
G01*
X10624000Y-7174000D02*
X10776000Y-7326000D01*
X10776000Y-7174000D02*
X10624000Y-7326000D01*
X10776000Y-7250000D02*
G75*
G02*
X10624000Y-7250000I-76000J0D01*
G01*
X10624000Y-7250000D02*
G75*
G02*
X10776000Y-7250000I76000J0D01*
G01*
X10624000Y-7682000D02*
X10776000Y-7834000D01*
X10776000Y-7682000D02*
X10624000Y-7834000D01*
X10776000Y-7758000D02*
G75*
G02*
X10624000Y-7758000I-76000J0D01*
G01*
X10624000Y-7758000D02*
G75*
G02*
X10776000Y-7758000I76000J0D01*
G01*
D15*
X1540000Y-1540000D02*
X1860000Y-1860000D01*
X1860000Y-1540000D02*
X1540000Y-1860000D01*
X1700000Y-1540000D02*
X1700000Y-1860000D01*
X1540000Y-1700000D02*
X1860000Y-1700000D01*
X1540000Y-8540000D02*
X1860000Y-8860000D01*
X1860000Y-8540000D02*
X1540000Y-8860000D01*
X1700000Y-8540000D02*
X1700000Y-8860000D01*
X1540000Y-8700000D02*
X1860000Y-8700000D01*
X10540000Y-1540000D02*
X10860000Y-1860000D01*
X10860000Y-1540000D02*
X10540000Y-1860000D01*
X10700000Y-1540000D02*
X10700000Y-1860000D01*
X10540000Y-1700000D02*
X10860000Y-1700000D01*
X10540000Y-8540000D02*
X10860000Y-8860000D01*
X10860000Y-8540000D02*
X10540000Y-8860000D01*
X10700000Y-8540000D02*
X10700000Y-8860000D01*
X10540000Y-8700000D02*
X10860000Y-8700000D01*
D11*
X1458277Y-9513984D02*
X1458277Y-9313984D01*
X1458277Y-9313984D02*
X1505896Y-9313984D01*
X1505896Y-9313984D02*
X1534467Y-9323508D01*
X1534467Y-9323508D02*
X1553515Y-9342555D01*
X1553515Y-9342555D02*
X1563039Y-9361603D01*
X1563039Y-9361603D02*
X1572562Y-9399698D01*
X1572562Y-9399698D02*
X1572562Y-9428270D01*
X1572562Y-9428270D02*
X1563039Y-9466365D01*
X1563039Y-9466365D02*
X1553515Y-9485412D01*
X1553515Y-9485412D02*
X1534467Y-9504460D01*
X1534467Y-9504460D02*
X1505896Y-9513984D01*
X1505896Y-9513984D02*
X1458277Y-9513984D01*
X1658277Y-9513984D02*
X1658277Y-9380650D01*
X1658277Y-9418746D02*
X1667801Y-9399698D01*
X1667801Y-9399698D02*
X1677324Y-9390174D01*
X1677324Y-9390174D02*
X1696372Y-9380650D01*
X1696372Y-9380650D02*
X1715420Y-9380650D01*
X1782086Y-9513984D02*
X1782086Y-9380650D01*
X1782086Y-9313984D02*
X1772562Y-9323508D01*
X1772562Y-9323508D02*
X1782086Y-9333031D01*
X1782086Y-9333031D02*
X1791610Y-9323508D01*
X1791610Y-9323508D02*
X1782086Y-9313984D01*
X1782086Y-9313984D02*
X1782086Y-9333031D01*
X1905896Y-9513984D02*
X1886848Y-9504460D01*
X1886848Y-9504460D02*
X1877324Y-9485412D01*
X1877324Y-9485412D02*
X1877324Y-9313984D01*
X2010658Y-9513984D02*
X1991610Y-9504460D01*
X1991610Y-9504460D02*
X1982086Y-9485412D01*
X1982086Y-9485412D02*
X1982086Y-9313984D01*
X2239229Y-9513984D02*
X2239229Y-9313984D01*
X2239229Y-9313984D02*
X2305896Y-9456841D01*
X2305896Y-9456841D02*
X2372563Y-9313984D01*
X2372563Y-9313984D02*
X2372563Y-9513984D01*
X2553515Y-9513984D02*
X2553515Y-9409222D01*
X2553515Y-9409222D02*
X2543991Y-9390174D01*
X2543991Y-9390174D02*
X2524944Y-9380650D01*
X2524944Y-9380650D02*
X2486848Y-9380650D01*
X2486848Y-9380650D02*
X2467801Y-9390174D01*
X2553515Y-9504460D02*
X2534467Y-9513984D01*
X2534467Y-9513984D02*
X2486848Y-9513984D01*
X2486848Y-9513984D02*
X2467801Y-9504460D01*
X2467801Y-9504460D02*
X2458277Y-9485412D01*
X2458277Y-9485412D02*
X2458277Y-9466365D01*
X2458277Y-9466365D02*
X2467801Y-9447317D01*
X2467801Y-9447317D02*
X2486848Y-9437793D01*
X2486848Y-9437793D02*
X2534467Y-9437793D01*
X2534467Y-9437793D02*
X2553515Y-9428270D01*
X2648753Y-9380650D02*
X2648753Y-9580650D01*
X2648753Y-9390174D02*
X2667801Y-9380650D01*
X2667801Y-9380650D02*
X2705896Y-9380650D01*
X2705896Y-9380650D02*
X2724944Y-9390174D01*
X2724944Y-9390174D02*
X2734467Y-9399698D01*
X2734467Y-9399698D02*
X2743991Y-9418746D01*
X2743991Y-9418746D02*
X2743991Y-9475889D01*
X2743991Y-9475889D02*
X2734467Y-9494936D01*
X2734467Y-9494936D02*
X2724944Y-9504460D01*
X2724944Y-9504460D02*
X2705896Y-9513984D01*
X2705896Y-9513984D02*
X2667801Y-9513984D01*
X2667801Y-9513984D02*
X2648753Y-9504460D01*
X2829705Y-9494936D02*
X2839229Y-9504460D01*
X2839229Y-9504460D02*
X2829705Y-9513984D01*
X2829705Y-9513984D02*
X2820182Y-9504460D01*
X2820182Y-9504460D02*
X2829705Y-9494936D01*
X2829705Y-9494936D02*
X2829705Y-9513984D01*
X2829705Y-9390174D02*
X2839229Y-9399698D01*
X2839229Y-9399698D02*
X2829705Y-9409222D01*
X2829705Y-9409222D02*
X2820182Y-9399698D01*
X2820182Y-9399698D02*
X2829705Y-9390174D01*
X2829705Y-9390174D02*
X2829705Y-9409222D01*
D12*
X1147500Y-9817500D02*
X1197500Y-9867500D01*
X1197500Y-9817500D02*
X1147500Y-9867500D01*
D11*
X1496372Y-9733984D02*
X1515420Y-9733984D01*
X1515420Y-9733984D02*
X1534467Y-9743508D01*
X1534467Y-9743508D02*
X1543991Y-9753031D01*
X1543991Y-9753031D02*
X1553515Y-9772079D01*
X1553515Y-9772079D02*
X1563039Y-9810174D01*
X1563039Y-9810174D02*
X1563039Y-9857793D01*
X1563039Y-9857793D02*
X1553515Y-9895889D01*
X1553515Y-9895889D02*
X1543991Y-9914936D01*
X1543991Y-9914936D02*
X1534467Y-9924460D01*
X1534467Y-9924460D02*
X1515420Y-9933984D01*
X1515420Y-9933984D02*
X1496372Y-9933984D01*
X1496372Y-9933984D02*
X1477324Y-9924460D01*
X1477324Y-9924460D02*
X1467801Y-9914936D01*
X1467801Y-9914936D02*
X1458277Y-9895889D01*
X1458277Y-9895889D02*
X1448753Y-9857793D01*
X1448753Y-9857793D02*
X1448753Y-9810174D01*
X1448753Y-9810174D02*
X1458277Y-9772079D01*
X1458277Y-9772079D02*
X1467801Y-9753031D01*
X1467801Y-9753031D02*
X1477324Y-9743508D01*
X1477324Y-9743508D02*
X1496372Y-9733984D01*
X1648753Y-9914936D02*
X1658277Y-9924460D01*
X1658277Y-9924460D02*
X1648753Y-9933984D01*
X1648753Y-9933984D02*
X1639229Y-9924460D01*
X1639229Y-9924460D02*
X1648753Y-9914936D01*
X1648753Y-9914936D02*
X1648753Y-9933984D01*
X1839229Y-9733984D02*
X1743991Y-9733984D01*
X1743991Y-9733984D02*
X1734467Y-9829222D01*
X1734467Y-9829222D02*
X1743991Y-9819698D01*
X1743991Y-9819698D02*
X1763039Y-9810174D01*
X1763039Y-9810174D02*
X1810658Y-9810174D01*
X1810658Y-9810174D02*
X1829705Y-9819698D01*
X1829705Y-9819698D02*
X1839229Y-9829222D01*
X1839229Y-9829222D02*
X1848753Y-9848270D01*
X1848753Y-9848270D02*
X1848753Y-9895889D01*
X1848753Y-9895889D02*
X1839229Y-9914936D01*
X1839229Y-9914936D02*
X1829705Y-9924460D01*
X1829705Y-9924460D02*
X1810658Y-9933984D01*
X1810658Y-9933984D02*
X1763039Y-9933984D01*
X1763039Y-9933984D02*
X1743991Y-9924460D01*
X1743991Y-9924460D02*
X1734467Y-9914936D01*
X1972562Y-9733984D02*
X1991610Y-9733984D01*
X1991610Y-9733984D02*
X2010658Y-9743508D01*
X2010658Y-9743508D02*
X2020182Y-9753031D01*
X2020182Y-9753031D02*
X2029705Y-9772079D01*
X2029705Y-9772079D02*
X2039229Y-9810174D01*
X2039229Y-9810174D02*
X2039229Y-9857793D01*
X2039229Y-9857793D02*
X2029705Y-9895889D01*
X2029705Y-9895889D02*
X2020182Y-9914936D01*
X2020182Y-9914936D02*
X2010658Y-9924460D01*
X2010658Y-9924460D02*
X1991610Y-9933984D01*
X1991610Y-9933984D02*
X1972562Y-9933984D01*
X1972562Y-9933984D02*
X1953515Y-9924460D01*
X1953515Y-9924460D02*
X1943991Y-9914936D01*
X1943991Y-9914936D02*
X1934467Y-9895889D01*
X1934467Y-9895889D02*
X1924943Y-9857793D01*
X1924943Y-9857793D02*
X1924943Y-9810174D01*
X1924943Y-9810174D02*
X1934467Y-9772079D01*
X1934467Y-9772079D02*
X1943991Y-9753031D01*
X1943991Y-9753031D02*
X1953515Y-9743508D01*
X1953515Y-9743508D02*
X1972562Y-9733984D01*
X2163039Y-9733984D02*
X2182086Y-9733984D01*
X2182086Y-9733984D02*
X2201134Y-9743508D01*
X2201134Y-9743508D02*
X2210658Y-9753031D01*
X2210658Y-9753031D02*
X2220182Y-9772079D01*
X2220182Y-9772079D02*
X2229705Y-9810174D01*
X2229705Y-9810174D02*
X2229705Y-9857793D01*
X2229705Y-9857793D02*
X2220182Y-9895889D01*
X2220182Y-9895889D02*
X2210658Y-9914936D01*
X2210658Y-9914936D02*
X2201134Y-9924460D01*
X2201134Y-9924460D02*
X2182086Y-9933984D01*
X2182086Y-9933984D02*
X2163039Y-9933984D01*
X2163039Y-9933984D02*
X2143991Y-9924460D01*
X2143991Y-9924460D02*
X2134467Y-9914936D01*
X2134467Y-9914936D02*
X2124944Y-9895889D01*
X2124944Y-9895889D02*
X2115420Y-9857793D01*
X2115420Y-9857793D02*
X2115420Y-9810174D01*
X2115420Y-9810174D02*
X2124944Y-9772079D01*
X2124944Y-9772079D02*
X2134467Y-9753031D01*
X2134467Y-9753031D02*
X2143991Y-9743508D01*
X2143991Y-9743508D02*
X2163039Y-9733984D01*
X2315420Y-9933984D02*
X2315420Y-9800650D01*
X2315420Y-9819698D02*
X2324944Y-9810174D01*
X2324944Y-9810174D02*
X2343991Y-9800650D01*
X2343991Y-9800650D02*
X2372563Y-9800650D01*
X2372563Y-9800650D02*
X2391610Y-9810174D01*
X2391610Y-9810174D02*
X2401134Y-9829222D01*
X2401134Y-9829222D02*
X2401134Y-9933984D01*
X2401134Y-9829222D02*
X2410658Y-9810174D01*
X2410658Y-9810174D02*
X2429705Y-9800650D01*
X2429705Y-9800650D02*
X2458277Y-9800650D01*
X2458277Y-9800650D02*
X2477325Y-9810174D01*
X2477325Y-9810174D02*
X2486848Y-9829222D01*
X2486848Y-9829222D02*
X2486848Y-9933984D01*
X2582086Y-9933984D02*
X2582086Y-9800650D01*
X2582086Y-9819698D02*
X2591610Y-9810174D01*
X2591610Y-9810174D02*
X2610658Y-9800650D01*
X2610658Y-9800650D02*
X2639229Y-9800650D01*
X2639229Y-9800650D02*
X2658277Y-9810174D01*
X2658277Y-9810174D02*
X2667801Y-9829222D01*
X2667801Y-9829222D02*
X2667801Y-9933984D01*
X2667801Y-9829222D02*
X2677325Y-9810174D01*
X2677325Y-9810174D02*
X2696372Y-9800650D01*
X2696372Y-9800650D02*
X2724944Y-9800650D01*
X2724944Y-9800650D02*
X2743991Y-9810174D01*
X2743991Y-9810174D02*
X2753515Y-9829222D01*
X2753515Y-9829222D02*
X2753515Y-9933984D01*
X3143991Y-9724460D02*
X2972563Y-9981603D01*
X3401134Y-9733984D02*
X3420182Y-9733984D01*
X3420182Y-9733984D02*
X3439229Y-9743508D01*
X3439229Y-9743508D02*
X3448753Y-9753031D01*
X3448753Y-9753031D02*
X3458277Y-9772079D01*
X3458277Y-9772079D02*
X3467801Y-9810174D01*
X3467801Y-9810174D02*
X3467801Y-9857793D01*
X3467801Y-9857793D02*
X3458277Y-9895889D01*
X3458277Y-9895889D02*
X3448753Y-9914936D01*
X3448753Y-9914936D02*
X3439229Y-9924460D01*
X3439229Y-9924460D02*
X3420182Y-9933984D01*
X3420182Y-9933984D02*
X3401134Y-9933984D01*
X3401134Y-9933984D02*
X3382086Y-9924460D01*
X3382086Y-9924460D02*
X3372563Y-9914936D01*
X3372563Y-9914936D02*
X3363039Y-9895889D01*
X3363039Y-9895889D02*
X3353515Y-9857793D01*
X3353515Y-9857793D02*
X3353515Y-9810174D01*
X3353515Y-9810174D02*
X3363039Y-9772079D01*
X3363039Y-9772079D02*
X3372563Y-9753031D01*
X3372563Y-9753031D02*
X3382086Y-9743508D01*
X3382086Y-9743508D02*
X3401134Y-9733984D01*
X3553515Y-9914936D02*
X3563039Y-9924460D01*
X3563039Y-9924460D02*
X3553515Y-9933984D01*
X3553515Y-9933984D02*
X3543991Y-9924460D01*
X3543991Y-9924460D02*
X3553515Y-9914936D01*
X3553515Y-9914936D02*
X3553515Y-9933984D01*
X3686848Y-9733984D02*
X3705896Y-9733984D01*
X3705896Y-9733984D02*
X3724944Y-9743508D01*
X3724944Y-9743508D02*
X3734467Y-9753031D01*
X3734467Y-9753031D02*
X3743991Y-9772079D01*
X3743991Y-9772079D02*
X3753515Y-9810174D01*
X3753515Y-9810174D02*
X3753515Y-9857793D01*
X3753515Y-9857793D02*
X3743991Y-9895889D01*
X3743991Y-9895889D02*
X3734467Y-9914936D01*
X3734467Y-9914936D02*
X3724944Y-9924460D01*
X3724944Y-9924460D02*
X3705896Y-9933984D01*
X3705896Y-9933984D02*
X3686848Y-9933984D01*
X3686848Y-9933984D02*
X3667801Y-9924460D01*
X3667801Y-9924460D02*
X3658277Y-9914936D01*
X3658277Y-9914936D02*
X3648753Y-9895889D01*
X3648753Y-9895889D02*
X3639229Y-9857793D01*
X3639229Y-9857793D02*
X3639229Y-9810174D01*
X3639229Y-9810174D02*
X3648753Y-9772079D01*
X3648753Y-9772079D02*
X3658277Y-9753031D01*
X3658277Y-9753031D02*
X3667801Y-9743508D01*
X3667801Y-9743508D02*
X3686848Y-9733984D01*
X3943991Y-9933984D02*
X3829706Y-9933984D01*
X3886848Y-9933984D02*
X3886848Y-9733984D01*
X3886848Y-9733984D02*
X3867801Y-9762555D01*
X3867801Y-9762555D02*
X3848753Y-9781603D01*
X3848753Y-9781603D02*
X3829706Y-9791127D01*
X4039229Y-9933984D02*
X4077325Y-9933984D01*
X4077325Y-9933984D02*
X4096372Y-9924460D01*
X4096372Y-9924460D02*
X4105896Y-9914936D01*
X4105896Y-9914936D02*
X4124944Y-9886365D01*
X4124944Y-9886365D02*
X4134467Y-9848270D01*
X4134467Y-9848270D02*
X4134467Y-9772079D01*
X4134467Y-9772079D02*
X4124944Y-9753031D01*
X4124944Y-9753031D02*
X4115420Y-9743508D01*
X4115420Y-9743508D02*
X4096372Y-9733984D01*
X4096372Y-9733984D02*
X4058277Y-9733984D01*
X4058277Y-9733984D02*
X4039229Y-9743508D01*
X4039229Y-9743508D02*
X4029706Y-9753031D01*
X4029706Y-9753031D02*
X4020182Y-9772079D01*
X4020182Y-9772079D02*
X4020182Y-9819698D01*
X4020182Y-9819698D02*
X4029706Y-9838746D01*
X4029706Y-9838746D02*
X4039229Y-9848270D01*
X4039229Y-9848270D02*
X4058277Y-9857793D01*
X4058277Y-9857793D02*
X4096372Y-9857793D01*
X4096372Y-9857793D02*
X4115420Y-9848270D01*
X4115420Y-9848270D02*
X4124944Y-9838746D01*
X4124944Y-9838746D02*
X4134467Y-9819698D01*
X4201134Y-9733984D02*
X4334468Y-9733984D01*
X4334468Y-9733984D02*
X4248753Y-9933984D01*
X4401134Y-9733984D02*
X4401134Y-9772079D01*
X4477325Y-9733984D02*
X4477325Y-9772079D01*
X4772563Y-10010174D02*
X4763039Y-10000650D01*
X4763039Y-10000650D02*
X4743991Y-9972079D01*
X4743991Y-9972079D02*
X4734468Y-9953031D01*
X4734468Y-9953031D02*
X4724944Y-9924460D01*
X4724944Y-9924460D02*
X4715420Y-9876841D01*
X4715420Y-9876841D02*
X4715420Y-9838746D01*
X4715420Y-9838746D02*
X4724944Y-9791127D01*
X4724944Y-9791127D02*
X4734468Y-9762555D01*
X4734468Y-9762555D02*
X4743991Y-9743508D01*
X4743991Y-9743508D02*
X4763039Y-9714936D01*
X4763039Y-9714936D02*
X4772563Y-9705412D01*
X4953515Y-9933984D02*
X4839230Y-9933984D01*
X4896372Y-9933984D02*
X4896372Y-9733984D01*
X4896372Y-9733984D02*
X4877325Y-9762555D01*
X4877325Y-9762555D02*
X4858277Y-9781603D01*
X4858277Y-9781603D02*
X4839230Y-9791127D01*
X5143991Y-9933984D02*
X5029706Y-9933984D01*
X5086849Y-9933984D02*
X5086849Y-9733984D01*
X5086849Y-9733984D02*
X5067801Y-9762555D01*
X5067801Y-9762555D02*
X5048753Y-9781603D01*
X5048753Y-9781603D02*
X5029706Y-9791127D01*
X5382087Y-9933984D02*
X5382087Y-9733984D01*
X5467801Y-9933984D02*
X5467801Y-9829222D01*
X5467801Y-9829222D02*
X5458277Y-9810174D01*
X5458277Y-9810174D02*
X5439230Y-9800650D01*
X5439230Y-9800650D02*
X5410658Y-9800650D01*
X5410658Y-9800650D02*
X5391611Y-9810174D01*
X5391611Y-9810174D02*
X5382087Y-9819698D01*
X5591611Y-9933984D02*
X5572563Y-9924460D01*
X5572563Y-9924460D02*
X5563039Y-9914936D01*
X5563039Y-9914936D02*
X5553515Y-9895889D01*
X5553515Y-9895889D02*
X5553515Y-9838746D01*
X5553515Y-9838746D02*
X5563039Y-9819698D01*
X5563039Y-9819698D02*
X5572563Y-9810174D01*
X5572563Y-9810174D02*
X5591611Y-9800650D01*
X5591611Y-9800650D02*
X5620182Y-9800650D01*
X5620182Y-9800650D02*
X5639230Y-9810174D01*
X5639230Y-9810174D02*
X5648753Y-9819698D01*
X5648753Y-9819698D02*
X5658277Y-9838746D01*
X5658277Y-9838746D02*
X5658277Y-9895889D01*
X5658277Y-9895889D02*
X5648753Y-9914936D01*
X5648753Y-9914936D02*
X5639230Y-9924460D01*
X5639230Y-9924460D02*
X5620182Y-9933984D01*
X5620182Y-9933984D02*
X5591611Y-9933984D01*
X5772563Y-9933984D02*
X5753515Y-9924460D01*
X5753515Y-9924460D02*
X5743991Y-9905412D01*
X5743991Y-9905412D02*
X5743991Y-9733984D01*
X5924944Y-9924460D02*
X5905896Y-9933984D01*
X5905896Y-9933984D02*
X5867801Y-9933984D01*
X5867801Y-9933984D02*
X5848753Y-9924460D01*
X5848753Y-9924460D02*
X5839230Y-9905412D01*
X5839230Y-9905412D02*
X5839230Y-9829222D01*
X5839230Y-9829222D02*
X5848753Y-9810174D01*
X5848753Y-9810174D02*
X5867801Y-9800650D01*
X5867801Y-9800650D02*
X5905896Y-9800650D01*
X5905896Y-9800650D02*
X5924944Y-9810174D01*
X5924944Y-9810174D02*
X5934468Y-9829222D01*
X5934468Y-9829222D02*
X5934468Y-9848270D01*
X5934468Y-9848270D02*
X5839230Y-9867317D01*
X6010658Y-9924460D02*
X6029706Y-9933984D01*
X6029706Y-9933984D02*
X6067801Y-9933984D01*
X6067801Y-9933984D02*
X6086849Y-9924460D01*
X6086849Y-9924460D02*
X6096372Y-9905412D01*
X6096372Y-9905412D02*
X6096372Y-9895889D01*
X6096372Y-9895889D02*
X6086849Y-9876841D01*
X6086849Y-9876841D02*
X6067801Y-9867317D01*
X6067801Y-9867317D02*
X6039230Y-9867317D01*
X6039230Y-9867317D02*
X6020182Y-9857793D01*
X6020182Y-9857793D02*
X6010658Y-9838746D01*
X6010658Y-9838746D02*
X6010658Y-9829222D01*
X6010658Y-9829222D02*
X6020182Y-9810174D01*
X6020182Y-9810174D02*
X6039230Y-9800650D01*
X6039230Y-9800650D02*
X6067801Y-9800650D01*
X6067801Y-9800650D02*
X6086849Y-9810174D01*
X6163039Y-10010174D02*
X6172563Y-10000650D01*
X6172563Y-10000650D02*
X6191611Y-9972079D01*
X6191611Y-9972079D02*
X6201134Y-9953031D01*
X6201134Y-9953031D02*
X6210658Y-9924460D01*
X6210658Y-9924460D02*
X6220182Y-9876841D01*
X6220182Y-9876841D02*
X6220182Y-9838746D01*
X6220182Y-9838746D02*
X6210658Y-9791127D01*
X6210658Y-9791127D02*
X6201134Y-9762555D01*
X6201134Y-9762555D02*
X6191611Y-9743508D01*
X6191611Y-9743508D02*
X6172563Y-9714936D01*
X6172563Y-9714936D02*
X6163039Y-9705412D01*
D12*
X1197500Y-10106500D02*
G75*
G02*
X1122500Y-10106500I-37500J0D01*
G01*
X1122500Y-10106500D02*
G75*
G02*
X1197500Y-10106500I37500J0D01*
G01*
D11*
X1496372Y-9997984D02*
X1515420Y-9997984D01*
X1515420Y-9997984D02*
X1534467Y-10007508D01*
X1534467Y-10007508D02*
X1543991Y-10017031D01*
X1543991Y-10017031D02*
X1553515Y-10036079D01*
X1553515Y-10036079D02*
X1563039Y-10074174D01*
X1563039Y-10074174D02*
X1563039Y-10121793D01*
X1563039Y-10121793D02*
X1553515Y-10159889D01*
X1553515Y-10159889D02*
X1543991Y-10178936D01*
X1543991Y-10178936D02*
X1534467Y-10188460D01*
X1534467Y-10188460D02*
X1515420Y-10197984D01*
X1515420Y-10197984D02*
X1496372Y-10197984D01*
X1496372Y-10197984D02*
X1477324Y-10188460D01*
X1477324Y-10188460D02*
X1467801Y-10178936D01*
X1467801Y-10178936D02*
X1458277Y-10159889D01*
X1458277Y-10159889D02*
X1448753Y-10121793D01*
X1448753Y-10121793D02*
X1448753Y-10074174D01*
X1448753Y-10074174D02*
X1458277Y-10036079D01*
X1458277Y-10036079D02*
X1467801Y-10017031D01*
X1467801Y-10017031D02*
X1477324Y-10007508D01*
X1477324Y-10007508D02*
X1496372Y-9997984D01*
X1648753Y-10178936D02*
X1658277Y-10188460D01*
X1658277Y-10188460D02*
X1648753Y-10197984D01*
X1648753Y-10197984D02*
X1639229Y-10188460D01*
X1639229Y-10188460D02*
X1648753Y-10178936D01*
X1648753Y-10178936D02*
X1648753Y-10197984D01*
X1724943Y-9997984D02*
X1858277Y-9997984D01*
X1858277Y-9997984D02*
X1772562Y-10197984D01*
X2029705Y-9997984D02*
X1934467Y-9997984D01*
X1934467Y-9997984D02*
X1924943Y-10093222D01*
X1924943Y-10093222D02*
X1934467Y-10083698D01*
X1934467Y-10083698D02*
X1953515Y-10074174D01*
X1953515Y-10074174D02*
X2001134Y-10074174D01*
X2001134Y-10074174D02*
X2020182Y-10083698D01*
X2020182Y-10083698D02*
X2029705Y-10093222D01*
X2029705Y-10093222D02*
X2039229Y-10112270D01*
X2039229Y-10112270D02*
X2039229Y-10159889D01*
X2039229Y-10159889D02*
X2029705Y-10178936D01*
X2029705Y-10178936D02*
X2020182Y-10188460D01*
X2020182Y-10188460D02*
X2001134Y-10197984D01*
X2001134Y-10197984D02*
X1953515Y-10197984D01*
X1953515Y-10197984D02*
X1934467Y-10188460D01*
X1934467Y-10188460D02*
X1924943Y-10178936D01*
X2163039Y-9997984D02*
X2182086Y-9997984D01*
X2182086Y-9997984D02*
X2201134Y-10007508D01*
X2201134Y-10007508D02*
X2210658Y-10017031D01*
X2210658Y-10017031D02*
X2220182Y-10036079D01*
X2220182Y-10036079D02*
X2229705Y-10074174D01*
X2229705Y-10074174D02*
X2229705Y-10121793D01*
X2229705Y-10121793D02*
X2220182Y-10159889D01*
X2220182Y-10159889D02*
X2210658Y-10178936D01*
X2210658Y-10178936D02*
X2201134Y-10188460D01*
X2201134Y-10188460D02*
X2182086Y-10197984D01*
X2182086Y-10197984D02*
X2163039Y-10197984D01*
X2163039Y-10197984D02*
X2143991Y-10188460D01*
X2143991Y-10188460D02*
X2134467Y-10178936D01*
X2134467Y-10178936D02*
X2124944Y-10159889D01*
X2124944Y-10159889D02*
X2115420Y-10121793D01*
X2115420Y-10121793D02*
X2115420Y-10074174D01*
X2115420Y-10074174D02*
X2124944Y-10036079D01*
X2124944Y-10036079D02*
X2134467Y-10017031D01*
X2134467Y-10017031D02*
X2143991Y-10007508D01*
X2143991Y-10007508D02*
X2163039Y-9997984D01*
X2315420Y-10197984D02*
X2315420Y-10064650D01*
X2315420Y-10083698D02*
X2324944Y-10074174D01*
X2324944Y-10074174D02*
X2343991Y-10064650D01*
X2343991Y-10064650D02*
X2372563Y-10064650D01*
X2372563Y-10064650D02*
X2391610Y-10074174D01*
X2391610Y-10074174D02*
X2401134Y-10093222D01*
X2401134Y-10093222D02*
X2401134Y-10197984D01*
X2401134Y-10093222D02*
X2410658Y-10074174D01*
X2410658Y-10074174D02*
X2429705Y-10064650D01*
X2429705Y-10064650D02*
X2458277Y-10064650D01*
X2458277Y-10064650D02*
X2477325Y-10074174D01*
X2477325Y-10074174D02*
X2486848Y-10093222D01*
X2486848Y-10093222D02*
X2486848Y-10197984D01*
X2582086Y-10197984D02*
X2582086Y-10064650D01*
X2582086Y-10083698D02*
X2591610Y-10074174D01*
X2591610Y-10074174D02*
X2610658Y-10064650D01*
X2610658Y-10064650D02*
X2639229Y-10064650D01*
X2639229Y-10064650D02*
X2658277Y-10074174D01*
X2658277Y-10074174D02*
X2667801Y-10093222D01*
X2667801Y-10093222D02*
X2667801Y-10197984D01*
X2667801Y-10093222D02*
X2677325Y-10074174D01*
X2677325Y-10074174D02*
X2696372Y-10064650D01*
X2696372Y-10064650D02*
X2724944Y-10064650D01*
X2724944Y-10064650D02*
X2743991Y-10074174D01*
X2743991Y-10074174D02*
X2753515Y-10093222D01*
X2753515Y-10093222D02*
X2753515Y-10197984D01*
X3143991Y-9988460D02*
X2972563Y-10245603D01*
X3401134Y-9997984D02*
X3420182Y-9997984D01*
X3420182Y-9997984D02*
X3439229Y-10007508D01*
X3439229Y-10007508D02*
X3448753Y-10017031D01*
X3448753Y-10017031D02*
X3458277Y-10036079D01*
X3458277Y-10036079D02*
X3467801Y-10074174D01*
X3467801Y-10074174D02*
X3467801Y-10121793D01*
X3467801Y-10121793D02*
X3458277Y-10159889D01*
X3458277Y-10159889D02*
X3448753Y-10178936D01*
X3448753Y-10178936D02*
X3439229Y-10188460D01*
X3439229Y-10188460D02*
X3420182Y-10197984D01*
X3420182Y-10197984D02*
X3401134Y-10197984D01*
X3401134Y-10197984D02*
X3382086Y-10188460D01*
X3382086Y-10188460D02*
X3372563Y-10178936D01*
X3372563Y-10178936D02*
X3363039Y-10159889D01*
X3363039Y-10159889D02*
X3353515Y-10121793D01*
X3353515Y-10121793D02*
X3353515Y-10074174D01*
X3353515Y-10074174D02*
X3363039Y-10036079D01*
X3363039Y-10036079D02*
X3372563Y-10017031D01*
X3372563Y-10017031D02*
X3382086Y-10007508D01*
X3382086Y-10007508D02*
X3401134Y-9997984D01*
X3553515Y-10178936D02*
X3563039Y-10188460D01*
X3563039Y-10188460D02*
X3553515Y-10197984D01*
X3553515Y-10197984D02*
X3543991Y-10188460D01*
X3543991Y-10188460D02*
X3553515Y-10178936D01*
X3553515Y-10178936D02*
X3553515Y-10197984D01*
X3686848Y-9997984D02*
X3705896Y-9997984D01*
X3705896Y-9997984D02*
X3724944Y-10007508D01*
X3724944Y-10007508D02*
X3734467Y-10017031D01*
X3734467Y-10017031D02*
X3743991Y-10036079D01*
X3743991Y-10036079D02*
X3753515Y-10074174D01*
X3753515Y-10074174D02*
X3753515Y-10121793D01*
X3753515Y-10121793D02*
X3743991Y-10159889D01*
X3743991Y-10159889D02*
X3734467Y-10178936D01*
X3734467Y-10178936D02*
X3724944Y-10188460D01*
X3724944Y-10188460D02*
X3705896Y-10197984D01*
X3705896Y-10197984D02*
X3686848Y-10197984D01*
X3686848Y-10197984D02*
X3667801Y-10188460D01*
X3667801Y-10188460D02*
X3658277Y-10178936D01*
X3658277Y-10178936D02*
X3648753Y-10159889D01*
X3648753Y-10159889D02*
X3639229Y-10121793D01*
X3639229Y-10121793D02*
X3639229Y-10074174D01*
X3639229Y-10074174D02*
X3648753Y-10036079D01*
X3648753Y-10036079D02*
X3658277Y-10017031D01*
X3658277Y-10017031D02*
X3667801Y-10007508D01*
X3667801Y-10007508D02*
X3686848Y-9997984D01*
X3829706Y-10017031D02*
X3839229Y-10007508D01*
X3839229Y-10007508D02*
X3858277Y-9997984D01*
X3858277Y-9997984D02*
X3905896Y-9997984D01*
X3905896Y-9997984D02*
X3924944Y-10007508D01*
X3924944Y-10007508D02*
X3934467Y-10017031D01*
X3934467Y-10017031D02*
X3943991Y-10036079D01*
X3943991Y-10036079D02*
X3943991Y-10055127D01*
X3943991Y-10055127D02*
X3934467Y-10083698D01*
X3934467Y-10083698D02*
X3820182Y-10197984D01*
X3820182Y-10197984D02*
X3943991Y-10197984D01*
X4039229Y-10197984D02*
X4077325Y-10197984D01*
X4077325Y-10197984D02*
X4096372Y-10188460D01*
X4096372Y-10188460D02*
X4105896Y-10178936D01*
X4105896Y-10178936D02*
X4124944Y-10150365D01*
X4124944Y-10150365D02*
X4134467Y-10112270D01*
X4134467Y-10112270D02*
X4134467Y-10036079D01*
X4134467Y-10036079D02*
X4124944Y-10017031D01*
X4124944Y-10017031D02*
X4115420Y-10007508D01*
X4115420Y-10007508D02*
X4096372Y-9997984D01*
X4096372Y-9997984D02*
X4058277Y-9997984D01*
X4058277Y-9997984D02*
X4039229Y-10007508D01*
X4039229Y-10007508D02*
X4029706Y-10017031D01*
X4029706Y-10017031D02*
X4020182Y-10036079D01*
X4020182Y-10036079D02*
X4020182Y-10083698D01*
X4020182Y-10083698D02*
X4029706Y-10102746D01*
X4029706Y-10102746D02*
X4039229Y-10112270D01*
X4039229Y-10112270D02*
X4058277Y-10121793D01*
X4058277Y-10121793D02*
X4096372Y-10121793D01*
X4096372Y-10121793D02*
X4115420Y-10112270D01*
X4115420Y-10112270D02*
X4124944Y-10102746D01*
X4124944Y-10102746D02*
X4134467Y-10083698D01*
X4315420Y-9997984D02*
X4220182Y-9997984D01*
X4220182Y-9997984D02*
X4210658Y-10093222D01*
X4210658Y-10093222D02*
X4220182Y-10083698D01*
X4220182Y-10083698D02*
X4239229Y-10074174D01*
X4239229Y-10074174D02*
X4286849Y-10074174D01*
X4286849Y-10074174D02*
X4305896Y-10083698D01*
X4305896Y-10083698D02*
X4315420Y-10093222D01*
X4315420Y-10093222D02*
X4324944Y-10112270D01*
X4324944Y-10112270D02*
X4324944Y-10159889D01*
X4324944Y-10159889D02*
X4315420Y-10178936D01*
X4315420Y-10178936D02*
X4305896Y-10188460D01*
X4305896Y-10188460D02*
X4286849Y-10197984D01*
X4286849Y-10197984D02*
X4239229Y-10197984D01*
X4239229Y-10197984D02*
X4220182Y-10188460D01*
X4220182Y-10188460D02*
X4210658Y-10178936D01*
X4401134Y-9997984D02*
X4401134Y-10036079D01*
X4477325Y-9997984D02*
X4477325Y-10036079D01*
X4772563Y-10274174D02*
X4763039Y-10264650D01*
X4763039Y-10264650D02*
X4743991Y-10236079D01*
X4743991Y-10236079D02*
X4734468Y-10217031D01*
X4734468Y-10217031D02*
X4724944Y-10188460D01*
X4724944Y-10188460D02*
X4715420Y-10140841D01*
X4715420Y-10140841D02*
X4715420Y-10102746D01*
X4715420Y-10102746D02*
X4724944Y-10055127D01*
X4724944Y-10055127D02*
X4734468Y-10026555D01*
X4734468Y-10026555D02*
X4743991Y-10007508D01*
X4743991Y-10007508D02*
X4763039Y-9978936D01*
X4763039Y-9978936D02*
X4772563Y-9969412D01*
X4829706Y-9997984D02*
X4953515Y-9997984D01*
X4953515Y-9997984D02*
X4886849Y-10074174D01*
X4886849Y-10074174D02*
X4915420Y-10074174D01*
X4915420Y-10074174D02*
X4934468Y-10083698D01*
X4934468Y-10083698D02*
X4943991Y-10093222D01*
X4943991Y-10093222D02*
X4953515Y-10112270D01*
X4953515Y-10112270D02*
X4953515Y-10159889D01*
X4953515Y-10159889D02*
X4943991Y-10178936D01*
X4943991Y-10178936D02*
X4934468Y-10188460D01*
X4934468Y-10188460D02*
X4915420Y-10197984D01*
X4915420Y-10197984D02*
X4858277Y-10197984D01*
X4858277Y-10197984D02*
X4839230Y-10188460D01*
X4839230Y-10188460D02*
X4829706Y-10178936D01*
X5191611Y-10197984D02*
X5191611Y-9997984D01*
X5277325Y-10197984D02*
X5277325Y-10093222D01*
X5277325Y-10093222D02*
X5267801Y-10074174D01*
X5267801Y-10074174D02*
X5248753Y-10064650D01*
X5248753Y-10064650D02*
X5220182Y-10064650D01*
X5220182Y-10064650D02*
X5201134Y-10074174D01*
X5201134Y-10074174D02*
X5191611Y-10083698D01*
X5401134Y-10197984D02*
X5382087Y-10188460D01*
X5382087Y-10188460D02*
X5372563Y-10178936D01*
X5372563Y-10178936D02*
X5363039Y-10159889D01*
X5363039Y-10159889D02*
X5363039Y-10102746D01*
X5363039Y-10102746D02*
X5372563Y-10083698D01*
X5372563Y-10083698D02*
X5382087Y-10074174D01*
X5382087Y-10074174D02*
X5401134Y-10064650D01*
X5401134Y-10064650D02*
X5429706Y-10064650D01*
X5429706Y-10064650D02*
X5448753Y-10074174D01*
X5448753Y-10074174D02*
X5458277Y-10083698D01*
X5458277Y-10083698D02*
X5467801Y-10102746D01*
X5467801Y-10102746D02*
X5467801Y-10159889D01*
X5467801Y-10159889D02*
X5458277Y-10178936D01*
X5458277Y-10178936D02*
X5448753Y-10188460D01*
X5448753Y-10188460D02*
X5429706Y-10197984D01*
X5429706Y-10197984D02*
X5401134Y-10197984D01*
X5582087Y-10197984D02*
X5563039Y-10188460D01*
X5563039Y-10188460D02*
X5553515Y-10169412D01*
X5553515Y-10169412D02*
X5553515Y-9997984D01*
X5734468Y-10188460D02*
X5715420Y-10197984D01*
X5715420Y-10197984D02*
X5677325Y-10197984D01*
X5677325Y-10197984D02*
X5658277Y-10188460D01*
X5658277Y-10188460D02*
X5648753Y-10169412D01*
X5648753Y-10169412D02*
X5648753Y-10093222D01*
X5648753Y-10093222D02*
X5658277Y-10074174D01*
X5658277Y-10074174D02*
X5677325Y-10064650D01*
X5677325Y-10064650D02*
X5715420Y-10064650D01*
X5715420Y-10064650D02*
X5734468Y-10074174D01*
X5734468Y-10074174D02*
X5743991Y-10093222D01*
X5743991Y-10093222D02*
X5743991Y-10112270D01*
X5743991Y-10112270D02*
X5648753Y-10131317D01*
X5820182Y-10188460D02*
X5839230Y-10197984D01*
X5839230Y-10197984D02*
X5877325Y-10197984D01*
X5877325Y-10197984D02*
X5896372Y-10188460D01*
X5896372Y-10188460D02*
X5905896Y-10169412D01*
X5905896Y-10169412D02*
X5905896Y-10159889D01*
X5905896Y-10159889D02*
X5896372Y-10140841D01*
X5896372Y-10140841D02*
X5877325Y-10131317D01*
X5877325Y-10131317D02*
X5848753Y-10131317D01*
X5848753Y-10131317D02*
X5829706Y-10121793D01*
X5829706Y-10121793D02*
X5820182Y-10102746D01*
X5820182Y-10102746D02*
X5820182Y-10093222D01*
X5820182Y-10093222D02*
X5829706Y-10074174D01*
X5829706Y-10074174D02*
X5848753Y-10064650D01*
X5848753Y-10064650D02*
X5877325Y-10064650D01*
X5877325Y-10064650D02*
X5896372Y-10074174D01*
X5972563Y-10274174D02*
X5982087Y-10264650D01*
X5982087Y-10264650D02*
X6001134Y-10236079D01*
X6001134Y-10236079D02*
X6010658Y-10217031D01*
X6010658Y-10217031D02*
X6020182Y-10188460D01*
X6020182Y-10188460D02*
X6029706Y-10140841D01*
X6029706Y-10140841D02*
X6029706Y-10102746D01*
X6029706Y-10102746D02*
X6020182Y-10055127D01*
X6020182Y-10055127D02*
X6010658Y-10026555D01*
X6010658Y-10026555D02*
X6001134Y-10007508D01*
X6001134Y-10007508D02*
X5982087Y-9978936D01*
X5982087Y-9978936D02*
X5972563Y-9969412D01*
D12*
X1157500Y-10330500D02*
X1157500Y-10410500D01*
X1117500Y-10370500D02*
X1197500Y-10370500D01*
D11*
X1496372Y-10261984D02*
X1515420Y-10261984D01*
X1515420Y-10261984D02*
X1534467Y-10271508D01*
X1534467Y-10271508D02*
X1543991Y-10281031D01*
X1543991Y-10281031D02*
X1553515Y-10300079D01*
X1553515Y-10300079D02*
X1563039Y-10338174D01*
X1563039Y-10338174D02*
X1563039Y-10385793D01*
X1563039Y-10385793D02*
X1553515Y-10423889D01*
X1553515Y-10423889D02*
X1543991Y-10442936D01*
X1543991Y-10442936D02*
X1534467Y-10452460D01*
X1534467Y-10452460D02*
X1515420Y-10461984D01*
X1515420Y-10461984D02*
X1496372Y-10461984D01*
X1496372Y-10461984D02*
X1477324Y-10452460D01*
X1477324Y-10452460D02*
X1467801Y-10442936D01*
X1467801Y-10442936D02*
X1458277Y-10423889D01*
X1458277Y-10423889D02*
X1448753Y-10385793D01*
X1448753Y-10385793D02*
X1448753Y-10338174D01*
X1448753Y-10338174D02*
X1458277Y-10300079D01*
X1458277Y-10300079D02*
X1467801Y-10281031D01*
X1467801Y-10281031D02*
X1477324Y-10271508D01*
X1477324Y-10271508D02*
X1496372Y-10261984D01*
X1648753Y-10442936D02*
X1658277Y-10452460D01*
X1658277Y-10452460D02*
X1648753Y-10461984D01*
X1648753Y-10461984D02*
X1639229Y-10452460D01*
X1639229Y-10452460D02*
X1648753Y-10442936D01*
X1648753Y-10442936D02*
X1648753Y-10461984D01*
X1772562Y-10347698D02*
X1753515Y-10338174D01*
X1753515Y-10338174D02*
X1743991Y-10328650D01*
X1743991Y-10328650D02*
X1734467Y-10309603D01*
X1734467Y-10309603D02*
X1734467Y-10300079D01*
X1734467Y-10300079D02*
X1743991Y-10281031D01*
X1743991Y-10281031D02*
X1753515Y-10271508D01*
X1753515Y-10271508D02*
X1772562Y-10261984D01*
X1772562Y-10261984D02*
X1810658Y-10261984D01*
X1810658Y-10261984D02*
X1829705Y-10271508D01*
X1829705Y-10271508D02*
X1839229Y-10281031D01*
X1839229Y-10281031D02*
X1848753Y-10300079D01*
X1848753Y-10300079D02*
X1848753Y-10309603D01*
X1848753Y-10309603D02*
X1839229Y-10328650D01*
X1839229Y-10328650D02*
X1829705Y-10338174D01*
X1829705Y-10338174D02*
X1810658Y-10347698D01*
X1810658Y-10347698D02*
X1772562Y-10347698D01*
X1772562Y-10347698D02*
X1753515Y-10357222D01*
X1753515Y-10357222D02*
X1743991Y-10366746D01*
X1743991Y-10366746D02*
X1734467Y-10385793D01*
X1734467Y-10385793D02*
X1734467Y-10423889D01*
X1734467Y-10423889D02*
X1743991Y-10442936D01*
X1743991Y-10442936D02*
X1753515Y-10452460D01*
X1753515Y-10452460D02*
X1772562Y-10461984D01*
X1772562Y-10461984D02*
X1810658Y-10461984D01*
X1810658Y-10461984D02*
X1829705Y-10452460D01*
X1829705Y-10452460D02*
X1839229Y-10442936D01*
X1839229Y-10442936D02*
X1848753Y-10423889D01*
X1848753Y-10423889D02*
X1848753Y-10385793D01*
X1848753Y-10385793D02*
X1839229Y-10366746D01*
X1839229Y-10366746D02*
X1829705Y-10357222D01*
X1829705Y-10357222D02*
X1810658Y-10347698D01*
X1972562Y-10261984D02*
X1991610Y-10261984D01*
X1991610Y-10261984D02*
X2010658Y-10271508D01*
X2010658Y-10271508D02*
X2020182Y-10281031D01*
X2020182Y-10281031D02*
X2029705Y-10300079D01*
X2029705Y-10300079D02*
X2039229Y-10338174D01*
X2039229Y-10338174D02*
X2039229Y-10385793D01*
X2039229Y-10385793D02*
X2029705Y-10423889D01*
X2029705Y-10423889D02*
X2020182Y-10442936D01*
X2020182Y-10442936D02*
X2010658Y-10452460D01*
X2010658Y-10452460D02*
X1991610Y-10461984D01*
X1991610Y-10461984D02*
X1972562Y-10461984D01*
X1972562Y-10461984D02*
X1953515Y-10452460D01*
X1953515Y-10452460D02*
X1943991Y-10442936D01*
X1943991Y-10442936D02*
X1934467Y-10423889D01*
X1934467Y-10423889D02*
X1924943Y-10385793D01*
X1924943Y-10385793D02*
X1924943Y-10338174D01*
X1924943Y-10338174D02*
X1934467Y-10300079D01*
X1934467Y-10300079D02*
X1943991Y-10281031D01*
X1943991Y-10281031D02*
X1953515Y-10271508D01*
X1953515Y-10271508D02*
X1972562Y-10261984D01*
X2163039Y-10261984D02*
X2182086Y-10261984D01*
X2182086Y-10261984D02*
X2201134Y-10271508D01*
X2201134Y-10271508D02*
X2210658Y-10281031D01*
X2210658Y-10281031D02*
X2220182Y-10300079D01*
X2220182Y-10300079D02*
X2229705Y-10338174D01*
X2229705Y-10338174D02*
X2229705Y-10385793D01*
X2229705Y-10385793D02*
X2220182Y-10423889D01*
X2220182Y-10423889D02*
X2210658Y-10442936D01*
X2210658Y-10442936D02*
X2201134Y-10452460D01*
X2201134Y-10452460D02*
X2182086Y-10461984D01*
X2182086Y-10461984D02*
X2163039Y-10461984D01*
X2163039Y-10461984D02*
X2143991Y-10452460D01*
X2143991Y-10452460D02*
X2134467Y-10442936D01*
X2134467Y-10442936D02*
X2124944Y-10423889D01*
X2124944Y-10423889D02*
X2115420Y-10385793D01*
X2115420Y-10385793D02*
X2115420Y-10338174D01*
X2115420Y-10338174D02*
X2124944Y-10300079D01*
X2124944Y-10300079D02*
X2134467Y-10281031D01*
X2134467Y-10281031D02*
X2143991Y-10271508D01*
X2143991Y-10271508D02*
X2163039Y-10261984D01*
X2315420Y-10461984D02*
X2315420Y-10328650D01*
X2315420Y-10347698D02*
X2324944Y-10338174D01*
X2324944Y-10338174D02*
X2343991Y-10328650D01*
X2343991Y-10328650D02*
X2372563Y-10328650D01*
X2372563Y-10328650D02*
X2391610Y-10338174D01*
X2391610Y-10338174D02*
X2401134Y-10357222D01*
X2401134Y-10357222D02*
X2401134Y-10461984D01*
X2401134Y-10357222D02*
X2410658Y-10338174D01*
X2410658Y-10338174D02*
X2429705Y-10328650D01*
X2429705Y-10328650D02*
X2458277Y-10328650D01*
X2458277Y-10328650D02*
X2477325Y-10338174D01*
X2477325Y-10338174D02*
X2486848Y-10357222D01*
X2486848Y-10357222D02*
X2486848Y-10461984D01*
X2582086Y-10461984D02*
X2582086Y-10328650D01*
X2582086Y-10347698D02*
X2591610Y-10338174D01*
X2591610Y-10338174D02*
X2610658Y-10328650D01*
X2610658Y-10328650D02*
X2639229Y-10328650D01*
X2639229Y-10328650D02*
X2658277Y-10338174D01*
X2658277Y-10338174D02*
X2667801Y-10357222D01*
X2667801Y-10357222D02*
X2667801Y-10461984D01*
X2667801Y-10357222D02*
X2677325Y-10338174D01*
X2677325Y-10338174D02*
X2696372Y-10328650D01*
X2696372Y-10328650D02*
X2724944Y-10328650D01*
X2724944Y-10328650D02*
X2743991Y-10338174D01*
X2743991Y-10338174D02*
X2753515Y-10357222D01*
X2753515Y-10357222D02*
X2753515Y-10461984D01*
X3143991Y-10252460D02*
X2972563Y-10509603D01*
X3401134Y-10261984D02*
X3420182Y-10261984D01*
X3420182Y-10261984D02*
X3439229Y-10271508D01*
X3439229Y-10271508D02*
X3448753Y-10281031D01*
X3448753Y-10281031D02*
X3458277Y-10300079D01*
X3458277Y-10300079D02*
X3467801Y-10338174D01*
X3467801Y-10338174D02*
X3467801Y-10385793D01*
X3467801Y-10385793D02*
X3458277Y-10423889D01*
X3458277Y-10423889D02*
X3448753Y-10442936D01*
X3448753Y-10442936D02*
X3439229Y-10452460D01*
X3439229Y-10452460D02*
X3420182Y-10461984D01*
X3420182Y-10461984D02*
X3401134Y-10461984D01*
X3401134Y-10461984D02*
X3382086Y-10452460D01*
X3382086Y-10452460D02*
X3372563Y-10442936D01*
X3372563Y-10442936D02*
X3363039Y-10423889D01*
X3363039Y-10423889D02*
X3353515Y-10385793D01*
X3353515Y-10385793D02*
X3353515Y-10338174D01*
X3353515Y-10338174D02*
X3363039Y-10300079D01*
X3363039Y-10300079D02*
X3372563Y-10281031D01*
X3372563Y-10281031D02*
X3382086Y-10271508D01*
X3382086Y-10271508D02*
X3401134Y-10261984D01*
X3553515Y-10442936D02*
X3563039Y-10452460D01*
X3563039Y-10452460D02*
X3553515Y-10461984D01*
X3553515Y-10461984D02*
X3543991Y-10452460D01*
X3543991Y-10452460D02*
X3553515Y-10442936D01*
X3553515Y-10442936D02*
X3553515Y-10461984D01*
X3686848Y-10261984D02*
X3705896Y-10261984D01*
X3705896Y-10261984D02*
X3724944Y-10271508D01*
X3724944Y-10271508D02*
X3734467Y-10281031D01*
X3734467Y-10281031D02*
X3743991Y-10300079D01*
X3743991Y-10300079D02*
X3753515Y-10338174D01*
X3753515Y-10338174D02*
X3753515Y-10385793D01*
X3753515Y-10385793D02*
X3743991Y-10423889D01*
X3743991Y-10423889D02*
X3734467Y-10442936D01*
X3734467Y-10442936D02*
X3724944Y-10452460D01*
X3724944Y-10452460D02*
X3705896Y-10461984D01*
X3705896Y-10461984D02*
X3686848Y-10461984D01*
X3686848Y-10461984D02*
X3667801Y-10452460D01*
X3667801Y-10452460D02*
X3658277Y-10442936D01*
X3658277Y-10442936D02*
X3648753Y-10423889D01*
X3648753Y-10423889D02*
X3639229Y-10385793D01*
X3639229Y-10385793D02*
X3639229Y-10338174D01*
X3639229Y-10338174D02*
X3648753Y-10300079D01*
X3648753Y-10300079D02*
X3658277Y-10281031D01*
X3658277Y-10281031D02*
X3667801Y-10271508D01*
X3667801Y-10271508D02*
X3686848Y-10261984D01*
X3820182Y-10261984D02*
X3943991Y-10261984D01*
X3943991Y-10261984D02*
X3877325Y-10338174D01*
X3877325Y-10338174D02*
X3905896Y-10338174D01*
X3905896Y-10338174D02*
X3924944Y-10347698D01*
X3924944Y-10347698D02*
X3934467Y-10357222D01*
X3934467Y-10357222D02*
X3943991Y-10376270D01*
X3943991Y-10376270D02*
X3943991Y-10423889D01*
X3943991Y-10423889D02*
X3934467Y-10442936D01*
X3934467Y-10442936D02*
X3924944Y-10452460D01*
X3924944Y-10452460D02*
X3905896Y-10461984D01*
X3905896Y-10461984D02*
X3848753Y-10461984D01*
X3848753Y-10461984D02*
X3829706Y-10452460D01*
X3829706Y-10452460D02*
X3820182Y-10442936D01*
X4134467Y-10461984D02*
X4020182Y-10461984D01*
X4077325Y-10461984D02*
X4077325Y-10261984D01*
X4077325Y-10261984D02*
X4058277Y-10290555D01*
X4058277Y-10290555D02*
X4039229Y-10309603D01*
X4039229Y-10309603D02*
X4020182Y-10319127D01*
X4315420Y-10261984D02*
X4220182Y-10261984D01*
X4220182Y-10261984D02*
X4210658Y-10357222D01*
X4210658Y-10357222D02*
X4220182Y-10347698D01*
X4220182Y-10347698D02*
X4239229Y-10338174D01*
X4239229Y-10338174D02*
X4286849Y-10338174D01*
X4286849Y-10338174D02*
X4305896Y-10347698D01*
X4305896Y-10347698D02*
X4315420Y-10357222D01*
X4315420Y-10357222D02*
X4324944Y-10376270D01*
X4324944Y-10376270D02*
X4324944Y-10423889D01*
X4324944Y-10423889D02*
X4315420Y-10442936D01*
X4315420Y-10442936D02*
X4305896Y-10452460D01*
X4305896Y-10452460D02*
X4286849Y-10461984D01*
X4286849Y-10461984D02*
X4239229Y-10461984D01*
X4239229Y-10461984D02*
X4220182Y-10452460D01*
X4220182Y-10452460D02*
X4210658Y-10442936D01*
X4401134Y-10261984D02*
X4401134Y-10300079D01*
X4477325Y-10261984D02*
X4477325Y-10300079D01*
X4772563Y-10538174D02*
X4763039Y-10528650D01*
X4763039Y-10528650D02*
X4743991Y-10500079D01*
X4743991Y-10500079D02*
X4734468Y-10481031D01*
X4734468Y-10481031D02*
X4724944Y-10452460D01*
X4724944Y-10452460D02*
X4715420Y-10404841D01*
X4715420Y-10404841D02*
X4715420Y-10366746D01*
X4715420Y-10366746D02*
X4724944Y-10319127D01*
X4724944Y-10319127D02*
X4734468Y-10290555D01*
X4734468Y-10290555D02*
X4743991Y-10271508D01*
X4743991Y-10271508D02*
X4763039Y-10242936D01*
X4763039Y-10242936D02*
X4772563Y-10233412D01*
X4839230Y-10281031D02*
X4848753Y-10271508D01*
X4848753Y-10271508D02*
X4867801Y-10261984D01*
X4867801Y-10261984D02*
X4915420Y-10261984D01*
X4915420Y-10261984D02*
X4934468Y-10271508D01*
X4934468Y-10271508D02*
X4943991Y-10281031D01*
X4943991Y-10281031D02*
X4953515Y-10300079D01*
X4953515Y-10300079D02*
X4953515Y-10319127D01*
X4953515Y-10319127D02*
X4943991Y-10347698D01*
X4943991Y-10347698D02*
X4829706Y-10461984D01*
X4829706Y-10461984D02*
X4953515Y-10461984D01*
X5143991Y-10461984D02*
X5029706Y-10461984D01*
X5086849Y-10461984D02*
X5086849Y-10261984D01*
X5086849Y-10261984D02*
X5067801Y-10290555D01*
X5067801Y-10290555D02*
X5048753Y-10309603D01*
X5048753Y-10309603D02*
X5029706Y-10319127D01*
X5315420Y-10261984D02*
X5277325Y-10261984D01*
X5277325Y-10261984D02*
X5258277Y-10271508D01*
X5258277Y-10271508D02*
X5248753Y-10281031D01*
X5248753Y-10281031D02*
X5229706Y-10309603D01*
X5229706Y-10309603D02*
X5220182Y-10347698D01*
X5220182Y-10347698D02*
X5220182Y-10423889D01*
X5220182Y-10423889D02*
X5229706Y-10442936D01*
X5229706Y-10442936D02*
X5239230Y-10452460D01*
X5239230Y-10452460D02*
X5258277Y-10461984D01*
X5258277Y-10461984D02*
X5296372Y-10461984D01*
X5296372Y-10461984D02*
X5315420Y-10452460D01*
X5315420Y-10452460D02*
X5324944Y-10442936D01*
X5324944Y-10442936D02*
X5334468Y-10423889D01*
X5334468Y-10423889D02*
X5334468Y-10376270D01*
X5334468Y-10376270D02*
X5324944Y-10357222D01*
X5324944Y-10357222D02*
X5315420Y-10347698D01*
X5315420Y-10347698D02*
X5296372Y-10338174D01*
X5296372Y-10338174D02*
X5258277Y-10338174D01*
X5258277Y-10338174D02*
X5239230Y-10347698D01*
X5239230Y-10347698D02*
X5229706Y-10357222D01*
X5229706Y-10357222D02*
X5220182Y-10376270D01*
X5572563Y-10461984D02*
X5572563Y-10261984D01*
X5658277Y-10461984D02*
X5658277Y-10357222D01*
X5658277Y-10357222D02*
X5648753Y-10338174D01*
X5648753Y-10338174D02*
X5629706Y-10328650D01*
X5629706Y-10328650D02*
X5601134Y-10328650D01*
X5601134Y-10328650D02*
X5582087Y-10338174D01*
X5582087Y-10338174D02*
X5572563Y-10347698D01*
X5782087Y-10461984D02*
X5763039Y-10452460D01*
X5763039Y-10452460D02*
X5753515Y-10442936D01*
X5753515Y-10442936D02*
X5743991Y-10423889D01*
X5743991Y-10423889D02*
X5743991Y-10366746D01*
X5743991Y-10366746D02*
X5753515Y-10347698D01*
X5753515Y-10347698D02*
X5763039Y-10338174D01*
X5763039Y-10338174D02*
X5782087Y-10328650D01*
X5782087Y-10328650D02*
X5810658Y-10328650D01*
X5810658Y-10328650D02*
X5829706Y-10338174D01*
X5829706Y-10338174D02*
X5839230Y-10347698D01*
X5839230Y-10347698D02*
X5848753Y-10366746D01*
X5848753Y-10366746D02*
X5848753Y-10423889D01*
X5848753Y-10423889D02*
X5839230Y-10442936D01*
X5839230Y-10442936D02*
X5829706Y-10452460D01*
X5829706Y-10452460D02*
X5810658Y-10461984D01*
X5810658Y-10461984D02*
X5782087Y-10461984D01*
X5963039Y-10461984D02*
X5943991Y-10452460D01*
X5943991Y-10452460D02*
X5934468Y-10433412D01*
X5934468Y-10433412D02*
X5934468Y-10261984D01*
X6115420Y-10452460D02*
X6096372Y-10461984D01*
X6096372Y-10461984D02*
X6058277Y-10461984D01*
X6058277Y-10461984D02*
X6039230Y-10452460D01*
X6039230Y-10452460D02*
X6029706Y-10433412D01*
X6029706Y-10433412D02*
X6029706Y-10357222D01*
X6029706Y-10357222D02*
X6039230Y-10338174D01*
X6039230Y-10338174D02*
X6058277Y-10328650D01*
X6058277Y-10328650D02*
X6096372Y-10328650D01*
X6096372Y-10328650D02*
X6115420Y-10338174D01*
X6115420Y-10338174D02*
X6124944Y-10357222D01*
X6124944Y-10357222D02*
X6124944Y-10376270D01*
X6124944Y-10376270D02*
X6029706Y-10395317D01*
X6201134Y-10452460D02*
X6220182Y-10461984D01*
X6220182Y-10461984D02*
X6258277Y-10461984D01*
X6258277Y-10461984D02*
X6277325Y-10452460D01*
X6277325Y-10452460D02*
X6286849Y-10433412D01*
X6286849Y-10433412D02*
X6286849Y-10423889D01*
X6286849Y-10423889D02*
X6277325Y-10404841D01*
X6277325Y-10404841D02*
X6258277Y-10395317D01*
X6258277Y-10395317D02*
X6229706Y-10395317D01*
X6229706Y-10395317D02*
X6210658Y-10385793D01*
X6210658Y-10385793D02*
X6201134Y-10366746D01*
X6201134Y-10366746D02*
X6201134Y-10357222D01*
X6201134Y-10357222D02*
X6210658Y-10338174D01*
X6210658Y-10338174D02*
X6229706Y-10328650D01*
X6229706Y-10328650D02*
X6258277Y-10328650D01*
X6258277Y-10328650D02*
X6277325Y-10338174D01*
X6353515Y-10538174D02*
X6363039Y-10528650D01*
X6363039Y-10528650D02*
X6382087Y-10500079D01*
X6382087Y-10500079D02*
X6391611Y-10481031D01*
X6391611Y-10481031D02*
X6401134Y-10452460D01*
X6401134Y-10452460D02*
X6410658Y-10404841D01*
X6410658Y-10404841D02*
X6410658Y-10366746D01*
X6410658Y-10366746D02*
X6401134Y-10319127D01*
X6401134Y-10319127D02*
X6391611Y-10290555D01*
X6391611Y-10290555D02*
X6382087Y-10271508D01*
X6382087Y-10271508D02*
X6363039Y-10242936D01*
X6363039Y-10242936D02*
X6353515Y-10233412D01*
D12*
X1182856Y-10669856D02*
X1182856Y-10599144D01*
X1112144Y-10599144D01*
X1112144Y-10669856D01*
X1182856Y-10669856D01*
D11*
X1563039Y-10725984D02*
X1448753Y-10725984D01*
X1505896Y-10725984D02*
X1505896Y-10525984D01*
X1505896Y-10525984D02*
X1486848Y-10554555D01*
X1486848Y-10554555D02*
X1467801Y-10573603D01*
X1467801Y-10573603D02*
X1448753Y-10583127D01*
X1648753Y-10706936D02*
X1658277Y-10716460D01*
X1658277Y-10716460D02*
X1648753Y-10725984D01*
X1648753Y-10725984D02*
X1639229Y-10716460D01*
X1639229Y-10716460D02*
X1648753Y-10706936D01*
X1648753Y-10706936D02*
X1648753Y-10725984D01*
X1782086Y-10525984D02*
X1801134Y-10525984D01*
X1801134Y-10525984D02*
X1820182Y-10535508D01*
X1820182Y-10535508D02*
X1829705Y-10545031D01*
X1829705Y-10545031D02*
X1839229Y-10564079D01*
X1839229Y-10564079D02*
X1848753Y-10602174D01*
X1848753Y-10602174D02*
X1848753Y-10649793D01*
X1848753Y-10649793D02*
X1839229Y-10687889D01*
X1839229Y-10687889D02*
X1829705Y-10706936D01*
X1829705Y-10706936D02*
X1820182Y-10716460D01*
X1820182Y-10716460D02*
X1801134Y-10725984D01*
X1801134Y-10725984D02*
X1782086Y-10725984D01*
X1782086Y-10725984D02*
X1763039Y-10716460D01*
X1763039Y-10716460D02*
X1753515Y-10706936D01*
X1753515Y-10706936D02*
X1743991Y-10687889D01*
X1743991Y-10687889D02*
X1734467Y-10649793D01*
X1734467Y-10649793D02*
X1734467Y-10602174D01*
X1734467Y-10602174D02*
X1743991Y-10564079D01*
X1743991Y-10564079D02*
X1753515Y-10545031D01*
X1753515Y-10545031D02*
X1763039Y-10535508D01*
X1763039Y-10535508D02*
X1782086Y-10525984D01*
X1972562Y-10525984D02*
X1991610Y-10525984D01*
X1991610Y-10525984D02*
X2010658Y-10535508D01*
X2010658Y-10535508D02*
X2020182Y-10545031D01*
X2020182Y-10545031D02*
X2029705Y-10564079D01*
X2029705Y-10564079D02*
X2039229Y-10602174D01*
X2039229Y-10602174D02*
X2039229Y-10649793D01*
X2039229Y-10649793D02*
X2029705Y-10687889D01*
X2029705Y-10687889D02*
X2020182Y-10706936D01*
X2020182Y-10706936D02*
X2010658Y-10716460D01*
X2010658Y-10716460D02*
X1991610Y-10725984D01*
X1991610Y-10725984D02*
X1972562Y-10725984D01*
X1972562Y-10725984D02*
X1953515Y-10716460D01*
X1953515Y-10716460D02*
X1943991Y-10706936D01*
X1943991Y-10706936D02*
X1934467Y-10687889D01*
X1934467Y-10687889D02*
X1924943Y-10649793D01*
X1924943Y-10649793D02*
X1924943Y-10602174D01*
X1924943Y-10602174D02*
X1934467Y-10564079D01*
X1934467Y-10564079D02*
X1943991Y-10545031D01*
X1943991Y-10545031D02*
X1953515Y-10535508D01*
X1953515Y-10535508D02*
X1972562Y-10525984D01*
X2163039Y-10525984D02*
X2182086Y-10525984D01*
X2182086Y-10525984D02*
X2201134Y-10535508D01*
X2201134Y-10535508D02*
X2210658Y-10545031D01*
X2210658Y-10545031D02*
X2220182Y-10564079D01*
X2220182Y-10564079D02*
X2229705Y-10602174D01*
X2229705Y-10602174D02*
X2229705Y-10649793D01*
X2229705Y-10649793D02*
X2220182Y-10687889D01*
X2220182Y-10687889D02*
X2210658Y-10706936D01*
X2210658Y-10706936D02*
X2201134Y-10716460D01*
X2201134Y-10716460D02*
X2182086Y-10725984D01*
X2182086Y-10725984D02*
X2163039Y-10725984D01*
X2163039Y-10725984D02*
X2143991Y-10716460D01*
X2143991Y-10716460D02*
X2134467Y-10706936D01*
X2134467Y-10706936D02*
X2124944Y-10687889D01*
X2124944Y-10687889D02*
X2115420Y-10649793D01*
X2115420Y-10649793D02*
X2115420Y-10602174D01*
X2115420Y-10602174D02*
X2124944Y-10564079D01*
X2124944Y-10564079D02*
X2134467Y-10545031D01*
X2134467Y-10545031D02*
X2143991Y-10535508D01*
X2143991Y-10535508D02*
X2163039Y-10525984D01*
X2315420Y-10725984D02*
X2315420Y-10592650D01*
X2315420Y-10611698D02*
X2324944Y-10602174D01*
X2324944Y-10602174D02*
X2343991Y-10592650D01*
X2343991Y-10592650D02*
X2372563Y-10592650D01*
X2372563Y-10592650D02*
X2391610Y-10602174D01*
X2391610Y-10602174D02*
X2401134Y-10621222D01*
X2401134Y-10621222D02*
X2401134Y-10725984D01*
X2401134Y-10621222D02*
X2410658Y-10602174D01*
X2410658Y-10602174D02*
X2429705Y-10592650D01*
X2429705Y-10592650D02*
X2458277Y-10592650D01*
X2458277Y-10592650D02*
X2477325Y-10602174D01*
X2477325Y-10602174D02*
X2486848Y-10621222D01*
X2486848Y-10621222D02*
X2486848Y-10725984D01*
X2582086Y-10725984D02*
X2582086Y-10592650D01*
X2582086Y-10611698D02*
X2591610Y-10602174D01*
X2591610Y-10602174D02*
X2610658Y-10592650D01*
X2610658Y-10592650D02*
X2639229Y-10592650D01*
X2639229Y-10592650D02*
X2658277Y-10602174D01*
X2658277Y-10602174D02*
X2667801Y-10621222D01*
X2667801Y-10621222D02*
X2667801Y-10725984D01*
X2667801Y-10621222D02*
X2677325Y-10602174D01*
X2677325Y-10602174D02*
X2696372Y-10592650D01*
X2696372Y-10592650D02*
X2724944Y-10592650D01*
X2724944Y-10592650D02*
X2743991Y-10602174D01*
X2743991Y-10602174D02*
X2753515Y-10621222D01*
X2753515Y-10621222D02*
X2753515Y-10725984D01*
X3143991Y-10516460D02*
X2972563Y-10773603D01*
X3401134Y-10525984D02*
X3420182Y-10525984D01*
X3420182Y-10525984D02*
X3439229Y-10535508D01*
X3439229Y-10535508D02*
X3448753Y-10545031D01*
X3448753Y-10545031D02*
X3458277Y-10564079D01*
X3458277Y-10564079D02*
X3467801Y-10602174D01*
X3467801Y-10602174D02*
X3467801Y-10649793D01*
X3467801Y-10649793D02*
X3458277Y-10687889D01*
X3458277Y-10687889D02*
X3448753Y-10706936D01*
X3448753Y-10706936D02*
X3439229Y-10716460D01*
X3439229Y-10716460D02*
X3420182Y-10725984D01*
X3420182Y-10725984D02*
X3401134Y-10725984D01*
X3401134Y-10725984D02*
X3382086Y-10716460D01*
X3382086Y-10716460D02*
X3372563Y-10706936D01*
X3372563Y-10706936D02*
X3363039Y-10687889D01*
X3363039Y-10687889D02*
X3353515Y-10649793D01*
X3353515Y-10649793D02*
X3353515Y-10602174D01*
X3353515Y-10602174D02*
X3363039Y-10564079D01*
X3363039Y-10564079D02*
X3372563Y-10545031D01*
X3372563Y-10545031D02*
X3382086Y-10535508D01*
X3382086Y-10535508D02*
X3401134Y-10525984D01*
X3553515Y-10706936D02*
X3563039Y-10716460D01*
X3563039Y-10716460D02*
X3553515Y-10725984D01*
X3553515Y-10725984D02*
X3543991Y-10716460D01*
X3543991Y-10716460D02*
X3553515Y-10706936D01*
X3553515Y-10706936D02*
X3553515Y-10725984D01*
X3686848Y-10525984D02*
X3705896Y-10525984D01*
X3705896Y-10525984D02*
X3724944Y-10535508D01*
X3724944Y-10535508D02*
X3734467Y-10545031D01*
X3734467Y-10545031D02*
X3743991Y-10564079D01*
X3743991Y-10564079D02*
X3753515Y-10602174D01*
X3753515Y-10602174D02*
X3753515Y-10649793D01*
X3753515Y-10649793D02*
X3743991Y-10687889D01*
X3743991Y-10687889D02*
X3734467Y-10706936D01*
X3734467Y-10706936D02*
X3724944Y-10716460D01*
X3724944Y-10716460D02*
X3705896Y-10725984D01*
X3705896Y-10725984D02*
X3686848Y-10725984D01*
X3686848Y-10725984D02*
X3667801Y-10716460D01*
X3667801Y-10716460D02*
X3658277Y-10706936D01*
X3658277Y-10706936D02*
X3648753Y-10687889D01*
X3648753Y-10687889D02*
X3639229Y-10649793D01*
X3639229Y-10649793D02*
X3639229Y-10602174D01*
X3639229Y-10602174D02*
X3648753Y-10564079D01*
X3648753Y-10564079D02*
X3658277Y-10545031D01*
X3658277Y-10545031D02*
X3667801Y-10535508D01*
X3667801Y-10535508D02*
X3686848Y-10525984D01*
X3820182Y-10525984D02*
X3943991Y-10525984D01*
X3943991Y-10525984D02*
X3877325Y-10602174D01*
X3877325Y-10602174D02*
X3905896Y-10602174D01*
X3905896Y-10602174D02*
X3924944Y-10611698D01*
X3924944Y-10611698D02*
X3934467Y-10621222D01*
X3934467Y-10621222D02*
X3943991Y-10640270D01*
X3943991Y-10640270D02*
X3943991Y-10687889D01*
X3943991Y-10687889D02*
X3934467Y-10706936D01*
X3934467Y-10706936D02*
X3924944Y-10716460D01*
X3924944Y-10716460D02*
X3905896Y-10725984D01*
X3905896Y-10725984D02*
X3848753Y-10725984D01*
X3848753Y-10725984D02*
X3829706Y-10716460D01*
X3829706Y-10716460D02*
X3820182Y-10706936D01*
X4039229Y-10725984D02*
X4077325Y-10725984D01*
X4077325Y-10725984D02*
X4096372Y-10716460D01*
X4096372Y-10716460D02*
X4105896Y-10706936D01*
X4105896Y-10706936D02*
X4124944Y-10678365D01*
X4124944Y-10678365D02*
X4134467Y-10640270D01*
X4134467Y-10640270D02*
X4134467Y-10564079D01*
X4134467Y-10564079D02*
X4124944Y-10545031D01*
X4124944Y-10545031D02*
X4115420Y-10535508D01*
X4115420Y-10535508D02*
X4096372Y-10525984D01*
X4096372Y-10525984D02*
X4058277Y-10525984D01*
X4058277Y-10525984D02*
X4039229Y-10535508D01*
X4039229Y-10535508D02*
X4029706Y-10545031D01*
X4029706Y-10545031D02*
X4020182Y-10564079D01*
X4020182Y-10564079D02*
X4020182Y-10611698D01*
X4020182Y-10611698D02*
X4029706Y-10630746D01*
X4029706Y-10630746D02*
X4039229Y-10640270D01*
X4039229Y-10640270D02*
X4058277Y-10649793D01*
X4058277Y-10649793D02*
X4096372Y-10649793D01*
X4096372Y-10649793D02*
X4115420Y-10640270D01*
X4115420Y-10640270D02*
X4124944Y-10630746D01*
X4124944Y-10630746D02*
X4134467Y-10611698D01*
X4305896Y-10592650D02*
X4305896Y-10725984D01*
X4258277Y-10516460D02*
X4210658Y-10659317D01*
X4210658Y-10659317D02*
X4334468Y-10659317D01*
X4401134Y-10525984D02*
X4401134Y-10564079D01*
X4477325Y-10525984D02*
X4477325Y-10564079D01*
X4772563Y-10802174D02*
X4763039Y-10792650D01*
X4763039Y-10792650D02*
X4743991Y-10764079D01*
X4743991Y-10764079D02*
X4734468Y-10745031D01*
X4734468Y-10745031D02*
X4724944Y-10716460D01*
X4724944Y-10716460D02*
X4715420Y-10668841D01*
X4715420Y-10668841D02*
X4715420Y-10630746D01*
X4715420Y-10630746D02*
X4724944Y-10583127D01*
X4724944Y-10583127D02*
X4734468Y-10554555D01*
X4734468Y-10554555D02*
X4743991Y-10535508D01*
X4743991Y-10535508D02*
X4763039Y-10506936D01*
X4763039Y-10506936D02*
X4772563Y-10497412D01*
X4934468Y-10592650D02*
X4934468Y-10725984D01*
X4886849Y-10516460D02*
X4839230Y-10659317D01*
X4839230Y-10659317D02*
X4963039Y-10659317D01*
X5077325Y-10525984D02*
X5096372Y-10525984D01*
X5096372Y-10525984D02*
X5115420Y-10535508D01*
X5115420Y-10535508D02*
X5124944Y-10545031D01*
X5124944Y-10545031D02*
X5134468Y-10564079D01*
X5134468Y-10564079D02*
X5143991Y-10602174D01*
X5143991Y-10602174D02*
X5143991Y-10649793D01*
X5143991Y-10649793D02*
X5134468Y-10687889D01*
X5134468Y-10687889D02*
X5124944Y-10706936D01*
X5124944Y-10706936D02*
X5115420Y-10716460D01*
X5115420Y-10716460D02*
X5096372Y-10725984D01*
X5096372Y-10725984D02*
X5077325Y-10725984D01*
X5077325Y-10725984D02*
X5058277Y-10716460D01*
X5058277Y-10716460D02*
X5048753Y-10706936D01*
X5048753Y-10706936D02*
X5039230Y-10687889D01*
X5039230Y-10687889D02*
X5029706Y-10649793D01*
X5029706Y-10649793D02*
X5029706Y-10602174D01*
X5029706Y-10602174D02*
X5039230Y-10564079D01*
X5039230Y-10564079D02*
X5048753Y-10545031D01*
X5048753Y-10545031D02*
X5058277Y-10535508D01*
X5058277Y-10535508D02*
X5077325Y-10525984D01*
X5382087Y-10725984D02*
X5382087Y-10525984D01*
X5467801Y-10725984D02*
X5467801Y-10621222D01*
X5467801Y-10621222D02*
X5458277Y-10602174D01*
X5458277Y-10602174D02*
X5439230Y-10592650D01*
X5439230Y-10592650D02*
X5410658Y-10592650D01*
X5410658Y-10592650D02*
X5391611Y-10602174D01*
X5391611Y-10602174D02*
X5382087Y-10611698D01*
X5591611Y-10725984D02*
X5572563Y-10716460D01*
X5572563Y-10716460D02*
X5563039Y-10706936D01*
X5563039Y-10706936D02*
X5553515Y-10687889D01*
X5553515Y-10687889D02*
X5553515Y-10630746D01*
X5553515Y-10630746D02*
X5563039Y-10611698D01*
X5563039Y-10611698D02*
X5572563Y-10602174D01*
X5572563Y-10602174D02*
X5591611Y-10592650D01*
X5591611Y-10592650D02*
X5620182Y-10592650D01*
X5620182Y-10592650D02*
X5639230Y-10602174D01*
X5639230Y-10602174D02*
X5648753Y-10611698D01*
X5648753Y-10611698D02*
X5658277Y-10630746D01*
X5658277Y-10630746D02*
X5658277Y-10687889D01*
X5658277Y-10687889D02*
X5648753Y-10706936D01*
X5648753Y-10706936D02*
X5639230Y-10716460D01*
X5639230Y-10716460D02*
X5620182Y-10725984D01*
X5620182Y-10725984D02*
X5591611Y-10725984D01*
X5772563Y-10725984D02*
X5753515Y-10716460D01*
X5753515Y-10716460D02*
X5743991Y-10697412D01*
X5743991Y-10697412D02*
X5743991Y-10525984D01*
X5924944Y-10716460D02*
X5905896Y-10725984D01*
X5905896Y-10725984D02*
X5867801Y-10725984D01*
X5867801Y-10725984D02*
X5848753Y-10716460D01*
X5848753Y-10716460D02*
X5839230Y-10697412D01*
X5839230Y-10697412D02*
X5839230Y-10621222D01*
X5839230Y-10621222D02*
X5848753Y-10602174D01*
X5848753Y-10602174D02*
X5867801Y-10592650D01*
X5867801Y-10592650D02*
X5905896Y-10592650D01*
X5905896Y-10592650D02*
X5924944Y-10602174D01*
X5924944Y-10602174D02*
X5934468Y-10621222D01*
X5934468Y-10621222D02*
X5934468Y-10640270D01*
X5934468Y-10640270D02*
X5839230Y-10659317D01*
X6010658Y-10716460D02*
X6029706Y-10725984D01*
X6029706Y-10725984D02*
X6067801Y-10725984D01*
X6067801Y-10725984D02*
X6086849Y-10716460D01*
X6086849Y-10716460D02*
X6096372Y-10697412D01*
X6096372Y-10697412D02*
X6096372Y-10687889D01*
X6096372Y-10687889D02*
X6086849Y-10668841D01*
X6086849Y-10668841D02*
X6067801Y-10659317D01*
X6067801Y-10659317D02*
X6039230Y-10659317D01*
X6039230Y-10659317D02*
X6020182Y-10649793D01*
X6020182Y-10649793D02*
X6010658Y-10630746D01*
X6010658Y-10630746D02*
X6010658Y-10621222D01*
X6010658Y-10621222D02*
X6020182Y-10602174D01*
X6020182Y-10602174D02*
X6039230Y-10592650D01*
X6039230Y-10592650D02*
X6067801Y-10592650D01*
X6067801Y-10592650D02*
X6086849Y-10602174D01*
X6334468Y-10649793D02*
X6486849Y-10649793D01*
X6410658Y-10725984D02*
X6410658Y-10573603D01*
X6715420Y-10525984D02*
X6839230Y-10525984D01*
X6839230Y-10525984D02*
X6772563Y-10602174D01*
X6772563Y-10602174D02*
X6801134Y-10602174D01*
X6801134Y-10602174D02*
X6820182Y-10611698D01*
X6820182Y-10611698D02*
X6829706Y-10621222D01*
X6829706Y-10621222D02*
X6839230Y-10640270D01*
X6839230Y-10640270D02*
X6839230Y-10687889D01*
X6839230Y-10687889D02*
X6829706Y-10706936D01*
X6829706Y-10706936D02*
X6820182Y-10716460D01*
X6820182Y-10716460D02*
X6801134Y-10725984D01*
X6801134Y-10725984D02*
X6743992Y-10725984D01*
X6743992Y-10725984D02*
X6724944Y-10716460D01*
X6724944Y-10716460D02*
X6715420Y-10706936D01*
X7067801Y-10716460D02*
X7086849Y-10725984D01*
X7086849Y-10725984D02*
X7124944Y-10725984D01*
X7124944Y-10725984D02*
X7143992Y-10716460D01*
X7143992Y-10716460D02*
X7153515Y-10697412D01*
X7153515Y-10697412D02*
X7153515Y-10687889D01*
X7153515Y-10687889D02*
X7143992Y-10668841D01*
X7143992Y-10668841D02*
X7124944Y-10659317D01*
X7124944Y-10659317D02*
X7096373Y-10659317D01*
X7096373Y-10659317D02*
X7077325Y-10649793D01*
X7077325Y-10649793D02*
X7067801Y-10630746D01*
X7067801Y-10630746D02*
X7067801Y-10621222D01*
X7067801Y-10621222D02*
X7077325Y-10602174D01*
X7077325Y-10602174D02*
X7096373Y-10592650D01*
X7096373Y-10592650D02*
X7124944Y-10592650D01*
X7124944Y-10592650D02*
X7143992Y-10602174D01*
X7267801Y-10725984D02*
X7248754Y-10716460D01*
X7248754Y-10716460D02*
X7239230Y-10697412D01*
X7239230Y-10697412D02*
X7239230Y-10525984D01*
X7372563Y-10725984D02*
X7353515Y-10716460D01*
X7353515Y-10716460D02*
X7343992Y-10706936D01*
X7343992Y-10706936D02*
X7334468Y-10687889D01*
X7334468Y-10687889D02*
X7334468Y-10630746D01*
X7334468Y-10630746D02*
X7343992Y-10611698D01*
X7343992Y-10611698D02*
X7353515Y-10602174D01*
X7353515Y-10602174D02*
X7372563Y-10592650D01*
X7372563Y-10592650D02*
X7401135Y-10592650D01*
X7401135Y-10592650D02*
X7420182Y-10602174D01*
X7420182Y-10602174D02*
X7429706Y-10611698D01*
X7429706Y-10611698D02*
X7439230Y-10630746D01*
X7439230Y-10630746D02*
X7439230Y-10687889D01*
X7439230Y-10687889D02*
X7429706Y-10706936D01*
X7429706Y-10706936D02*
X7420182Y-10716460D01*
X7420182Y-10716460D02*
X7401135Y-10725984D01*
X7401135Y-10725984D02*
X7372563Y-10725984D01*
X7496373Y-10592650D02*
X7572563Y-10592650D01*
X7524944Y-10525984D02*
X7524944Y-10697412D01*
X7524944Y-10697412D02*
X7534468Y-10716460D01*
X7534468Y-10716460D02*
X7553515Y-10725984D01*
X7553515Y-10725984D02*
X7572563Y-10725984D01*
X7629706Y-10716460D02*
X7648754Y-10725984D01*
X7648754Y-10725984D02*
X7686849Y-10725984D01*
X7686849Y-10725984D02*
X7705896Y-10716460D01*
X7705896Y-10716460D02*
X7715420Y-10697412D01*
X7715420Y-10697412D02*
X7715420Y-10687889D01*
X7715420Y-10687889D02*
X7705896Y-10668841D01*
X7705896Y-10668841D02*
X7686849Y-10659317D01*
X7686849Y-10659317D02*
X7658277Y-10659317D01*
X7658277Y-10659317D02*
X7639230Y-10649793D01*
X7639230Y-10649793D02*
X7629706Y-10630746D01*
X7629706Y-10630746D02*
X7629706Y-10621222D01*
X7629706Y-10621222D02*
X7639230Y-10602174D01*
X7639230Y-10602174D02*
X7658277Y-10592650D01*
X7658277Y-10592650D02*
X7686849Y-10592650D01*
X7686849Y-10592650D02*
X7705896Y-10602174D01*
X7782087Y-10802174D02*
X7791611Y-10792650D01*
X7791611Y-10792650D02*
X7810658Y-10764079D01*
X7810658Y-10764079D02*
X7820182Y-10745031D01*
X7820182Y-10745031D02*
X7829706Y-10716460D01*
X7829706Y-10716460D02*
X7839230Y-10668841D01*
X7839230Y-10668841D02*
X7839230Y-10630746D01*
X7839230Y-10630746D02*
X7829706Y-10583127D01*
X7829706Y-10583127D02*
X7820182Y-10554555D01*
X7820182Y-10554555D02*
X7810658Y-10535508D01*
X7810658Y-10535508D02*
X7791611Y-10506936D01*
X7791611Y-10506936D02*
X7782087Y-10497412D01*
D13*
X1142500Y-10953500D02*
X1197500Y-10898500D01*
X1142500Y-10843500D01*
X1087500Y-10898500D01*
X1142500Y-10953500D01*
D11*
X1563039Y-10989984D02*
X1448753Y-10989984D01*
X1505896Y-10989984D02*
X1505896Y-10789984D01*
X1505896Y-10789984D02*
X1486848Y-10818555D01*
X1486848Y-10818555D02*
X1467801Y-10837603D01*
X1467801Y-10837603D02*
X1448753Y-10847127D01*
X1648753Y-10970936D02*
X1658277Y-10980460D01*
X1658277Y-10980460D02*
X1648753Y-10989984D01*
X1648753Y-10989984D02*
X1639229Y-10980460D01*
X1639229Y-10980460D02*
X1648753Y-10970936D01*
X1648753Y-10970936D02*
X1648753Y-10989984D01*
X1848753Y-10989984D02*
X1734467Y-10989984D01*
X1791610Y-10989984D02*
X1791610Y-10789984D01*
X1791610Y-10789984D02*
X1772562Y-10818555D01*
X1772562Y-10818555D02*
X1753515Y-10837603D01*
X1753515Y-10837603D02*
X1734467Y-10847127D01*
X1972562Y-10789984D02*
X1991610Y-10789984D01*
X1991610Y-10789984D02*
X2010658Y-10799508D01*
X2010658Y-10799508D02*
X2020182Y-10809031D01*
X2020182Y-10809031D02*
X2029705Y-10828079D01*
X2029705Y-10828079D02*
X2039229Y-10866174D01*
X2039229Y-10866174D02*
X2039229Y-10913793D01*
X2039229Y-10913793D02*
X2029705Y-10951889D01*
X2029705Y-10951889D02*
X2020182Y-10970936D01*
X2020182Y-10970936D02*
X2010658Y-10980460D01*
X2010658Y-10980460D02*
X1991610Y-10989984D01*
X1991610Y-10989984D02*
X1972562Y-10989984D01*
X1972562Y-10989984D02*
X1953515Y-10980460D01*
X1953515Y-10980460D02*
X1943991Y-10970936D01*
X1943991Y-10970936D02*
X1934467Y-10951889D01*
X1934467Y-10951889D02*
X1924943Y-10913793D01*
X1924943Y-10913793D02*
X1924943Y-10866174D01*
X1924943Y-10866174D02*
X1934467Y-10828079D01*
X1934467Y-10828079D02*
X1943991Y-10809031D01*
X1943991Y-10809031D02*
X1953515Y-10799508D01*
X1953515Y-10799508D02*
X1972562Y-10789984D01*
X2163039Y-10789984D02*
X2182086Y-10789984D01*
X2182086Y-10789984D02*
X2201134Y-10799508D01*
X2201134Y-10799508D02*
X2210658Y-10809031D01*
X2210658Y-10809031D02*
X2220182Y-10828079D01*
X2220182Y-10828079D02*
X2229705Y-10866174D01*
X2229705Y-10866174D02*
X2229705Y-10913793D01*
X2229705Y-10913793D02*
X2220182Y-10951889D01*
X2220182Y-10951889D02*
X2210658Y-10970936D01*
X2210658Y-10970936D02*
X2201134Y-10980460D01*
X2201134Y-10980460D02*
X2182086Y-10989984D01*
X2182086Y-10989984D02*
X2163039Y-10989984D01*
X2163039Y-10989984D02*
X2143991Y-10980460D01*
X2143991Y-10980460D02*
X2134467Y-10970936D01*
X2134467Y-10970936D02*
X2124944Y-10951889D01*
X2124944Y-10951889D02*
X2115420Y-10913793D01*
X2115420Y-10913793D02*
X2115420Y-10866174D01*
X2115420Y-10866174D02*
X2124944Y-10828079D01*
X2124944Y-10828079D02*
X2134467Y-10809031D01*
X2134467Y-10809031D02*
X2143991Y-10799508D01*
X2143991Y-10799508D02*
X2163039Y-10789984D01*
X2315420Y-10989984D02*
X2315420Y-10856650D01*
X2315420Y-10875698D02*
X2324944Y-10866174D01*
X2324944Y-10866174D02*
X2343991Y-10856650D01*
X2343991Y-10856650D02*
X2372563Y-10856650D01*
X2372563Y-10856650D02*
X2391610Y-10866174D01*
X2391610Y-10866174D02*
X2401134Y-10885222D01*
X2401134Y-10885222D02*
X2401134Y-10989984D01*
X2401134Y-10885222D02*
X2410658Y-10866174D01*
X2410658Y-10866174D02*
X2429705Y-10856650D01*
X2429705Y-10856650D02*
X2458277Y-10856650D01*
X2458277Y-10856650D02*
X2477325Y-10866174D01*
X2477325Y-10866174D02*
X2486848Y-10885222D01*
X2486848Y-10885222D02*
X2486848Y-10989984D01*
X2582086Y-10989984D02*
X2582086Y-10856650D01*
X2582086Y-10875698D02*
X2591610Y-10866174D01*
X2591610Y-10866174D02*
X2610658Y-10856650D01*
X2610658Y-10856650D02*
X2639229Y-10856650D01*
X2639229Y-10856650D02*
X2658277Y-10866174D01*
X2658277Y-10866174D02*
X2667801Y-10885222D01*
X2667801Y-10885222D02*
X2667801Y-10989984D01*
X2667801Y-10885222D02*
X2677325Y-10866174D01*
X2677325Y-10866174D02*
X2696372Y-10856650D01*
X2696372Y-10856650D02*
X2724944Y-10856650D01*
X2724944Y-10856650D02*
X2743991Y-10866174D01*
X2743991Y-10866174D02*
X2753515Y-10885222D01*
X2753515Y-10885222D02*
X2753515Y-10989984D01*
X3143991Y-10780460D02*
X2972563Y-11037603D01*
X3401134Y-10789984D02*
X3420182Y-10789984D01*
X3420182Y-10789984D02*
X3439229Y-10799508D01*
X3439229Y-10799508D02*
X3448753Y-10809031D01*
X3448753Y-10809031D02*
X3458277Y-10828079D01*
X3458277Y-10828079D02*
X3467801Y-10866174D01*
X3467801Y-10866174D02*
X3467801Y-10913793D01*
X3467801Y-10913793D02*
X3458277Y-10951889D01*
X3458277Y-10951889D02*
X3448753Y-10970936D01*
X3448753Y-10970936D02*
X3439229Y-10980460D01*
X3439229Y-10980460D02*
X3420182Y-10989984D01*
X3420182Y-10989984D02*
X3401134Y-10989984D01*
X3401134Y-10989984D02*
X3382086Y-10980460D01*
X3382086Y-10980460D02*
X3372563Y-10970936D01*
X3372563Y-10970936D02*
X3363039Y-10951889D01*
X3363039Y-10951889D02*
X3353515Y-10913793D01*
X3353515Y-10913793D02*
X3353515Y-10866174D01*
X3353515Y-10866174D02*
X3363039Y-10828079D01*
X3363039Y-10828079D02*
X3372563Y-10809031D01*
X3372563Y-10809031D02*
X3382086Y-10799508D01*
X3382086Y-10799508D02*
X3401134Y-10789984D01*
X3553515Y-10970936D02*
X3563039Y-10980460D01*
X3563039Y-10980460D02*
X3553515Y-10989984D01*
X3553515Y-10989984D02*
X3543991Y-10980460D01*
X3543991Y-10980460D02*
X3553515Y-10970936D01*
X3553515Y-10970936D02*
X3553515Y-10989984D01*
X3686848Y-10789984D02*
X3705896Y-10789984D01*
X3705896Y-10789984D02*
X3724944Y-10799508D01*
X3724944Y-10799508D02*
X3734467Y-10809031D01*
X3734467Y-10809031D02*
X3743991Y-10828079D01*
X3743991Y-10828079D02*
X3753515Y-10866174D01*
X3753515Y-10866174D02*
X3753515Y-10913793D01*
X3753515Y-10913793D02*
X3743991Y-10951889D01*
X3743991Y-10951889D02*
X3734467Y-10970936D01*
X3734467Y-10970936D02*
X3724944Y-10980460D01*
X3724944Y-10980460D02*
X3705896Y-10989984D01*
X3705896Y-10989984D02*
X3686848Y-10989984D01*
X3686848Y-10989984D02*
X3667801Y-10980460D01*
X3667801Y-10980460D02*
X3658277Y-10970936D01*
X3658277Y-10970936D02*
X3648753Y-10951889D01*
X3648753Y-10951889D02*
X3639229Y-10913793D01*
X3639229Y-10913793D02*
X3639229Y-10866174D01*
X3639229Y-10866174D02*
X3648753Y-10828079D01*
X3648753Y-10828079D02*
X3658277Y-10809031D01*
X3658277Y-10809031D02*
X3667801Y-10799508D01*
X3667801Y-10799508D02*
X3686848Y-10789984D01*
X3924944Y-10856650D02*
X3924944Y-10989984D01*
X3877325Y-10780460D02*
X3829706Y-10923317D01*
X3829706Y-10923317D02*
X3953515Y-10923317D01*
X4010658Y-10789984D02*
X4134467Y-10789984D01*
X4134467Y-10789984D02*
X4067801Y-10866174D01*
X4067801Y-10866174D02*
X4096372Y-10866174D01*
X4096372Y-10866174D02*
X4115420Y-10875698D01*
X4115420Y-10875698D02*
X4124944Y-10885222D01*
X4124944Y-10885222D02*
X4134467Y-10904270D01*
X4134467Y-10904270D02*
X4134467Y-10951889D01*
X4134467Y-10951889D02*
X4124944Y-10970936D01*
X4124944Y-10970936D02*
X4115420Y-10980460D01*
X4115420Y-10980460D02*
X4096372Y-10989984D01*
X4096372Y-10989984D02*
X4039229Y-10989984D01*
X4039229Y-10989984D02*
X4020182Y-10980460D01*
X4020182Y-10980460D02*
X4010658Y-10970936D01*
X4201134Y-10789984D02*
X4324944Y-10789984D01*
X4324944Y-10789984D02*
X4258277Y-10866174D01*
X4258277Y-10866174D02*
X4286849Y-10866174D01*
X4286849Y-10866174D02*
X4305896Y-10875698D01*
X4305896Y-10875698D02*
X4315420Y-10885222D01*
X4315420Y-10885222D02*
X4324944Y-10904270D01*
X4324944Y-10904270D02*
X4324944Y-10951889D01*
X4324944Y-10951889D02*
X4315420Y-10970936D01*
X4315420Y-10970936D02*
X4305896Y-10980460D01*
X4305896Y-10980460D02*
X4286849Y-10989984D01*
X4286849Y-10989984D02*
X4229706Y-10989984D01*
X4229706Y-10989984D02*
X4210658Y-10980460D01*
X4210658Y-10980460D02*
X4201134Y-10970936D01*
X4401134Y-10789984D02*
X4401134Y-10828079D01*
X4477325Y-10789984D02*
X4477325Y-10828079D01*
X4772563Y-11066174D02*
X4763039Y-11056650D01*
X4763039Y-11056650D02*
X4743991Y-11028079D01*
X4743991Y-11028079D02*
X4734468Y-11009031D01*
X4734468Y-11009031D02*
X4724944Y-10980460D01*
X4724944Y-10980460D02*
X4715420Y-10932841D01*
X4715420Y-10932841D02*
X4715420Y-10894746D01*
X4715420Y-10894746D02*
X4724944Y-10847127D01*
X4724944Y-10847127D02*
X4734468Y-10818555D01*
X4734468Y-10818555D02*
X4743991Y-10799508D01*
X4743991Y-10799508D02*
X4763039Y-10770936D01*
X4763039Y-10770936D02*
X4772563Y-10761412D01*
X4839230Y-10809031D02*
X4848753Y-10799508D01*
X4848753Y-10799508D02*
X4867801Y-10789984D01*
X4867801Y-10789984D02*
X4915420Y-10789984D01*
X4915420Y-10789984D02*
X4934468Y-10799508D01*
X4934468Y-10799508D02*
X4943991Y-10809031D01*
X4943991Y-10809031D02*
X4953515Y-10828079D01*
X4953515Y-10828079D02*
X4953515Y-10847127D01*
X4953515Y-10847127D02*
X4943991Y-10875698D01*
X4943991Y-10875698D02*
X4829706Y-10989984D01*
X4829706Y-10989984D02*
X4953515Y-10989984D01*
X5124944Y-10789984D02*
X5086849Y-10789984D01*
X5086849Y-10789984D02*
X5067801Y-10799508D01*
X5067801Y-10799508D02*
X5058277Y-10809031D01*
X5058277Y-10809031D02*
X5039230Y-10837603D01*
X5039230Y-10837603D02*
X5029706Y-10875698D01*
X5029706Y-10875698D02*
X5029706Y-10951889D01*
X5029706Y-10951889D02*
X5039230Y-10970936D01*
X5039230Y-10970936D02*
X5048753Y-10980460D01*
X5048753Y-10980460D02*
X5067801Y-10989984D01*
X5067801Y-10989984D02*
X5105896Y-10989984D01*
X5105896Y-10989984D02*
X5124944Y-10980460D01*
X5124944Y-10980460D02*
X5134468Y-10970936D01*
X5134468Y-10970936D02*
X5143991Y-10951889D01*
X5143991Y-10951889D02*
X5143991Y-10904270D01*
X5143991Y-10904270D02*
X5134468Y-10885222D01*
X5134468Y-10885222D02*
X5124944Y-10875698D01*
X5124944Y-10875698D02*
X5105896Y-10866174D01*
X5105896Y-10866174D02*
X5067801Y-10866174D01*
X5067801Y-10866174D02*
X5048753Y-10875698D01*
X5048753Y-10875698D02*
X5039230Y-10885222D01*
X5039230Y-10885222D02*
X5029706Y-10904270D01*
X5382087Y-10989984D02*
X5382087Y-10789984D01*
X5467801Y-10989984D02*
X5467801Y-10885222D01*
X5467801Y-10885222D02*
X5458277Y-10866174D01*
X5458277Y-10866174D02*
X5439230Y-10856650D01*
X5439230Y-10856650D02*
X5410658Y-10856650D01*
X5410658Y-10856650D02*
X5391611Y-10866174D01*
X5391611Y-10866174D02*
X5382087Y-10875698D01*
X5591611Y-10989984D02*
X5572563Y-10980460D01*
X5572563Y-10980460D02*
X5563039Y-10970936D01*
X5563039Y-10970936D02*
X5553515Y-10951889D01*
X5553515Y-10951889D02*
X5553515Y-10894746D01*
X5553515Y-10894746D02*
X5563039Y-10875698D01*
X5563039Y-10875698D02*
X5572563Y-10866174D01*
X5572563Y-10866174D02*
X5591611Y-10856650D01*
X5591611Y-10856650D02*
X5620182Y-10856650D01*
X5620182Y-10856650D02*
X5639230Y-10866174D01*
X5639230Y-10866174D02*
X5648753Y-10875698D01*
X5648753Y-10875698D02*
X5658277Y-10894746D01*
X5658277Y-10894746D02*
X5658277Y-10951889D01*
X5658277Y-10951889D02*
X5648753Y-10970936D01*
X5648753Y-10970936D02*
X5639230Y-10980460D01*
X5639230Y-10980460D02*
X5620182Y-10989984D01*
X5620182Y-10989984D02*
X5591611Y-10989984D01*
X5772563Y-10989984D02*
X5753515Y-10980460D01*
X5753515Y-10980460D02*
X5743991Y-10961412D01*
X5743991Y-10961412D02*
X5743991Y-10789984D01*
X5924944Y-10980460D02*
X5905896Y-10989984D01*
X5905896Y-10989984D02*
X5867801Y-10989984D01*
X5867801Y-10989984D02*
X5848753Y-10980460D01*
X5848753Y-10980460D02*
X5839230Y-10961412D01*
X5839230Y-10961412D02*
X5839230Y-10885222D01*
X5839230Y-10885222D02*
X5848753Y-10866174D01*
X5848753Y-10866174D02*
X5867801Y-10856650D01*
X5867801Y-10856650D02*
X5905896Y-10856650D01*
X5905896Y-10856650D02*
X5924944Y-10866174D01*
X5924944Y-10866174D02*
X5934468Y-10885222D01*
X5934468Y-10885222D02*
X5934468Y-10904270D01*
X5934468Y-10904270D02*
X5839230Y-10923317D01*
X6010658Y-10980460D02*
X6029706Y-10989984D01*
X6029706Y-10989984D02*
X6067801Y-10989984D01*
X6067801Y-10989984D02*
X6086849Y-10980460D01*
X6086849Y-10980460D02*
X6096372Y-10961412D01*
X6096372Y-10961412D02*
X6096372Y-10951889D01*
X6096372Y-10951889D02*
X6086849Y-10932841D01*
X6086849Y-10932841D02*
X6067801Y-10923317D01*
X6067801Y-10923317D02*
X6039230Y-10923317D01*
X6039230Y-10923317D02*
X6020182Y-10913793D01*
X6020182Y-10913793D02*
X6010658Y-10894746D01*
X6010658Y-10894746D02*
X6010658Y-10885222D01*
X6010658Y-10885222D02*
X6020182Y-10866174D01*
X6020182Y-10866174D02*
X6039230Y-10856650D01*
X6039230Y-10856650D02*
X6067801Y-10856650D01*
X6067801Y-10856650D02*
X6086849Y-10866174D01*
X6163039Y-11066174D02*
X6172563Y-11056650D01*
X6172563Y-11056650D02*
X6191611Y-11028079D01*
X6191611Y-11028079D02*
X6201134Y-11009031D01*
X6201134Y-11009031D02*
X6210658Y-10980460D01*
X6210658Y-10980460D02*
X6220182Y-10932841D01*
X6220182Y-10932841D02*
X6220182Y-10894746D01*
X6220182Y-10894746D02*
X6210658Y-10847127D01*
X6210658Y-10847127D02*
X6201134Y-10818555D01*
X6201134Y-10818555D02*
X6191611Y-10799508D01*
X6191611Y-10799508D02*
X6172563Y-10770936D01*
X6172563Y-10770936D02*
X6163039Y-10761412D01*
D14*
X1045500Y-11086500D02*
X1197500Y-11238500D01*
X1197500Y-11086500D02*
X1045500Y-11238500D01*
X1197500Y-11162500D02*
G75*
G02*
X1045500Y-11162500I-76000J0D01*
G01*
X1045500Y-11162500D02*
G75*
G02*
X1197500Y-11162500I76000J0D01*
G01*
D11*
X1563039Y-11253984D02*
X1448753Y-11253984D01*
X1505896Y-11253984D02*
X1505896Y-11053984D01*
X1505896Y-11053984D02*
X1486848Y-11082555D01*
X1486848Y-11082555D02*
X1467801Y-11101603D01*
X1467801Y-11101603D02*
X1448753Y-11111127D01*
X1648753Y-11234936D02*
X1658277Y-11244460D01*
X1658277Y-11244460D02*
X1648753Y-11253984D01*
X1648753Y-11253984D02*
X1639229Y-11244460D01*
X1639229Y-11244460D02*
X1648753Y-11234936D01*
X1648753Y-11234936D02*
X1648753Y-11253984D01*
X1839229Y-11053984D02*
X1743991Y-11053984D01*
X1743991Y-11053984D02*
X1734467Y-11149222D01*
X1734467Y-11149222D02*
X1743991Y-11139698D01*
X1743991Y-11139698D02*
X1763039Y-11130174D01*
X1763039Y-11130174D02*
X1810658Y-11130174D01*
X1810658Y-11130174D02*
X1829705Y-11139698D01*
X1829705Y-11139698D02*
X1839229Y-11149222D01*
X1839229Y-11149222D02*
X1848753Y-11168270D01*
X1848753Y-11168270D02*
X1848753Y-11215888D01*
X1848753Y-11215888D02*
X1839229Y-11234936D01*
X1839229Y-11234936D02*
X1829705Y-11244460D01*
X1829705Y-11244460D02*
X1810658Y-11253984D01*
X1810658Y-11253984D02*
X1763039Y-11253984D01*
X1763039Y-11253984D02*
X1743991Y-11244460D01*
X1743991Y-11244460D02*
X1734467Y-11234936D01*
X1924943Y-11073031D02*
X1934467Y-11063508D01*
X1934467Y-11063508D02*
X1953515Y-11053984D01*
X1953515Y-11053984D02*
X2001134Y-11053984D01*
X2001134Y-11053984D02*
X2020182Y-11063508D01*
X2020182Y-11063508D02*
X2029705Y-11073031D01*
X2029705Y-11073031D02*
X2039229Y-11092079D01*
X2039229Y-11092079D02*
X2039229Y-11111127D01*
X2039229Y-11111127D02*
X2029705Y-11139698D01*
X2029705Y-11139698D02*
X1915420Y-11253984D01*
X1915420Y-11253984D02*
X2039229Y-11253984D01*
X2163039Y-11053984D02*
X2182086Y-11053984D01*
X2182086Y-11053984D02*
X2201134Y-11063508D01*
X2201134Y-11063508D02*
X2210658Y-11073031D01*
X2210658Y-11073031D02*
X2220182Y-11092079D01*
X2220182Y-11092079D02*
X2229705Y-11130174D01*
X2229705Y-11130174D02*
X2229705Y-11177793D01*
X2229705Y-11177793D02*
X2220182Y-11215888D01*
X2220182Y-11215888D02*
X2210658Y-11234936D01*
X2210658Y-11234936D02*
X2201134Y-11244460D01*
X2201134Y-11244460D02*
X2182086Y-11253984D01*
X2182086Y-11253984D02*
X2163039Y-11253984D01*
X2163039Y-11253984D02*
X2143991Y-11244460D01*
X2143991Y-11244460D02*
X2134467Y-11234936D01*
X2134467Y-11234936D02*
X2124944Y-11215888D01*
X2124944Y-11215888D02*
X2115420Y-11177793D01*
X2115420Y-11177793D02*
X2115420Y-11130174D01*
X2115420Y-11130174D02*
X2124944Y-11092079D01*
X2124944Y-11092079D02*
X2134467Y-11073031D01*
X2134467Y-11073031D02*
X2143991Y-11063508D01*
X2143991Y-11063508D02*
X2163039Y-11053984D01*
X2315420Y-11253984D02*
X2315420Y-11120650D01*
X2315420Y-11139698D02*
X2324944Y-11130174D01*
X2324944Y-11130174D02*
X2343991Y-11120650D01*
X2343991Y-11120650D02*
X2372563Y-11120650D01*
X2372563Y-11120650D02*
X2391610Y-11130174D01*
X2391610Y-11130174D02*
X2401134Y-11149222D01*
X2401134Y-11149222D02*
X2401134Y-11253984D01*
X2401134Y-11149222D02*
X2410658Y-11130174D01*
X2410658Y-11130174D02*
X2429705Y-11120650D01*
X2429705Y-11120650D02*
X2458277Y-11120650D01*
X2458277Y-11120650D02*
X2477325Y-11130174D01*
X2477325Y-11130174D02*
X2486848Y-11149222D01*
X2486848Y-11149222D02*
X2486848Y-11253984D01*
X2582086Y-11253984D02*
X2582086Y-11120650D01*
X2582086Y-11139698D02*
X2591610Y-11130174D01*
X2591610Y-11130174D02*
X2610658Y-11120650D01*
X2610658Y-11120650D02*
X2639229Y-11120650D01*
X2639229Y-11120650D02*
X2658277Y-11130174D01*
X2658277Y-11130174D02*
X2667801Y-11149222D01*
X2667801Y-11149222D02*
X2667801Y-11253984D01*
X2667801Y-11149222D02*
X2677325Y-11130174D01*
X2677325Y-11130174D02*
X2696372Y-11120650D01*
X2696372Y-11120650D02*
X2724944Y-11120650D01*
X2724944Y-11120650D02*
X2743991Y-11130174D01*
X2743991Y-11130174D02*
X2753515Y-11149222D01*
X2753515Y-11149222D02*
X2753515Y-11253984D01*
X3143991Y-11044460D02*
X2972563Y-11301603D01*
X3401134Y-11053984D02*
X3420182Y-11053984D01*
X3420182Y-11053984D02*
X3439229Y-11063508D01*
X3439229Y-11063508D02*
X3448753Y-11073031D01*
X3448753Y-11073031D02*
X3458277Y-11092079D01*
X3458277Y-11092079D02*
X3467801Y-11130174D01*
X3467801Y-11130174D02*
X3467801Y-11177793D01*
X3467801Y-11177793D02*
X3458277Y-11215888D01*
X3458277Y-11215888D02*
X3448753Y-11234936D01*
X3448753Y-11234936D02*
X3439229Y-11244460D01*
X3439229Y-11244460D02*
X3420182Y-11253984D01*
X3420182Y-11253984D02*
X3401134Y-11253984D01*
X3401134Y-11253984D02*
X3382086Y-11244460D01*
X3382086Y-11244460D02*
X3372563Y-11234936D01*
X3372563Y-11234936D02*
X3363039Y-11215888D01*
X3363039Y-11215888D02*
X3353515Y-11177793D01*
X3353515Y-11177793D02*
X3353515Y-11130174D01*
X3353515Y-11130174D02*
X3363039Y-11092079D01*
X3363039Y-11092079D02*
X3372563Y-11073031D01*
X3372563Y-11073031D02*
X3382086Y-11063508D01*
X3382086Y-11063508D02*
X3401134Y-11053984D01*
X3553515Y-11234936D02*
X3563039Y-11244460D01*
X3563039Y-11244460D02*
X3553515Y-11253984D01*
X3553515Y-11253984D02*
X3543991Y-11244460D01*
X3543991Y-11244460D02*
X3553515Y-11234936D01*
X3553515Y-11234936D02*
X3553515Y-11253984D01*
X3686848Y-11053984D02*
X3705896Y-11053984D01*
X3705896Y-11053984D02*
X3724944Y-11063508D01*
X3724944Y-11063508D02*
X3734467Y-11073031D01*
X3734467Y-11073031D02*
X3743991Y-11092079D01*
X3743991Y-11092079D02*
X3753515Y-11130174D01*
X3753515Y-11130174D02*
X3753515Y-11177793D01*
X3753515Y-11177793D02*
X3743991Y-11215888D01*
X3743991Y-11215888D02*
X3734467Y-11234936D01*
X3734467Y-11234936D02*
X3724944Y-11244460D01*
X3724944Y-11244460D02*
X3705896Y-11253984D01*
X3705896Y-11253984D02*
X3686848Y-11253984D01*
X3686848Y-11253984D02*
X3667801Y-11244460D01*
X3667801Y-11244460D02*
X3658277Y-11234936D01*
X3658277Y-11234936D02*
X3648753Y-11215888D01*
X3648753Y-11215888D02*
X3639229Y-11177793D01*
X3639229Y-11177793D02*
X3639229Y-11130174D01*
X3639229Y-11130174D02*
X3648753Y-11092079D01*
X3648753Y-11092079D02*
X3658277Y-11073031D01*
X3658277Y-11073031D02*
X3667801Y-11063508D01*
X3667801Y-11063508D02*
X3686848Y-11053984D01*
X3934467Y-11053984D02*
X3839229Y-11053984D01*
X3839229Y-11053984D02*
X3829706Y-11149222D01*
X3829706Y-11149222D02*
X3839229Y-11139698D01*
X3839229Y-11139698D02*
X3858277Y-11130174D01*
X3858277Y-11130174D02*
X3905896Y-11130174D01*
X3905896Y-11130174D02*
X3924944Y-11139698D01*
X3924944Y-11139698D02*
X3934467Y-11149222D01*
X3934467Y-11149222D02*
X3943991Y-11168270D01*
X3943991Y-11168270D02*
X3943991Y-11215888D01*
X3943991Y-11215888D02*
X3934467Y-11234936D01*
X3934467Y-11234936D02*
X3924944Y-11244460D01*
X3924944Y-11244460D02*
X3905896Y-11253984D01*
X3905896Y-11253984D02*
X3858277Y-11253984D01*
X3858277Y-11253984D02*
X3839229Y-11244460D01*
X3839229Y-11244460D02*
X3829706Y-11234936D01*
X4039229Y-11253984D02*
X4077325Y-11253984D01*
X4077325Y-11253984D02*
X4096372Y-11244460D01*
X4096372Y-11244460D02*
X4105896Y-11234936D01*
X4105896Y-11234936D02*
X4124944Y-11206365D01*
X4124944Y-11206365D02*
X4134467Y-11168270D01*
X4134467Y-11168270D02*
X4134467Y-11092079D01*
X4134467Y-11092079D02*
X4124944Y-11073031D01*
X4124944Y-11073031D02*
X4115420Y-11063508D01*
X4115420Y-11063508D02*
X4096372Y-11053984D01*
X4096372Y-11053984D02*
X4058277Y-11053984D01*
X4058277Y-11053984D02*
X4039229Y-11063508D01*
X4039229Y-11063508D02*
X4029706Y-11073031D01*
X4029706Y-11073031D02*
X4020182Y-11092079D01*
X4020182Y-11092079D02*
X4020182Y-11139698D01*
X4020182Y-11139698D02*
X4029706Y-11158746D01*
X4029706Y-11158746D02*
X4039229Y-11168270D01*
X4039229Y-11168270D02*
X4058277Y-11177793D01*
X4058277Y-11177793D02*
X4096372Y-11177793D01*
X4096372Y-11177793D02*
X4115420Y-11168270D01*
X4115420Y-11168270D02*
X4124944Y-11158746D01*
X4124944Y-11158746D02*
X4134467Y-11139698D01*
X4248753Y-11139698D02*
X4229706Y-11130174D01*
X4229706Y-11130174D02*
X4220182Y-11120650D01*
X4220182Y-11120650D02*
X4210658Y-11101603D01*
X4210658Y-11101603D02*
X4210658Y-11092079D01*
X4210658Y-11092079D02*
X4220182Y-11073031D01*
X4220182Y-11073031D02*
X4229706Y-11063508D01*
X4229706Y-11063508D02*
X4248753Y-11053984D01*
X4248753Y-11053984D02*
X4286849Y-11053984D01*
X4286849Y-11053984D02*
X4305896Y-11063508D01*
X4305896Y-11063508D02*
X4315420Y-11073031D01*
X4315420Y-11073031D02*
X4324944Y-11092079D01*
X4324944Y-11092079D02*
X4324944Y-11101603D01*
X4324944Y-11101603D02*
X4315420Y-11120650D01*
X4315420Y-11120650D02*
X4305896Y-11130174D01*
X4305896Y-11130174D02*
X4286849Y-11139698D01*
X4286849Y-11139698D02*
X4248753Y-11139698D01*
X4248753Y-11139698D02*
X4229706Y-11149222D01*
X4229706Y-11149222D02*
X4220182Y-11158746D01*
X4220182Y-11158746D02*
X4210658Y-11177793D01*
X4210658Y-11177793D02*
X4210658Y-11215888D01*
X4210658Y-11215888D02*
X4220182Y-11234936D01*
X4220182Y-11234936D02*
X4229706Y-11244460D01*
X4229706Y-11244460D02*
X4248753Y-11253984D01*
X4248753Y-11253984D02*
X4286849Y-11253984D01*
X4286849Y-11253984D02*
X4305896Y-11244460D01*
X4305896Y-11244460D02*
X4315420Y-11234936D01*
X4315420Y-11234936D02*
X4324944Y-11215888D01*
X4324944Y-11215888D02*
X4324944Y-11177793D01*
X4324944Y-11177793D02*
X4315420Y-11158746D01*
X4315420Y-11158746D02*
X4305896Y-11149222D01*
X4305896Y-11149222D02*
X4286849Y-11139698D01*
X4401134Y-11053984D02*
X4401134Y-11092079D01*
X4477325Y-11053984D02*
X4477325Y-11092079D01*
X4772563Y-11330174D02*
X4763039Y-11320650D01*
X4763039Y-11320650D02*
X4743991Y-11292079D01*
X4743991Y-11292079D02*
X4734468Y-11273031D01*
X4734468Y-11273031D02*
X4724944Y-11244460D01*
X4724944Y-11244460D02*
X4715420Y-11196841D01*
X4715420Y-11196841D02*
X4715420Y-11158746D01*
X4715420Y-11158746D02*
X4724944Y-11111127D01*
X4724944Y-11111127D02*
X4734468Y-11082555D01*
X4734468Y-11082555D02*
X4743991Y-11063508D01*
X4743991Y-11063508D02*
X4763039Y-11034936D01*
X4763039Y-11034936D02*
X4772563Y-11025412D01*
X4934468Y-11120650D02*
X4934468Y-11253984D01*
X4886849Y-11044460D02*
X4839230Y-11187317D01*
X4839230Y-11187317D02*
X4963039Y-11187317D01*
X5191611Y-11253984D02*
X5191611Y-11053984D01*
X5277325Y-11253984D02*
X5277325Y-11149222D01*
X5277325Y-11149222D02*
X5267801Y-11130174D01*
X5267801Y-11130174D02*
X5248753Y-11120650D01*
X5248753Y-11120650D02*
X5220182Y-11120650D01*
X5220182Y-11120650D02*
X5201134Y-11130174D01*
X5201134Y-11130174D02*
X5191611Y-11139698D01*
X5401134Y-11253984D02*
X5382087Y-11244460D01*
X5382087Y-11244460D02*
X5372563Y-11234936D01*
X5372563Y-11234936D02*
X5363039Y-11215888D01*
X5363039Y-11215888D02*
X5363039Y-11158746D01*
X5363039Y-11158746D02*
X5372563Y-11139698D01*
X5372563Y-11139698D02*
X5382087Y-11130174D01*
X5382087Y-11130174D02*
X5401134Y-11120650D01*
X5401134Y-11120650D02*
X5429706Y-11120650D01*
X5429706Y-11120650D02*
X5448753Y-11130174D01*
X5448753Y-11130174D02*
X5458277Y-11139698D01*
X5458277Y-11139698D02*
X5467801Y-11158746D01*
X5467801Y-11158746D02*
X5467801Y-11215888D01*
X5467801Y-11215888D02*
X5458277Y-11234936D01*
X5458277Y-11234936D02*
X5448753Y-11244460D01*
X5448753Y-11244460D02*
X5429706Y-11253984D01*
X5429706Y-11253984D02*
X5401134Y-11253984D01*
X5582087Y-11253984D02*
X5563039Y-11244460D01*
X5563039Y-11244460D02*
X5553515Y-11225412D01*
X5553515Y-11225412D02*
X5553515Y-11053984D01*
X5734468Y-11244460D02*
X5715420Y-11253984D01*
X5715420Y-11253984D02*
X5677325Y-11253984D01*
X5677325Y-11253984D02*
X5658277Y-11244460D01*
X5658277Y-11244460D02*
X5648753Y-11225412D01*
X5648753Y-11225412D02*
X5648753Y-11149222D01*
X5648753Y-11149222D02*
X5658277Y-11130174D01*
X5658277Y-11130174D02*
X5677325Y-11120650D01*
X5677325Y-11120650D02*
X5715420Y-11120650D01*
X5715420Y-11120650D02*
X5734468Y-11130174D01*
X5734468Y-11130174D02*
X5743991Y-11149222D01*
X5743991Y-11149222D02*
X5743991Y-11168270D01*
X5743991Y-11168270D02*
X5648753Y-11187317D01*
X5820182Y-11244460D02*
X5839230Y-11253984D01*
X5839230Y-11253984D02*
X5877325Y-11253984D01*
X5877325Y-11253984D02*
X5896372Y-11244460D01*
X5896372Y-11244460D02*
X5905896Y-11225412D01*
X5905896Y-11225412D02*
X5905896Y-11215888D01*
X5905896Y-11215888D02*
X5896372Y-11196841D01*
X5896372Y-11196841D02*
X5877325Y-11187317D01*
X5877325Y-11187317D02*
X5848753Y-11187317D01*
X5848753Y-11187317D02*
X5829706Y-11177793D01*
X5829706Y-11177793D02*
X5820182Y-11158746D01*
X5820182Y-11158746D02*
X5820182Y-11149222D01*
X5820182Y-11149222D02*
X5829706Y-11130174D01*
X5829706Y-11130174D02*
X5848753Y-11120650D01*
X5848753Y-11120650D02*
X5877325Y-11120650D01*
X5877325Y-11120650D02*
X5896372Y-11130174D01*
X5972563Y-11330174D02*
X5982087Y-11320650D01*
X5982087Y-11320650D02*
X6001134Y-11292079D01*
X6001134Y-11292079D02*
X6010658Y-11273031D01*
X6010658Y-11273031D02*
X6020182Y-11244460D01*
X6020182Y-11244460D02*
X6029706Y-11196841D01*
X6029706Y-11196841D02*
X6029706Y-11158746D01*
X6029706Y-11158746D02*
X6020182Y-11111127D01*
X6020182Y-11111127D02*
X6010658Y-11082555D01*
X6010658Y-11082555D02*
X6001134Y-11063508D01*
X6001134Y-11063508D02*
X5982087Y-11034936D01*
X5982087Y-11034936D02*
X5972563Y-11025412D01*
X997500Y-11334500D02*
X1197500Y-11534500D01*
X1197500Y-11334500D02*
X997500Y-11534500D01*
X1097500Y-11334500D02*
X1097500Y-11534500D01*
X997500Y-11434500D02*
X1197500Y-11434500D01*
X1439229Y-11325984D02*
X1563039Y-11325984D01*
X1563039Y-11325984D02*
X1496372Y-11402174D01*
X1496372Y-11402174D02*
X1524943Y-11402174D01*
X1524943Y-11402174D02*
X1543991Y-11411698D01*
X1543991Y-11411698D02*
X1553515Y-11421222D01*
X1553515Y-11421222D02*
X1563039Y-11440269D01*
X1563039Y-11440269D02*
X1563039Y-11487888D01*
X1563039Y-11487888D02*
X1553515Y-11506936D01*
X1553515Y-11506936D02*
X1543991Y-11516460D01*
X1543991Y-11516460D02*
X1524943Y-11525984D01*
X1524943Y-11525984D02*
X1467801Y-11525984D01*
X1467801Y-11525984D02*
X1448753Y-11516460D01*
X1448753Y-11516460D02*
X1439229Y-11506936D01*
X1648753Y-11506936D02*
X1658277Y-11516460D01*
X1658277Y-11516460D02*
X1648753Y-11525984D01*
X1648753Y-11525984D02*
X1639229Y-11516460D01*
X1639229Y-11516460D02*
X1648753Y-11506936D01*
X1648753Y-11506936D02*
X1648753Y-11525984D01*
X1734467Y-11345031D02*
X1743991Y-11335508D01*
X1743991Y-11335508D02*
X1763039Y-11325984D01*
X1763039Y-11325984D02*
X1810658Y-11325984D01*
X1810658Y-11325984D02*
X1829705Y-11335508D01*
X1829705Y-11335508D02*
X1839229Y-11345031D01*
X1839229Y-11345031D02*
X1848753Y-11364079D01*
X1848753Y-11364079D02*
X1848753Y-11383127D01*
X1848753Y-11383127D02*
X1839229Y-11411698D01*
X1839229Y-11411698D02*
X1724943Y-11525984D01*
X1724943Y-11525984D02*
X1848753Y-11525984D01*
X1972562Y-11325984D02*
X1991610Y-11325984D01*
X1991610Y-11325984D02*
X2010658Y-11335508D01*
X2010658Y-11335508D02*
X2020182Y-11345031D01*
X2020182Y-11345031D02*
X2029705Y-11364079D01*
X2029705Y-11364079D02*
X2039229Y-11402174D01*
X2039229Y-11402174D02*
X2039229Y-11449793D01*
X2039229Y-11449793D02*
X2029705Y-11487888D01*
X2029705Y-11487888D02*
X2020182Y-11506936D01*
X2020182Y-11506936D02*
X2010658Y-11516460D01*
X2010658Y-11516460D02*
X1991610Y-11525984D01*
X1991610Y-11525984D02*
X1972562Y-11525984D01*
X1972562Y-11525984D02*
X1953515Y-11516460D01*
X1953515Y-11516460D02*
X1943991Y-11506936D01*
X1943991Y-11506936D02*
X1934467Y-11487888D01*
X1934467Y-11487888D02*
X1924943Y-11449793D01*
X1924943Y-11449793D02*
X1924943Y-11402174D01*
X1924943Y-11402174D02*
X1934467Y-11364079D01*
X1934467Y-11364079D02*
X1943991Y-11345031D01*
X1943991Y-11345031D02*
X1953515Y-11335508D01*
X1953515Y-11335508D02*
X1972562Y-11325984D01*
X2163039Y-11325984D02*
X2182086Y-11325984D01*
X2182086Y-11325984D02*
X2201134Y-11335508D01*
X2201134Y-11335508D02*
X2210658Y-11345031D01*
X2210658Y-11345031D02*
X2220182Y-11364079D01*
X2220182Y-11364079D02*
X2229705Y-11402174D01*
X2229705Y-11402174D02*
X2229705Y-11449793D01*
X2229705Y-11449793D02*
X2220182Y-11487888D01*
X2220182Y-11487888D02*
X2210658Y-11506936D01*
X2210658Y-11506936D02*
X2201134Y-11516460D01*
X2201134Y-11516460D02*
X2182086Y-11525984D01*
X2182086Y-11525984D02*
X2163039Y-11525984D01*
X2163039Y-11525984D02*
X2143991Y-11516460D01*
X2143991Y-11516460D02*
X2134467Y-11506936D01*
X2134467Y-11506936D02*
X2124944Y-11487888D01*
X2124944Y-11487888D02*
X2115420Y-11449793D01*
X2115420Y-11449793D02*
X2115420Y-11402174D01*
X2115420Y-11402174D02*
X2124944Y-11364079D01*
X2124944Y-11364079D02*
X2134467Y-11345031D01*
X2134467Y-11345031D02*
X2143991Y-11335508D01*
X2143991Y-11335508D02*
X2163039Y-11325984D01*
X2315420Y-11525984D02*
X2315420Y-11392650D01*
X2315420Y-11411698D02*
X2324944Y-11402174D01*
X2324944Y-11402174D02*
X2343991Y-11392650D01*
X2343991Y-11392650D02*
X2372563Y-11392650D01*
X2372563Y-11392650D02*
X2391610Y-11402174D01*
X2391610Y-11402174D02*
X2401134Y-11421222D01*
X2401134Y-11421222D02*
X2401134Y-11525984D01*
X2401134Y-11421222D02*
X2410658Y-11402174D01*
X2410658Y-11402174D02*
X2429705Y-11392650D01*
X2429705Y-11392650D02*
X2458277Y-11392650D01*
X2458277Y-11392650D02*
X2477325Y-11402174D01*
X2477325Y-11402174D02*
X2486848Y-11421222D01*
X2486848Y-11421222D02*
X2486848Y-11525984D01*
X2582086Y-11525984D02*
X2582086Y-11392650D01*
X2582086Y-11411698D02*
X2591610Y-11402174D01*
X2591610Y-11402174D02*
X2610658Y-11392650D01*
X2610658Y-11392650D02*
X2639229Y-11392650D01*
X2639229Y-11392650D02*
X2658277Y-11402174D01*
X2658277Y-11402174D02*
X2667801Y-11421222D01*
X2667801Y-11421222D02*
X2667801Y-11525984D01*
X2667801Y-11421222D02*
X2677325Y-11402174D01*
X2677325Y-11402174D02*
X2696372Y-11392650D01*
X2696372Y-11392650D02*
X2724944Y-11392650D01*
X2724944Y-11392650D02*
X2743991Y-11402174D01*
X2743991Y-11402174D02*
X2753515Y-11421222D01*
X2753515Y-11421222D02*
X2753515Y-11525984D01*
X3143991Y-11316460D02*
X2972563Y-11573603D01*
X3401134Y-11325984D02*
X3420182Y-11325984D01*
X3420182Y-11325984D02*
X3439229Y-11335508D01*
X3439229Y-11335508D02*
X3448753Y-11345031D01*
X3448753Y-11345031D02*
X3458277Y-11364079D01*
X3458277Y-11364079D02*
X3467801Y-11402174D01*
X3467801Y-11402174D02*
X3467801Y-11449793D01*
X3467801Y-11449793D02*
X3458277Y-11487888D01*
X3458277Y-11487888D02*
X3448753Y-11506936D01*
X3448753Y-11506936D02*
X3439229Y-11516460D01*
X3439229Y-11516460D02*
X3420182Y-11525984D01*
X3420182Y-11525984D02*
X3401134Y-11525984D01*
X3401134Y-11525984D02*
X3382086Y-11516460D01*
X3382086Y-11516460D02*
X3372563Y-11506936D01*
X3372563Y-11506936D02*
X3363039Y-11487888D01*
X3363039Y-11487888D02*
X3353515Y-11449793D01*
X3353515Y-11449793D02*
X3353515Y-11402174D01*
X3353515Y-11402174D02*
X3363039Y-11364079D01*
X3363039Y-11364079D02*
X3372563Y-11345031D01*
X3372563Y-11345031D02*
X3382086Y-11335508D01*
X3382086Y-11335508D02*
X3401134Y-11325984D01*
X3553515Y-11506936D02*
X3563039Y-11516460D01*
X3563039Y-11516460D02*
X3553515Y-11525984D01*
X3553515Y-11525984D02*
X3543991Y-11516460D01*
X3543991Y-11516460D02*
X3553515Y-11506936D01*
X3553515Y-11506936D02*
X3553515Y-11525984D01*
X3753515Y-11525984D02*
X3639229Y-11525984D01*
X3696372Y-11525984D02*
X3696372Y-11325984D01*
X3696372Y-11325984D02*
X3677325Y-11354555D01*
X3677325Y-11354555D02*
X3658277Y-11373603D01*
X3658277Y-11373603D02*
X3639229Y-11383127D01*
X3829706Y-11345031D02*
X3839229Y-11335508D01*
X3839229Y-11335508D02*
X3858277Y-11325984D01*
X3858277Y-11325984D02*
X3905896Y-11325984D01*
X3905896Y-11325984D02*
X3924944Y-11335508D01*
X3924944Y-11335508D02*
X3934467Y-11345031D01*
X3934467Y-11345031D02*
X3943991Y-11364079D01*
X3943991Y-11364079D02*
X3943991Y-11383127D01*
X3943991Y-11383127D02*
X3934467Y-11411698D01*
X3934467Y-11411698D02*
X3820182Y-11525984D01*
X3820182Y-11525984D02*
X3943991Y-11525984D01*
X4115420Y-11325984D02*
X4077325Y-11325984D01*
X4077325Y-11325984D02*
X4058277Y-11335508D01*
X4058277Y-11335508D02*
X4048753Y-11345031D01*
X4048753Y-11345031D02*
X4029706Y-11373603D01*
X4029706Y-11373603D02*
X4020182Y-11411698D01*
X4020182Y-11411698D02*
X4020182Y-11487888D01*
X4020182Y-11487888D02*
X4029706Y-11506936D01*
X4029706Y-11506936D02*
X4039229Y-11516460D01*
X4039229Y-11516460D02*
X4058277Y-11525984D01*
X4058277Y-11525984D02*
X4096372Y-11525984D01*
X4096372Y-11525984D02*
X4115420Y-11516460D01*
X4115420Y-11516460D02*
X4124944Y-11506936D01*
X4124944Y-11506936D02*
X4134467Y-11487888D01*
X4134467Y-11487888D02*
X4134467Y-11440269D01*
X4134467Y-11440269D02*
X4124944Y-11421222D01*
X4124944Y-11421222D02*
X4115420Y-11411698D01*
X4115420Y-11411698D02*
X4096372Y-11402174D01*
X4096372Y-11402174D02*
X4058277Y-11402174D01*
X4058277Y-11402174D02*
X4039229Y-11411698D01*
X4039229Y-11411698D02*
X4029706Y-11421222D01*
X4029706Y-11421222D02*
X4020182Y-11440269D01*
X4258277Y-11325984D02*
X4277325Y-11325984D01*
X4277325Y-11325984D02*
X4296372Y-11335508D01*
X4296372Y-11335508D02*
X4305896Y-11345031D01*
X4305896Y-11345031D02*
X4315420Y-11364079D01*
X4315420Y-11364079D02*
X4324944Y-11402174D01*
X4324944Y-11402174D02*
X4324944Y-11449793D01*
X4324944Y-11449793D02*
X4315420Y-11487888D01*
X4315420Y-11487888D02*
X4305896Y-11506936D01*
X4305896Y-11506936D02*
X4296372Y-11516460D01*
X4296372Y-11516460D02*
X4277325Y-11525984D01*
X4277325Y-11525984D02*
X4258277Y-11525984D01*
X4258277Y-11525984D02*
X4239229Y-11516460D01*
X4239229Y-11516460D02*
X4229706Y-11506936D01*
X4229706Y-11506936D02*
X4220182Y-11487888D01*
X4220182Y-11487888D02*
X4210658Y-11449793D01*
X4210658Y-11449793D02*
X4210658Y-11402174D01*
X4210658Y-11402174D02*
X4220182Y-11364079D01*
X4220182Y-11364079D02*
X4229706Y-11345031D01*
X4229706Y-11345031D02*
X4239229Y-11335508D01*
X4239229Y-11335508D02*
X4258277Y-11325984D01*
X4401134Y-11325984D02*
X4401134Y-11364079D01*
X4477325Y-11325984D02*
X4477325Y-11364079D01*
X4772563Y-11602174D02*
X4763039Y-11592650D01*
X4763039Y-11592650D02*
X4743991Y-11564079D01*
X4743991Y-11564079D02*
X4734468Y-11545031D01*
X4734468Y-11545031D02*
X4724944Y-11516460D01*
X4724944Y-11516460D02*
X4715420Y-11468841D01*
X4715420Y-11468841D02*
X4715420Y-11430746D01*
X4715420Y-11430746D02*
X4724944Y-11383127D01*
X4724944Y-11383127D02*
X4734468Y-11354555D01*
X4734468Y-11354555D02*
X4743991Y-11335508D01*
X4743991Y-11335508D02*
X4763039Y-11306936D01*
X4763039Y-11306936D02*
X4772563Y-11297412D01*
X4934468Y-11392650D02*
X4934468Y-11525984D01*
X4886849Y-11316460D02*
X4839230Y-11459317D01*
X4839230Y-11459317D02*
X4963039Y-11459317D01*
X5191611Y-11525984D02*
X5191611Y-11325984D01*
X5277325Y-11525984D02*
X5277325Y-11421222D01*
X5277325Y-11421222D02*
X5267801Y-11402174D01*
X5267801Y-11402174D02*
X5248753Y-11392650D01*
X5248753Y-11392650D02*
X5220182Y-11392650D01*
X5220182Y-11392650D02*
X5201134Y-11402174D01*
X5201134Y-11402174D02*
X5191611Y-11411698D01*
X5401134Y-11525984D02*
X5382087Y-11516460D01*
X5382087Y-11516460D02*
X5372563Y-11506936D01*
X5372563Y-11506936D02*
X5363039Y-11487888D01*
X5363039Y-11487888D02*
X5363039Y-11430746D01*
X5363039Y-11430746D02*
X5372563Y-11411698D01*
X5372563Y-11411698D02*
X5382087Y-11402174D01*
X5382087Y-11402174D02*
X5401134Y-11392650D01*
X5401134Y-11392650D02*
X5429706Y-11392650D01*
X5429706Y-11392650D02*
X5448753Y-11402174D01*
X5448753Y-11402174D02*
X5458277Y-11411698D01*
X5458277Y-11411698D02*
X5467801Y-11430746D01*
X5467801Y-11430746D02*
X5467801Y-11487888D01*
X5467801Y-11487888D02*
X5458277Y-11506936D01*
X5458277Y-11506936D02*
X5448753Y-11516460D01*
X5448753Y-11516460D02*
X5429706Y-11525984D01*
X5429706Y-11525984D02*
X5401134Y-11525984D01*
X5582087Y-11525984D02*
X5563039Y-11516460D01*
X5563039Y-11516460D02*
X5553515Y-11497412D01*
X5553515Y-11497412D02*
X5553515Y-11325984D01*
X5734468Y-11516460D02*
X5715420Y-11525984D01*
X5715420Y-11525984D02*
X5677325Y-11525984D01*
X5677325Y-11525984D02*
X5658277Y-11516460D01*
X5658277Y-11516460D02*
X5648753Y-11497412D01*
X5648753Y-11497412D02*
X5648753Y-11421222D01*
X5648753Y-11421222D02*
X5658277Y-11402174D01*
X5658277Y-11402174D02*
X5677325Y-11392650D01*
X5677325Y-11392650D02*
X5715420Y-11392650D01*
X5715420Y-11392650D02*
X5734468Y-11402174D01*
X5734468Y-11402174D02*
X5743991Y-11421222D01*
X5743991Y-11421222D02*
X5743991Y-11440269D01*
X5743991Y-11440269D02*
X5648753Y-11459317D01*
X5820182Y-11516460D02*
X5839230Y-11525984D01*
X5839230Y-11525984D02*
X5877325Y-11525984D01*
X5877325Y-11525984D02*
X5896372Y-11516460D01*
X5896372Y-11516460D02*
X5905896Y-11497412D01*
X5905896Y-11497412D02*
X5905896Y-11487888D01*
X5905896Y-11487888D02*
X5896372Y-11468841D01*
X5896372Y-11468841D02*
X5877325Y-11459317D01*
X5877325Y-11459317D02*
X5848753Y-11459317D01*
X5848753Y-11459317D02*
X5829706Y-11449793D01*
X5829706Y-11449793D02*
X5820182Y-11430746D01*
X5820182Y-11430746D02*
X5820182Y-11421222D01*
X5820182Y-11421222D02*
X5829706Y-11402174D01*
X5829706Y-11402174D02*
X5848753Y-11392650D01*
X5848753Y-11392650D02*
X5877325Y-11392650D01*
X5877325Y-11392650D02*
X5896372Y-11402174D01*
X5972563Y-11602174D02*
X5982087Y-11592650D01*
X5982087Y-11592650D02*
X6001134Y-11564079D01*
X6001134Y-11564079D02*
X6010658Y-11545031D01*
X6010658Y-11545031D02*
X6020182Y-11516460D01*
X6020182Y-11516460D02*
X6029706Y-11468841D01*
X6029706Y-11468841D02*
X6029706Y-11430746D01*
X6029706Y-11430746D02*
X6020182Y-11383127D01*
X6020182Y-11383127D02*
X6010658Y-11354555D01*
X6010658Y-11354555D02*
X6001134Y-11335508D01*
X6001134Y-11335508D02*
X5982087Y-11306936D01*
X5982087Y-11306936D02*
X5972563Y-11297412D01*
M02*
