%TF.GenerationSoftware,KiCad,Pcbnew,9.0.0*%
%TF.CreationDate,2025-04-11T23:35:57+03:30*%
%TF.ProjectId,sstc-v3,73737463-2d76-4332-9e6b-696361645f70,rev?*%
%TF.SameCoordinates,Original*%
%TF.FileFunction,Drillmap*%
%TF.FilePolarity,Positive*%
%FSLAX45Y45*%
G04 Gerber Fmt 4.5, Leading zero omitted, Abs format (unit mm)*
G04 Created by KiCad (PCBNEW 9.0.0) date 2025-04-11 23:35:57*
%MOMM*%
%LPD*%
G01*
G04 APERTURE LIST*
%ADD10C,0.050000*%
%ADD11C,0.200000*%
G04 APERTURE END LIST*
D10*
X1200000Y-1200000D02*
X11200000Y-1200000D01*
X11200000Y-9200000D01*
X1200000Y-9200000D01*
X1200000Y-1200000D01*
D11*
X1458277Y-9513984D02*
X1458277Y-9313984D01*
X1458277Y-9313984D02*
X1505896Y-9313984D01*
X1505896Y-9313984D02*
X1534467Y-9323508D01*
X1534467Y-9323508D02*
X1553515Y-9342555D01*
X1553515Y-9342555D02*
X1563039Y-9361603D01*
X1563039Y-9361603D02*
X1572562Y-9399698D01*
X1572562Y-9399698D02*
X1572562Y-9428270D01*
X1572562Y-9428270D02*
X1563039Y-9466365D01*
X1563039Y-9466365D02*
X1553515Y-9485412D01*
X1553515Y-9485412D02*
X1534467Y-9504460D01*
X1534467Y-9504460D02*
X1505896Y-9513984D01*
X1505896Y-9513984D02*
X1458277Y-9513984D01*
X1658277Y-9513984D02*
X1658277Y-9380650D01*
X1658277Y-9418746D02*
X1667801Y-9399698D01*
X1667801Y-9399698D02*
X1677324Y-9390174D01*
X1677324Y-9390174D02*
X1696372Y-9380650D01*
X1696372Y-9380650D02*
X1715420Y-9380650D01*
X1782086Y-9513984D02*
X1782086Y-9380650D01*
X1782086Y-9313984D02*
X1772562Y-9323508D01*
X1772562Y-9323508D02*
X1782086Y-9333031D01*
X1782086Y-9333031D02*
X1791610Y-9323508D01*
X1791610Y-9323508D02*
X1782086Y-9313984D01*
X1782086Y-9313984D02*
X1782086Y-9333031D01*
X1905896Y-9513984D02*
X1886848Y-9504460D01*
X1886848Y-9504460D02*
X1877324Y-9485412D01*
X1877324Y-9485412D02*
X1877324Y-9313984D01*
X2010658Y-9513984D02*
X1991610Y-9504460D01*
X1991610Y-9504460D02*
X1982086Y-9485412D01*
X1982086Y-9485412D02*
X1982086Y-9313984D01*
X2239229Y-9513984D02*
X2239229Y-9313984D01*
X2239229Y-9313984D02*
X2305896Y-9456841D01*
X2305896Y-9456841D02*
X2372563Y-9313984D01*
X2372563Y-9313984D02*
X2372563Y-9513984D01*
X2553515Y-9513984D02*
X2553515Y-9409222D01*
X2553515Y-9409222D02*
X2543991Y-9390174D01*
X2543991Y-9390174D02*
X2524944Y-9380650D01*
X2524944Y-9380650D02*
X2486848Y-9380650D01*
X2486848Y-9380650D02*
X2467801Y-9390174D01*
X2553515Y-9504460D02*
X2534467Y-9513984D01*
X2534467Y-9513984D02*
X2486848Y-9513984D01*
X2486848Y-9513984D02*
X2467801Y-9504460D01*
X2467801Y-9504460D02*
X2458277Y-9485412D01*
X2458277Y-9485412D02*
X2458277Y-9466365D01*
X2458277Y-9466365D02*
X2467801Y-9447317D01*
X2467801Y-9447317D02*
X2486848Y-9437793D01*
X2486848Y-9437793D02*
X2534467Y-9437793D01*
X2534467Y-9437793D02*
X2553515Y-9428270D01*
X2648753Y-9380650D02*
X2648753Y-9580650D01*
X2648753Y-9390174D02*
X2667801Y-9380650D01*
X2667801Y-9380650D02*
X2705896Y-9380650D01*
X2705896Y-9380650D02*
X2724944Y-9390174D01*
X2724944Y-9390174D02*
X2734467Y-9399698D01*
X2734467Y-9399698D02*
X2743991Y-9418746D01*
X2743991Y-9418746D02*
X2743991Y-9475889D01*
X2743991Y-9475889D02*
X2734467Y-9494936D01*
X2734467Y-9494936D02*
X2724944Y-9504460D01*
X2724944Y-9504460D02*
X2705896Y-9513984D01*
X2705896Y-9513984D02*
X2667801Y-9513984D01*
X2667801Y-9513984D02*
X2648753Y-9504460D01*
X2829705Y-9494936D02*
X2839229Y-9504460D01*
X2839229Y-9504460D02*
X2829705Y-9513984D01*
X2829705Y-9513984D02*
X2820182Y-9504460D01*
X2820182Y-9504460D02*
X2829705Y-9494936D01*
X2829705Y-9494936D02*
X2829705Y-9513984D01*
X2829705Y-9390174D02*
X2839229Y-9399698D01*
X2839229Y-9399698D02*
X2829705Y-9409222D01*
X2829705Y-9409222D02*
X2820182Y-9399698D01*
X2820182Y-9399698D02*
X2829705Y-9390174D01*
X2829705Y-9390174D02*
X2829705Y-9409222D01*
M02*
