%TF.GenerationSoftware,KiCad,Pcbnew,9.0.0*%
%TF.CreationDate,2025-04-11T23:35:57+03:30*%
%TF.ProjectId,sstc-v3,73737463-2d76-4332-9e6b-696361645f70,rev?*%
%TF.SameCoordinates,Original*%
%TF.FileFunction,Drillmap*%
%TF.FilePolarity,Positive*%
%FSLAX45Y45*%
G04 Gerber Fmt 4.5, Leading zero omitted, Abs format (unit mm)*
G04 Created by KiCad (PCBNEW 9.0.0) date 2025-04-11 23:35:57*
%MOMM*%
%LPD*%
G01*
G04 APERTURE LIST*
%ADD10C,0.050000*%
%ADD11C,0.200000*%
%ADD12C,0.100000*%
%ADD13C,0.102000*%
%ADD14C,0.110000*%
%ADD15C,0.152000*%
%ADD16C,0.250000*%
G04 APERTURE END LIST*
D10*
X1200000Y-1200000D02*
X11200000Y-1200000D01*
X11200000Y-9200000D01*
X1200000Y-9200000D01*
X1200000Y-1200000D01*
D11*
D12*
X2082250Y-6262000D02*
X2162250Y-6342000D01*
X2162250Y-6262000D02*
X2082250Y-6342000D01*
X2082250Y-6512000D02*
X2162250Y-6592000D01*
X2162250Y-6512000D02*
X2082250Y-6592000D01*
X2097750Y-6837000D02*
X2177750Y-6917000D01*
X2177750Y-6837000D02*
X2097750Y-6917000D01*
X2097750Y-7212000D02*
X2177750Y-7292000D01*
X2177750Y-7212000D02*
X2097750Y-7292000D01*
X2302000Y-2560000D02*
X2382000Y-2640000D01*
X2382000Y-2560000D02*
X2302000Y-2640000D01*
X2302000Y-3348000D02*
X2382000Y-3428000D01*
X2382000Y-3348000D02*
X2302000Y-3428000D01*
X2347000Y-4210500D02*
X2427000Y-4290500D01*
X2427000Y-4210500D02*
X2347000Y-4290500D01*
X2347000Y-4464500D02*
X2427000Y-4544500D01*
X2427000Y-4464500D02*
X2347000Y-4544500D01*
X2347000Y-5060500D02*
X2427000Y-5140500D01*
X2427000Y-5060500D02*
X2347000Y-5140500D01*
X2347000Y-5314500D02*
X2427000Y-5394500D01*
X2427000Y-5314500D02*
X2347000Y-5394500D01*
X2351750Y-6837000D02*
X2431750Y-6917000D01*
X2431750Y-6837000D02*
X2351750Y-6917000D01*
X2351750Y-7212000D02*
X2431750Y-7292000D01*
X2431750Y-7212000D02*
X2351750Y-7292000D01*
X2556000Y-2560000D02*
X2636000Y-2640000D01*
X2636000Y-2560000D02*
X2556000Y-2640000D01*
X2556000Y-3348000D02*
X2636000Y-3428000D01*
X2636000Y-3348000D02*
X2556000Y-3428000D01*
X2632250Y-6632000D02*
X2712250Y-6712000D01*
X2712250Y-6632000D02*
X2632250Y-6712000D01*
X2632250Y-6882000D02*
X2712250Y-6962000D01*
X2712250Y-6882000D02*
X2632250Y-6962000D01*
X2724000Y-4206000D02*
X2804000Y-4286000D01*
X2804000Y-4206000D02*
X2724000Y-4286000D01*
X2724000Y-4460000D02*
X2804000Y-4540000D01*
X2804000Y-4460000D02*
X2724000Y-4540000D01*
X2724000Y-4714000D02*
X2804000Y-4794000D01*
X2804000Y-4714000D02*
X2724000Y-4794000D01*
X2860000Y-3810000D02*
X2940000Y-3890000D01*
X2940000Y-3810000D02*
X2860000Y-3890000D01*
X2891500Y-5200000D02*
X2971500Y-5280000D01*
X2971500Y-5200000D02*
X2891500Y-5280000D01*
X2891500Y-5450000D02*
X2971500Y-5530000D01*
X2971500Y-5450000D02*
X2891500Y-5530000D01*
X3114000Y-3810000D02*
X3194000Y-3890000D01*
X3194000Y-3810000D02*
X3114000Y-3890000D01*
X3152000Y-1760000D02*
X3232000Y-1840000D01*
X3232000Y-1760000D02*
X3152000Y-1840000D01*
X3360000Y-5200000D02*
X3440000Y-5280000D01*
X3440000Y-5200000D02*
X3360000Y-5280000D01*
X3360000Y-5450000D02*
X3440000Y-5530000D01*
X3440000Y-5450000D02*
X3360000Y-5530000D01*
X3406000Y-1760000D02*
X3486000Y-1840000D01*
X3486000Y-1760000D02*
X3406000Y-1840000D01*
X3660000Y-1760000D02*
X3740000Y-1840000D01*
X3740000Y-1760000D02*
X3660000Y-1840000D01*
X3679500Y-3930000D02*
X3759500Y-4010000D01*
X3759500Y-3930000D02*
X3679500Y-4010000D01*
X3679500Y-4184000D02*
X3759500Y-4264000D01*
X3759500Y-4184000D02*
X3679500Y-4264000D01*
X3679500Y-4438000D02*
X3759500Y-4518000D01*
X3759500Y-4438000D02*
X3679500Y-4518000D01*
X3679500Y-4692000D02*
X3759500Y-4772000D01*
X3759500Y-4692000D02*
X3679500Y-4772000D01*
X3679500Y-4946000D02*
X3759500Y-5026000D01*
X3759500Y-4946000D02*
X3679500Y-5026000D01*
X3679500Y-5200000D02*
X3759500Y-5280000D01*
X3759500Y-5200000D02*
X3679500Y-5280000D01*
X3679500Y-5454000D02*
X3759500Y-5534000D01*
X3759500Y-5454000D02*
X3679500Y-5534000D01*
X3679500Y-5708000D02*
X3759500Y-5788000D01*
X3759500Y-5708000D02*
X3679500Y-5788000D01*
X3685000Y-6410000D02*
X3765000Y-6490000D01*
X3765000Y-6410000D02*
X3685000Y-6490000D01*
X3710000Y-6960000D02*
X3790000Y-7040000D01*
X3790000Y-6960000D02*
X3710000Y-7040000D01*
X3710000Y-7214000D02*
X3790000Y-7294000D01*
X3790000Y-7214000D02*
X3710000Y-7294000D01*
X3710000Y-7468000D02*
X3790000Y-7548000D01*
X3790000Y-7468000D02*
X3710000Y-7548000D01*
X3710000Y-7722000D02*
X3790000Y-7802000D01*
X3790000Y-7722000D02*
X3710000Y-7802000D01*
X3710000Y-7976000D02*
X3790000Y-8056000D01*
X3790000Y-7976000D02*
X3710000Y-8056000D01*
X3710000Y-8230000D02*
X3790000Y-8310000D01*
X3790000Y-8230000D02*
X3710000Y-8310000D01*
X3710000Y-8484000D02*
X3790000Y-8564000D01*
X3790000Y-8484000D02*
X3710000Y-8564000D01*
X3710000Y-8738000D02*
X3790000Y-8818000D01*
X3790000Y-8738000D02*
X3710000Y-8818000D01*
X3855500Y-6087000D02*
X3935500Y-6167000D01*
X3935500Y-6087000D02*
X3855500Y-6167000D01*
X3935000Y-6410000D02*
X4015000Y-6490000D01*
X4015000Y-6410000D02*
X3935000Y-6490000D01*
X4035000Y-3560000D02*
X4115000Y-3640000D01*
X4115000Y-3560000D02*
X4035000Y-3640000D01*
X4109500Y-6087000D02*
X4189500Y-6167000D01*
X4189500Y-6087000D02*
X4109500Y-6167000D01*
X4222000Y-6560000D02*
X4302000Y-6640000D01*
X4302000Y-6560000D02*
X4222000Y-6640000D01*
X4285000Y-3560000D02*
X4365000Y-3640000D01*
X4365000Y-3560000D02*
X4285000Y-3640000D01*
X4391500Y-6087000D02*
X4471500Y-6167000D01*
X4471500Y-6087000D02*
X4391500Y-6167000D01*
X4441500Y-3930000D02*
X4521500Y-4010000D01*
X4521500Y-3930000D02*
X4441500Y-4010000D01*
X4441500Y-4184000D02*
X4521500Y-4264000D01*
X4521500Y-4184000D02*
X4441500Y-4264000D01*
X4441500Y-4438000D02*
X4521500Y-4518000D01*
X4521500Y-4438000D02*
X4441500Y-4518000D01*
X4441500Y-4692000D02*
X4521500Y-4772000D01*
X4521500Y-4692000D02*
X4441500Y-4772000D01*
X4441500Y-4946000D02*
X4521500Y-5026000D01*
X4521500Y-4946000D02*
X4441500Y-5026000D01*
X4441500Y-5200000D02*
X4521500Y-5280000D01*
X4521500Y-5200000D02*
X4441500Y-5280000D01*
X4441500Y-5454000D02*
X4521500Y-5534000D01*
X4521500Y-5454000D02*
X4441500Y-5534000D01*
X4441500Y-5708000D02*
X4521500Y-5788000D01*
X4521500Y-5708000D02*
X4441500Y-5788000D01*
X4472000Y-6560000D02*
X4552000Y-6640000D01*
X4552000Y-6560000D02*
X4472000Y-6640000D01*
X4472000Y-6960000D02*
X4552000Y-7040000D01*
X4552000Y-6960000D02*
X4472000Y-7040000D01*
X4472000Y-7214000D02*
X4552000Y-7294000D01*
X4552000Y-7214000D02*
X4472000Y-7294000D01*
X4472000Y-7468000D02*
X4552000Y-7548000D01*
X4552000Y-7468000D02*
X4472000Y-7548000D01*
X4472000Y-7722000D02*
X4552000Y-7802000D01*
X4552000Y-7722000D02*
X4472000Y-7802000D01*
X4472000Y-7976000D02*
X4552000Y-8056000D01*
X4552000Y-7976000D02*
X4472000Y-8056000D01*
X4472000Y-8230000D02*
X4552000Y-8310000D01*
X4552000Y-8230000D02*
X4472000Y-8310000D01*
X4472000Y-8484000D02*
X4552000Y-8564000D01*
X4552000Y-8484000D02*
X4472000Y-8564000D01*
X4472000Y-8738000D02*
X4552000Y-8818000D01*
X4552000Y-8738000D02*
X4472000Y-8818000D01*
X4540000Y-3560000D02*
X4620000Y-3640000D01*
X4620000Y-3560000D02*
X4540000Y-3640000D01*
X4645500Y-6087000D02*
X4725500Y-6167000D01*
X4725500Y-6087000D02*
X4645500Y-6167000D01*
X4790000Y-3560000D02*
X4870000Y-3640000D01*
X4870000Y-3560000D02*
X4790000Y-3640000D01*
X4836500Y-5760000D02*
X4916500Y-5840000D01*
X4916500Y-5760000D02*
X4836500Y-5840000D01*
X4852000Y-4935000D02*
X4932000Y-5015000D01*
X4932000Y-4935000D02*
X4852000Y-5015000D01*
X4856000Y-5285000D02*
X4936000Y-5365000D01*
X4936000Y-5285000D02*
X4856000Y-5365000D01*
X4860000Y-3928000D02*
X4940000Y-4008000D01*
X4940000Y-3928000D02*
X4860000Y-4008000D01*
X4860000Y-4182000D02*
X4940000Y-4262000D01*
X4940000Y-4182000D02*
X4860000Y-4262000D01*
X4950000Y-6589000D02*
X5030000Y-6669000D01*
X5030000Y-6589000D02*
X4950000Y-6669000D01*
X5086500Y-5760000D02*
X5166500Y-5840000D01*
X5166500Y-5760000D02*
X5086500Y-5840000D01*
X5106000Y-4935000D02*
X5186000Y-5015000D01*
X5186000Y-4935000D02*
X5106000Y-5015000D01*
X5110000Y-5285000D02*
X5190000Y-5365000D01*
X5190000Y-5285000D02*
X5110000Y-5365000D01*
X5160000Y-8005500D02*
X5240000Y-8085500D01*
X5240000Y-8005500D02*
X5160000Y-8085500D01*
X5160000Y-8259500D02*
X5240000Y-8339500D01*
X5240000Y-8259500D02*
X5160000Y-8339500D01*
X5204000Y-6589000D02*
X5284000Y-6669000D01*
X5284000Y-6589000D02*
X5204000Y-6669000D01*
X5252000Y-1610000D02*
X5332000Y-1690000D01*
X5332000Y-1610000D02*
X5252000Y-1690000D01*
X5252000Y-1864000D02*
X5332000Y-1944000D01*
X5332000Y-1864000D02*
X5252000Y-1944000D01*
X5260000Y-3883000D02*
X5340000Y-3963000D01*
X5340000Y-3883000D02*
X5260000Y-3963000D01*
X5260000Y-4137000D02*
X5340000Y-4217000D01*
X5340000Y-4137000D02*
X5260000Y-4217000D01*
X5406000Y-2548000D02*
X5486000Y-2628000D01*
X5486000Y-2548000D02*
X5406000Y-2628000D01*
X5406000Y-3310000D02*
X5486000Y-3390000D01*
X5486000Y-3310000D02*
X5406000Y-3390000D01*
X5544000Y-8005500D02*
X5624000Y-8085500D01*
X5624000Y-8005500D02*
X5544000Y-8085500D01*
X5544000Y-8259500D02*
X5624000Y-8339500D01*
X5624000Y-8259500D02*
X5544000Y-8339500D01*
X5552000Y-1565000D02*
X5632000Y-1645000D01*
X5632000Y-1565000D02*
X5552000Y-1645000D01*
X5552000Y-1819000D02*
X5632000Y-1899000D01*
X5632000Y-1819000D02*
X5552000Y-1899000D01*
X5602000Y-4960000D02*
X5682000Y-5040000D01*
X5682000Y-4960000D02*
X5602000Y-5040000D01*
X5602000Y-5610000D02*
X5682000Y-5690000D01*
X5682000Y-5610000D02*
X5602000Y-5690000D01*
X5605000Y-6360000D02*
X5685000Y-6440000D01*
X5685000Y-6360000D02*
X5605000Y-6440000D01*
X5660000Y-2548000D02*
X5740000Y-2628000D01*
X5740000Y-2548000D02*
X5660000Y-2628000D01*
X5660000Y-3310000D02*
X5740000Y-3390000D01*
X5740000Y-3310000D02*
X5660000Y-3390000D01*
X5660000Y-3883000D02*
X5740000Y-3963000D01*
X5740000Y-3883000D02*
X5660000Y-3963000D01*
X5660000Y-4133000D02*
X5740000Y-4213000D01*
X5740000Y-4133000D02*
X5660000Y-4213000D01*
X5852000Y-1565000D02*
X5932000Y-1645000D01*
X5932000Y-1565000D02*
X5852000Y-1645000D01*
X5852000Y-1819000D02*
X5932000Y-1899000D01*
X5932000Y-1819000D02*
X5852000Y-1899000D01*
X5856000Y-4960000D02*
X5936000Y-5040000D01*
X5936000Y-4960000D02*
X5856000Y-5040000D01*
X5856000Y-5610000D02*
X5936000Y-5690000D01*
X5936000Y-5610000D02*
X5856000Y-5690000D01*
X5859000Y-6360000D02*
X5939000Y-6440000D01*
X5939000Y-6360000D02*
X5859000Y-6440000D01*
X5914000Y-2548000D02*
X5994000Y-2628000D01*
X5994000Y-2548000D02*
X5914000Y-2628000D01*
X5914000Y-3310000D02*
X5994000Y-3390000D01*
X5994000Y-3310000D02*
X5914000Y-3390000D01*
X6010000Y-3883000D02*
X6090000Y-3963000D01*
X6090000Y-3883000D02*
X6010000Y-3963000D01*
X6010000Y-4133000D02*
X6090000Y-4213000D01*
X6090000Y-4133000D02*
X6010000Y-4213000D01*
X6110000Y-4960000D02*
X6190000Y-5040000D01*
X6190000Y-4960000D02*
X6110000Y-5040000D01*
X6110000Y-5610000D02*
X6190000Y-5690000D01*
X6190000Y-5610000D02*
X6110000Y-5690000D01*
X6113000Y-6360000D02*
X6193000Y-6440000D01*
X6193000Y-6360000D02*
X6113000Y-6440000D01*
X6168000Y-2548000D02*
X6248000Y-2628000D01*
X6248000Y-2548000D02*
X6168000Y-2628000D01*
X6168000Y-3310000D02*
X6248000Y-3390000D01*
X6248000Y-3310000D02*
X6168000Y-3390000D01*
X6202000Y-1596137D02*
X6282000Y-1676137D01*
X6282000Y-1596137D02*
X6202000Y-1676137D01*
X6202000Y-1850137D02*
X6282000Y-1930137D01*
X6282000Y-1850137D02*
X6202000Y-1930137D01*
X6422000Y-2548000D02*
X6502000Y-2628000D01*
X6502000Y-2548000D02*
X6422000Y-2628000D01*
X6422000Y-3310000D02*
X6502000Y-3390000D01*
X6502000Y-3310000D02*
X6422000Y-3390000D01*
X6502000Y-1565000D02*
X6582000Y-1645000D01*
X6582000Y-1565000D02*
X6502000Y-1645000D01*
X6502000Y-1815000D02*
X6582000Y-1895000D01*
X6582000Y-1815000D02*
X6502000Y-1895000D01*
X6548000Y-3998000D02*
X6628000Y-4078000D01*
X6628000Y-3998000D02*
X6548000Y-4078000D01*
X6548000Y-4252000D02*
X6628000Y-4332000D01*
X6628000Y-4252000D02*
X6548000Y-4332000D01*
X6548000Y-4506000D02*
X6628000Y-4586000D01*
X6628000Y-4506000D02*
X6548000Y-4586000D01*
X6548000Y-4760000D02*
X6628000Y-4840000D01*
X6628000Y-4760000D02*
X6548000Y-4840000D01*
X6548000Y-5014000D02*
X6628000Y-5094000D01*
X6628000Y-5014000D02*
X6548000Y-5094000D01*
X6548000Y-5268000D02*
X6628000Y-5348000D01*
X6628000Y-5268000D02*
X6548000Y-5348000D01*
X6548000Y-5522000D02*
X6628000Y-5602000D01*
X6628000Y-5522000D02*
X6548000Y-5602000D01*
X6676000Y-2548000D02*
X6756000Y-2628000D01*
X6756000Y-2548000D02*
X6676000Y-2628000D01*
X6676000Y-3310000D02*
X6756000Y-3390000D01*
X6756000Y-3310000D02*
X6676000Y-3390000D01*
X6852000Y-1565000D02*
X6932000Y-1645000D01*
X6932000Y-1565000D02*
X6852000Y-1645000D01*
X6852000Y-1819000D02*
X6932000Y-1899000D01*
X6932000Y-1819000D02*
X6852000Y-1899000D01*
X6885000Y-8260000D02*
X6965000Y-8340000D01*
X6965000Y-8260000D02*
X6885000Y-8340000D01*
X6910000Y-7460000D02*
X6990000Y-7540000D01*
X6990000Y-7460000D02*
X6910000Y-7540000D01*
X6930000Y-2548000D02*
X7010000Y-2628000D01*
X7010000Y-2548000D02*
X6930000Y-2628000D01*
X6930000Y-3310000D02*
X7010000Y-3390000D01*
X7010000Y-3310000D02*
X6930000Y-3390000D01*
X7060000Y-3610000D02*
X7140000Y-3690000D01*
X7140000Y-3610000D02*
X7060000Y-3690000D01*
X7135000Y-8260000D02*
X7215000Y-8340000D01*
X7215000Y-8260000D02*
X7135000Y-8340000D01*
X7160000Y-7460000D02*
X7240000Y-7540000D01*
X7240000Y-7460000D02*
X7160000Y-7540000D01*
X7310000Y-3060000D02*
X7390000Y-3140000D01*
X7390000Y-3060000D02*
X7310000Y-3140000D01*
X7310000Y-3310000D02*
X7390000Y-3390000D01*
X7390000Y-3310000D02*
X7310000Y-3390000D01*
X7310000Y-3610000D02*
X7390000Y-3690000D01*
X7390000Y-3610000D02*
X7310000Y-3690000D01*
X7310000Y-3998000D02*
X7390000Y-4078000D01*
X7390000Y-3998000D02*
X7310000Y-4078000D01*
X7310000Y-4252000D02*
X7390000Y-4332000D01*
X7390000Y-4252000D02*
X7310000Y-4332000D01*
X7310000Y-4506000D02*
X7390000Y-4586000D01*
X7390000Y-4506000D02*
X7310000Y-4586000D01*
X7310000Y-4760000D02*
X7390000Y-4840000D01*
X7390000Y-4760000D02*
X7310000Y-4840000D01*
X7310000Y-5014000D02*
X7390000Y-5094000D01*
X7390000Y-5014000D02*
X7310000Y-5094000D01*
X7310000Y-5268000D02*
X7390000Y-5348000D01*
X7390000Y-5268000D02*
X7310000Y-5348000D01*
X7310000Y-5522000D02*
X7390000Y-5602000D01*
X7390000Y-5522000D02*
X7310000Y-5602000D01*
X8079500Y-4579000D02*
X8159500Y-4659000D01*
X8159500Y-4579000D02*
X8079500Y-4659000D01*
X8079500Y-4833000D02*
X8159500Y-4913000D01*
X8159500Y-4833000D02*
X8079500Y-4913000D01*
X8079500Y-5087000D02*
X8159500Y-5167000D01*
X8159500Y-5087000D02*
X8079500Y-5167000D01*
X8079500Y-5341000D02*
X8159500Y-5421000D01*
X8159500Y-5341000D02*
X8079500Y-5421000D01*
X8174500Y-2847568D02*
X8254500Y-2927568D01*
X8254500Y-2847568D02*
X8174500Y-2927568D01*
X8174500Y-3097568D02*
X8254500Y-3177568D01*
X8254500Y-3097568D02*
X8174500Y-3177568D01*
X8199500Y-2564500D02*
X8279500Y-2644500D01*
X8279500Y-2564500D02*
X8199500Y-2644500D01*
X8210000Y-4010000D02*
X8290000Y-4090000D01*
X8290000Y-4010000D02*
X8210000Y-4090000D01*
X8310000Y-6560000D02*
X8390000Y-6640000D01*
X8390000Y-6560000D02*
X8310000Y-6640000D01*
X8335000Y-5660000D02*
X8415000Y-5740000D01*
X8415000Y-5660000D02*
X8335000Y-5740000D01*
X8340000Y-1864000D02*
X8420000Y-1944000D01*
X8420000Y-1864000D02*
X8340000Y-1944000D01*
X8340000Y-2118000D02*
X8420000Y-2198000D01*
X8420000Y-2118000D02*
X8340000Y-2198000D01*
X8453500Y-2564500D02*
X8533500Y-2644500D01*
X8533500Y-2564500D02*
X8453500Y-2644500D01*
X8479500Y-2878706D02*
X8559500Y-2958706D01*
X8559500Y-2878706D02*
X8479500Y-2958706D01*
X8479500Y-3132706D02*
X8559500Y-3212706D01*
X8559500Y-3132706D02*
X8479500Y-3212706D01*
X8560000Y-6560000D02*
X8640000Y-6640000D01*
X8640000Y-6560000D02*
X8560000Y-6640000D01*
X8585000Y-5660000D02*
X8665000Y-5740000D01*
X8665000Y-5660000D02*
X8585000Y-5740000D01*
X8710000Y-4010000D02*
X8790000Y-4090000D01*
X8790000Y-4010000D02*
X8710000Y-4090000D01*
X8810500Y-2847568D02*
X8890500Y-2927568D01*
X8890500Y-2847568D02*
X8810500Y-2927568D01*
X8810500Y-3101568D02*
X8890500Y-3181568D01*
X8890500Y-3101568D02*
X8810500Y-3181568D01*
X8841500Y-4579000D02*
X8921500Y-4659000D01*
X8921500Y-4579000D02*
X8841500Y-4659000D01*
X8841500Y-4833000D02*
X8921500Y-4913000D01*
X8921500Y-4833000D02*
X8841500Y-4913000D01*
X8841500Y-5087000D02*
X8921500Y-5167000D01*
X8921500Y-5087000D02*
X8841500Y-5167000D01*
X8841500Y-5341000D02*
X8921500Y-5421000D01*
X8921500Y-5341000D02*
X8841500Y-5421000D01*
X8860000Y-2060500D02*
X8940000Y-2140500D01*
X8940000Y-2060500D02*
X8860000Y-2140500D01*
X8860000Y-2314500D02*
X8940000Y-2394500D01*
X8940000Y-2314500D02*
X8860000Y-2394500D01*
X8860000Y-2568500D02*
X8940000Y-2648500D01*
X8940000Y-2568500D02*
X8860000Y-2648500D01*
X8977000Y-5883000D02*
X9057000Y-5963000D01*
X9057000Y-5883000D02*
X8977000Y-5963000D01*
X8977000Y-6133000D02*
X9057000Y-6213000D01*
X9057000Y-6133000D02*
X8977000Y-6213000D01*
X9002000Y-3813000D02*
X9082000Y-3893000D01*
X9082000Y-3813000D02*
X9002000Y-3893000D01*
X9002000Y-4063000D02*
X9082000Y-4143000D01*
X9082000Y-4063000D02*
X9002000Y-4143000D01*
X9210500Y-2847568D02*
X9290500Y-2927568D01*
X9290500Y-2847568D02*
X9210500Y-2927568D01*
X9210500Y-3101568D02*
X9290500Y-3181568D01*
X9290500Y-3101568D02*
X9210500Y-3181568D01*
X9260000Y-2310500D02*
X9340000Y-2390500D01*
X9340000Y-2310500D02*
X9260000Y-2390500D01*
X9260000Y-2564500D02*
X9340000Y-2644500D01*
X9340000Y-2564500D02*
X9260000Y-2644500D01*
X9481000Y-3506000D02*
X9561000Y-3586000D01*
X9561000Y-3506000D02*
X9481000Y-3586000D01*
X9481000Y-6525175D02*
X9561000Y-6605175D01*
X9561000Y-6525175D02*
X9481000Y-6605175D01*
X9526000Y-3206000D02*
X9606000Y-3286000D01*
X9606000Y-3206000D02*
X9526000Y-3286000D01*
X9526000Y-6825175D02*
X9606000Y-6905175D01*
X9606000Y-6825175D02*
X9526000Y-6905175D01*
X9539069Y-2878706D02*
X9619069Y-2958706D01*
X9619069Y-2878706D02*
X9539069Y-2958706D01*
X9735000Y-3506000D02*
X9815000Y-3586000D01*
X9815000Y-3506000D02*
X9735000Y-3586000D01*
X9735000Y-6525175D02*
X9815000Y-6605175D01*
X9815000Y-6525175D02*
X9735000Y-6605175D01*
X9760000Y-7410000D02*
X9840000Y-7490000D01*
X9840000Y-7410000D02*
X9760000Y-7490000D01*
X9760000Y-7660000D02*
X9840000Y-7740000D01*
X9840000Y-7660000D02*
X9760000Y-7740000D01*
X9780000Y-3206000D02*
X9860000Y-3286000D01*
X9860000Y-3206000D02*
X9780000Y-3286000D01*
X9780000Y-6825175D02*
X9860000Y-6905175D01*
X9860000Y-6825175D02*
X9780000Y-6905175D01*
X9793069Y-2878706D02*
X9873069Y-2958706D01*
X9873069Y-2878706D02*
X9793069Y-2958706D01*
X10052000Y-3813000D02*
X10132000Y-3893000D01*
X10132000Y-3813000D02*
X10052000Y-3893000D01*
X10052000Y-4063000D02*
X10132000Y-4143000D01*
X10132000Y-4063000D02*
X10052000Y-4143000D01*
X10052000Y-5883000D02*
X10132000Y-5963000D01*
X10132000Y-5883000D02*
X10052000Y-5963000D01*
X10052000Y-6133000D02*
X10132000Y-6213000D01*
X10132000Y-6133000D02*
X10052000Y-6213000D01*
X10485000Y-4110000D02*
X10565000Y-4190000D01*
X10565000Y-4110000D02*
X10485000Y-4190000D01*
X10485000Y-4511000D02*
X10565000Y-4591000D01*
X10565000Y-4511000D02*
X10485000Y-4591000D01*
X10530000Y-4906000D02*
X10610000Y-4986000D01*
X10610000Y-4906000D02*
X10530000Y-4986000D01*
X10735000Y-4110000D02*
X10815000Y-4190000D01*
X10815000Y-4110000D02*
X10735000Y-4190000D01*
X10735000Y-4511000D02*
X10815000Y-4591000D01*
X10815000Y-4511000D02*
X10735000Y-4591000D01*
X10784000Y-4906000D02*
X10864000Y-4986000D01*
X10864000Y-4906000D02*
X10784000Y-4986000D01*
X1717500Y-2600000D02*
G75*
G02*
X1627500Y-2600000I-45000J0D01*
G01*
X1627500Y-2600000D02*
G75*
G02*
X1717500Y-2600000I45000J0D01*
G01*
X1717500Y-3400000D02*
G75*
G02*
X1627500Y-3400000I-45000J0D01*
G01*
X1627500Y-3400000D02*
G75*
G02*
X1717500Y-3400000I45000J0D01*
G01*
X1717500Y-4244000D02*
G75*
G02*
X1627500Y-4244000I-45000J0D01*
G01*
X1627500Y-4244000D02*
G75*
G02*
X1717500Y-4244000I45000J0D01*
G01*
X1717500Y-5100000D02*
G75*
G02*
X1627500Y-5100000I-45000J0D01*
G01*
X1627500Y-5100000D02*
G75*
G02*
X1717500Y-5100000I45000J0D01*
G01*
X1971500Y-2600000D02*
G75*
G02*
X1881500Y-2600000I-45000J0D01*
G01*
X1881500Y-2600000D02*
G75*
G02*
X1971500Y-2600000I45000J0D01*
G01*
X1971500Y-3400000D02*
G75*
G02*
X1881500Y-3400000I-45000J0D01*
G01*
X1881500Y-3400000D02*
G75*
G02*
X1971500Y-3400000I45000J0D01*
G01*
X1971500Y-4244000D02*
G75*
G02*
X1881500Y-4244000I-45000J0D01*
G01*
X1881500Y-4244000D02*
G75*
G02*
X1971500Y-4244000I45000J0D01*
G01*
X1971500Y-5100000D02*
G75*
G02*
X1881500Y-5100000I-45000J0D01*
G01*
X1881500Y-5100000D02*
G75*
G02*
X1971500Y-5100000I45000J0D01*
G01*
X1779750Y-5742000D02*
X1779750Y-5842000D01*
X1729750Y-5792000D02*
X1829750Y-5792000D01*
X1779750Y-5996000D02*
X1779750Y-6096000D01*
X1729750Y-6046000D02*
X1829750Y-6046000D01*
X1779750Y-6250000D02*
X1779750Y-6350000D01*
X1729750Y-6300000D02*
X1829750Y-6300000D01*
X1779750Y-6504000D02*
X1779750Y-6604000D01*
X1729750Y-6554000D02*
X1829750Y-6554000D01*
X1779750Y-6758000D02*
X1779750Y-6858000D01*
X1729750Y-6808000D02*
X1829750Y-6808000D01*
X1779750Y-7012000D02*
X1779750Y-7112000D01*
X1729750Y-7062000D02*
X1829750Y-7062000D01*
X3300000Y-4522500D02*
X3300000Y-4622500D01*
X3250000Y-4572500D02*
X3350000Y-4572500D01*
X3300000Y-4776500D02*
X3300000Y-4876500D01*
X3250000Y-4826500D02*
X3350000Y-4826500D01*
X4420000Y-1660000D02*
X4420000Y-1760000D01*
X4370000Y-1710000D02*
X4470000Y-1710000D01*
X4674000Y-1660000D02*
X4674000Y-1760000D01*
X4624000Y-1710000D02*
X4724000Y-1710000D01*
X5020000Y-6950000D02*
X5020000Y-7050000D01*
X4970000Y-7000000D02*
X5070000Y-7000000D01*
X5046000Y-7550000D02*
X5046000Y-7650000D01*
X4996000Y-7600000D02*
X5096000Y-7600000D01*
X5046000Y-8600000D02*
X5046000Y-8700000D01*
X4996000Y-8650000D02*
X5096000Y-8650000D01*
X5274000Y-6950000D02*
X5274000Y-7050000D01*
X5224000Y-7000000D02*
X5324000Y-7000000D01*
X5300000Y-7550000D02*
X5300000Y-7650000D01*
X5250000Y-7600000D02*
X5350000Y-7600000D01*
X5300000Y-8600000D02*
X5300000Y-8700000D01*
X5250000Y-8650000D02*
X5350000Y-8650000D01*
X5528000Y-6950000D02*
X5528000Y-7050000D01*
X5478000Y-7000000D02*
X5578000Y-7000000D01*
X5554000Y-7550000D02*
X5554000Y-7650000D01*
X5504000Y-7600000D02*
X5604000Y-7600000D01*
X5554000Y-8600000D02*
X5554000Y-8700000D01*
X5504000Y-8650000D02*
X5604000Y-8650000D01*
X5782000Y-6950000D02*
X5782000Y-7050000D01*
X5732000Y-7000000D02*
X5832000Y-7000000D01*
X6192000Y-2200000D02*
X6192000Y-2300000D01*
X6142000Y-2250000D02*
X6242000Y-2250000D01*
X6446000Y-2200000D02*
X6446000Y-2300000D01*
X6396000Y-2250000D02*
X6496000Y-2250000D01*
X6700000Y-2200000D02*
X6700000Y-2300000D01*
X6650000Y-2250000D02*
X6750000Y-2250000D01*
X7750000Y-4792000D02*
X7750000Y-4892000D01*
X7700000Y-4842000D02*
X7800000Y-4842000D01*
X7750000Y-5046000D02*
X7750000Y-5146000D01*
X7700000Y-5096000D02*
X7800000Y-5096000D01*
X7750000Y-5300000D02*
X7750000Y-5400000D01*
X7700000Y-5350000D02*
X7800000Y-5350000D01*
X8604250Y-7600000D02*
X8604250Y-7700000D01*
X8554250Y-7650000D02*
X8654250Y-7650000D01*
X8504250Y-7700000D02*
X8704250Y-7700000D01*
X8704250Y-7600000D02*
G75*
G02*
X8704250Y-7700000I0J-50000D01*
G01*
X8704250Y-7600000D02*
X8504250Y-7600000D01*
X8504250Y-7600000D02*
G75*
G03*
X8504250Y-7700000I0J-50000D01*
G01*
X8604250Y-8200000D02*
X8604250Y-8300000D01*
X8554250Y-8250000D02*
X8654250Y-8250000D01*
X8504250Y-8300000D02*
X8704250Y-8300000D01*
X8704250Y-8200000D02*
G75*
G02*
X8704250Y-8300000I0J-50000D01*
G01*
X8704250Y-8200000D02*
X8504250Y-8200000D01*
X8504250Y-8200000D02*
G75*
G03*
X8504250Y-8300000I0J-50000D01*
G01*
X9074250Y-7900000D02*
X9074250Y-8000000D01*
X9024250Y-7950000D02*
X9124250Y-7950000D01*
X9124250Y-8050000D02*
X9124250Y-7850000D01*
X9024250Y-7850000D02*
G75*
G02*
X9124250Y-7850000I50000J0D01*
G01*
X9024250Y-7850000D02*
X9024250Y-8050000D01*
X9024250Y-8050000D02*
G75*
G03*
X9124250Y-8050000I50000J0D01*
G01*
X9550000Y-8600000D02*
X9550000Y-8700000D01*
X9500000Y-8650000D02*
X9600000Y-8650000D01*
X9800000Y-8600000D02*
X9800000Y-8700000D01*
X9750000Y-8650000D02*
X9850000Y-8650000D01*
D13*
X10823563Y-2590063D02*
X10823563Y-2517937D01*
X10751437Y-2517937D01*
X10751437Y-2590063D01*
X10823563Y-2590063D01*
X10823563Y-2844063D02*
X10823563Y-2771937D01*
X10751437Y-2771937D01*
X10751437Y-2844063D01*
X10823563Y-2844063D01*
X10823563Y-3098063D02*
X10823563Y-3025937D01*
X10751437Y-3025937D01*
X10751437Y-3098063D01*
X10823563Y-3098063D01*
X10836063Y-7232063D02*
X10836063Y-7159937D01*
X10763937Y-7159937D01*
X10763937Y-7232063D01*
X10836063Y-7232063D01*
X10836063Y-7486063D02*
X10836063Y-7413937D01*
X10763937Y-7413937D01*
X10763937Y-7486063D01*
X10836063Y-7486063D01*
X10836063Y-7740063D02*
X10836063Y-7667937D01*
X10763937Y-7667937D01*
X10763937Y-7740063D01*
X10836063Y-7740063D01*
D14*
X6938250Y-8765000D02*
X6993250Y-8710000D01*
X6938250Y-8655000D01*
X6883250Y-8710000D01*
X6938250Y-8765000D01*
X7192250Y-8765000D02*
X7247250Y-8710000D01*
X7192250Y-8655000D01*
X7137250Y-8710000D01*
X7192250Y-8765000D01*
X7446250Y-8765000D02*
X7501250Y-8710000D01*
X7446250Y-8655000D01*
X7391250Y-8710000D01*
X7446250Y-8765000D01*
X9342000Y-3955000D02*
X9397000Y-3900000D01*
X9342000Y-3845000D01*
X9287000Y-3900000D01*
X9342000Y-3955000D01*
X9342000Y-4655000D02*
X9397000Y-4600000D01*
X9342000Y-4545000D01*
X9287000Y-4600000D01*
X9342000Y-4655000D01*
X9342000Y-5505000D02*
X9397000Y-5450000D01*
X9342000Y-5395000D01*
X9287000Y-5450000D01*
X9342000Y-5505000D01*
X9342000Y-6205000D02*
X9397000Y-6150000D01*
X9342000Y-6095000D01*
X9287000Y-6150000D01*
X9342000Y-6205000D01*
X9571000Y-3955000D02*
X9626000Y-3900000D01*
X9571000Y-3845000D01*
X9516000Y-3900000D01*
X9571000Y-3955000D01*
X9571000Y-4655000D02*
X9626000Y-4600000D01*
X9571000Y-4545000D01*
X9516000Y-4600000D01*
X9571000Y-4655000D01*
X9571000Y-5505000D02*
X9626000Y-5450000D01*
X9571000Y-5395000D01*
X9516000Y-5450000D01*
X9571000Y-5505000D01*
X9571000Y-6205000D02*
X9626000Y-6150000D01*
X9571000Y-6095000D01*
X9516000Y-6150000D01*
X9571000Y-6205000D01*
X9800000Y-3955000D02*
X9855000Y-3900000D01*
X9800000Y-3845000D01*
X9745000Y-3900000D01*
X9800000Y-3955000D01*
X9800000Y-4655000D02*
X9855000Y-4600000D01*
X9800000Y-4545000D01*
X9745000Y-4600000D01*
X9800000Y-4655000D01*
X9800000Y-5505000D02*
X9855000Y-5450000D01*
X9800000Y-5395000D01*
X9745000Y-5450000D01*
X9800000Y-5505000D01*
X9800000Y-6205000D02*
X9855000Y-6150000D01*
X9800000Y-6095000D01*
X9745000Y-6150000D01*
X9800000Y-6205000D01*
D15*
X7266000Y-1624000D02*
X7418000Y-1776000D01*
X7418000Y-1624000D02*
X7266000Y-1776000D01*
X7418000Y-1700000D02*
G75*
G02*
X7266000Y-1700000I-76000J0D01*
G01*
X7266000Y-1700000D02*
G75*
G02*
X7418000Y-1700000I76000J0D01*
G01*
X7774000Y-1624000D02*
X7926000Y-1776000D01*
X7926000Y-1624000D02*
X7774000Y-1776000D01*
X7926000Y-1700000D02*
G75*
G02*
X7774000Y-1700000I-76000J0D01*
G01*
X7774000Y-1700000D02*
G75*
G02*
X7926000Y-1700000I76000J0D01*
G01*
X10624000Y-5420000D02*
X10776000Y-5572000D01*
X10776000Y-5420000D02*
X10624000Y-5572000D01*
X10776000Y-5496000D02*
G75*
G02*
X10624000Y-5496000I-76000J0D01*
G01*
X10624000Y-5496000D02*
G75*
G02*
X10776000Y-5496000I76000J0D01*
G01*
X10624000Y-5928000D02*
X10776000Y-6080000D01*
X10776000Y-5928000D02*
X10624000Y-6080000D01*
X10776000Y-6004000D02*
G75*
G02*
X10624000Y-6004000I-76000J0D01*
G01*
X10624000Y-6004000D02*
G75*
G02*
X10776000Y-6004000I76000J0D01*
G01*
D16*
X1775000Y-1625000D02*
X2025000Y-1875000D01*
X2025000Y-1625000D02*
X1775000Y-1875000D01*
X1900000Y-1625000D02*
X1900000Y-1875000D01*
X1775000Y-1750000D02*
X2025000Y-1750000D01*
X1775000Y-8525000D02*
X2025000Y-8775000D01*
X2025000Y-8525000D02*
X1775000Y-8775000D01*
X1900000Y-8525000D02*
X1900000Y-8775000D01*
X1775000Y-8650000D02*
X2025000Y-8650000D01*
X10575000Y-1625000D02*
X10825000Y-1875000D01*
X10825000Y-1625000D02*
X10575000Y-1875000D01*
X10700000Y-1625000D02*
X10700000Y-1875000D01*
X10575000Y-1750000D02*
X10825000Y-1750000D01*
X10575000Y-8525000D02*
X10825000Y-8775000D01*
X10825000Y-8525000D02*
X10575000Y-8775000D01*
X10700000Y-8525000D02*
X10700000Y-8775000D01*
X10575000Y-8650000D02*
X10825000Y-8650000D01*
D11*
X1458277Y-9513984D02*
X1458277Y-9313984D01*
X1458277Y-9313984D02*
X1505896Y-9313984D01*
X1505896Y-9313984D02*
X1534467Y-9323508D01*
X1534467Y-9323508D02*
X1553515Y-9342555D01*
X1553515Y-9342555D02*
X1563039Y-9361603D01*
X1563039Y-9361603D02*
X1572562Y-9399698D01*
X1572562Y-9399698D02*
X1572562Y-9428270D01*
X1572562Y-9428270D02*
X1563039Y-9466365D01*
X1563039Y-9466365D02*
X1553515Y-9485412D01*
X1553515Y-9485412D02*
X1534467Y-9504460D01*
X1534467Y-9504460D02*
X1505896Y-9513984D01*
X1505896Y-9513984D02*
X1458277Y-9513984D01*
X1658277Y-9513984D02*
X1658277Y-9380650D01*
X1658277Y-9418746D02*
X1667801Y-9399698D01*
X1667801Y-9399698D02*
X1677324Y-9390174D01*
X1677324Y-9390174D02*
X1696372Y-9380650D01*
X1696372Y-9380650D02*
X1715420Y-9380650D01*
X1782086Y-9513984D02*
X1782086Y-9380650D01*
X1782086Y-9313984D02*
X1772562Y-9323508D01*
X1772562Y-9323508D02*
X1782086Y-9333031D01*
X1782086Y-9333031D02*
X1791610Y-9323508D01*
X1791610Y-9323508D02*
X1782086Y-9313984D01*
X1782086Y-9313984D02*
X1782086Y-9333031D01*
X1905896Y-9513984D02*
X1886848Y-9504460D01*
X1886848Y-9504460D02*
X1877324Y-9485412D01*
X1877324Y-9485412D02*
X1877324Y-9313984D01*
X2010658Y-9513984D02*
X1991610Y-9504460D01*
X1991610Y-9504460D02*
X1982086Y-9485412D01*
X1982086Y-9485412D02*
X1982086Y-9313984D01*
X2239229Y-9513984D02*
X2239229Y-9313984D01*
X2239229Y-9313984D02*
X2305896Y-9456841D01*
X2305896Y-9456841D02*
X2372563Y-9313984D01*
X2372563Y-9313984D02*
X2372563Y-9513984D01*
X2553515Y-9513984D02*
X2553515Y-9409222D01*
X2553515Y-9409222D02*
X2543991Y-9390174D01*
X2543991Y-9390174D02*
X2524944Y-9380650D01*
X2524944Y-9380650D02*
X2486848Y-9380650D01*
X2486848Y-9380650D02*
X2467801Y-9390174D01*
X2553515Y-9504460D02*
X2534467Y-9513984D01*
X2534467Y-9513984D02*
X2486848Y-9513984D01*
X2486848Y-9513984D02*
X2467801Y-9504460D01*
X2467801Y-9504460D02*
X2458277Y-9485412D01*
X2458277Y-9485412D02*
X2458277Y-9466365D01*
X2458277Y-9466365D02*
X2467801Y-9447317D01*
X2467801Y-9447317D02*
X2486848Y-9437793D01*
X2486848Y-9437793D02*
X2534467Y-9437793D01*
X2534467Y-9437793D02*
X2553515Y-9428270D01*
X2648753Y-9380650D02*
X2648753Y-9580650D01*
X2648753Y-9390174D02*
X2667801Y-9380650D01*
X2667801Y-9380650D02*
X2705896Y-9380650D01*
X2705896Y-9380650D02*
X2724944Y-9390174D01*
X2724944Y-9390174D02*
X2734467Y-9399698D01*
X2734467Y-9399698D02*
X2743991Y-9418746D01*
X2743991Y-9418746D02*
X2743991Y-9475889D01*
X2743991Y-9475889D02*
X2734467Y-9494936D01*
X2734467Y-9494936D02*
X2724944Y-9504460D01*
X2724944Y-9504460D02*
X2705896Y-9513984D01*
X2705896Y-9513984D02*
X2667801Y-9513984D01*
X2667801Y-9513984D02*
X2648753Y-9504460D01*
X2829705Y-9494936D02*
X2839229Y-9504460D01*
X2839229Y-9504460D02*
X2829705Y-9513984D01*
X2829705Y-9513984D02*
X2820182Y-9504460D01*
X2820182Y-9504460D02*
X2829705Y-9494936D01*
X2829705Y-9494936D02*
X2829705Y-9513984D01*
X2829705Y-9390174D02*
X2839229Y-9399698D01*
X2839229Y-9399698D02*
X2829705Y-9409222D01*
X2829705Y-9409222D02*
X2820182Y-9399698D01*
X2820182Y-9399698D02*
X2829705Y-9390174D01*
X2829705Y-9390174D02*
X2829705Y-9409222D01*
D12*
X1117500Y-9802500D02*
X1197500Y-9882500D01*
X1197500Y-9802500D02*
X1117500Y-9882500D01*
D11*
X1496372Y-9733984D02*
X1515420Y-9733984D01*
X1515420Y-9733984D02*
X1534467Y-9743508D01*
X1534467Y-9743508D02*
X1543991Y-9753031D01*
X1543991Y-9753031D02*
X1553515Y-9772079D01*
X1553515Y-9772079D02*
X1563039Y-9810174D01*
X1563039Y-9810174D02*
X1563039Y-9857793D01*
X1563039Y-9857793D02*
X1553515Y-9895889D01*
X1553515Y-9895889D02*
X1543991Y-9914936D01*
X1543991Y-9914936D02*
X1534467Y-9924460D01*
X1534467Y-9924460D02*
X1515420Y-9933984D01*
X1515420Y-9933984D02*
X1496372Y-9933984D01*
X1496372Y-9933984D02*
X1477324Y-9924460D01*
X1477324Y-9924460D02*
X1467801Y-9914936D01*
X1467801Y-9914936D02*
X1458277Y-9895889D01*
X1458277Y-9895889D02*
X1448753Y-9857793D01*
X1448753Y-9857793D02*
X1448753Y-9810174D01*
X1448753Y-9810174D02*
X1458277Y-9772079D01*
X1458277Y-9772079D02*
X1467801Y-9753031D01*
X1467801Y-9753031D02*
X1477324Y-9743508D01*
X1477324Y-9743508D02*
X1496372Y-9733984D01*
X1648753Y-9914936D02*
X1658277Y-9924460D01*
X1658277Y-9924460D02*
X1648753Y-9933984D01*
X1648753Y-9933984D02*
X1639229Y-9924460D01*
X1639229Y-9924460D02*
X1648753Y-9914936D01*
X1648753Y-9914936D02*
X1648753Y-9933984D01*
X1772562Y-9819698D02*
X1753515Y-9810174D01*
X1753515Y-9810174D02*
X1743991Y-9800650D01*
X1743991Y-9800650D02*
X1734467Y-9781603D01*
X1734467Y-9781603D02*
X1734467Y-9772079D01*
X1734467Y-9772079D02*
X1743991Y-9753031D01*
X1743991Y-9753031D02*
X1753515Y-9743508D01*
X1753515Y-9743508D02*
X1772562Y-9733984D01*
X1772562Y-9733984D02*
X1810658Y-9733984D01*
X1810658Y-9733984D02*
X1829705Y-9743508D01*
X1829705Y-9743508D02*
X1839229Y-9753031D01*
X1839229Y-9753031D02*
X1848753Y-9772079D01*
X1848753Y-9772079D02*
X1848753Y-9781603D01*
X1848753Y-9781603D02*
X1839229Y-9800650D01*
X1839229Y-9800650D02*
X1829705Y-9810174D01*
X1829705Y-9810174D02*
X1810658Y-9819698D01*
X1810658Y-9819698D02*
X1772562Y-9819698D01*
X1772562Y-9819698D02*
X1753515Y-9829222D01*
X1753515Y-9829222D02*
X1743991Y-9838746D01*
X1743991Y-9838746D02*
X1734467Y-9857793D01*
X1734467Y-9857793D02*
X1734467Y-9895889D01*
X1734467Y-9895889D02*
X1743991Y-9914936D01*
X1743991Y-9914936D02*
X1753515Y-9924460D01*
X1753515Y-9924460D02*
X1772562Y-9933984D01*
X1772562Y-9933984D02*
X1810658Y-9933984D01*
X1810658Y-9933984D02*
X1829705Y-9924460D01*
X1829705Y-9924460D02*
X1839229Y-9914936D01*
X1839229Y-9914936D02*
X1848753Y-9895889D01*
X1848753Y-9895889D02*
X1848753Y-9857793D01*
X1848753Y-9857793D02*
X1839229Y-9838746D01*
X1839229Y-9838746D02*
X1829705Y-9829222D01*
X1829705Y-9829222D02*
X1810658Y-9819698D01*
X1972562Y-9733984D02*
X1991610Y-9733984D01*
X1991610Y-9733984D02*
X2010658Y-9743508D01*
X2010658Y-9743508D02*
X2020182Y-9753031D01*
X2020182Y-9753031D02*
X2029705Y-9772079D01*
X2029705Y-9772079D02*
X2039229Y-9810174D01*
X2039229Y-9810174D02*
X2039229Y-9857793D01*
X2039229Y-9857793D02*
X2029705Y-9895889D01*
X2029705Y-9895889D02*
X2020182Y-9914936D01*
X2020182Y-9914936D02*
X2010658Y-9924460D01*
X2010658Y-9924460D02*
X1991610Y-9933984D01*
X1991610Y-9933984D02*
X1972562Y-9933984D01*
X1972562Y-9933984D02*
X1953515Y-9924460D01*
X1953515Y-9924460D02*
X1943991Y-9914936D01*
X1943991Y-9914936D02*
X1934467Y-9895889D01*
X1934467Y-9895889D02*
X1924943Y-9857793D01*
X1924943Y-9857793D02*
X1924943Y-9810174D01*
X1924943Y-9810174D02*
X1934467Y-9772079D01*
X1934467Y-9772079D02*
X1943991Y-9753031D01*
X1943991Y-9753031D02*
X1953515Y-9743508D01*
X1953515Y-9743508D02*
X1972562Y-9733984D01*
X2163039Y-9733984D02*
X2182086Y-9733984D01*
X2182086Y-9733984D02*
X2201134Y-9743508D01*
X2201134Y-9743508D02*
X2210658Y-9753031D01*
X2210658Y-9753031D02*
X2220182Y-9772079D01*
X2220182Y-9772079D02*
X2229705Y-9810174D01*
X2229705Y-9810174D02*
X2229705Y-9857793D01*
X2229705Y-9857793D02*
X2220182Y-9895889D01*
X2220182Y-9895889D02*
X2210658Y-9914936D01*
X2210658Y-9914936D02*
X2201134Y-9924460D01*
X2201134Y-9924460D02*
X2182086Y-9933984D01*
X2182086Y-9933984D02*
X2163039Y-9933984D01*
X2163039Y-9933984D02*
X2143991Y-9924460D01*
X2143991Y-9924460D02*
X2134467Y-9914936D01*
X2134467Y-9914936D02*
X2124944Y-9895889D01*
X2124944Y-9895889D02*
X2115420Y-9857793D01*
X2115420Y-9857793D02*
X2115420Y-9810174D01*
X2115420Y-9810174D02*
X2124944Y-9772079D01*
X2124944Y-9772079D02*
X2134467Y-9753031D01*
X2134467Y-9753031D02*
X2143991Y-9743508D01*
X2143991Y-9743508D02*
X2163039Y-9733984D01*
X2315420Y-9933984D02*
X2315420Y-9800650D01*
X2315420Y-9819698D02*
X2324944Y-9810174D01*
X2324944Y-9810174D02*
X2343991Y-9800650D01*
X2343991Y-9800650D02*
X2372563Y-9800650D01*
X2372563Y-9800650D02*
X2391610Y-9810174D01*
X2391610Y-9810174D02*
X2401134Y-9829222D01*
X2401134Y-9829222D02*
X2401134Y-9933984D01*
X2401134Y-9829222D02*
X2410658Y-9810174D01*
X2410658Y-9810174D02*
X2429705Y-9800650D01*
X2429705Y-9800650D02*
X2458277Y-9800650D01*
X2458277Y-9800650D02*
X2477325Y-9810174D01*
X2477325Y-9810174D02*
X2486848Y-9829222D01*
X2486848Y-9829222D02*
X2486848Y-9933984D01*
X2582086Y-9933984D02*
X2582086Y-9800650D01*
X2582086Y-9819698D02*
X2591610Y-9810174D01*
X2591610Y-9810174D02*
X2610658Y-9800650D01*
X2610658Y-9800650D02*
X2639229Y-9800650D01*
X2639229Y-9800650D02*
X2658277Y-9810174D01*
X2658277Y-9810174D02*
X2667801Y-9829222D01*
X2667801Y-9829222D02*
X2667801Y-9933984D01*
X2667801Y-9829222D02*
X2677325Y-9810174D01*
X2677325Y-9810174D02*
X2696372Y-9800650D01*
X2696372Y-9800650D02*
X2724944Y-9800650D01*
X2724944Y-9800650D02*
X2743991Y-9810174D01*
X2743991Y-9810174D02*
X2753515Y-9829222D01*
X2753515Y-9829222D02*
X2753515Y-9933984D01*
X3143991Y-9724460D02*
X2972563Y-9981603D01*
X3401134Y-9733984D02*
X3420182Y-9733984D01*
X3420182Y-9733984D02*
X3439229Y-9743508D01*
X3439229Y-9743508D02*
X3448753Y-9753031D01*
X3448753Y-9753031D02*
X3458277Y-9772079D01*
X3458277Y-9772079D02*
X3467801Y-9810174D01*
X3467801Y-9810174D02*
X3467801Y-9857793D01*
X3467801Y-9857793D02*
X3458277Y-9895889D01*
X3458277Y-9895889D02*
X3448753Y-9914936D01*
X3448753Y-9914936D02*
X3439229Y-9924460D01*
X3439229Y-9924460D02*
X3420182Y-9933984D01*
X3420182Y-9933984D02*
X3401134Y-9933984D01*
X3401134Y-9933984D02*
X3382086Y-9924460D01*
X3382086Y-9924460D02*
X3372563Y-9914936D01*
X3372563Y-9914936D02*
X3363039Y-9895889D01*
X3363039Y-9895889D02*
X3353515Y-9857793D01*
X3353515Y-9857793D02*
X3353515Y-9810174D01*
X3353515Y-9810174D02*
X3363039Y-9772079D01*
X3363039Y-9772079D02*
X3372563Y-9753031D01*
X3372563Y-9753031D02*
X3382086Y-9743508D01*
X3382086Y-9743508D02*
X3401134Y-9733984D01*
X3553515Y-9914936D02*
X3563039Y-9924460D01*
X3563039Y-9924460D02*
X3553515Y-9933984D01*
X3553515Y-9933984D02*
X3543991Y-9924460D01*
X3543991Y-9924460D02*
X3553515Y-9914936D01*
X3553515Y-9914936D02*
X3553515Y-9933984D01*
X3686848Y-9733984D02*
X3705896Y-9733984D01*
X3705896Y-9733984D02*
X3724944Y-9743508D01*
X3724944Y-9743508D02*
X3734467Y-9753031D01*
X3734467Y-9753031D02*
X3743991Y-9772079D01*
X3743991Y-9772079D02*
X3753515Y-9810174D01*
X3753515Y-9810174D02*
X3753515Y-9857793D01*
X3753515Y-9857793D02*
X3743991Y-9895889D01*
X3743991Y-9895889D02*
X3734467Y-9914936D01*
X3734467Y-9914936D02*
X3724944Y-9924460D01*
X3724944Y-9924460D02*
X3705896Y-9933984D01*
X3705896Y-9933984D02*
X3686848Y-9933984D01*
X3686848Y-9933984D02*
X3667801Y-9924460D01*
X3667801Y-9924460D02*
X3658277Y-9914936D01*
X3658277Y-9914936D02*
X3648753Y-9895889D01*
X3648753Y-9895889D02*
X3639229Y-9857793D01*
X3639229Y-9857793D02*
X3639229Y-9810174D01*
X3639229Y-9810174D02*
X3648753Y-9772079D01*
X3648753Y-9772079D02*
X3658277Y-9753031D01*
X3658277Y-9753031D02*
X3667801Y-9743508D01*
X3667801Y-9743508D02*
X3686848Y-9733984D01*
X3820182Y-9733984D02*
X3943991Y-9733984D01*
X3943991Y-9733984D02*
X3877325Y-9810174D01*
X3877325Y-9810174D02*
X3905896Y-9810174D01*
X3905896Y-9810174D02*
X3924944Y-9819698D01*
X3924944Y-9819698D02*
X3934467Y-9829222D01*
X3934467Y-9829222D02*
X3943991Y-9848270D01*
X3943991Y-9848270D02*
X3943991Y-9895889D01*
X3943991Y-9895889D02*
X3934467Y-9914936D01*
X3934467Y-9914936D02*
X3924944Y-9924460D01*
X3924944Y-9924460D02*
X3905896Y-9933984D01*
X3905896Y-9933984D02*
X3848753Y-9933984D01*
X3848753Y-9933984D02*
X3829706Y-9924460D01*
X3829706Y-9924460D02*
X3820182Y-9914936D01*
X4134467Y-9933984D02*
X4020182Y-9933984D01*
X4077325Y-9933984D02*
X4077325Y-9733984D01*
X4077325Y-9733984D02*
X4058277Y-9762555D01*
X4058277Y-9762555D02*
X4039229Y-9781603D01*
X4039229Y-9781603D02*
X4020182Y-9791127D01*
X4315420Y-9733984D02*
X4220182Y-9733984D01*
X4220182Y-9733984D02*
X4210658Y-9829222D01*
X4210658Y-9829222D02*
X4220182Y-9819698D01*
X4220182Y-9819698D02*
X4239229Y-9810174D01*
X4239229Y-9810174D02*
X4286849Y-9810174D01*
X4286849Y-9810174D02*
X4305896Y-9819698D01*
X4305896Y-9819698D02*
X4315420Y-9829222D01*
X4315420Y-9829222D02*
X4324944Y-9848270D01*
X4324944Y-9848270D02*
X4324944Y-9895889D01*
X4324944Y-9895889D02*
X4315420Y-9914936D01*
X4315420Y-9914936D02*
X4305896Y-9924460D01*
X4305896Y-9924460D02*
X4286849Y-9933984D01*
X4286849Y-9933984D02*
X4239229Y-9933984D01*
X4239229Y-9933984D02*
X4220182Y-9924460D01*
X4220182Y-9924460D02*
X4210658Y-9914936D01*
X4401134Y-9733984D02*
X4401134Y-9772079D01*
X4477325Y-9733984D02*
X4477325Y-9772079D01*
X4772563Y-10010174D02*
X4763039Y-10000650D01*
X4763039Y-10000650D02*
X4743991Y-9972079D01*
X4743991Y-9972079D02*
X4734468Y-9953031D01*
X4734468Y-9953031D02*
X4724944Y-9924460D01*
X4724944Y-9924460D02*
X4715420Y-9876841D01*
X4715420Y-9876841D02*
X4715420Y-9838746D01*
X4715420Y-9838746D02*
X4724944Y-9791127D01*
X4724944Y-9791127D02*
X4734468Y-9762555D01*
X4734468Y-9762555D02*
X4743991Y-9743508D01*
X4743991Y-9743508D02*
X4763039Y-9714936D01*
X4763039Y-9714936D02*
X4772563Y-9705412D01*
X4839230Y-9753031D02*
X4848753Y-9743508D01*
X4848753Y-9743508D02*
X4867801Y-9733984D01*
X4867801Y-9733984D02*
X4915420Y-9733984D01*
X4915420Y-9733984D02*
X4934468Y-9743508D01*
X4934468Y-9743508D02*
X4943991Y-9753031D01*
X4943991Y-9753031D02*
X4953515Y-9772079D01*
X4953515Y-9772079D02*
X4953515Y-9791127D01*
X4953515Y-9791127D02*
X4943991Y-9819698D01*
X4943991Y-9819698D02*
X4829706Y-9933984D01*
X4829706Y-9933984D02*
X4953515Y-9933984D01*
X5077325Y-9733984D02*
X5096372Y-9733984D01*
X5096372Y-9733984D02*
X5115420Y-9743508D01*
X5115420Y-9743508D02*
X5124944Y-9753031D01*
X5124944Y-9753031D02*
X5134468Y-9772079D01*
X5134468Y-9772079D02*
X5143991Y-9810174D01*
X5143991Y-9810174D02*
X5143991Y-9857793D01*
X5143991Y-9857793D02*
X5134468Y-9895889D01*
X5134468Y-9895889D02*
X5124944Y-9914936D01*
X5124944Y-9914936D02*
X5115420Y-9924460D01*
X5115420Y-9924460D02*
X5096372Y-9933984D01*
X5096372Y-9933984D02*
X5077325Y-9933984D01*
X5077325Y-9933984D02*
X5058277Y-9924460D01*
X5058277Y-9924460D02*
X5048753Y-9914936D01*
X5048753Y-9914936D02*
X5039230Y-9895889D01*
X5039230Y-9895889D02*
X5029706Y-9857793D01*
X5029706Y-9857793D02*
X5029706Y-9810174D01*
X5029706Y-9810174D02*
X5039230Y-9772079D01*
X5039230Y-9772079D02*
X5048753Y-9753031D01*
X5048753Y-9753031D02*
X5058277Y-9743508D01*
X5058277Y-9743508D02*
X5077325Y-9733984D01*
X5315420Y-9733984D02*
X5277325Y-9733984D01*
X5277325Y-9733984D02*
X5258277Y-9743508D01*
X5258277Y-9743508D02*
X5248753Y-9753031D01*
X5248753Y-9753031D02*
X5229706Y-9781603D01*
X5229706Y-9781603D02*
X5220182Y-9819698D01*
X5220182Y-9819698D02*
X5220182Y-9895889D01*
X5220182Y-9895889D02*
X5229706Y-9914936D01*
X5229706Y-9914936D02*
X5239230Y-9924460D01*
X5239230Y-9924460D02*
X5258277Y-9933984D01*
X5258277Y-9933984D02*
X5296372Y-9933984D01*
X5296372Y-9933984D02*
X5315420Y-9924460D01*
X5315420Y-9924460D02*
X5324944Y-9914936D01*
X5324944Y-9914936D02*
X5334468Y-9895889D01*
X5334468Y-9895889D02*
X5334468Y-9848270D01*
X5334468Y-9848270D02*
X5324944Y-9829222D01*
X5324944Y-9829222D02*
X5315420Y-9819698D01*
X5315420Y-9819698D02*
X5296372Y-9810174D01*
X5296372Y-9810174D02*
X5258277Y-9810174D01*
X5258277Y-9810174D02*
X5239230Y-9819698D01*
X5239230Y-9819698D02*
X5229706Y-9829222D01*
X5229706Y-9829222D02*
X5220182Y-9848270D01*
X5572563Y-9933984D02*
X5572563Y-9733984D01*
X5658277Y-9933984D02*
X5658277Y-9829222D01*
X5658277Y-9829222D02*
X5648753Y-9810174D01*
X5648753Y-9810174D02*
X5629706Y-9800650D01*
X5629706Y-9800650D02*
X5601134Y-9800650D01*
X5601134Y-9800650D02*
X5582087Y-9810174D01*
X5582087Y-9810174D02*
X5572563Y-9819698D01*
X5782087Y-9933984D02*
X5763039Y-9924460D01*
X5763039Y-9924460D02*
X5753515Y-9914936D01*
X5753515Y-9914936D02*
X5743991Y-9895889D01*
X5743991Y-9895889D02*
X5743991Y-9838746D01*
X5743991Y-9838746D02*
X5753515Y-9819698D01*
X5753515Y-9819698D02*
X5763039Y-9810174D01*
X5763039Y-9810174D02*
X5782087Y-9800650D01*
X5782087Y-9800650D02*
X5810658Y-9800650D01*
X5810658Y-9800650D02*
X5829706Y-9810174D01*
X5829706Y-9810174D02*
X5839230Y-9819698D01*
X5839230Y-9819698D02*
X5848753Y-9838746D01*
X5848753Y-9838746D02*
X5848753Y-9895889D01*
X5848753Y-9895889D02*
X5839230Y-9914936D01*
X5839230Y-9914936D02*
X5829706Y-9924460D01*
X5829706Y-9924460D02*
X5810658Y-9933984D01*
X5810658Y-9933984D02*
X5782087Y-9933984D01*
X5963039Y-9933984D02*
X5943991Y-9924460D01*
X5943991Y-9924460D02*
X5934468Y-9905412D01*
X5934468Y-9905412D02*
X5934468Y-9733984D01*
X6115420Y-9924460D02*
X6096372Y-9933984D01*
X6096372Y-9933984D02*
X6058277Y-9933984D01*
X6058277Y-9933984D02*
X6039230Y-9924460D01*
X6039230Y-9924460D02*
X6029706Y-9905412D01*
X6029706Y-9905412D02*
X6029706Y-9829222D01*
X6029706Y-9829222D02*
X6039230Y-9810174D01*
X6039230Y-9810174D02*
X6058277Y-9800650D01*
X6058277Y-9800650D02*
X6096372Y-9800650D01*
X6096372Y-9800650D02*
X6115420Y-9810174D01*
X6115420Y-9810174D02*
X6124944Y-9829222D01*
X6124944Y-9829222D02*
X6124944Y-9848270D01*
X6124944Y-9848270D02*
X6029706Y-9867317D01*
X6201134Y-9924460D02*
X6220182Y-9933984D01*
X6220182Y-9933984D02*
X6258277Y-9933984D01*
X6258277Y-9933984D02*
X6277325Y-9924460D01*
X6277325Y-9924460D02*
X6286849Y-9905412D01*
X6286849Y-9905412D02*
X6286849Y-9895889D01*
X6286849Y-9895889D02*
X6277325Y-9876841D01*
X6277325Y-9876841D02*
X6258277Y-9867317D01*
X6258277Y-9867317D02*
X6229706Y-9867317D01*
X6229706Y-9867317D02*
X6210658Y-9857793D01*
X6210658Y-9857793D02*
X6201134Y-9838746D01*
X6201134Y-9838746D02*
X6201134Y-9829222D01*
X6201134Y-9829222D02*
X6210658Y-9810174D01*
X6210658Y-9810174D02*
X6229706Y-9800650D01*
X6229706Y-9800650D02*
X6258277Y-9800650D01*
X6258277Y-9800650D02*
X6277325Y-9810174D01*
X6353515Y-10010174D02*
X6363039Y-10000650D01*
X6363039Y-10000650D02*
X6382087Y-9972079D01*
X6382087Y-9972079D02*
X6391611Y-9953031D01*
X6391611Y-9953031D02*
X6401134Y-9924460D01*
X6401134Y-9924460D02*
X6410658Y-9876841D01*
X6410658Y-9876841D02*
X6410658Y-9838746D01*
X6410658Y-9838746D02*
X6401134Y-9791127D01*
X6401134Y-9791127D02*
X6391611Y-9762555D01*
X6391611Y-9762555D02*
X6382087Y-9743508D01*
X6382087Y-9743508D02*
X6363039Y-9714936D01*
X6363039Y-9714936D02*
X6353515Y-9705412D01*
D12*
X1197500Y-10106500D02*
G75*
G02*
X1107500Y-10106500I-45000J0D01*
G01*
X1107500Y-10106500D02*
G75*
G02*
X1197500Y-10106500I45000J0D01*
G01*
D11*
X1496372Y-9997984D02*
X1515420Y-9997984D01*
X1515420Y-9997984D02*
X1534467Y-10007508D01*
X1534467Y-10007508D02*
X1543991Y-10017031D01*
X1543991Y-10017031D02*
X1553515Y-10036079D01*
X1553515Y-10036079D02*
X1563039Y-10074174D01*
X1563039Y-10074174D02*
X1563039Y-10121793D01*
X1563039Y-10121793D02*
X1553515Y-10159889D01*
X1553515Y-10159889D02*
X1543991Y-10178936D01*
X1543991Y-10178936D02*
X1534467Y-10188460D01*
X1534467Y-10188460D02*
X1515420Y-10197984D01*
X1515420Y-10197984D02*
X1496372Y-10197984D01*
X1496372Y-10197984D02*
X1477324Y-10188460D01*
X1477324Y-10188460D02*
X1467801Y-10178936D01*
X1467801Y-10178936D02*
X1458277Y-10159889D01*
X1458277Y-10159889D02*
X1448753Y-10121793D01*
X1448753Y-10121793D02*
X1448753Y-10074174D01*
X1448753Y-10074174D02*
X1458277Y-10036079D01*
X1458277Y-10036079D02*
X1467801Y-10017031D01*
X1467801Y-10017031D02*
X1477324Y-10007508D01*
X1477324Y-10007508D02*
X1496372Y-9997984D01*
X1648753Y-10178936D02*
X1658277Y-10188460D01*
X1658277Y-10188460D02*
X1648753Y-10197984D01*
X1648753Y-10197984D02*
X1639229Y-10188460D01*
X1639229Y-10188460D02*
X1648753Y-10178936D01*
X1648753Y-10178936D02*
X1648753Y-10197984D01*
X1753515Y-10197984D02*
X1791610Y-10197984D01*
X1791610Y-10197984D02*
X1810658Y-10188460D01*
X1810658Y-10188460D02*
X1820182Y-10178936D01*
X1820182Y-10178936D02*
X1839229Y-10150365D01*
X1839229Y-10150365D02*
X1848753Y-10112270D01*
X1848753Y-10112270D02*
X1848753Y-10036079D01*
X1848753Y-10036079D02*
X1839229Y-10017031D01*
X1839229Y-10017031D02*
X1829705Y-10007508D01*
X1829705Y-10007508D02*
X1810658Y-9997984D01*
X1810658Y-9997984D02*
X1772562Y-9997984D01*
X1772562Y-9997984D02*
X1753515Y-10007508D01*
X1753515Y-10007508D02*
X1743991Y-10017031D01*
X1743991Y-10017031D02*
X1734467Y-10036079D01*
X1734467Y-10036079D02*
X1734467Y-10083698D01*
X1734467Y-10083698D02*
X1743991Y-10102746D01*
X1743991Y-10102746D02*
X1753515Y-10112270D01*
X1753515Y-10112270D02*
X1772562Y-10121793D01*
X1772562Y-10121793D02*
X1810658Y-10121793D01*
X1810658Y-10121793D02*
X1829705Y-10112270D01*
X1829705Y-10112270D02*
X1839229Y-10102746D01*
X1839229Y-10102746D02*
X1848753Y-10083698D01*
X1972562Y-9997984D02*
X1991610Y-9997984D01*
X1991610Y-9997984D02*
X2010658Y-10007508D01*
X2010658Y-10007508D02*
X2020182Y-10017031D01*
X2020182Y-10017031D02*
X2029705Y-10036079D01*
X2029705Y-10036079D02*
X2039229Y-10074174D01*
X2039229Y-10074174D02*
X2039229Y-10121793D01*
X2039229Y-10121793D02*
X2029705Y-10159889D01*
X2029705Y-10159889D02*
X2020182Y-10178936D01*
X2020182Y-10178936D02*
X2010658Y-10188460D01*
X2010658Y-10188460D02*
X1991610Y-10197984D01*
X1991610Y-10197984D02*
X1972562Y-10197984D01*
X1972562Y-10197984D02*
X1953515Y-10188460D01*
X1953515Y-10188460D02*
X1943991Y-10178936D01*
X1943991Y-10178936D02*
X1934467Y-10159889D01*
X1934467Y-10159889D02*
X1924943Y-10121793D01*
X1924943Y-10121793D02*
X1924943Y-10074174D01*
X1924943Y-10074174D02*
X1934467Y-10036079D01*
X1934467Y-10036079D02*
X1943991Y-10017031D01*
X1943991Y-10017031D02*
X1953515Y-10007508D01*
X1953515Y-10007508D02*
X1972562Y-9997984D01*
X2163039Y-9997984D02*
X2182086Y-9997984D01*
X2182086Y-9997984D02*
X2201134Y-10007508D01*
X2201134Y-10007508D02*
X2210658Y-10017031D01*
X2210658Y-10017031D02*
X2220182Y-10036079D01*
X2220182Y-10036079D02*
X2229705Y-10074174D01*
X2229705Y-10074174D02*
X2229705Y-10121793D01*
X2229705Y-10121793D02*
X2220182Y-10159889D01*
X2220182Y-10159889D02*
X2210658Y-10178936D01*
X2210658Y-10178936D02*
X2201134Y-10188460D01*
X2201134Y-10188460D02*
X2182086Y-10197984D01*
X2182086Y-10197984D02*
X2163039Y-10197984D01*
X2163039Y-10197984D02*
X2143991Y-10188460D01*
X2143991Y-10188460D02*
X2134467Y-10178936D01*
X2134467Y-10178936D02*
X2124944Y-10159889D01*
X2124944Y-10159889D02*
X2115420Y-10121793D01*
X2115420Y-10121793D02*
X2115420Y-10074174D01*
X2115420Y-10074174D02*
X2124944Y-10036079D01*
X2124944Y-10036079D02*
X2134467Y-10017031D01*
X2134467Y-10017031D02*
X2143991Y-10007508D01*
X2143991Y-10007508D02*
X2163039Y-9997984D01*
X2315420Y-10197984D02*
X2315420Y-10064650D01*
X2315420Y-10083698D02*
X2324944Y-10074174D01*
X2324944Y-10074174D02*
X2343991Y-10064650D01*
X2343991Y-10064650D02*
X2372563Y-10064650D01*
X2372563Y-10064650D02*
X2391610Y-10074174D01*
X2391610Y-10074174D02*
X2401134Y-10093222D01*
X2401134Y-10093222D02*
X2401134Y-10197984D01*
X2401134Y-10093222D02*
X2410658Y-10074174D01*
X2410658Y-10074174D02*
X2429705Y-10064650D01*
X2429705Y-10064650D02*
X2458277Y-10064650D01*
X2458277Y-10064650D02*
X2477325Y-10074174D01*
X2477325Y-10074174D02*
X2486848Y-10093222D01*
X2486848Y-10093222D02*
X2486848Y-10197984D01*
X2582086Y-10197984D02*
X2582086Y-10064650D01*
X2582086Y-10083698D02*
X2591610Y-10074174D01*
X2591610Y-10074174D02*
X2610658Y-10064650D01*
X2610658Y-10064650D02*
X2639229Y-10064650D01*
X2639229Y-10064650D02*
X2658277Y-10074174D01*
X2658277Y-10074174D02*
X2667801Y-10093222D01*
X2667801Y-10093222D02*
X2667801Y-10197984D01*
X2667801Y-10093222D02*
X2677325Y-10074174D01*
X2677325Y-10074174D02*
X2696372Y-10064650D01*
X2696372Y-10064650D02*
X2724944Y-10064650D01*
X2724944Y-10064650D02*
X2743991Y-10074174D01*
X2743991Y-10074174D02*
X2753515Y-10093222D01*
X2753515Y-10093222D02*
X2753515Y-10197984D01*
X3143991Y-9988460D02*
X2972563Y-10245603D01*
X3401134Y-9997984D02*
X3420182Y-9997984D01*
X3420182Y-9997984D02*
X3439229Y-10007508D01*
X3439229Y-10007508D02*
X3448753Y-10017031D01*
X3448753Y-10017031D02*
X3458277Y-10036079D01*
X3458277Y-10036079D02*
X3467801Y-10074174D01*
X3467801Y-10074174D02*
X3467801Y-10121793D01*
X3467801Y-10121793D02*
X3458277Y-10159889D01*
X3458277Y-10159889D02*
X3448753Y-10178936D01*
X3448753Y-10178936D02*
X3439229Y-10188460D01*
X3439229Y-10188460D02*
X3420182Y-10197984D01*
X3420182Y-10197984D02*
X3401134Y-10197984D01*
X3401134Y-10197984D02*
X3382086Y-10188460D01*
X3382086Y-10188460D02*
X3372563Y-10178936D01*
X3372563Y-10178936D02*
X3363039Y-10159889D01*
X3363039Y-10159889D02*
X3353515Y-10121793D01*
X3353515Y-10121793D02*
X3353515Y-10074174D01*
X3353515Y-10074174D02*
X3363039Y-10036079D01*
X3363039Y-10036079D02*
X3372563Y-10017031D01*
X3372563Y-10017031D02*
X3382086Y-10007508D01*
X3382086Y-10007508D02*
X3401134Y-9997984D01*
X3553515Y-10178936D02*
X3563039Y-10188460D01*
X3563039Y-10188460D02*
X3553515Y-10197984D01*
X3553515Y-10197984D02*
X3543991Y-10188460D01*
X3543991Y-10188460D02*
X3553515Y-10178936D01*
X3553515Y-10178936D02*
X3553515Y-10197984D01*
X3686848Y-9997984D02*
X3705896Y-9997984D01*
X3705896Y-9997984D02*
X3724944Y-10007508D01*
X3724944Y-10007508D02*
X3734467Y-10017031D01*
X3734467Y-10017031D02*
X3743991Y-10036079D01*
X3743991Y-10036079D02*
X3753515Y-10074174D01*
X3753515Y-10074174D02*
X3753515Y-10121793D01*
X3753515Y-10121793D02*
X3743991Y-10159889D01*
X3743991Y-10159889D02*
X3734467Y-10178936D01*
X3734467Y-10178936D02*
X3724944Y-10188460D01*
X3724944Y-10188460D02*
X3705896Y-10197984D01*
X3705896Y-10197984D02*
X3686848Y-10197984D01*
X3686848Y-10197984D02*
X3667801Y-10188460D01*
X3667801Y-10188460D02*
X3658277Y-10178936D01*
X3658277Y-10178936D02*
X3648753Y-10159889D01*
X3648753Y-10159889D02*
X3639229Y-10121793D01*
X3639229Y-10121793D02*
X3639229Y-10074174D01*
X3639229Y-10074174D02*
X3648753Y-10036079D01*
X3648753Y-10036079D02*
X3658277Y-10017031D01*
X3658277Y-10017031D02*
X3667801Y-10007508D01*
X3667801Y-10007508D02*
X3686848Y-9997984D01*
X3820182Y-9997984D02*
X3943991Y-9997984D01*
X3943991Y-9997984D02*
X3877325Y-10074174D01*
X3877325Y-10074174D02*
X3905896Y-10074174D01*
X3905896Y-10074174D02*
X3924944Y-10083698D01*
X3924944Y-10083698D02*
X3934467Y-10093222D01*
X3934467Y-10093222D02*
X3943991Y-10112270D01*
X3943991Y-10112270D02*
X3943991Y-10159889D01*
X3943991Y-10159889D02*
X3934467Y-10178936D01*
X3934467Y-10178936D02*
X3924944Y-10188460D01*
X3924944Y-10188460D02*
X3905896Y-10197984D01*
X3905896Y-10197984D02*
X3848753Y-10197984D01*
X3848753Y-10197984D02*
X3829706Y-10188460D01*
X3829706Y-10188460D02*
X3820182Y-10178936D01*
X4124944Y-9997984D02*
X4029706Y-9997984D01*
X4029706Y-9997984D02*
X4020182Y-10093222D01*
X4020182Y-10093222D02*
X4029706Y-10083698D01*
X4029706Y-10083698D02*
X4048753Y-10074174D01*
X4048753Y-10074174D02*
X4096372Y-10074174D01*
X4096372Y-10074174D02*
X4115420Y-10083698D01*
X4115420Y-10083698D02*
X4124944Y-10093222D01*
X4124944Y-10093222D02*
X4134467Y-10112270D01*
X4134467Y-10112270D02*
X4134467Y-10159889D01*
X4134467Y-10159889D02*
X4124944Y-10178936D01*
X4124944Y-10178936D02*
X4115420Y-10188460D01*
X4115420Y-10188460D02*
X4096372Y-10197984D01*
X4096372Y-10197984D02*
X4048753Y-10197984D01*
X4048753Y-10197984D02*
X4029706Y-10188460D01*
X4029706Y-10188460D02*
X4020182Y-10178936D01*
X4305896Y-10064650D02*
X4305896Y-10197984D01*
X4258277Y-9988460D02*
X4210658Y-10131317D01*
X4210658Y-10131317D02*
X4334468Y-10131317D01*
X4401134Y-9997984D02*
X4401134Y-10036079D01*
X4477325Y-9997984D02*
X4477325Y-10036079D01*
X4772563Y-10274174D02*
X4763039Y-10264650D01*
X4763039Y-10264650D02*
X4743991Y-10236079D01*
X4743991Y-10236079D02*
X4734468Y-10217031D01*
X4734468Y-10217031D02*
X4724944Y-10188460D01*
X4724944Y-10188460D02*
X4715420Y-10140841D01*
X4715420Y-10140841D02*
X4715420Y-10102746D01*
X4715420Y-10102746D02*
X4724944Y-10055127D01*
X4724944Y-10055127D02*
X4734468Y-10026555D01*
X4734468Y-10026555D02*
X4743991Y-10007508D01*
X4743991Y-10007508D02*
X4763039Y-9978936D01*
X4763039Y-9978936D02*
X4772563Y-9969412D01*
X4877325Y-10083698D02*
X4858277Y-10074174D01*
X4858277Y-10074174D02*
X4848753Y-10064650D01*
X4848753Y-10064650D02*
X4839230Y-10045603D01*
X4839230Y-10045603D02*
X4839230Y-10036079D01*
X4839230Y-10036079D02*
X4848753Y-10017031D01*
X4848753Y-10017031D02*
X4858277Y-10007508D01*
X4858277Y-10007508D02*
X4877325Y-9997984D01*
X4877325Y-9997984D02*
X4915420Y-9997984D01*
X4915420Y-9997984D02*
X4934468Y-10007508D01*
X4934468Y-10007508D02*
X4943991Y-10017031D01*
X4943991Y-10017031D02*
X4953515Y-10036079D01*
X4953515Y-10036079D02*
X4953515Y-10045603D01*
X4953515Y-10045603D02*
X4943991Y-10064650D01*
X4943991Y-10064650D02*
X4934468Y-10074174D01*
X4934468Y-10074174D02*
X4915420Y-10083698D01*
X4915420Y-10083698D02*
X4877325Y-10083698D01*
X4877325Y-10083698D02*
X4858277Y-10093222D01*
X4858277Y-10093222D02*
X4848753Y-10102746D01*
X4848753Y-10102746D02*
X4839230Y-10121793D01*
X4839230Y-10121793D02*
X4839230Y-10159889D01*
X4839230Y-10159889D02*
X4848753Y-10178936D01*
X4848753Y-10178936D02*
X4858277Y-10188460D01*
X4858277Y-10188460D02*
X4877325Y-10197984D01*
X4877325Y-10197984D02*
X4915420Y-10197984D01*
X4915420Y-10197984D02*
X4934468Y-10188460D01*
X4934468Y-10188460D02*
X4943991Y-10178936D01*
X4943991Y-10178936D02*
X4953515Y-10159889D01*
X4953515Y-10159889D02*
X4953515Y-10121793D01*
X4953515Y-10121793D02*
X4943991Y-10102746D01*
X4943991Y-10102746D02*
X4934468Y-10093222D01*
X4934468Y-10093222D02*
X4915420Y-10083698D01*
X5191611Y-10197984D02*
X5191611Y-9997984D01*
X5277325Y-10197984D02*
X5277325Y-10093222D01*
X5277325Y-10093222D02*
X5267801Y-10074174D01*
X5267801Y-10074174D02*
X5248753Y-10064650D01*
X5248753Y-10064650D02*
X5220182Y-10064650D01*
X5220182Y-10064650D02*
X5201134Y-10074174D01*
X5201134Y-10074174D02*
X5191611Y-10083698D01*
X5401134Y-10197984D02*
X5382087Y-10188460D01*
X5382087Y-10188460D02*
X5372563Y-10178936D01*
X5372563Y-10178936D02*
X5363039Y-10159889D01*
X5363039Y-10159889D02*
X5363039Y-10102746D01*
X5363039Y-10102746D02*
X5372563Y-10083698D01*
X5372563Y-10083698D02*
X5382087Y-10074174D01*
X5382087Y-10074174D02*
X5401134Y-10064650D01*
X5401134Y-10064650D02*
X5429706Y-10064650D01*
X5429706Y-10064650D02*
X5448753Y-10074174D01*
X5448753Y-10074174D02*
X5458277Y-10083698D01*
X5458277Y-10083698D02*
X5467801Y-10102746D01*
X5467801Y-10102746D02*
X5467801Y-10159889D01*
X5467801Y-10159889D02*
X5458277Y-10178936D01*
X5458277Y-10178936D02*
X5448753Y-10188460D01*
X5448753Y-10188460D02*
X5429706Y-10197984D01*
X5429706Y-10197984D02*
X5401134Y-10197984D01*
X5582087Y-10197984D02*
X5563039Y-10188460D01*
X5563039Y-10188460D02*
X5553515Y-10169412D01*
X5553515Y-10169412D02*
X5553515Y-9997984D01*
X5734468Y-10188460D02*
X5715420Y-10197984D01*
X5715420Y-10197984D02*
X5677325Y-10197984D01*
X5677325Y-10197984D02*
X5658277Y-10188460D01*
X5658277Y-10188460D02*
X5648753Y-10169412D01*
X5648753Y-10169412D02*
X5648753Y-10093222D01*
X5648753Y-10093222D02*
X5658277Y-10074174D01*
X5658277Y-10074174D02*
X5677325Y-10064650D01*
X5677325Y-10064650D02*
X5715420Y-10064650D01*
X5715420Y-10064650D02*
X5734468Y-10074174D01*
X5734468Y-10074174D02*
X5743991Y-10093222D01*
X5743991Y-10093222D02*
X5743991Y-10112270D01*
X5743991Y-10112270D02*
X5648753Y-10131317D01*
X5820182Y-10188460D02*
X5839230Y-10197984D01*
X5839230Y-10197984D02*
X5877325Y-10197984D01*
X5877325Y-10197984D02*
X5896372Y-10188460D01*
X5896372Y-10188460D02*
X5905896Y-10169412D01*
X5905896Y-10169412D02*
X5905896Y-10159889D01*
X5905896Y-10159889D02*
X5896372Y-10140841D01*
X5896372Y-10140841D02*
X5877325Y-10131317D01*
X5877325Y-10131317D02*
X5848753Y-10131317D01*
X5848753Y-10131317D02*
X5829706Y-10121793D01*
X5829706Y-10121793D02*
X5820182Y-10102746D01*
X5820182Y-10102746D02*
X5820182Y-10093222D01*
X5820182Y-10093222D02*
X5829706Y-10074174D01*
X5829706Y-10074174D02*
X5848753Y-10064650D01*
X5848753Y-10064650D02*
X5877325Y-10064650D01*
X5877325Y-10064650D02*
X5896372Y-10074174D01*
X5972563Y-10274174D02*
X5982087Y-10264650D01*
X5982087Y-10264650D02*
X6001134Y-10236079D01*
X6001134Y-10236079D02*
X6010658Y-10217031D01*
X6010658Y-10217031D02*
X6020182Y-10188460D01*
X6020182Y-10188460D02*
X6029706Y-10140841D01*
X6029706Y-10140841D02*
X6029706Y-10102746D01*
X6029706Y-10102746D02*
X6020182Y-10055127D01*
X6020182Y-10055127D02*
X6010658Y-10026555D01*
X6010658Y-10026555D02*
X6001134Y-10007508D01*
X6001134Y-10007508D02*
X5982087Y-9978936D01*
X5982087Y-9978936D02*
X5972563Y-9969412D01*
D12*
X1147500Y-10320500D02*
X1147500Y-10420500D01*
X1097500Y-10370500D02*
X1197500Y-10370500D01*
D11*
X1563039Y-10461984D02*
X1448753Y-10461984D01*
X1505896Y-10461984D02*
X1505896Y-10261984D01*
X1505896Y-10261984D02*
X1486848Y-10290555D01*
X1486848Y-10290555D02*
X1467801Y-10309603D01*
X1467801Y-10309603D02*
X1448753Y-10319127D01*
X1648753Y-10442936D02*
X1658277Y-10452460D01*
X1658277Y-10452460D02*
X1648753Y-10461984D01*
X1648753Y-10461984D02*
X1639229Y-10452460D01*
X1639229Y-10452460D02*
X1648753Y-10442936D01*
X1648753Y-10442936D02*
X1648753Y-10461984D01*
X1782086Y-10261984D02*
X1801134Y-10261984D01*
X1801134Y-10261984D02*
X1820182Y-10271508D01*
X1820182Y-10271508D02*
X1829705Y-10281031D01*
X1829705Y-10281031D02*
X1839229Y-10300079D01*
X1839229Y-10300079D02*
X1848753Y-10338174D01*
X1848753Y-10338174D02*
X1848753Y-10385793D01*
X1848753Y-10385793D02*
X1839229Y-10423889D01*
X1839229Y-10423889D02*
X1829705Y-10442936D01*
X1829705Y-10442936D02*
X1820182Y-10452460D01*
X1820182Y-10452460D02*
X1801134Y-10461984D01*
X1801134Y-10461984D02*
X1782086Y-10461984D01*
X1782086Y-10461984D02*
X1763039Y-10452460D01*
X1763039Y-10452460D02*
X1753515Y-10442936D01*
X1753515Y-10442936D02*
X1743991Y-10423889D01*
X1743991Y-10423889D02*
X1734467Y-10385793D01*
X1734467Y-10385793D02*
X1734467Y-10338174D01*
X1734467Y-10338174D02*
X1743991Y-10300079D01*
X1743991Y-10300079D02*
X1753515Y-10281031D01*
X1753515Y-10281031D02*
X1763039Y-10271508D01*
X1763039Y-10271508D02*
X1782086Y-10261984D01*
X1972562Y-10261984D02*
X1991610Y-10261984D01*
X1991610Y-10261984D02*
X2010658Y-10271508D01*
X2010658Y-10271508D02*
X2020182Y-10281031D01*
X2020182Y-10281031D02*
X2029705Y-10300079D01*
X2029705Y-10300079D02*
X2039229Y-10338174D01*
X2039229Y-10338174D02*
X2039229Y-10385793D01*
X2039229Y-10385793D02*
X2029705Y-10423889D01*
X2029705Y-10423889D02*
X2020182Y-10442936D01*
X2020182Y-10442936D02*
X2010658Y-10452460D01*
X2010658Y-10452460D02*
X1991610Y-10461984D01*
X1991610Y-10461984D02*
X1972562Y-10461984D01*
X1972562Y-10461984D02*
X1953515Y-10452460D01*
X1953515Y-10452460D02*
X1943991Y-10442936D01*
X1943991Y-10442936D02*
X1934467Y-10423889D01*
X1934467Y-10423889D02*
X1924943Y-10385793D01*
X1924943Y-10385793D02*
X1924943Y-10338174D01*
X1924943Y-10338174D02*
X1934467Y-10300079D01*
X1934467Y-10300079D02*
X1943991Y-10281031D01*
X1943991Y-10281031D02*
X1953515Y-10271508D01*
X1953515Y-10271508D02*
X1972562Y-10261984D01*
X2163039Y-10261984D02*
X2182086Y-10261984D01*
X2182086Y-10261984D02*
X2201134Y-10271508D01*
X2201134Y-10271508D02*
X2210658Y-10281031D01*
X2210658Y-10281031D02*
X2220182Y-10300079D01*
X2220182Y-10300079D02*
X2229705Y-10338174D01*
X2229705Y-10338174D02*
X2229705Y-10385793D01*
X2229705Y-10385793D02*
X2220182Y-10423889D01*
X2220182Y-10423889D02*
X2210658Y-10442936D01*
X2210658Y-10442936D02*
X2201134Y-10452460D01*
X2201134Y-10452460D02*
X2182086Y-10461984D01*
X2182086Y-10461984D02*
X2163039Y-10461984D01*
X2163039Y-10461984D02*
X2143991Y-10452460D01*
X2143991Y-10452460D02*
X2134467Y-10442936D01*
X2134467Y-10442936D02*
X2124944Y-10423889D01*
X2124944Y-10423889D02*
X2115420Y-10385793D01*
X2115420Y-10385793D02*
X2115420Y-10338174D01*
X2115420Y-10338174D02*
X2124944Y-10300079D01*
X2124944Y-10300079D02*
X2134467Y-10281031D01*
X2134467Y-10281031D02*
X2143991Y-10271508D01*
X2143991Y-10271508D02*
X2163039Y-10261984D01*
X2315420Y-10461984D02*
X2315420Y-10328650D01*
X2315420Y-10347698D02*
X2324944Y-10338174D01*
X2324944Y-10338174D02*
X2343991Y-10328650D01*
X2343991Y-10328650D02*
X2372563Y-10328650D01*
X2372563Y-10328650D02*
X2391610Y-10338174D01*
X2391610Y-10338174D02*
X2401134Y-10357222D01*
X2401134Y-10357222D02*
X2401134Y-10461984D01*
X2401134Y-10357222D02*
X2410658Y-10338174D01*
X2410658Y-10338174D02*
X2429705Y-10328650D01*
X2429705Y-10328650D02*
X2458277Y-10328650D01*
X2458277Y-10328650D02*
X2477325Y-10338174D01*
X2477325Y-10338174D02*
X2486848Y-10357222D01*
X2486848Y-10357222D02*
X2486848Y-10461984D01*
X2582086Y-10461984D02*
X2582086Y-10328650D01*
X2582086Y-10347698D02*
X2591610Y-10338174D01*
X2591610Y-10338174D02*
X2610658Y-10328650D01*
X2610658Y-10328650D02*
X2639229Y-10328650D01*
X2639229Y-10328650D02*
X2658277Y-10338174D01*
X2658277Y-10338174D02*
X2667801Y-10357222D01*
X2667801Y-10357222D02*
X2667801Y-10461984D01*
X2667801Y-10357222D02*
X2677325Y-10338174D01*
X2677325Y-10338174D02*
X2696372Y-10328650D01*
X2696372Y-10328650D02*
X2724944Y-10328650D01*
X2724944Y-10328650D02*
X2743991Y-10338174D01*
X2743991Y-10338174D02*
X2753515Y-10357222D01*
X2753515Y-10357222D02*
X2753515Y-10461984D01*
X3143991Y-10252460D02*
X2972563Y-10509603D01*
X3401134Y-10261984D02*
X3420182Y-10261984D01*
X3420182Y-10261984D02*
X3439229Y-10271508D01*
X3439229Y-10271508D02*
X3448753Y-10281031D01*
X3448753Y-10281031D02*
X3458277Y-10300079D01*
X3458277Y-10300079D02*
X3467801Y-10338174D01*
X3467801Y-10338174D02*
X3467801Y-10385793D01*
X3467801Y-10385793D02*
X3458277Y-10423889D01*
X3458277Y-10423889D02*
X3448753Y-10442936D01*
X3448753Y-10442936D02*
X3439229Y-10452460D01*
X3439229Y-10452460D02*
X3420182Y-10461984D01*
X3420182Y-10461984D02*
X3401134Y-10461984D01*
X3401134Y-10461984D02*
X3382086Y-10452460D01*
X3382086Y-10452460D02*
X3372563Y-10442936D01*
X3372563Y-10442936D02*
X3363039Y-10423889D01*
X3363039Y-10423889D02*
X3353515Y-10385793D01*
X3353515Y-10385793D02*
X3353515Y-10338174D01*
X3353515Y-10338174D02*
X3363039Y-10300079D01*
X3363039Y-10300079D02*
X3372563Y-10281031D01*
X3372563Y-10281031D02*
X3382086Y-10271508D01*
X3382086Y-10271508D02*
X3401134Y-10261984D01*
X3553515Y-10442936D02*
X3563039Y-10452460D01*
X3563039Y-10452460D02*
X3553515Y-10461984D01*
X3553515Y-10461984D02*
X3543991Y-10452460D01*
X3543991Y-10452460D02*
X3553515Y-10442936D01*
X3553515Y-10442936D02*
X3553515Y-10461984D01*
X3686848Y-10261984D02*
X3705896Y-10261984D01*
X3705896Y-10261984D02*
X3724944Y-10271508D01*
X3724944Y-10271508D02*
X3734467Y-10281031D01*
X3734467Y-10281031D02*
X3743991Y-10300079D01*
X3743991Y-10300079D02*
X3753515Y-10338174D01*
X3753515Y-10338174D02*
X3753515Y-10385793D01*
X3753515Y-10385793D02*
X3743991Y-10423889D01*
X3743991Y-10423889D02*
X3734467Y-10442936D01*
X3734467Y-10442936D02*
X3724944Y-10452460D01*
X3724944Y-10452460D02*
X3705896Y-10461984D01*
X3705896Y-10461984D02*
X3686848Y-10461984D01*
X3686848Y-10461984D02*
X3667801Y-10452460D01*
X3667801Y-10452460D02*
X3658277Y-10442936D01*
X3658277Y-10442936D02*
X3648753Y-10423889D01*
X3648753Y-10423889D02*
X3639229Y-10385793D01*
X3639229Y-10385793D02*
X3639229Y-10338174D01*
X3639229Y-10338174D02*
X3648753Y-10300079D01*
X3648753Y-10300079D02*
X3658277Y-10281031D01*
X3658277Y-10281031D02*
X3667801Y-10271508D01*
X3667801Y-10271508D02*
X3686848Y-10261984D01*
X3820182Y-10261984D02*
X3943991Y-10261984D01*
X3943991Y-10261984D02*
X3877325Y-10338174D01*
X3877325Y-10338174D02*
X3905896Y-10338174D01*
X3905896Y-10338174D02*
X3924944Y-10347698D01*
X3924944Y-10347698D02*
X3934467Y-10357222D01*
X3934467Y-10357222D02*
X3943991Y-10376270D01*
X3943991Y-10376270D02*
X3943991Y-10423889D01*
X3943991Y-10423889D02*
X3934467Y-10442936D01*
X3934467Y-10442936D02*
X3924944Y-10452460D01*
X3924944Y-10452460D02*
X3905896Y-10461984D01*
X3905896Y-10461984D02*
X3848753Y-10461984D01*
X3848753Y-10461984D02*
X3829706Y-10452460D01*
X3829706Y-10452460D02*
X3820182Y-10442936D01*
X4039229Y-10461984D02*
X4077325Y-10461984D01*
X4077325Y-10461984D02*
X4096372Y-10452460D01*
X4096372Y-10452460D02*
X4105896Y-10442936D01*
X4105896Y-10442936D02*
X4124944Y-10414365D01*
X4124944Y-10414365D02*
X4134467Y-10376270D01*
X4134467Y-10376270D02*
X4134467Y-10300079D01*
X4134467Y-10300079D02*
X4124944Y-10281031D01*
X4124944Y-10281031D02*
X4115420Y-10271508D01*
X4115420Y-10271508D02*
X4096372Y-10261984D01*
X4096372Y-10261984D02*
X4058277Y-10261984D01*
X4058277Y-10261984D02*
X4039229Y-10271508D01*
X4039229Y-10271508D02*
X4029706Y-10281031D01*
X4029706Y-10281031D02*
X4020182Y-10300079D01*
X4020182Y-10300079D02*
X4020182Y-10347698D01*
X4020182Y-10347698D02*
X4029706Y-10366746D01*
X4029706Y-10366746D02*
X4039229Y-10376270D01*
X4039229Y-10376270D02*
X4058277Y-10385793D01*
X4058277Y-10385793D02*
X4096372Y-10385793D01*
X4096372Y-10385793D02*
X4115420Y-10376270D01*
X4115420Y-10376270D02*
X4124944Y-10366746D01*
X4124944Y-10366746D02*
X4134467Y-10347698D01*
X4305896Y-10328650D02*
X4305896Y-10461984D01*
X4258277Y-10252460D02*
X4210658Y-10395317D01*
X4210658Y-10395317D02*
X4334468Y-10395317D01*
X4401134Y-10261984D02*
X4401134Y-10300079D01*
X4477325Y-10261984D02*
X4477325Y-10300079D01*
X4772563Y-10538174D02*
X4763039Y-10528650D01*
X4763039Y-10528650D02*
X4743991Y-10500079D01*
X4743991Y-10500079D02*
X4734468Y-10481031D01*
X4734468Y-10481031D02*
X4724944Y-10452460D01*
X4724944Y-10452460D02*
X4715420Y-10404841D01*
X4715420Y-10404841D02*
X4715420Y-10366746D01*
X4715420Y-10366746D02*
X4724944Y-10319127D01*
X4724944Y-10319127D02*
X4734468Y-10290555D01*
X4734468Y-10290555D02*
X4743991Y-10271508D01*
X4743991Y-10271508D02*
X4763039Y-10242936D01*
X4763039Y-10242936D02*
X4772563Y-10233412D01*
X4839230Y-10281031D02*
X4848753Y-10271508D01*
X4848753Y-10271508D02*
X4867801Y-10261984D01*
X4867801Y-10261984D02*
X4915420Y-10261984D01*
X4915420Y-10261984D02*
X4934468Y-10271508D01*
X4934468Y-10271508D02*
X4943991Y-10281031D01*
X4943991Y-10281031D02*
X4953515Y-10300079D01*
X4953515Y-10300079D02*
X4953515Y-10319127D01*
X4953515Y-10319127D02*
X4943991Y-10347698D01*
X4943991Y-10347698D02*
X4829706Y-10461984D01*
X4829706Y-10461984D02*
X4953515Y-10461984D01*
X5067801Y-10347698D02*
X5048753Y-10338174D01*
X5048753Y-10338174D02*
X5039230Y-10328650D01*
X5039230Y-10328650D02*
X5029706Y-10309603D01*
X5029706Y-10309603D02*
X5029706Y-10300079D01*
X5029706Y-10300079D02*
X5039230Y-10281031D01*
X5039230Y-10281031D02*
X5048753Y-10271508D01*
X5048753Y-10271508D02*
X5067801Y-10261984D01*
X5067801Y-10261984D02*
X5105896Y-10261984D01*
X5105896Y-10261984D02*
X5124944Y-10271508D01*
X5124944Y-10271508D02*
X5134468Y-10281031D01*
X5134468Y-10281031D02*
X5143991Y-10300079D01*
X5143991Y-10300079D02*
X5143991Y-10309603D01*
X5143991Y-10309603D02*
X5134468Y-10328650D01*
X5134468Y-10328650D02*
X5124944Y-10338174D01*
X5124944Y-10338174D02*
X5105896Y-10347698D01*
X5105896Y-10347698D02*
X5067801Y-10347698D01*
X5067801Y-10347698D02*
X5048753Y-10357222D01*
X5048753Y-10357222D02*
X5039230Y-10366746D01*
X5039230Y-10366746D02*
X5029706Y-10385793D01*
X5029706Y-10385793D02*
X5029706Y-10423889D01*
X5029706Y-10423889D02*
X5039230Y-10442936D01*
X5039230Y-10442936D02*
X5048753Y-10452460D01*
X5048753Y-10452460D02*
X5067801Y-10461984D01*
X5067801Y-10461984D02*
X5105896Y-10461984D01*
X5105896Y-10461984D02*
X5124944Y-10452460D01*
X5124944Y-10452460D02*
X5134468Y-10442936D01*
X5134468Y-10442936D02*
X5143991Y-10423889D01*
X5143991Y-10423889D02*
X5143991Y-10385793D01*
X5143991Y-10385793D02*
X5134468Y-10366746D01*
X5134468Y-10366746D02*
X5124944Y-10357222D01*
X5124944Y-10357222D02*
X5105896Y-10347698D01*
X5382087Y-10461984D02*
X5382087Y-10261984D01*
X5467801Y-10461984D02*
X5467801Y-10357222D01*
X5467801Y-10357222D02*
X5458277Y-10338174D01*
X5458277Y-10338174D02*
X5439230Y-10328650D01*
X5439230Y-10328650D02*
X5410658Y-10328650D01*
X5410658Y-10328650D02*
X5391611Y-10338174D01*
X5391611Y-10338174D02*
X5382087Y-10347698D01*
X5591611Y-10461984D02*
X5572563Y-10452460D01*
X5572563Y-10452460D02*
X5563039Y-10442936D01*
X5563039Y-10442936D02*
X5553515Y-10423889D01*
X5553515Y-10423889D02*
X5553515Y-10366746D01*
X5553515Y-10366746D02*
X5563039Y-10347698D01*
X5563039Y-10347698D02*
X5572563Y-10338174D01*
X5572563Y-10338174D02*
X5591611Y-10328650D01*
X5591611Y-10328650D02*
X5620182Y-10328650D01*
X5620182Y-10328650D02*
X5639230Y-10338174D01*
X5639230Y-10338174D02*
X5648753Y-10347698D01*
X5648753Y-10347698D02*
X5658277Y-10366746D01*
X5658277Y-10366746D02*
X5658277Y-10423889D01*
X5658277Y-10423889D02*
X5648753Y-10442936D01*
X5648753Y-10442936D02*
X5639230Y-10452460D01*
X5639230Y-10452460D02*
X5620182Y-10461984D01*
X5620182Y-10461984D02*
X5591611Y-10461984D01*
X5772563Y-10461984D02*
X5753515Y-10452460D01*
X5753515Y-10452460D02*
X5743991Y-10433412D01*
X5743991Y-10433412D02*
X5743991Y-10261984D01*
X5924944Y-10452460D02*
X5905896Y-10461984D01*
X5905896Y-10461984D02*
X5867801Y-10461984D01*
X5867801Y-10461984D02*
X5848753Y-10452460D01*
X5848753Y-10452460D02*
X5839230Y-10433412D01*
X5839230Y-10433412D02*
X5839230Y-10357222D01*
X5839230Y-10357222D02*
X5848753Y-10338174D01*
X5848753Y-10338174D02*
X5867801Y-10328650D01*
X5867801Y-10328650D02*
X5905896Y-10328650D01*
X5905896Y-10328650D02*
X5924944Y-10338174D01*
X5924944Y-10338174D02*
X5934468Y-10357222D01*
X5934468Y-10357222D02*
X5934468Y-10376270D01*
X5934468Y-10376270D02*
X5839230Y-10395317D01*
X6010658Y-10452460D02*
X6029706Y-10461984D01*
X6029706Y-10461984D02*
X6067801Y-10461984D01*
X6067801Y-10461984D02*
X6086849Y-10452460D01*
X6086849Y-10452460D02*
X6096372Y-10433412D01*
X6096372Y-10433412D02*
X6096372Y-10423889D01*
X6096372Y-10423889D02*
X6086849Y-10404841D01*
X6086849Y-10404841D02*
X6067801Y-10395317D01*
X6067801Y-10395317D02*
X6039230Y-10395317D01*
X6039230Y-10395317D02*
X6020182Y-10385793D01*
X6020182Y-10385793D02*
X6010658Y-10366746D01*
X6010658Y-10366746D02*
X6010658Y-10357222D01*
X6010658Y-10357222D02*
X6020182Y-10338174D01*
X6020182Y-10338174D02*
X6039230Y-10328650D01*
X6039230Y-10328650D02*
X6067801Y-10328650D01*
X6067801Y-10328650D02*
X6086849Y-10338174D01*
X6334468Y-10385793D02*
X6486849Y-10385793D01*
X6410658Y-10461984D02*
X6410658Y-10309603D01*
X6715420Y-10261984D02*
X6839230Y-10261984D01*
X6839230Y-10261984D02*
X6772563Y-10338174D01*
X6772563Y-10338174D02*
X6801134Y-10338174D01*
X6801134Y-10338174D02*
X6820182Y-10347698D01*
X6820182Y-10347698D02*
X6829706Y-10357222D01*
X6829706Y-10357222D02*
X6839230Y-10376270D01*
X6839230Y-10376270D02*
X6839230Y-10423889D01*
X6839230Y-10423889D02*
X6829706Y-10442936D01*
X6829706Y-10442936D02*
X6820182Y-10452460D01*
X6820182Y-10452460D02*
X6801134Y-10461984D01*
X6801134Y-10461984D02*
X6743992Y-10461984D01*
X6743992Y-10461984D02*
X6724944Y-10452460D01*
X6724944Y-10452460D02*
X6715420Y-10442936D01*
X7067801Y-10452460D02*
X7086849Y-10461984D01*
X7086849Y-10461984D02*
X7124944Y-10461984D01*
X7124944Y-10461984D02*
X7143992Y-10452460D01*
X7143992Y-10452460D02*
X7153515Y-10433412D01*
X7153515Y-10433412D02*
X7153515Y-10423889D01*
X7153515Y-10423889D02*
X7143992Y-10404841D01*
X7143992Y-10404841D02*
X7124944Y-10395317D01*
X7124944Y-10395317D02*
X7096373Y-10395317D01*
X7096373Y-10395317D02*
X7077325Y-10385793D01*
X7077325Y-10385793D02*
X7067801Y-10366746D01*
X7067801Y-10366746D02*
X7067801Y-10357222D01*
X7067801Y-10357222D02*
X7077325Y-10338174D01*
X7077325Y-10338174D02*
X7096373Y-10328650D01*
X7096373Y-10328650D02*
X7124944Y-10328650D01*
X7124944Y-10328650D02*
X7143992Y-10338174D01*
X7267801Y-10461984D02*
X7248754Y-10452460D01*
X7248754Y-10452460D02*
X7239230Y-10433412D01*
X7239230Y-10433412D02*
X7239230Y-10261984D01*
X7372563Y-10461984D02*
X7353515Y-10452460D01*
X7353515Y-10452460D02*
X7343992Y-10442936D01*
X7343992Y-10442936D02*
X7334468Y-10423889D01*
X7334468Y-10423889D02*
X7334468Y-10366746D01*
X7334468Y-10366746D02*
X7343992Y-10347698D01*
X7343992Y-10347698D02*
X7353515Y-10338174D01*
X7353515Y-10338174D02*
X7372563Y-10328650D01*
X7372563Y-10328650D02*
X7401135Y-10328650D01*
X7401135Y-10328650D02*
X7420182Y-10338174D01*
X7420182Y-10338174D02*
X7429706Y-10347698D01*
X7429706Y-10347698D02*
X7439230Y-10366746D01*
X7439230Y-10366746D02*
X7439230Y-10423889D01*
X7439230Y-10423889D02*
X7429706Y-10442936D01*
X7429706Y-10442936D02*
X7420182Y-10452460D01*
X7420182Y-10452460D02*
X7401135Y-10461984D01*
X7401135Y-10461984D02*
X7372563Y-10461984D01*
X7496373Y-10328650D02*
X7572563Y-10328650D01*
X7524944Y-10261984D02*
X7524944Y-10433412D01*
X7524944Y-10433412D02*
X7534468Y-10452460D01*
X7534468Y-10452460D02*
X7553515Y-10461984D01*
X7553515Y-10461984D02*
X7572563Y-10461984D01*
X7629706Y-10452460D02*
X7648754Y-10461984D01*
X7648754Y-10461984D02*
X7686849Y-10461984D01*
X7686849Y-10461984D02*
X7705896Y-10452460D01*
X7705896Y-10452460D02*
X7715420Y-10433412D01*
X7715420Y-10433412D02*
X7715420Y-10423889D01*
X7715420Y-10423889D02*
X7705896Y-10404841D01*
X7705896Y-10404841D02*
X7686849Y-10395317D01*
X7686849Y-10395317D02*
X7658277Y-10395317D01*
X7658277Y-10395317D02*
X7639230Y-10385793D01*
X7639230Y-10385793D02*
X7629706Y-10366746D01*
X7629706Y-10366746D02*
X7629706Y-10357222D01*
X7629706Y-10357222D02*
X7639230Y-10338174D01*
X7639230Y-10338174D02*
X7658277Y-10328650D01*
X7658277Y-10328650D02*
X7686849Y-10328650D01*
X7686849Y-10328650D02*
X7705896Y-10338174D01*
X7782087Y-10538174D02*
X7791611Y-10528650D01*
X7791611Y-10528650D02*
X7810658Y-10500079D01*
X7810658Y-10500079D02*
X7820182Y-10481031D01*
X7820182Y-10481031D02*
X7829706Y-10452460D01*
X7829706Y-10452460D02*
X7839230Y-10404841D01*
X7839230Y-10404841D02*
X7839230Y-10366746D01*
X7839230Y-10366746D02*
X7829706Y-10319127D01*
X7829706Y-10319127D02*
X7820182Y-10290555D01*
X7820182Y-10290555D02*
X7810658Y-10271508D01*
X7810658Y-10271508D02*
X7791611Y-10242936D01*
X7791611Y-10242936D02*
X7782087Y-10233412D01*
D13*
X1182563Y-10670563D02*
X1182563Y-10598437D01*
X1110437Y-10598437D01*
X1110437Y-10670563D01*
X1182563Y-10670563D01*
D11*
X1563039Y-10725984D02*
X1448753Y-10725984D01*
X1505896Y-10725984D02*
X1505896Y-10525984D01*
X1505896Y-10525984D02*
X1486848Y-10554555D01*
X1486848Y-10554555D02*
X1467801Y-10573603D01*
X1467801Y-10573603D02*
X1448753Y-10583127D01*
X1648753Y-10706936D02*
X1658277Y-10716460D01*
X1658277Y-10716460D02*
X1648753Y-10725984D01*
X1648753Y-10725984D02*
X1639229Y-10716460D01*
X1639229Y-10716460D02*
X1648753Y-10706936D01*
X1648753Y-10706936D02*
X1648753Y-10725984D01*
X1782086Y-10525984D02*
X1801134Y-10525984D01*
X1801134Y-10525984D02*
X1820182Y-10535508D01*
X1820182Y-10535508D02*
X1829705Y-10545031D01*
X1829705Y-10545031D02*
X1839229Y-10564079D01*
X1839229Y-10564079D02*
X1848753Y-10602174D01*
X1848753Y-10602174D02*
X1848753Y-10649793D01*
X1848753Y-10649793D02*
X1839229Y-10687889D01*
X1839229Y-10687889D02*
X1829705Y-10706936D01*
X1829705Y-10706936D02*
X1820182Y-10716460D01*
X1820182Y-10716460D02*
X1801134Y-10725984D01*
X1801134Y-10725984D02*
X1782086Y-10725984D01*
X1782086Y-10725984D02*
X1763039Y-10716460D01*
X1763039Y-10716460D02*
X1753515Y-10706936D01*
X1753515Y-10706936D02*
X1743991Y-10687889D01*
X1743991Y-10687889D02*
X1734467Y-10649793D01*
X1734467Y-10649793D02*
X1734467Y-10602174D01*
X1734467Y-10602174D02*
X1743991Y-10564079D01*
X1743991Y-10564079D02*
X1753515Y-10545031D01*
X1753515Y-10545031D02*
X1763039Y-10535508D01*
X1763039Y-10535508D02*
X1782086Y-10525984D01*
X1924943Y-10545031D02*
X1934467Y-10535508D01*
X1934467Y-10535508D02*
X1953515Y-10525984D01*
X1953515Y-10525984D02*
X2001134Y-10525984D01*
X2001134Y-10525984D02*
X2020182Y-10535508D01*
X2020182Y-10535508D02*
X2029705Y-10545031D01*
X2029705Y-10545031D02*
X2039229Y-10564079D01*
X2039229Y-10564079D02*
X2039229Y-10583127D01*
X2039229Y-10583127D02*
X2029705Y-10611698D01*
X2029705Y-10611698D02*
X1915420Y-10725984D01*
X1915420Y-10725984D02*
X2039229Y-10725984D01*
X2163039Y-10525984D02*
X2182086Y-10525984D01*
X2182086Y-10525984D02*
X2201134Y-10535508D01*
X2201134Y-10535508D02*
X2210658Y-10545031D01*
X2210658Y-10545031D02*
X2220182Y-10564079D01*
X2220182Y-10564079D02*
X2229705Y-10602174D01*
X2229705Y-10602174D02*
X2229705Y-10649793D01*
X2229705Y-10649793D02*
X2220182Y-10687889D01*
X2220182Y-10687889D02*
X2210658Y-10706936D01*
X2210658Y-10706936D02*
X2201134Y-10716460D01*
X2201134Y-10716460D02*
X2182086Y-10725984D01*
X2182086Y-10725984D02*
X2163039Y-10725984D01*
X2163039Y-10725984D02*
X2143991Y-10716460D01*
X2143991Y-10716460D02*
X2134467Y-10706936D01*
X2134467Y-10706936D02*
X2124944Y-10687889D01*
X2124944Y-10687889D02*
X2115420Y-10649793D01*
X2115420Y-10649793D02*
X2115420Y-10602174D01*
X2115420Y-10602174D02*
X2124944Y-10564079D01*
X2124944Y-10564079D02*
X2134467Y-10545031D01*
X2134467Y-10545031D02*
X2143991Y-10535508D01*
X2143991Y-10535508D02*
X2163039Y-10525984D01*
X2315420Y-10725984D02*
X2315420Y-10592650D01*
X2315420Y-10611698D02*
X2324944Y-10602174D01*
X2324944Y-10602174D02*
X2343991Y-10592650D01*
X2343991Y-10592650D02*
X2372563Y-10592650D01*
X2372563Y-10592650D02*
X2391610Y-10602174D01*
X2391610Y-10602174D02*
X2401134Y-10621222D01*
X2401134Y-10621222D02*
X2401134Y-10725984D01*
X2401134Y-10621222D02*
X2410658Y-10602174D01*
X2410658Y-10602174D02*
X2429705Y-10592650D01*
X2429705Y-10592650D02*
X2458277Y-10592650D01*
X2458277Y-10592650D02*
X2477325Y-10602174D01*
X2477325Y-10602174D02*
X2486848Y-10621222D01*
X2486848Y-10621222D02*
X2486848Y-10725984D01*
X2582086Y-10725984D02*
X2582086Y-10592650D01*
X2582086Y-10611698D02*
X2591610Y-10602174D01*
X2591610Y-10602174D02*
X2610658Y-10592650D01*
X2610658Y-10592650D02*
X2639229Y-10592650D01*
X2639229Y-10592650D02*
X2658277Y-10602174D01*
X2658277Y-10602174D02*
X2667801Y-10621222D01*
X2667801Y-10621222D02*
X2667801Y-10725984D01*
X2667801Y-10621222D02*
X2677325Y-10602174D01*
X2677325Y-10602174D02*
X2696372Y-10592650D01*
X2696372Y-10592650D02*
X2724944Y-10592650D01*
X2724944Y-10592650D02*
X2743991Y-10602174D01*
X2743991Y-10602174D02*
X2753515Y-10621222D01*
X2753515Y-10621222D02*
X2753515Y-10725984D01*
X3143991Y-10516460D02*
X2972563Y-10773603D01*
X3401134Y-10525984D02*
X3420182Y-10525984D01*
X3420182Y-10525984D02*
X3439229Y-10535508D01*
X3439229Y-10535508D02*
X3448753Y-10545031D01*
X3448753Y-10545031D02*
X3458277Y-10564079D01*
X3458277Y-10564079D02*
X3467801Y-10602174D01*
X3467801Y-10602174D02*
X3467801Y-10649793D01*
X3467801Y-10649793D02*
X3458277Y-10687889D01*
X3458277Y-10687889D02*
X3448753Y-10706936D01*
X3448753Y-10706936D02*
X3439229Y-10716460D01*
X3439229Y-10716460D02*
X3420182Y-10725984D01*
X3420182Y-10725984D02*
X3401134Y-10725984D01*
X3401134Y-10725984D02*
X3382086Y-10716460D01*
X3382086Y-10716460D02*
X3372563Y-10706936D01*
X3372563Y-10706936D02*
X3363039Y-10687889D01*
X3363039Y-10687889D02*
X3353515Y-10649793D01*
X3353515Y-10649793D02*
X3353515Y-10602174D01*
X3353515Y-10602174D02*
X3363039Y-10564079D01*
X3363039Y-10564079D02*
X3372563Y-10545031D01*
X3372563Y-10545031D02*
X3382086Y-10535508D01*
X3382086Y-10535508D02*
X3401134Y-10525984D01*
X3553515Y-10706936D02*
X3563039Y-10716460D01*
X3563039Y-10716460D02*
X3553515Y-10725984D01*
X3553515Y-10725984D02*
X3543991Y-10716460D01*
X3543991Y-10716460D02*
X3553515Y-10706936D01*
X3553515Y-10706936D02*
X3553515Y-10725984D01*
X3686848Y-10525984D02*
X3705896Y-10525984D01*
X3705896Y-10525984D02*
X3724944Y-10535508D01*
X3724944Y-10535508D02*
X3734467Y-10545031D01*
X3734467Y-10545031D02*
X3743991Y-10564079D01*
X3743991Y-10564079D02*
X3753515Y-10602174D01*
X3753515Y-10602174D02*
X3753515Y-10649793D01*
X3753515Y-10649793D02*
X3743991Y-10687889D01*
X3743991Y-10687889D02*
X3734467Y-10706936D01*
X3734467Y-10706936D02*
X3724944Y-10716460D01*
X3724944Y-10716460D02*
X3705896Y-10725984D01*
X3705896Y-10725984D02*
X3686848Y-10725984D01*
X3686848Y-10725984D02*
X3667801Y-10716460D01*
X3667801Y-10716460D02*
X3658277Y-10706936D01*
X3658277Y-10706936D02*
X3648753Y-10687889D01*
X3648753Y-10687889D02*
X3639229Y-10649793D01*
X3639229Y-10649793D02*
X3639229Y-10602174D01*
X3639229Y-10602174D02*
X3648753Y-10564079D01*
X3648753Y-10564079D02*
X3658277Y-10545031D01*
X3658277Y-10545031D02*
X3667801Y-10535508D01*
X3667801Y-10535508D02*
X3686848Y-10525984D01*
X3924944Y-10592650D02*
X3924944Y-10725984D01*
X3877325Y-10516460D02*
X3829706Y-10659317D01*
X3829706Y-10659317D02*
X3953515Y-10659317D01*
X4067801Y-10525984D02*
X4086848Y-10525984D01*
X4086848Y-10525984D02*
X4105896Y-10535508D01*
X4105896Y-10535508D02*
X4115420Y-10545031D01*
X4115420Y-10545031D02*
X4124944Y-10564079D01*
X4124944Y-10564079D02*
X4134467Y-10602174D01*
X4134467Y-10602174D02*
X4134467Y-10649793D01*
X4134467Y-10649793D02*
X4124944Y-10687889D01*
X4124944Y-10687889D02*
X4115420Y-10706936D01*
X4115420Y-10706936D02*
X4105896Y-10716460D01*
X4105896Y-10716460D02*
X4086848Y-10725984D01*
X4086848Y-10725984D02*
X4067801Y-10725984D01*
X4067801Y-10725984D02*
X4048753Y-10716460D01*
X4048753Y-10716460D02*
X4039229Y-10706936D01*
X4039229Y-10706936D02*
X4029706Y-10687889D01*
X4029706Y-10687889D02*
X4020182Y-10649793D01*
X4020182Y-10649793D02*
X4020182Y-10602174D01*
X4020182Y-10602174D02*
X4029706Y-10564079D01*
X4029706Y-10564079D02*
X4039229Y-10545031D01*
X4039229Y-10545031D02*
X4048753Y-10535508D01*
X4048753Y-10535508D02*
X4067801Y-10525984D01*
X4210658Y-10545031D02*
X4220182Y-10535508D01*
X4220182Y-10535508D02*
X4239229Y-10525984D01*
X4239229Y-10525984D02*
X4286849Y-10525984D01*
X4286849Y-10525984D02*
X4305896Y-10535508D01*
X4305896Y-10535508D02*
X4315420Y-10545031D01*
X4315420Y-10545031D02*
X4324944Y-10564079D01*
X4324944Y-10564079D02*
X4324944Y-10583127D01*
X4324944Y-10583127D02*
X4315420Y-10611698D01*
X4315420Y-10611698D02*
X4201134Y-10725984D01*
X4201134Y-10725984D02*
X4324944Y-10725984D01*
X4401134Y-10525984D02*
X4401134Y-10564079D01*
X4477325Y-10525984D02*
X4477325Y-10564079D01*
X4772563Y-10802174D02*
X4763039Y-10792650D01*
X4763039Y-10792650D02*
X4743991Y-10764079D01*
X4743991Y-10764079D02*
X4734468Y-10745031D01*
X4734468Y-10745031D02*
X4724944Y-10716460D01*
X4724944Y-10716460D02*
X4715420Y-10668841D01*
X4715420Y-10668841D02*
X4715420Y-10630746D01*
X4715420Y-10630746D02*
X4724944Y-10583127D01*
X4724944Y-10583127D02*
X4734468Y-10554555D01*
X4734468Y-10554555D02*
X4743991Y-10535508D01*
X4743991Y-10535508D02*
X4763039Y-10506936D01*
X4763039Y-10506936D02*
X4772563Y-10497412D01*
X4934468Y-10525984D02*
X4896372Y-10525984D01*
X4896372Y-10525984D02*
X4877325Y-10535508D01*
X4877325Y-10535508D02*
X4867801Y-10545031D01*
X4867801Y-10545031D02*
X4848753Y-10573603D01*
X4848753Y-10573603D02*
X4839230Y-10611698D01*
X4839230Y-10611698D02*
X4839230Y-10687889D01*
X4839230Y-10687889D02*
X4848753Y-10706936D01*
X4848753Y-10706936D02*
X4858277Y-10716460D01*
X4858277Y-10716460D02*
X4877325Y-10725984D01*
X4877325Y-10725984D02*
X4915420Y-10725984D01*
X4915420Y-10725984D02*
X4934468Y-10716460D01*
X4934468Y-10716460D02*
X4943991Y-10706936D01*
X4943991Y-10706936D02*
X4953515Y-10687889D01*
X4953515Y-10687889D02*
X4953515Y-10640270D01*
X4953515Y-10640270D02*
X4943991Y-10621222D01*
X4943991Y-10621222D02*
X4934468Y-10611698D01*
X4934468Y-10611698D02*
X4915420Y-10602174D01*
X4915420Y-10602174D02*
X4877325Y-10602174D01*
X4877325Y-10602174D02*
X4858277Y-10611698D01*
X4858277Y-10611698D02*
X4848753Y-10621222D01*
X4848753Y-10621222D02*
X4839230Y-10640270D01*
X5191611Y-10725984D02*
X5191611Y-10525984D01*
X5277325Y-10725984D02*
X5277325Y-10621222D01*
X5277325Y-10621222D02*
X5267801Y-10602174D01*
X5267801Y-10602174D02*
X5248753Y-10592650D01*
X5248753Y-10592650D02*
X5220182Y-10592650D01*
X5220182Y-10592650D02*
X5201134Y-10602174D01*
X5201134Y-10602174D02*
X5191611Y-10611698D01*
X5401134Y-10725984D02*
X5382087Y-10716460D01*
X5382087Y-10716460D02*
X5372563Y-10706936D01*
X5372563Y-10706936D02*
X5363039Y-10687889D01*
X5363039Y-10687889D02*
X5363039Y-10630746D01*
X5363039Y-10630746D02*
X5372563Y-10611698D01*
X5372563Y-10611698D02*
X5382087Y-10602174D01*
X5382087Y-10602174D02*
X5401134Y-10592650D01*
X5401134Y-10592650D02*
X5429706Y-10592650D01*
X5429706Y-10592650D02*
X5448753Y-10602174D01*
X5448753Y-10602174D02*
X5458277Y-10611698D01*
X5458277Y-10611698D02*
X5467801Y-10630746D01*
X5467801Y-10630746D02*
X5467801Y-10687889D01*
X5467801Y-10687889D02*
X5458277Y-10706936D01*
X5458277Y-10706936D02*
X5448753Y-10716460D01*
X5448753Y-10716460D02*
X5429706Y-10725984D01*
X5429706Y-10725984D02*
X5401134Y-10725984D01*
X5582087Y-10725984D02*
X5563039Y-10716460D01*
X5563039Y-10716460D02*
X5553515Y-10697412D01*
X5553515Y-10697412D02*
X5553515Y-10525984D01*
X5734468Y-10716460D02*
X5715420Y-10725984D01*
X5715420Y-10725984D02*
X5677325Y-10725984D01*
X5677325Y-10725984D02*
X5658277Y-10716460D01*
X5658277Y-10716460D02*
X5648753Y-10697412D01*
X5648753Y-10697412D02*
X5648753Y-10621222D01*
X5648753Y-10621222D02*
X5658277Y-10602174D01*
X5658277Y-10602174D02*
X5677325Y-10592650D01*
X5677325Y-10592650D02*
X5715420Y-10592650D01*
X5715420Y-10592650D02*
X5734468Y-10602174D01*
X5734468Y-10602174D02*
X5743991Y-10621222D01*
X5743991Y-10621222D02*
X5743991Y-10640270D01*
X5743991Y-10640270D02*
X5648753Y-10659317D01*
X5820182Y-10716460D02*
X5839230Y-10725984D01*
X5839230Y-10725984D02*
X5877325Y-10725984D01*
X5877325Y-10725984D02*
X5896372Y-10716460D01*
X5896372Y-10716460D02*
X5905896Y-10697412D01*
X5905896Y-10697412D02*
X5905896Y-10687889D01*
X5905896Y-10687889D02*
X5896372Y-10668841D01*
X5896372Y-10668841D02*
X5877325Y-10659317D01*
X5877325Y-10659317D02*
X5848753Y-10659317D01*
X5848753Y-10659317D02*
X5829706Y-10649793D01*
X5829706Y-10649793D02*
X5820182Y-10630746D01*
X5820182Y-10630746D02*
X5820182Y-10621222D01*
X5820182Y-10621222D02*
X5829706Y-10602174D01*
X5829706Y-10602174D02*
X5848753Y-10592650D01*
X5848753Y-10592650D02*
X5877325Y-10592650D01*
X5877325Y-10592650D02*
X5896372Y-10602174D01*
X5972563Y-10802174D02*
X5982087Y-10792650D01*
X5982087Y-10792650D02*
X6001134Y-10764079D01*
X6001134Y-10764079D02*
X6010658Y-10745031D01*
X6010658Y-10745031D02*
X6020182Y-10716460D01*
X6020182Y-10716460D02*
X6029706Y-10668841D01*
X6029706Y-10668841D02*
X6029706Y-10630746D01*
X6029706Y-10630746D02*
X6020182Y-10583127D01*
X6020182Y-10583127D02*
X6010658Y-10554555D01*
X6010658Y-10554555D02*
X6001134Y-10535508D01*
X6001134Y-10535508D02*
X5982087Y-10506936D01*
X5982087Y-10506936D02*
X5972563Y-10497412D01*
D14*
X1142500Y-10953500D02*
X1197500Y-10898500D01*
X1142500Y-10843500D01*
X1087500Y-10898500D01*
X1142500Y-10953500D01*
D11*
X1563039Y-10989984D02*
X1448753Y-10989984D01*
X1505896Y-10989984D02*
X1505896Y-10789984D01*
X1505896Y-10789984D02*
X1486848Y-10818555D01*
X1486848Y-10818555D02*
X1467801Y-10837603D01*
X1467801Y-10837603D02*
X1448753Y-10847127D01*
X1648753Y-10970936D02*
X1658277Y-10980460D01*
X1658277Y-10980460D02*
X1648753Y-10989984D01*
X1648753Y-10989984D02*
X1639229Y-10980460D01*
X1639229Y-10980460D02*
X1648753Y-10970936D01*
X1648753Y-10970936D02*
X1648753Y-10989984D01*
X1848753Y-10989984D02*
X1734467Y-10989984D01*
X1791610Y-10989984D02*
X1791610Y-10789984D01*
X1791610Y-10789984D02*
X1772562Y-10818555D01*
X1772562Y-10818555D02*
X1753515Y-10837603D01*
X1753515Y-10837603D02*
X1734467Y-10847127D01*
X1972562Y-10789984D02*
X1991610Y-10789984D01*
X1991610Y-10789984D02*
X2010658Y-10799508D01*
X2010658Y-10799508D02*
X2020182Y-10809031D01*
X2020182Y-10809031D02*
X2029705Y-10828079D01*
X2029705Y-10828079D02*
X2039229Y-10866174D01*
X2039229Y-10866174D02*
X2039229Y-10913793D01*
X2039229Y-10913793D02*
X2029705Y-10951889D01*
X2029705Y-10951889D02*
X2020182Y-10970936D01*
X2020182Y-10970936D02*
X2010658Y-10980460D01*
X2010658Y-10980460D02*
X1991610Y-10989984D01*
X1991610Y-10989984D02*
X1972562Y-10989984D01*
X1972562Y-10989984D02*
X1953515Y-10980460D01*
X1953515Y-10980460D02*
X1943991Y-10970936D01*
X1943991Y-10970936D02*
X1934467Y-10951889D01*
X1934467Y-10951889D02*
X1924943Y-10913793D01*
X1924943Y-10913793D02*
X1924943Y-10866174D01*
X1924943Y-10866174D02*
X1934467Y-10828079D01*
X1934467Y-10828079D02*
X1943991Y-10809031D01*
X1943991Y-10809031D02*
X1953515Y-10799508D01*
X1953515Y-10799508D02*
X1972562Y-10789984D01*
X2163039Y-10789984D02*
X2182086Y-10789984D01*
X2182086Y-10789984D02*
X2201134Y-10799508D01*
X2201134Y-10799508D02*
X2210658Y-10809031D01*
X2210658Y-10809031D02*
X2220182Y-10828079D01*
X2220182Y-10828079D02*
X2229705Y-10866174D01*
X2229705Y-10866174D02*
X2229705Y-10913793D01*
X2229705Y-10913793D02*
X2220182Y-10951889D01*
X2220182Y-10951889D02*
X2210658Y-10970936D01*
X2210658Y-10970936D02*
X2201134Y-10980460D01*
X2201134Y-10980460D02*
X2182086Y-10989984D01*
X2182086Y-10989984D02*
X2163039Y-10989984D01*
X2163039Y-10989984D02*
X2143991Y-10980460D01*
X2143991Y-10980460D02*
X2134467Y-10970936D01*
X2134467Y-10970936D02*
X2124944Y-10951889D01*
X2124944Y-10951889D02*
X2115420Y-10913793D01*
X2115420Y-10913793D02*
X2115420Y-10866174D01*
X2115420Y-10866174D02*
X2124944Y-10828079D01*
X2124944Y-10828079D02*
X2134467Y-10809031D01*
X2134467Y-10809031D02*
X2143991Y-10799508D01*
X2143991Y-10799508D02*
X2163039Y-10789984D01*
X2315420Y-10989984D02*
X2315420Y-10856650D01*
X2315420Y-10875698D02*
X2324944Y-10866174D01*
X2324944Y-10866174D02*
X2343991Y-10856650D01*
X2343991Y-10856650D02*
X2372563Y-10856650D01*
X2372563Y-10856650D02*
X2391610Y-10866174D01*
X2391610Y-10866174D02*
X2401134Y-10885222D01*
X2401134Y-10885222D02*
X2401134Y-10989984D01*
X2401134Y-10885222D02*
X2410658Y-10866174D01*
X2410658Y-10866174D02*
X2429705Y-10856650D01*
X2429705Y-10856650D02*
X2458277Y-10856650D01*
X2458277Y-10856650D02*
X2477325Y-10866174D01*
X2477325Y-10866174D02*
X2486848Y-10885222D01*
X2486848Y-10885222D02*
X2486848Y-10989984D01*
X2582086Y-10989984D02*
X2582086Y-10856650D01*
X2582086Y-10875698D02*
X2591610Y-10866174D01*
X2591610Y-10866174D02*
X2610658Y-10856650D01*
X2610658Y-10856650D02*
X2639229Y-10856650D01*
X2639229Y-10856650D02*
X2658277Y-10866174D01*
X2658277Y-10866174D02*
X2667801Y-10885222D01*
X2667801Y-10885222D02*
X2667801Y-10989984D01*
X2667801Y-10885222D02*
X2677325Y-10866174D01*
X2677325Y-10866174D02*
X2696372Y-10856650D01*
X2696372Y-10856650D02*
X2724944Y-10856650D01*
X2724944Y-10856650D02*
X2743991Y-10866174D01*
X2743991Y-10866174D02*
X2753515Y-10885222D01*
X2753515Y-10885222D02*
X2753515Y-10989984D01*
X3143991Y-10780460D02*
X2972563Y-11037603D01*
X3401134Y-10789984D02*
X3420182Y-10789984D01*
X3420182Y-10789984D02*
X3439229Y-10799508D01*
X3439229Y-10799508D02*
X3448753Y-10809031D01*
X3448753Y-10809031D02*
X3458277Y-10828079D01*
X3458277Y-10828079D02*
X3467801Y-10866174D01*
X3467801Y-10866174D02*
X3467801Y-10913793D01*
X3467801Y-10913793D02*
X3458277Y-10951889D01*
X3458277Y-10951889D02*
X3448753Y-10970936D01*
X3448753Y-10970936D02*
X3439229Y-10980460D01*
X3439229Y-10980460D02*
X3420182Y-10989984D01*
X3420182Y-10989984D02*
X3401134Y-10989984D01*
X3401134Y-10989984D02*
X3382086Y-10980460D01*
X3382086Y-10980460D02*
X3372563Y-10970936D01*
X3372563Y-10970936D02*
X3363039Y-10951889D01*
X3363039Y-10951889D02*
X3353515Y-10913793D01*
X3353515Y-10913793D02*
X3353515Y-10866174D01*
X3353515Y-10866174D02*
X3363039Y-10828079D01*
X3363039Y-10828079D02*
X3372563Y-10809031D01*
X3372563Y-10809031D02*
X3382086Y-10799508D01*
X3382086Y-10799508D02*
X3401134Y-10789984D01*
X3553515Y-10970936D02*
X3563039Y-10980460D01*
X3563039Y-10980460D02*
X3553515Y-10989984D01*
X3553515Y-10989984D02*
X3543991Y-10980460D01*
X3543991Y-10980460D02*
X3553515Y-10970936D01*
X3553515Y-10970936D02*
X3553515Y-10989984D01*
X3686848Y-10789984D02*
X3705896Y-10789984D01*
X3705896Y-10789984D02*
X3724944Y-10799508D01*
X3724944Y-10799508D02*
X3734467Y-10809031D01*
X3734467Y-10809031D02*
X3743991Y-10828079D01*
X3743991Y-10828079D02*
X3753515Y-10866174D01*
X3753515Y-10866174D02*
X3753515Y-10913793D01*
X3753515Y-10913793D02*
X3743991Y-10951889D01*
X3743991Y-10951889D02*
X3734467Y-10970936D01*
X3734467Y-10970936D02*
X3724944Y-10980460D01*
X3724944Y-10980460D02*
X3705896Y-10989984D01*
X3705896Y-10989984D02*
X3686848Y-10989984D01*
X3686848Y-10989984D02*
X3667801Y-10980460D01*
X3667801Y-10980460D02*
X3658277Y-10970936D01*
X3658277Y-10970936D02*
X3648753Y-10951889D01*
X3648753Y-10951889D02*
X3639229Y-10913793D01*
X3639229Y-10913793D02*
X3639229Y-10866174D01*
X3639229Y-10866174D02*
X3648753Y-10828079D01*
X3648753Y-10828079D02*
X3658277Y-10809031D01*
X3658277Y-10809031D02*
X3667801Y-10799508D01*
X3667801Y-10799508D02*
X3686848Y-10789984D01*
X3924944Y-10856650D02*
X3924944Y-10989984D01*
X3877325Y-10780460D02*
X3829706Y-10923317D01*
X3829706Y-10923317D02*
X3953515Y-10923317D01*
X4010658Y-10789984D02*
X4134467Y-10789984D01*
X4134467Y-10789984D02*
X4067801Y-10866174D01*
X4067801Y-10866174D02*
X4096372Y-10866174D01*
X4096372Y-10866174D02*
X4115420Y-10875698D01*
X4115420Y-10875698D02*
X4124944Y-10885222D01*
X4124944Y-10885222D02*
X4134467Y-10904270D01*
X4134467Y-10904270D02*
X4134467Y-10951889D01*
X4134467Y-10951889D02*
X4124944Y-10970936D01*
X4124944Y-10970936D02*
X4115420Y-10980460D01*
X4115420Y-10980460D02*
X4096372Y-10989984D01*
X4096372Y-10989984D02*
X4039229Y-10989984D01*
X4039229Y-10989984D02*
X4020182Y-10980460D01*
X4020182Y-10980460D02*
X4010658Y-10970936D01*
X4201134Y-10789984D02*
X4324944Y-10789984D01*
X4324944Y-10789984D02*
X4258277Y-10866174D01*
X4258277Y-10866174D02*
X4286849Y-10866174D01*
X4286849Y-10866174D02*
X4305896Y-10875698D01*
X4305896Y-10875698D02*
X4315420Y-10885222D01*
X4315420Y-10885222D02*
X4324944Y-10904270D01*
X4324944Y-10904270D02*
X4324944Y-10951889D01*
X4324944Y-10951889D02*
X4315420Y-10970936D01*
X4315420Y-10970936D02*
X4305896Y-10980460D01*
X4305896Y-10980460D02*
X4286849Y-10989984D01*
X4286849Y-10989984D02*
X4229706Y-10989984D01*
X4229706Y-10989984D02*
X4210658Y-10980460D01*
X4210658Y-10980460D02*
X4201134Y-10970936D01*
X4401134Y-10789984D02*
X4401134Y-10828079D01*
X4477325Y-10789984D02*
X4477325Y-10828079D01*
X4772563Y-11066174D02*
X4763039Y-11056650D01*
X4763039Y-11056650D02*
X4743991Y-11028079D01*
X4743991Y-11028079D02*
X4734468Y-11009031D01*
X4734468Y-11009031D02*
X4724944Y-10980460D01*
X4724944Y-10980460D02*
X4715420Y-10932841D01*
X4715420Y-10932841D02*
X4715420Y-10894746D01*
X4715420Y-10894746D02*
X4724944Y-10847127D01*
X4724944Y-10847127D02*
X4734468Y-10818555D01*
X4734468Y-10818555D02*
X4743991Y-10799508D01*
X4743991Y-10799508D02*
X4763039Y-10770936D01*
X4763039Y-10770936D02*
X4772563Y-10761412D01*
X4953515Y-10989984D02*
X4839230Y-10989984D01*
X4896372Y-10989984D02*
X4896372Y-10789984D01*
X4896372Y-10789984D02*
X4877325Y-10818555D01*
X4877325Y-10818555D02*
X4858277Y-10837603D01*
X4858277Y-10837603D02*
X4839230Y-10847127D01*
X5134468Y-10789984D02*
X5039230Y-10789984D01*
X5039230Y-10789984D02*
X5029706Y-10885222D01*
X5029706Y-10885222D02*
X5039230Y-10875698D01*
X5039230Y-10875698D02*
X5058277Y-10866174D01*
X5058277Y-10866174D02*
X5105896Y-10866174D01*
X5105896Y-10866174D02*
X5124944Y-10875698D01*
X5124944Y-10875698D02*
X5134468Y-10885222D01*
X5134468Y-10885222D02*
X5143991Y-10904270D01*
X5143991Y-10904270D02*
X5143991Y-10951889D01*
X5143991Y-10951889D02*
X5134468Y-10970936D01*
X5134468Y-10970936D02*
X5124944Y-10980460D01*
X5124944Y-10980460D02*
X5105896Y-10989984D01*
X5105896Y-10989984D02*
X5058277Y-10989984D01*
X5058277Y-10989984D02*
X5039230Y-10980460D01*
X5039230Y-10980460D02*
X5029706Y-10970936D01*
X5382087Y-10989984D02*
X5382087Y-10789984D01*
X5467801Y-10989984D02*
X5467801Y-10885222D01*
X5467801Y-10885222D02*
X5458277Y-10866174D01*
X5458277Y-10866174D02*
X5439230Y-10856650D01*
X5439230Y-10856650D02*
X5410658Y-10856650D01*
X5410658Y-10856650D02*
X5391611Y-10866174D01*
X5391611Y-10866174D02*
X5382087Y-10875698D01*
X5591611Y-10989984D02*
X5572563Y-10980460D01*
X5572563Y-10980460D02*
X5563039Y-10970936D01*
X5563039Y-10970936D02*
X5553515Y-10951889D01*
X5553515Y-10951889D02*
X5553515Y-10894746D01*
X5553515Y-10894746D02*
X5563039Y-10875698D01*
X5563039Y-10875698D02*
X5572563Y-10866174D01*
X5572563Y-10866174D02*
X5591611Y-10856650D01*
X5591611Y-10856650D02*
X5620182Y-10856650D01*
X5620182Y-10856650D02*
X5639230Y-10866174D01*
X5639230Y-10866174D02*
X5648753Y-10875698D01*
X5648753Y-10875698D02*
X5658277Y-10894746D01*
X5658277Y-10894746D02*
X5658277Y-10951889D01*
X5658277Y-10951889D02*
X5648753Y-10970936D01*
X5648753Y-10970936D02*
X5639230Y-10980460D01*
X5639230Y-10980460D02*
X5620182Y-10989984D01*
X5620182Y-10989984D02*
X5591611Y-10989984D01*
X5772563Y-10989984D02*
X5753515Y-10980460D01*
X5753515Y-10980460D02*
X5743991Y-10961412D01*
X5743991Y-10961412D02*
X5743991Y-10789984D01*
X5924944Y-10980460D02*
X5905896Y-10989984D01*
X5905896Y-10989984D02*
X5867801Y-10989984D01*
X5867801Y-10989984D02*
X5848753Y-10980460D01*
X5848753Y-10980460D02*
X5839230Y-10961412D01*
X5839230Y-10961412D02*
X5839230Y-10885222D01*
X5839230Y-10885222D02*
X5848753Y-10866174D01*
X5848753Y-10866174D02*
X5867801Y-10856650D01*
X5867801Y-10856650D02*
X5905896Y-10856650D01*
X5905896Y-10856650D02*
X5924944Y-10866174D01*
X5924944Y-10866174D02*
X5934468Y-10885222D01*
X5934468Y-10885222D02*
X5934468Y-10904270D01*
X5934468Y-10904270D02*
X5839230Y-10923317D01*
X6010658Y-10980460D02*
X6029706Y-10989984D01*
X6029706Y-10989984D02*
X6067801Y-10989984D01*
X6067801Y-10989984D02*
X6086849Y-10980460D01*
X6086849Y-10980460D02*
X6096372Y-10961412D01*
X6096372Y-10961412D02*
X6096372Y-10951889D01*
X6096372Y-10951889D02*
X6086849Y-10932841D01*
X6086849Y-10932841D02*
X6067801Y-10923317D01*
X6067801Y-10923317D02*
X6039230Y-10923317D01*
X6039230Y-10923317D02*
X6020182Y-10913793D01*
X6020182Y-10913793D02*
X6010658Y-10894746D01*
X6010658Y-10894746D02*
X6010658Y-10885222D01*
X6010658Y-10885222D02*
X6020182Y-10866174D01*
X6020182Y-10866174D02*
X6039230Y-10856650D01*
X6039230Y-10856650D02*
X6067801Y-10856650D01*
X6067801Y-10856650D02*
X6086849Y-10866174D01*
X6163039Y-11066174D02*
X6172563Y-11056650D01*
X6172563Y-11056650D02*
X6191611Y-11028079D01*
X6191611Y-11028079D02*
X6201134Y-11009031D01*
X6201134Y-11009031D02*
X6210658Y-10980460D01*
X6210658Y-10980460D02*
X6220182Y-10932841D01*
X6220182Y-10932841D02*
X6220182Y-10894746D01*
X6220182Y-10894746D02*
X6210658Y-10847127D01*
X6210658Y-10847127D02*
X6201134Y-10818555D01*
X6201134Y-10818555D02*
X6191611Y-10799508D01*
X6191611Y-10799508D02*
X6172563Y-10770936D01*
X6172563Y-10770936D02*
X6163039Y-10761412D01*
D15*
X1045500Y-11086500D02*
X1197500Y-11238500D01*
X1197500Y-11086500D02*
X1045500Y-11238500D01*
X1197500Y-11162500D02*
G75*
G02*
X1045500Y-11162500I-76000J0D01*
G01*
X1045500Y-11162500D02*
G75*
G02*
X1197500Y-11162500I76000J0D01*
G01*
D11*
X1563039Y-11253984D02*
X1448753Y-11253984D01*
X1505896Y-11253984D02*
X1505896Y-11053984D01*
X1505896Y-11053984D02*
X1486848Y-11082555D01*
X1486848Y-11082555D02*
X1467801Y-11101603D01*
X1467801Y-11101603D02*
X1448753Y-11111127D01*
X1648753Y-11234936D02*
X1658277Y-11244460D01*
X1658277Y-11244460D02*
X1648753Y-11253984D01*
X1648753Y-11253984D02*
X1639229Y-11244460D01*
X1639229Y-11244460D02*
X1648753Y-11234936D01*
X1648753Y-11234936D02*
X1648753Y-11253984D01*
X1839229Y-11053984D02*
X1743991Y-11053984D01*
X1743991Y-11053984D02*
X1734467Y-11149222D01*
X1734467Y-11149222D02*
X1743991Y-11139698D01*
X1743991Y-11139698D02*
X1763039Y-11130174D01*
X1763039Y-11130174D02*
X1810658Y-11130174D01*
X1810658Y-11130174D02*
X1829705Y-11139698D01*
X1829705Y-11139698D02*
X1839229Y-11149222D01*
X1839229Y-11149222D02*
X1848753Y-11168270D01*
X1848753Y-11168270D02*
X1848753Y-11215888D01*
X1848753Y-11215888D02*
X1839229Y-11234936D01*
X1839229Y-11234936D02*
X1829705Y-11244460D01*
X1829705Y-11244460D02*
X1810658Y-11253984D01*
X1810658Y-11253984D02*
X1763039Y-11253984D01*
X1763039Y-11253984D02*
X1743991Y-11244460D01*
X1743991Y-11244460D02*
X1734467Y-11234936D01*
X1924943Y-11073031D02*
X1934467Y-11063508D01*
X1934467Y-11063508D02*
X1953515Y-11053984D01*
X1953515Y-11053984D02*
X2001134Y-11053984D01*
X2001134Y-11053984D02*
X2020182Y-11063508D01*
X2020182Y-11063508D02*
X2029705Y-11073031D01*
X2029705Y-11073031D02*
X2039229Y-11092079D01*
X2039229Y-11092079D02*
X2039229Y-11111127D01*
X2039229Y-11111127D02*
X2029705Y-11139698D01*
X2029705Y-11139698D02*
X1915420Y-11253984D01*
X1915420Y-11253984D02*
X2039229Y-11253984D01*
X2163039Y-11053984D02*
X2182086Y-11053984D01*
X2182086Y-11053984D02*
X2201134Y-11063508D01*
X2201134Y-11063508D02*
X2210658Y-11073031D01*
X2210658Y-11073031D02*
X2220182Y-11092079D01*
X2220182Y-11092079D02*
X2229705Y-11130174D01*
X2229705Y-11130174D02*
X2229705Y-11177793D01*
X2229705Y-11177793D02*
X2220182Y-11215888D01*
X2220182Y-11215888D02*
X2210658Y-11234936D01*
X2210658Y-11234936D02*
X2201134Y-11244460D01*
X2201134Y-11244460D02*
X2182086Y-11253984D01*
X2182086Y-11253984D02*
X2163039Y-11253984D01*
X2163039Y-11253984D02*
X2143991Y-11244460D01*
X2143991Y-11244460D02*
X2134467Y-11234936D01*
X2134467Y-11234936D02*
X2124944Y-11215888D01*
X2124944Y-11215888D02*
X2115420Y-11177793D01*
X2115420Y-11177793D02*
X2115420Y-11130174D01*
X2115420Y-11130174D02*
X2124944Y-11092079D01*
X2124944Y-11092079D02*
X2134467Y-11073031D01*
X2134467Y-11073031D02*
X2143991Y-11063508D01*
X2143991Y-11063508D02*
X2163039Y-11053984D01*
X2315420Y-11253984D02*
X2315420Y-11120650D01*
X2315420Y-11139698D02*
X2324944Y-11130174D01*
X2324944Y-11130174D02*
X2343991Y-11120650D01*
X2343991Y-11120650D02*
X2372563Y-11120650D01*
X2372563Y-11120650D02*
X2391610Y-11130174D01*
X2391610Y-11130174D02*
X2401134Y-11149222D01*
X2401134Y-11149222D02*
X2401134Y-11253984D01*
X2401134Y-11149222D02*
X2410658Y-11130174D01*
X2410658Y-11130174D02*
X2429705Y-11120650D01*
X2429705Y-11120650D02*
X2458277Y-11120650D01*
X2458277Y-11120650D02*
X2477325Y-11130174D01*
X2477325Y-11130174D02*
X2486848Y-11149222D01*
X2486848Y-11149222D02*
X2486848Y-11253984D01*
X2582086Y-11253984D02*
X2582086Y-11120650D01*
X2582086Y-11139698D02*
X2591610Y-11130174D01*
X2591610Y-11130174D02*
X2610658Y-11120650D01*
X2610658Y-11120650D02*
X2639229Y-11120650D01*
X2639229Y-11120650D02*
X2658277Y-11130174D01*
X2658277Y-11130174D02*
X2667801Y-11149222D01*
X2667801Y-11149222D02*
X2667801Y-11253984D01*
X2667801Y-11149222D02*
X2677325Y-11130174D01*
X2677325Y-11130174D02*
X2696372Y-11120650D01*
X2696372Y-11120650D02*
X2724944Y-11120650D01*
X2724944Y-11120650D02*
X2743991Y-11130174D01*
X2743991Y-11130174D02*
X2753515Y-11149222D01*
X2753515Y-11149222D02*
X2753515Y-11253984D01*
X3143991Y-11044460D02*
X2972563Y-11301603D01*
X3401134Y-11053984D02*
X3420182Y-11053984D01*
X3420182Y-11053984D02*
X3439229Y-11063508D01*
X3439229Y-11063508D02*
X3448753Y-11073031D01*
X3448753Y-11073031D02*
X3458277Y-11092079D01*
X3458277Y-11092079D02*
X3467801Y-11130174D01*
X3467801Y-11130174D02*
X3467801Y-11177793D01*
X3467801Y-11177793D02*
X3458277Y-11215888D01*
X3458277Y-11215888D02*
X3448753Y-11234936D01*
X3448753Y-11234936D02*
X3439229Y-11244460D01*
X3439229Y-11244460D02*
X3420182Y-11253984D01*
X3420182Y-11253984D02*
X3401134Y-11253984D01*
X3401134Y-11253984D02*
X3382086Y-11244460D01*
X3382086Y-11244460D02*
X3372563Y-11234936D01*
X3372563Y-11234936D02*
X3363039Y-11215888D01*
X3363039Y-11215888D02*
X3353515Y-11177793D01*
X3353515Y-11177793D02*
X3353515Y-11130174D01*
X3353515Y-11130174D02*
X3363039Y-11092079D01*
X3363039Y-11092079D02*
X3372563Y-11073031D01*
X3372563Y-11073031D02*
X3382086Y-11063508D01*
X3382086Y-11063508D02*
X3401134Y-11053984D01*
X3553515Y-11234936D02*
X3563039Y-11244460D01*
X3563039Y-11244460D02*
X3553515Y-11253984D01*
X3553515Y-11253984D02*
X3543991Y-11244460D01*
X3543991Y-11244460D02*
X3553515Y-11234936D01*
X3553515Y-11234936D02*
X3553515Y-11253984D01*
X3686848Y-11053984D02*
X3705896Y-11053984D01*
X3705896Y-11053984D02*
X3724944Y-11063508D01*
X3724944Y-11063508D02*
X3734467Y-11073031D01*
X3734467Y-11073031D02*
X3743991Y-11092079D01*
X3743991Y-11092079D02*
X3753515Y-11130174D01*
X3753515Y-11130174D02*
X3753515Y-11177793D01*
X3753515Y-11177793D02*
X3743991Y-11215888D01*
X3743991Y-11215888D02*
X3734467Y-11234936D01*
X3734467Y-11234936D02*
X3724944Y-11244460D01*
X3724944Y-11244460D02*
X3705896Y-11253984D01*
X3705896Y-11253984D02*
X3686848Y-11253984D01*
X3686848Y-11253984D02*
X3667801Y-11244460D01*
X3667801Y-11244460D02*
X3658277Y-11234936D01*
X3658277Y-11234936D02*
X3648753Y-11215888D01*
X3648753Y-11215888D02*
X3639229Y-11177793D01*
X3639229Y-11177793D02*
X3639229Y-11130174D01*
X3639229Y-11130174D02*
X3648753Y-11092079D01*
X3648753Y-11092079D02*
X3658277Y-11073031D01*
X3658277Y-11073031D02*
X3667801Y-11063508D01*
X3667801Y-11063508D02*
X3686848Y-11053984D01*
X3934467Y-11053984D02*
X3839229Y-11053984D01*
X3839229Y-11053984D02*
X3829706Y-11149222D01*
X3829706Y-11149222D02*
X3839229Y-11139698D01*
X3839229Y-11139698D02*
X3858277Y-11130174D01*
X3858277Y-11130174D02*
X3905896Y-11130174D01*
X3905896Y-11130174D02*
X3924944Y-11139698D01*
X3924944Y-11139698D02*
X3934467Y-11149222D01*
X3934467Y-11149222D02*
X3943991Y-11168270D01*
X3943991Y-11168270D02*
X3943991Y-11215888D01*
X3943991Y-11215888D02*
X3934467Y-11234936D01*
X3934467Y-11234936D02*
X3924944Y-11244460D01*
X3924944Y-11244460D02*
X3905896Y-11253984D01*
X3905896Y-11253984D02*
X3858277Y-11253984D01*
X3858277Y-11253984D02*
X3839229Y-11244460D01*
X3839229Y-11244460D02*
X3829706Y-11234936D01*
X4039229Y-11253984D02*
X4077325Y-11253984D01*
X4077325Y-11253984D02*
X4096372Y-11244460D01*
X4096372Y-11244460D02*
X4105896Y-11234936D01*
X4105896Y-11234936D02*
X4124944Y-11206365D01*
X4124944Y-11206365D02*
X4134467Y-11168270D01*
X4134467Y-11168270D02*
X4134467Y-11092079D01*
X4134467Y-11092079D02*
X4124944Y-11073031D01*
X4124944Y-11073031D02*
X4115420Y-11063508D01*
X4115420Y-11063508D02*
X4096372Y-11053984D01*
X4096372Y-11053984D02*
X4058277Y-11053984D01*
X4058277Y-11053984D02*
X4039229Y-11063508D01*
X4039229Y-11063508D02*
X4029706Y-11073031D01*
X4029706Y-11073031D02*
X4020182Y-11092079D01*
X4020182Y-11092079D02*
X4020182Y-11139698D01*
X4020182Y-11139698D02*
X4029706Y-11158746D01*
X4029706Y-11158746D02*
X4039229Y-11168270D01*
X4039229Y-11168270D02*
X4058277Y-11177793D01*
X4058277Y-11177793D02*
X4096372Y-11177793D01*
X4096372Y-11177793D02*
X4115420Y-11168270D01*
X4115420Y-11168270D02*
X4124944Y-11158746D01*
X4124944Y-11158746D02*
X4134467Y-11139698D01*
X4248753Y-11139698D02*
X4229706Y-11130174D01*
X4229706Y-11130174D02*
X4220182Y-11120650D01*
X4220182Y-11120650D02*
X4210658Y-11101603D01*
X4210658Y-11101603D02*
X4210658Y-11092079D01*
X4210658Y-11092079D02*
X4220182Y-11073031D01*
X4220182Y-11073031D02*
X4229706Y-11063508D01*
X4229706Y-11063508D02*
X4248753Y-11053984D01*
X4248753Y-11053984D02*
X4286849Y-11053984D01*
X4286849Y-11053984D02*
X4305896Y-11063508D01*
X4305896Y-11063508D02*
X4315420Y-11073031D01*
X4315420Y-11073031D02*
X4324944Y-11092079D01*
X4324944Y-11092079D02*
X4324944Y-11101603D01*
X4324944Y-11101603D02*
X4315420Y-11120650D01*
X4315420Y-11120650D02*
X4305896Y-11130174D01*
X4305896Y-11130174D02*
X4286849Y-11139698D01*
X4286849Y-11139698D02*
X4248753Y-11139698D01*
X4248753Y-11139698D02*
X4229706Y-11149222D01*
X4229706Y-11149222D02*
X4220182Y-11158746D01*
X4220182Y-11158746D02*
X4210658Y-11177793D01*
X4210658Y-11177793D02*
X4210658Y-11215888D01*
X4210658Y-11215888D02*
X4220182Y-11234936D01*
X4220182Y-11234936D02*
X4229706Y-11244460D01*
X4229706Y-11244460D02*
X4248753Y-11253984D01*
X4248753Y-11253984D02*
X4286849Y-11253984D01*
X4286849Y-11253984D02*
X4305896Y-11244460D01*
X4305896Y-11244460D02*
X4315420Y-11234936D01*
X4315420Y-11234936D02*
X4324944Y-11215888D01*
X4324944Y-11215888D02*
X4324944Y-11177793D01*
X4324944Y-11177793D02*
X4315420Y-11158746D01*
X4315420Y-11158746D02*
X4305896Y-11149222D01*
X4305896Y-11149222D02*
X4286849Y-11139698D01*
X4401134Y-11053984D02*
X4401134Y-11092079D01*
X4477325Y-11053984D02*
X4477325Y-11092079D01*
X4772563Y-11330174D02*
X4763039Y-11320650D01*
X4763039Y-11320650D02*
X4743991Y-11292079D01*
X4743991Y-11292079D02*
X4734468Y-11273031D01*
X4734468Y-11273031D02*
X4724944Y-11244460D01*
X4724944Y-11244460D02*
X4715420Y-11196841D01*
X4715420Y-11196841D02*
X4715420Y-11158746D01*
X4715420Y-11158746D02*
X4724944Y-11111127D01*
X4724944Y-11111127D02*
X4734468Y-11082555D01*
X4734468Y-11082555D02*
X4743991Y-11063508D01*
X4743991Y-11063508D02*
X4763039Y-11034936D01*
X4763039Y-11034936D02*
X4772563Y-11025412D01*
X4934468Y-11120650D02*
X4934468Y-11253984D01*
X4886849Y-11044460D02*
X4839230Y-11187317D01*
X4839230Y-11187317D02*
X4963039Y-11187317D01*
X5191611Y-11253984D02*
X5191611Y-11053984D01*
X5277325Y-11253984D02*
X5277325Y-11149222D01*
X5277325Y-11149222D02*
X5267801Y-11130174D01*
X5267801Y-11130174D02*
X5248753Y-11120650D01*
X5248753Y-11120650D02*
X5220182Y-11120650D01*
X5220182Y-11120650D02*
X5201134Y-11130174D01*
X5201134Y-11130174D02*
X5191611Y-11139698D01*
X5401134Y-11253984D02*
X5382087Y-11244460D01*
X5382087Y-11244460D02*
X5372563Y-11234936D01*
X5372563Y-11234936D02*
X5363039Y-11215888D01*
X5363039Y-11215888D02*
X5363039Y-11158746D01*
X5363039Y-11158746D02*
X5372563Y-11139698D01*
X5372563Y-11139698D02*
X5382087Y-11130174D01*
X5382087Y-11130174D02*
X5401134Y-11120650D01*
X5401134Y-11120650D02*
X5429706Y-11120650D01*
X5429706Y-11120650D02*
X5448753Y-11130174D01*
X5448753Y-11130174D02*
X5458277Y-11139698D01*
X5458277Y-11139698D02*
X5467801Y-11158746D01*
X5467801Y-11158746D02*
X5467801Y-11215888D01*
X5467801Y-11215888D02*
X5458277Y-11234936D01*
X5458277Y-11234936D02*
X5448753Y-11244460D01*
X5448753Y-11244460D02*
X5429706Y-11253984D01*
X5429706Y-11253984D02*
X5401134Y-11253984D01*
X5582087Y-11253984D02*
X5563039Y-11244460D01*
X5563039Y-11244460D02*
X5553515Y-11225412D01*
X5553515Y-11225412D02*
X5553515Y-11053984D01*
X5734468Y-11244460D02*
X5715420Y-11253984D01*
X5715420Y-11253984D02*
X5677325Y-11253984D01*
X5677325Y-11253984D02*
X5658277Y-11244460D01*
X5658277Y-11244460D02*
X5648753Y-11225412D01*
X5648753Y-11225412D02*
X5648753Y-11149222D01*
X5648753Y-11149222D02*
X5658277Y-11130174D01*
X5658277Y-11130174D02*
X5677325Y-11120650D01*
X5677325Y-11120650D02*
X5715420Y-11120650D01*
X5715420Y-11120650D02*
X5734468Y-11130174D01*
X5734468Y-11130174D02*
X5743991Y-11149222D01*
X5743991Y-11149222D02*
X5743991Y-11168270D01*
X5743991Y-11168270D02*
X5648753Y-11187317D01*
X5820182Y-11244460D02*
X5839230Y-11253984D01*
X5839230Y-11253984D02*
X5877325Y-11253984D01*
X5877325Y-11253984D02*
X5896372Y-11244460D01*
X5896372Y-11244460D02*
X5905896Y-11225412D01*
X5905896Y-11225412D02*
X5905896Y-11215888D01*
X5905896Y-11215888D02*
X5896372Y-11196841D01*
X5896372Y-11196841D02*
X5877325Y-11187317D01*
X5877325Y-11187317D02*
X5848753Y-11187317D01*
X5848753Y-11187317D02*
X5829706Y-11177793D01*
X5829706Y-11177793D02*
X5820182Y-11158746D01*
X5820182Y-11158746D02*
X5820182Y-11149222D01*
X5820182Y-11149222D02*
X5829706Y-11130174D01*
X5829706Y-11130174D02*
X5848753Y-11120650D01*
X5848753Y-11120650D02*
X5877325Y-11120650D01*
X5877325Y-11120650D02*
X5896372Y-11130174D01*
X5972563Y-11330174D02*
X5982087Y-11320650D01*
X5982087Y-11320650D02*
X6001134Y-11292079D01*
X6001134Y-11292079D02*
X6010658Y-11273031D01*
X6010658Y-11273031D02*
X6020182Y-11244460D01*
X6020182Y-11244460D02*
X6029706Y-11196841D01*
X6029706Y-11196841D02*
X6029706Y-11158746D01*
X6029706Y-11158746D02*
X6020182Y-11111127D01*
X6020182Y-11111127D02*
X6010658Y-11082555D01*
X6010658Y-11082555D02*
X6001134Y-11063508D01*
X6001134Y-11063508D02*
X5982087Y-11034936D01*
X5982087Y-11034936D02*
X5972563Y-11025412D01*
X997500Y-11334500D02*
X1197500Y-11534500D01*
X1197500Y-11334500D02*
X997500Y-11534500D01*
X1097500Y-11334500D02*
X1097500Y-11534500D01*
X997500Y-11434500D02*
X1197500Y-11434500D01*
X1448753Y-11345031D02*
X1458277Y-11335508D01*
X1458277Y-11335508D02*
X1477324Y-11325984D01*
X1477324Y-11325984D02*
X1524943Y-11325984D01*
X1524943Y-11325984D02*
X1543991Y-11335508D01*
X1543991Y-11335508D02*
X1553515Y-11345031D01*
X1553515Y-11345031D02*
X1563039Y-11364079D01*
X1563039Y-11364079D02*
X1563039Y-11383127D01*
X1563039Y-11383127D02*
X1553515Y-11411698D01*
X1553515Y-11411698D02*
X1439229Y-11525984D01*
X1439229Y-11525984D02*
X1563039Y-11525984D01*
X1648753Y-11506936D02*
X1658277Y-11516460D01*
X1658277Y-11516460D02*
X1648753Y-11525984D01*
X1648753Y-11525984D02*
X1639229Y-11516460D01*
X1639229Y-11516460D02*
X1648753Y-11506936D01*
X1648753Y-11506936D02*
X1648753Y-11525984D01*
X1839229Y-11325984D02*
X1743991Y-11325984D01*
X1743991Y-11325984D02*
X1734467Y-11421222D01*
X1734467Y-11421222D02*
X1743991Y-11411698D01*
X1743991Y-11411698D02*
X1763039Y-11402174D01*
X1763039Y-11402174D02*
X1810658Y-11402174D01*
X1810658Y-11402174D02*
X1829705Y-11411698D01*
X1829705Y-11411698D02*
X1839229Y-11421222D01*
X1839229Y-11421222D02*
X1848753Y-11440269D01*
X1848753Y-11440269D02*
X1848753Y-11487888D01*
X1848753Y-11487888D02*
X1839229Y-11506936D01*
X1839229Y-11506936D02*
X1829705Y-11516460D01*
X1829705Y-11516460D02*
X1810658Y-11525984D01*
X1810658Y-11525984D02*
X1763039Y-11525984D01*
X1763039Y-11525984D02*
X1743991Y-11516460D01*
X1743991Y-11516460D02*
X1734467Y-11506936D01*
X1972562Y-11325984D02*
X1991610Y-11325984D01*
X1991610Y-11325984D02*
X2010658Y-11335508D01*
X2010658Y-11335508D02*
X2020182Y-11345031D01*
X2020182Y-11345031D02*
X2029705Y-11364079D01*
X2029705Y-11364079D02*
X2039229Y-11402174D01*
X2039229Y-11402174D02*
X2039229Y-11449793D01*
X2039229Y-11449793D02*
X2029705Y-11487888D01*
X2029705Y-11487888D02*
X2020182Y-11506936D01*
X2020182Y-11506936D02*
X2010658Y-11516460D01*
X2010658Y-11516460D02*
X1991610Y-11525984D01*
X1991610Y-11525984D02*
X1972562Y-11525984D01*
X1972562Y-11525984D02*
X1953515Y-11516460D01*
X1953515Y-11516460D02*
X1943991Y-11506936D01*
X1943991Y-11506936D02*
X1934467Y-11487888D01*
X1934467Y-11487888D02*
X1924943Y-11449793D01*
X1924943Y-11449793D02*
X1924943Y-11402174D01*
X1924943Y-11402174D02*
X1934467Y-11364079D01*
X1934467Y-11364079D02*
X1943991Y-11345031D01*
X1943991Y-11345031D02*
X1953515Y-11335508D01*
X1953515Y-11335508D02*
X1972562Y-11325984D01*
X2163039Y-11325984D02*
X2182086Y-11325984D01*
X2182086Y-11325984D02*
X2201134Y-11335508D01*
X2201134Y-11335508D02*
X2210658Y-11345031D01*
X2210658Y-11345031D02*
X2220182Y-11364079D01*
X2220182Y-11364079D02*
X2229705Y-11402174D01*
X2229705Y-11402174D02*
X2229705Y-11449793D01*
X2229705Y-11449793D02*
X2220182Y-11487888D01*
X2220182Y-11487888D02*
X2210658Y-11506936D01*
X2210658Y-11506936D02*
X2201134Y-11516460D01*
X2201134Y-11516460D02*
X2182086Y-11525984D01*
X2182086Y-11525984D02*
X2163039Y-11525984D01*
X2163039Y-11525984D02*
X2143991Y-11516460D01*
X2143991Y-11516460D02*
X2134467Y-11506936D01*
X2134467Y-11506936D02*
X2124944Y-11487888D01*
X2124944Y-11487888D02*
X2115420Y-11449793D01*
X2115420Y-11449793D02*
X2115420Y-11402174D01*
X2115420Y-11402174D02*
X2124944Y-11364079D01*
X2124944Y-11364079D02*
X2134467Y-11345031D01*
X2134467Y-11345031D02*
X2143991Y-11335508D01*
X2143991Y-11335508D02*
X2163039Y-11325984D01*
X2315420Y-11525984D02*
X2315420Y-11392650D01*
X2315420Y-11411698D02*
X2324944Y-11402174D01*
X2324944Y-11402174D02*
X2343991Y-11392650D01*
X2343991Y-11392650D02*
X2372563Y-11392650D01*
X2372563Y-11392650D02*
X2391610Y-11402174D01*
X2391610Y-11402174D02*
X2401134Y-11421222D01*
X2401134Y-11421222D02*
X2401134Y-11525984D01*
X2401134Y-11421222D02*
X2410658Y-11402174D01*
X2410658Y-11402174D02*
X2429705Y-11392650D01*
X2429705Y-11392650D02*
X2458277Y-11392650D01*
X2458277Y-11392650D02*
X2477325Y-11402174D01*
X2477325Y-11402174D02*
X2486848Y-11421222D01*
X2486848Y-11421222D02*
X2486848Y-11525984D01*
X2582086Y-11525984D02*
X2582086Y-11392650D01*
X2582086Y-11411698D02*
X2591610Y-11402174D01*
X2591610Y-11402174D02*
X2610658Y-11392650D01*
X2610658Y-11392650D02*
X2639229Y-11392650D01*
X2639229Y-11392650D02*
X2658277Y-11402174D01*
X2658277Y-11402174D02*
X2667801Y-11421222D01*
X2667801Y-11421222D02*
X2667801Y-11525984D01*
X2667801Y-11421222D02*
X2677325Y-11402174D01*
X2677325Y-11402174D02*
X2696372Y-11392650D01*
X2696372Y-11392650D02*
X2724944Y-11392650D01*
X2724944Y-11392650D02*
X2743991Y-11402174D01*
X2743991Y-11402174D02*
X2753515Y-11421222D01*
X2753515Y-11421222D02*
X2753515Y-11525984D01*
X3143991Y-11316460D02*
X2972563Y-11573603D01*
X3401134Y-11325984D02*
X3420182Y-11325984D01*
X3420182Y-11325984D02*
X3439229Y-11335508D01*
X3439229Y-11335508D02*
X3448753Y-11345031D01*
X3448753Y-11345031D02*
X3458277Y-11364079D01*
X3458277Y-11364079D02*
X3467801Y-11402174D01*
X3467801Y-11402174D02*
X3467801Y-11449793D01*
X3467801Y-11449793D02*
X3458277Y-11487888D01*
X3458277Y-11487888D02*
X3448753Y-11506936D01*
X3448753Y-11506936D02*
X3439229Y-11516460D01*
X3439229Y-11516460D02*
X3420182Y-11525984D01*
X3420182Y-11525984D02*
X3401134Y-11525984D01*
X3401134Y-11525984D02*
X3382086Y-11516460D01*
X3382086Y-11516460D02*
X3372563Y-11506936D01*
X3372563Y-11506936D02*
X3363039Y-11487888D01*
X3363039Y-11487888D02*
X3353515Y-11449793D01*
X3353515Y-11449793D02*
X3353515Y-11402174D01*
X3353515Y-11402174D02*
X3363039Y-11364079D01*
X3363039Y-11364079D02*
X3372563Y-11345031D01*
X3372563Y-11345031D02*
X3382086Y-11335508D01*
X3382086Y-11335508D02*
X3401134Y-11325984D01*
X3553515Y-11506936D02*
X3563039Y-11516460D01*
X3563039Y-11516460D02*
X3553515Y-11525984D01*
X3553515Y-11525984D02*
X3543991Y-11516460D01*
X3543991Y-11516460D02*
X3553515Y-11506936D01*
X3553515Y-11506936D02*
X3553515Y-11525984D01*
X3686848Y-11325984D02*
X3705896Y-11325984D01*
X3705896Y-11325984D02*
X3724944Y-11335508D01*
X3724944Y-11335508D02*
X3734467Y-11345031D01*
X3734467Y-11345031D02*
X3743991Y-11364079D01*
X3743991Y-11364079D02*
X3753515Y-11402174D01*
X3753515Y-11402174D02*
X3753515Y-11449793D01*
X3753515Y-11449793D02*
X3743991Y-11487888D01*
X3743991Y-11487888D02*
X3734467Y-11506936D01*
X3734467Y-11506936D02*
X3724944Y-11516460D01*
X3724944Y-11516460D02*
X3705896Y-11525984D01*
X3705896Y-11525984D02*
X3686848Y-11525984D01*
X3686848Y-11525984D02*
X3667801Y-11516460D01*
X3667801Y-11516460D02*
X3658277Y-11506936D01*
X3658277Y-11506936D02*
X3648753Y-11487888D01*
X3648753Y-11487888D02*
X3639229Y-11449793D01*
X3639229Y-11449793D02*
X3639229Y-11402174D01*
X3639229Y-11402174D02*
X3648753Y-11364079D01*
X3648753Y-11364079D02*
X3658277Y-11345031D01*
X3658277Y-11345031D02*
X3667801Y-11335508D01*
X3667801Y-11335508D02*
X3686848Y-11325984D01*
X3848753Y-11525984D02*
X3886848Y-11525984D01*
X3886848Y-11525984D02*
X3905896Y-11516460D01*
X3905896Y-11516460D02*
X3915420Y-11506936D01*
X3915420Y-11506936D02*
X3934467Y-11478365D01*
X3934467Y-11478365D02*
X3943991Y-11440269D01*
X3943991Y-11440269D02*
X3943991Y-11364079D01*
X3943991Y-11364079D02*
X3934467Y-11345031D01*
X3934467Y-11345031D02*
X3924944Y-11335508D01*
X3924944Y-11335508D02*
X3905896Y-11325984D01*
X3905896Y-11325984D02*
X3867801Y-11325984D01*
X3867801Y-11325984D02*
X3848753Y-11335508D01*
X3848753Y-11335508D02*
X3839229Y-11345031D01*
X3839229Y-11345031D02*
X3829706Y-11364079D01*
X3829706Y-11364079D02*
X3829706Y-11411698D01*
X3829706Y-11411698D02*
X3839229Y-11430746D01*
X3839229Y-11430746D02*
X3848753Y-11440269D01*
X3848753Y-11440269D02*
X3867801Y-11449793D01*
X3867801Y-11449793D02*
X3905896Y-11449793D01*
X3905896Y-11449793D02*
X3924944Y-11440269D01*
X3924944Y-11440269D02*
X3934467Y-11430746D01*
X3934467Y-11430746D02*
X3943991Y-11411698D01*
X4058277Y-11411698D02*
X4039229Y-11402174D01*
X4039229Y-11402174D02*
X4029706Y-11392650D01*
X4029706Y-11392650D02*
X4020182Y-11373603D01*
X4020182Y-11373603D02*
X4020182Y-11364079D01*
X4020182Y-11364079D02*
X4029706Y-11345031D01*
X4029706Y-11345031D02*
X4039229Y-11335508D01*
X4039229Y-11335508D02*
X4058277Y-11325984D01*
X4058277Y-11325984D02*
X4096372Y-11325984D01*
X4096372Y-11325984D02*
X4115420Y-11335508D01*
X4115420Y-11335508D02*
X4124944Y-11345031D01*
X4124944Y-11345031D02*
X4134467Y-11364079D01*
X4134467Y-11364079D02*
X4134467Y-11373603D01*
X4134467Y-11373603D02*
X4124944Y-11392650D01*
X4124944Y-11392650D02*
X4115420Y-11402174D01*
X4115420Y-11402174D02*
X4096372Y-11411698D01*
X4096372Y-11411698D02*
X4058277Y-11411698D01*
X4058277Y-11411698D02*
X4039229Y-11421222D01*
X4039229Y-11421222D02*
X4029706Y-11430746D01*
X4029706Y-11430746D02*
X4020182Y-11449793D01*
X4020182Y-11449793D02*
X4020182Y-11487888D01*
X4020182Y-11487888D02*
X4029706Y-11506936D01*
X4029706Y-11506936D02*
X4039229Y-11516460D01*
X4039229Y-11516460D02*
X4058277Y-11525984D01*
X4058277Y-11525984D02*
X4096372Y-11525984D01*
X4096372Y-11525984D02*
X4115420Y-11516460D01*
X4115420Y-11516460D02*
X4124944Y-11506936D01*
X4124944Y-11506936D02*
X4134467Y-11487888D01*
X4134467Y-11487888D02*
X4134467Y-11449793D01*
X4134467Y-11449793D02*
X4124944Y-11430746D01*
X4124944Y-11430746D02*
X4115420Y-11421222D01*
X4115420Y-11421222D02*
X4096372Y-11411698D01*
X4305896Y-11392650D02*
X4305896Y-11525984D01*
X4258277Y-11316460D02*
X4210658Y-11459317D01*
X4210658Y-11459317D02*
X4334468Y-11459317D01*
X4401134Y-11325984D02*
X4401134Y-11364079D01*
X4477325Y-11325984D02*
X4477325Y-11364079D01*
X4772563Y-11602174D02*
X4763039Y-11592650D01*
X4763039Y-11592650D02*
X4743991Y-11564079D01*
X4743991Y-11564079D02*
X4734468Y-11545031D01*
X4734468Y-11545031D02*
X4724944Y-11516460D01*
X4724944Y-11516460D02*
X4715420Y-11468841D01*
X4715420Y-11468841D02*
X4715420Y-11430746D01*
X4715420Y-11430746D02*
X4724944Y-11383127D01*
X4724944Y-11383127D02*
X4734468Y-11354555D01*
X4734468Y-11354555D02*
X4743991Y-11335508D01*
X4743991Y-11335508D02*
X4763039Y-11306936D01*
X4763039Y-11306936D02*
X4772563Y-11297412D01*
X4934468Y-11392650D02*
X4934468Y-11525984D01*
X4886849Y-11316460D02*
X4839230Y-11459317D01*
X4839230Y-11459317D02*
X4963039Y-11459317D01*
X5191611Y-11525984D02*
X5191611Y-11325984D01*
X5277325Y-11525984D02*
X5277325Y-11421222D01*
X5277325Y-11421222D02*
X5267801Y-11402174D01*
X5267801Y-11402174D02*
X5248753Y-11392650D01*
X5248753Y-11392650D02*
X5220182Y-11392650D01*
X5220182Y-11392650D02*
X5201134Y-11402174D01*
X5201134Y-11402174D02*
X5191611Y-11411698D01*
X5401134Y-11525984D02*
X5382087Y-11516460D01*
X5382087Y-11516460D02*
X5372563Y-11506936D01*
X5372563Y-11506936D02*
X5363039Y-11487888D01*
X5363039Y-11487888D02*
X5363039Y-11430746D01*
X5363039Y-11430746D02*
X5372563Y-11411698D01*
X5372563Y-11411698D02*
X5382087Y-11402174D01*
X5382087Y-11402174D02*
X5401134Y-11392650D01*
X5401134Y-11392650D02*
X5429706Y-11392650D01*
X5429706Y-11392650D02*
X5448753Y-11402174D01*
X5448753Y-11402174D02*
X5458277Y-11411698D01*
X5458277Y-11411698D02*
X5467801Y-11430746D01*
X5467801Y-11430746D02*
X5467801Y-11487888D01*
X5467801Y-11487888D02*
X5458277Y-11506936D01*
X5458277Y-11506936D02*
X5448753Y-11516460D01*
X5448753Y-11516460D02*
X5429706Y-11525984D01*
X5429706Y-11525984D02*
X5401134Y-11525984D01*
X5582087Y-11525984D02*
X5563039Y-11516460D01*
X5563039Y-11516460D02*
X5553515Y-11497412D01*
X5553515Y-11497412D02*
X5553515Y-11325984D01*
X5734468Y-11516460D02*
X5715420Y-11525984D01*
X5715420Y-11525984D02*
X5677325Y-11525984D01*
X5677325Y-11525984D02*
X5658277Y-11516460D01*
X5658277Y-11516460D02*
X5648753Y-11497412D01*
X5648753Y-11497412D02*
X5648753Y-11421222D01*
X5648753Y-11421222D02*
X5658277Y-11402174D01*
X5658277Y-11402174D02*
X5677325Y-11392650D01*
X5677325Y-11392650D02*
X5715420Y-11392650D01*
X5715420Y-11392650D02*
X5734468Y-11402174D01*
X5734468Y-11402174D02*
X5743991Y-11421222D01*
X5743991Y-11421222D02*
X5743991Y-11440269D01*
X5743991Y-11440269D02*
X5648753Y-11459317D01*
X5820182Y-11516460D02*
X5839230Y-11525984D01*
X5839230Y-11525984D02*
X5877325Y-11525984D01*
X5877325Y-11525984D02*
X5896372Y-11516460D01*
X5896372Y-11516460D02*
X5905896Y-11497412D01*
X5905896Y-11497412D02*
X5905896Y-11487888D01*
X5905896Y-11487888D02*
X5896372Y-11468841D01*
X5896372Y-11468841D02*
X5877325Y-11459317D01*
X5877325Y-11459317D02*
X5848753Y-11459317D01*
X5848753Y-11459317D02*
X5829706Y-11449793D01*
X5829706Y-11449793D02*
X5820182Y-11430746D01*
X5820182Y-11430746D02*
X5820182Y-11421222D01*
X5820182Y-11421222D02*
X5829706Y-11402174D01*
X5829706Y-11402174D02*
X5848753Y-11392650D01*
X5848753Y-11392650D02*
X5877325Y-11392650D01*
X5877325Y-11392650D02*
X5896372Y-11402174D01*
X5972563Y-11602174D02*
X5982087Y-11592650D01*
X5982087Y-11592650D02*
X6001134Y-11564079D01*
X6001134Y-11564079D02*
X6010658Y-11545031D01*
X6010658Y-11545031D02*
X6020182Y-11516460D01*
X6020182Y-11516460D02*
X6029706Y-11468841D01*
X6029706Y-11468841D02*
X6029706Y-11430746D01*
X6029706Y-11430746D02*
X6020182Y-11383127D01*
X6020182Y-11383127D02*
X6010658Y-11354555D01*
X6010658Y-11354555D02*
X6001134Y-11335508D01*
X6001134Y-11335508D02*
X5982087Y-11306936D01*
X5982087Y-11306936D02*
X5972563Y-11297412D01*
M02*
