M48
; DRILL file {KiCad 9.0.0} date 2025-04-11T23:35:57+0330
; FORMAT={-:-/ absolute / metric / decimal}
; #@! TF.CreationDate,2025-04-11T23:35:57+03:30
; #@! TF.GenerationSoftware,Kicad,Pcbnew,9.0.0
; #@! TF.FileFunction,Plated,1,2,PTH
FMAT,2
METRIC
; #@! TA.AperFunction,Plated,PTH,ComponentDrill
T1C0.800
; #@! TA.AperFunction,Plated,PTH,ComponentDrill
T2C0.900
; #@! TA.AperFunction,Plated,PTH,ComponentDrill
T3C1.000
; #@! TA.AperFunction,Plated,PTH,ComponentDrill
T4C1.020
; #@! TA.AperFunction,Plated,PTH,ComponentDrill
T5C1.100
; #@! TA.AperFunction,Plated,PTH,ComponentDrill
T6C1.520
; #@! TA.AperFunction,Plated,PTH,ComponentDrill
T7C2.500
%
G90
G05
T1
X21.223Y-63.02
X21.223Y-65.52
X21.377Y-68.77
X21.377Y-72.52
X23.42Y-26.0
X23.42Y-33.88
X23.87Y-42.505
X23.87Y-45.045
X23.87Y-51.005
X23.87Y-53.545
X23.918Y-68.77
X23.918Y-72.52
X25.96Y-26.0
X25.96Y-33.88
X26.723Y-66.72
X26.723Y-69.22
X27.64Y-42.46
X27.64Y-45.0
X27.64Y-47.54
X29.0Y-38.5
X29.315Y-52.4
X29.315Y-54.9
X31.54Y-38.5
X31.92Y-18.0
X34.0Y-52.4
X34.0Y-54.9
X34.46Y-18.0
X37.0Y-18.0
X37.195Y-39.7
X37.195Y-42.24
X37.195Y-44.78
X37.195Y-47.32
X37.195Y-49.86
X37.195Y-52.4
X37.195Y-54.94
X37.195Y-57.48
X37.25Y-64.5
X37.5Y-70.0
X37.5Y-72.54
X37.5Y-75.08
X37.5Y-77.62
X37.5Y-80.16
X37.5Y-82.7
X37.5Y-85.24
X37.5Y-87.78
X38.955Y-61.27
X39.75Y-64.5
X40.75Y-36.0
X41.495Y-61.27
X42.62Y-66.0
X43.25Y-36.0
X44.315Y-61.27
X44.815Y-39.7
X44.815Y-42.24
X44.815Y-44.78
X44.815Y-47.32
X44.815Y-49.86
X44.815Y-52.4
X44.815Y-54.94
X44.815Y-57.48
X45.12Y-66.0
X45.12Y-70.0
X45.12Y-72.54
X45.12Y-75.08
X45.12Y-77.62
X45.12Y-80.16
X45.12Y-82.7
X45.12Y-85.24
X45.12Y-87.78
X45.8Y-36.0
X46.855Y-61.27
X48.3Y-36.0
X48.765Y-58.0
X48.92Y-49.75
X48.96Y-53.25
X49.0Y-39.68
X49.0Y-42.22
X49.9Y-66.29
X51.265Y-58.0
X51.46Y-49.75
X51.5Y-53.25
X52.0Y-80.455
X52.0Y-82.995
X52.44Y-66.29
X52.92Y-16.5
X52.92Y-19.04
X53.0Y-39.23
X53.0Y-41.77
X54.46Y-25.88
X54.46Y-33.5
X55.84Y-80.455
X55.84Y-82.995
X55.92Y-16.05
X55.92Y-18.59
X56.42Y-50.0
X56.42Y-56.5
X56.45Y-64.0
X57.0Y-25.88
X57.0Y-33.5
X57.0Y-39.23
X57.0Y-41.73
X58.92Y-16.05
X58.92Y-18.59
X58.96Y-50.0
X58.96Y-56.5
X58.99Y-64.0
X59.54Y-25.88
X59.54Y-33.5
X60.5Y-39.23
X60.5Y-41.73
X61.5Y-50.0
X61.5Y-56.5
X61.53Y-64.0
X62.08Y-25.88
X62.08Y-33.5
X62.42Y-16.361
X62.42Y-18.901
X64.62Y-25.88
X64.62Y-33.5
X65.42Y-16.05
X65.42Y-18.55
X65.88Y-40.38
X65.88Y-42.92
X65.88Y-45.46
X65.88Y-48.0
X65.88Y-50.54
X65.88Y-53.08
X65.88Y-55.62
X67.16Y-25.88
X67.16Y-33.5
X68.92Y-16.05
X68.92Y-18.59
X69.25Y-83.0
X69.5Y-75.0
X69.7Y-25.88
X69.7Y-33.5
X71.0Y-36.5
X71.75Y-83.0
X72.0Y-75.0
X73.5Y-31.0
X73.5Y-33.5
X73.5Y-36.5
X73.5Y-40.38
X73.5Y-42.92
X73.5Y-45.46
X73.5Y-48.0
X73.5Y-50.54
X73.5Y-53.08
X73.5Y-55.62
X81.195Y-46.19
X81.195Y-48.73
X81.195Y-51.27
X81.195Y-53.81
X82.145Y-28.876
X82.145Y-31.376
X82.395Y-26.045
X82.5Y-40.5
X83.5Y-66.0
X83.75Y-57.0
X83.8Y-19.04
X83.8Y-21.58
X84.935Y-26.045
X85.195Y-29.187
X85.195Y-31.727
X86.0Y-66.0
X86.25Y-57.0
X87.5Y-40.5
X88.505Y-28.876
X88.505Y-31.416
X88.815Y-46.19
X88.815Y-48.73
X88.815Y-51.27
X88.815Y-53.81
X89.0Y-21.005
X89.0Y-23.545
X89.0Y-26.085
X90.17Y-59.23
X90.17Y-61.73
X90.42Y-38.53
X90.42Y-41.03
X92.505Y-28.876
X92.505Y-31.416
X93.0Y-23.505
X93.0Y-26.045
X95.21Y-35.46
X95.21Y-65.652
X95.66Y-32.46
X95.66Y-68.652
X95.791Y-29.187
X97.75Y-35.46
X97.75Y-65.652
X98.0Y-74.5
X98.0Y-77.0
X98.2Y-32.46
X98.2Y-68.652
X98.331Y-29.187
X100.92Y-38.53
X100.92Y-41.03
X100.92Y-59.23
X100.92Y-61.73
X105.25Y-41.5
X105.25Y-45.51
X105.7Y-49.46
X107.75Y-41.5
X107.75Y-45.51
X108.24Y-49.46
T2
X16.725Y-26.0
X16.725Y-34.0
X16.725Y-42.44
X16.725Y-51.0
X19.265Y-26.0
X19.265Y-34.0
X19.265Y-42.44
X19.265Y-51.0
T3
X17.797Y-57.92
X17.797Y-60.46
X17.797Y-63.0
X17.797Y-65.54
X17.797Y-68.08
X17.797Y-70.62
X33.0Y-45.725
X33.0Y-48.265
X44.2Y-17.1
X46.74Y-17.1
X50.2Y-70.0
X50.46Y-76.0
X50.46Y-86.5
X52.74Y-70.0
X53.0Y-76.0
X53.0Y-86.5
X55.28Y-70.0
X55.54Y-76.0
X55.54Y-86.5
X57.82Y-70.0
X61.92Y-22.5
X64.46Y-22.5
X67.0Y-22.5
X77.5Y-48.42
X77.5Y-50.96
X77.5Y-53.5
X95.5Y-86.5
X98.0Y-86.5
T4
X107.875Y-25.54
X107.875Y-28.08
X107.875Y-30.62
X108.0Y-71.96
X108.0Y-74.5
X108.0Y-77.04
T5
X69.382Y-87.1
X71.922Y-87.1
X74.462Y-87.1
X93.42Y-39.0
X93.42Y-46.0
X93.42Y-54.5
X93.42Y-61.5
X95.71Y-39.0
X95.71Y-46.0
X95.71Y-54.5
X95.71Y-61.5
X98.0Y-39.0
X98.0Y-46.0
X98.0Y-54.5
X98.0Y-61.5
T6
X73.42Y-17.0
X78.5Y-17.0
X107.0Y-54.96
X107.0Y-60.04
T7
X19.0Y-17.5
X19.0Y-86.5
X107.0Y-17.5
X107.0Y-86.5
T3
G00X85.042Y-76.5
M15
G01X87.042Y-76.5
M16
G05
G00X85.042Y-82.5
M15
G01X87.042Y-82.5
M16
G05
G00X90.742Y-80.5
M15
G01X90.742Y-78.5
M16
G05
M30
