%TF.GenerationSoftware,KiCad,Pcbnew,9.0.0*%
%TF.CreationDate,2025-04-11T23:35:18+03:30*%
%TF.ProjectId,sstc-v3,73737463-2d76-4332-9e6b-696361645f70,rev?*%
%TF.SameCoordinates,Original*%
%TF.FileFunction,Soldermask,Top*%
%TF.FilePolarity,Negative*%
%FSLAX46Y46*%
G04 Gerber Fmt 4.6, Leading zero omitted, Abs format (unit mm)*
G04 Created by KiCad (PCBNEW 9.0.0) date 2025-04-11 23:35:18*
%MOMM*%
%LPD*%
G01*
G04 APERTURE LIST*
G04 Aperture macros list*
%AMRoundRect*
0 Rectangle with rounded corners*
0 $1 Rounding radius*
0 $2 $3 $4 $5 $6 $7 $8 $9 X,Y pos of 4 corners*
0 Add a 4 corners polygon primitive as box body*
4,1,4,$2,$3,$4,$5,$6,$7,$8,$9,$2,$3,0*
0 Add four circle primitives for the rounded corners*
1,1,$1+$1,$2,$3*
1,1,$1+$1,$4,$5*
1,1,$1+$1,$6,$7*
1,1,$1+$1,$8,$9*
0 Add four rect primitives between the rounded corners*
20,1,$1+$1,$2,$3,$4,$5,0*
20,1,$1+$1,$4,$5,$6,$7,0*
20,1,$1+$1,$6,$7,$8,$9,0*
20,1,$1+$1,$8,$9,$2,$3,0*%
G04 Aperture macros list end*
%ADD10R,1.700000X1.700000*%
%ADD11O,1.700000X1.700000*%
%ADD12R,2.030000X1.730000*%
%ADD13O,2.030000X1.730000*%
%ADD14R,1.600000X1.600000*%
%ADD15O,1.600000X1.600000*%
%ADD16C,1.600000*%
%ADD17RoundRect,0.250000X-0.550000X-0.550000X0.550000X-0.550000X0.550000X0.550000X-0.550000X0.550000X0*%
%ADD18R,3.500000X3.500000*%
%ADD19RoundRect,0.750000X1.000000X-0.750000X1.000000X0.750000X-1.000000X0.750000X-1.000000X-0.750000X0*%
%ADD20RoundRect,0.875000X0.875000X-0.875000X0.875000X0.875000X-0.875000X0.875000X-0.875000X-0.875000X0*%
%ADD21C,5.000000*%
%ADD22R,3.000000X3.000000*%
%ADD23C,3.000000*%
%ADD24R,1.500000X1.500000*%
%ADD25C,1.500000*%
%ADD26RoundRect,0.250000X-0.600000X-0.750000X0.600000X-0.750000X0.600000X0.750000X-0.600000X0.750000X0*%
%ADD27O,1.700000X2.000000*%
%ADD28R,1.717500X1.800000*%
%ADD29O,1.717500X1.800000*%
%ADD30R,1.800000X1.800000*%
%ADD31C,1.800000*%
%ADD32RoundRect,0.250000X-0.550000X0.550000X-0.550000X-0.550000X0.550000X-0.550000X0.550000X0.550000X0*%
%ADD33C,1.440000*%
%ADD34R,1.905000X2.000000*%
%ADD35O,1.905000X2.000000*%
G04 APERTURE END LIST*
D10*
%TO.C,JP1*%
X67000000Y-22500000D03*
D11*
X64460000Y-22500000D03*
X61920000Y-22500000D03*
%TD*%
D12*
%TO.C,M1*%
X108000000Y-71960000D03*
D13*
X108000000Y-74500000D03*
X108000000Y-77040000D03*
%TD*%
D14*
%TO.C,D1*%
X98330686Y-29187056D03*
D15*
X95790686Y-29187056D03*
%TD*%
D16*
%TO.C,R6*%
X88505000Y-31415685D03*
D15*
X88505000Y-28875685D03*
%TD*%
D16*
%TO.C,C6*%
X100920000Y-61730000D03*
X100920000Y-59230000D03*
%TD*%
D14*
%TO.C,C17*%
X69500000Y-75000000D03*
D16*
X72000000Y-75000000D03*
%TD*%
%TO.C,C14*%
X43250000Y-36000000D03*
X40750000Y-36000000D03*
%TD*%
%TO.C,C13*%
X34000000Y-52400000D03*
X34000000Y-54900000D03*
%TD*%
%TO.C,R14*%
X97750000Y-65651750D03*
D15*
X95210000Y-65651750D03*
%TD*%
D16*
%TO.C,R3*%
X82395000Y-26045000D03*
D15*
X84935000Y-26045000D03*
%TD*%
D16*
%TO.C,C25*%
X73500000Y-31000000D03*
X73500000Y-33500000D03*
%TD*%
%TO.C,C5*%
X26722500Y-66720000D03*
X26722500Y-69220000D03*
%TD*%
D17*
%TO.C,U5*%
X37195000Y-39700000D03*
D16*
X37195000Y-42240000D03*
X37195000Y-44780000D03*
X37195000Y-47320000D03*
X37195000Y-49860000D03*
X37195000Y-52400000D03*
X37195000Y-54940000D03*
X37195000Y-57480000D03*
X44815000Y-57480000D03*
X44815000Y-54940000D03*
X44815000Y-52400000D03*
X44815000Y-49860000D03*
X44815000Y-47320000D03*
X44815000Y-44780000D03*
X44815000Y-42240000D03*
X44815000Y-39700000D03*
%TD*%
%TO.C,C8*%
X90420000Y-38530000D03*
X90420000Y-41030000D03*
%TD*%
%TO.C,C9*%
X90170000Y-61730000D03*
X90170000Y-59230000D03*
%TD*%
D18*
%TO.C,J9*%
X86042500Y-76500000D03*
D19*
X86042500Y-82500000D03*
D20*
X90742500Y-79500000D03*
%TD*%
D16*
%TO.C,R25*%
X23870000Y-53545000D03*
D15*
X23870000Y-51005000D03*
%TD*%
D21*
%TO.C,H4*%
X19000000Y-86500000D03*
%TD*%
D16*
%TO.C,R11*%
X21377500Y-68770000D03*
D15*
X23917500Y-68770000D03*
%TD*%
D16*
%TO.C,R16*%
X48960000Y-53250000D03*
D15*
X51500000Y-53250000D03*
%TD*%
D10*
%TO.C,J12*%
X55540000Y-86500000D03*
D11*
X53000000Y-86500000D03*
X50460000Y-86500000D03*
%TD*%
D22*
%TO.C,J1*%
X78500000Y-17000000D03*
D23*
X73420000Y-17000000D03*
%TD*%
D17*
%TO.C,U4*%
X81195000Y-46190000D03*
D16*
X81195000Y-48730000D03*
X81195000Y-51270000D03*
X81195000Y-53810000D03*
X88815000Y-53810000D03*
X88815000Y-51270000D03*
X88815000Y-48730000D03*
X88815000Y-46190000D03*
%TD*%
D24*
%TO.C,Q6*%
X27640000Y-42460000D03*
D25*
X27640000Y-45000000D03*
X27640000Y-47540000D03*
%TD*%
D16*
%TO.C,R26*%
X55840000Y-80455000D03*
D15*
X55840000Y-82995000D03*
%TD*%
D14*
%TO.C,C21*%
X86000000Y-66000000D03*
D16*
X83500000Y-66000000D03*
%TD*%
D10*
%TO.C,J11*%
X55540000Y-76000000D03*
D11*
X53000000Y-76000000D03*
X50460000Y-76000000D03*
%TD*%
D16*
%TO.C,C19*%
X105250000Y-45510000D03*
X107750000Y-45510000D03*
%TD*%
%TO.C,C26*%
X42620000Y-66000000D03*
X45120000Y-66000000D03*
%TD*%
%TO.C,R17*%
X25960000Y-26000000D03*
D15*
X23420000Y-26000000D03*
%TD*%
D10*
%TO.C,J3*%
X50200000Y-70000000D03*
D11*
X52740000Y-70000000D03*
X55280000Y-70000000D03*
X57820000Y-70000000D03*
%TD*%
D12*
%TO.C,M2*%
X107875000Y-25540000D03*
D13*
X107875000Y-28080000D03*
X107875000Y-30620000D03*
%TD*%
D26*
%TO.C,J6*%
X95500000Y-86500000D03*
D27*
X98000000Y-86500000D03*
%TD*%
D16*
%TO.C,R9*%
X31540000Y-38500000D03*
D15*
X29000000Y-38500000D03*
%TD*%
D22*
%TO.C,J4*%
X107000000Y-54960000D03*
D23*
X107000000Y-60040000D03*
%TD*%
D16*
%TO.C,C4*%
X83750000Y-57000000D03*
X86250000Y-57000000D03*
%TD*%
D10*
%TO.C,J10*%
X77500000Y-48420000D03*
D11*
X77500000Y-50960000D03*
X77500000Y-53500000D03*
%TD*%
D16*
%TO.C,R2*%
X93000000Y-26045000D03*
D15*
X93000000Y-23505000D03*
%TD*%
D28*
%TO.C,Q2*%
X93420000Y-39000000D03*
D29*
X95710000Y-39000000D03*
X98000000Y-39000000D03*
%TD*%
D16*
%TO.C,R13*%
X97750000Y-35460000D03*
D15*
X95210000Y-35460000D03*
%TD*%
D17*
%TO.C,U3*%
X37500000Y-70000000D03*
D16*
X37500000Y-72540000D03*
X37500000Y-75080000D03*
X37500000Y-77620000D03*
X37500000Y-80160000D03*
X37500000Y-82700000D03*
X37500000Y-85240000D03*
X37500000Y-87780000D03*
X45120000Y-87780000D03*
X45120000Y-85240000D03*
X45120000Y-82700000D03*
X45120000Y-80160000D03*
X45120000Y-77620000D03*
X45120000Y-75080000D03*
X45120000Y-72540000D03*
X45120000Y-70000000D03*
%TD*%
%TO.C,R24*%
X52000000Y-80455000D03*
D15*
X52000000Y-82995000D03*
%TD*%
D16*
%TO.C,R27*%
X23870000Y-45045000D03*
D15*
X23870000Y-42505000D03*
%TD*%
D16*
%TO.C,C24*%
X73500000Y-36500000D03*
X71000000Y-36500000D03*
%TD*%
%TO.C,C12*%
X57000000Y-41730000D03*
X57000000Y-39230000D03*
%TD*%
D14*
%TO.C,D6*%
X98200000Y-32460000D03*
D15*
X95660000Y-32460000D03*
%TD*%
D16*
%TO.C,R18*%
X49000000Y-39680000D03*
D15*
X49000000Y-42220000D03*
%TD*%
D16*
%TO.C,R12*%
X21377500Y-72520000D03*
D15*
X23917500Y-72520000D03*
%TD*%
D16*
%TO.C,C15*%
X45800000Y-36000000D03*
X48300000Y-36000000D03*
%TD*%
D14*
%TO.C,D7*%
X98200000Y-68651750D03*
D15*
X95660000Y-68651750D03*
%TD*%
D21*
%TO.C,H2*%
X19000000Y-17500000D03*
%TD*%
D16*
%TO.C,C23*%
X21222500Y-63020000D03*
X21222500Y-65520000D03*
%TD*%
%TO.C,R7*%
X52920000Y-16500000D03*
D15*
X52920000Y-19040000D03*
%TD*%
D16*
%TO.C,C16*%
X39750000Y-64500000D03*
X37250000Y-64500000D03*
%TD*%
%TO.C,R5*%
X68920000Y-18590000D03*
D15*
X68920000Y-16050000D03*
%TD*%
D30*
%TO.C,D8*%
X16725000Y-26000000D03*
D31*
X19265000Y-26000000D03*
%TD*%
D16*
%TO.C,R20*%
X48920000Y-49750000D03*
D15*
X51460000Y-49750000D03*
%TD*%
D14*
%TO.C,D4*%
X62420000Y-18901371D03*
D15*
X62420000Y-16361371D03*
%TD*%
D16*
%TO.C,C2*%
X65420000Y-18550000D03*
X65420000Y-16050000D03*
%TD*%
%TO.C,R8*%
X58920000Y-18590000D03*
D15*
X58920000Y-16050000D03*
%TD*%
D17*
%TO.C,U1*%
X65880000Y-40380000D03*
D16*
X65880000Y-42920000D03*
X65880000Y-45460000D03*
X65880000Y-48000000D03*
X65880000Y-50540000D03*
X65880000Y-53080000D03*
X65880000Y-55620000D03*
X73500000Y-55620000D03*
X73500000Y-53080000D03*
X73500000Y-50540000D03*
X73500000Y-48000000D03*
X73500000Y-45460000D03*
X73500000Y-42920000D03*
X73500000Y-40380000D03*
%TD*%
%TO.C,R4*%
X83800000Y-19040000D03*
D15*
X83800000Y-21580000D03*
%TD*%
D16*
%TO.C,R23*%
X44315000Y-61270000D03*
D15*
X46855000Y-61270000D03*
%TD*%
D30*
%TO.C,D5*%
X16725000Y-34000000D03*
D31*
X19265000Y-34000000D03*
%TD*%
D16*
%TO.C,R19*%
X53000000Y-41770000D03*
D15*
X53000000Y-39230000D03*
%TD*%
D32*
%TO.C,U2*%
X69700000Y-25880000D03*
D16*
X67160000Y-25880000D03*
X64620000Y-25880000D03*
X62080000Y-25880000D03*
X59540000Y-25880000D03*
X57000000Y-25880000D03*
X54460000Y-25880000D03*
X54460000Y-33500000D03*
X57000000Y-33500000D03*
X59540000Y-33500000D03*
X62080000Y-33500000D03*
X64620000Y-33500000D03*
X67160000Y-33500000D03*
X69700000Y-33500000D03*
%TD*%
D33*
%TO.C,RV3*%
X56420000Y-56500000D03*
X58960000Y-56500000D03*
X61500000Y-56500000D03*
%TD*%
D16*
%TO.C,R15*%
X105700000Y-49460000D03*
D15*
X108240000Y-49460000D03*
%TD*%
D28*
%TO.C,Q3*%
X93420000Y-46000000D03*
D29*
X95710000Y-46000000D03*
X98000000Y-46000000D03*
%TD*%
D16*
%TO.C,R1*%
X92505000Y-31415685D03*
D15*
X92505000Y-28875685D03*
%TD*%
D16*
%TO.C,R10*%
X49900000Y-66290000D03*
D15*
X52440000Y-66290000D03*
%TD*%
D16*
%TO.C,C3*%
X60500000Y-39230000D03*
X60500000Y-41730000D03*
%TD*%
%TO.C,C18*%
X69250000Y-83000000D03*
X71750000Y-83000000D03*
%TD*%
D28*
%TO.C,Q4*%
X93420000Y-61500000D03*
D29*
X95710000Y-61500000D03*
X98000000Y-61500000D03*
%TD*%
D16*
%TO.C,C27*%
X29315000Y-52400000D03*
X29315000Y-54900000D03*
%TD*%
D30*
%TO.C,D10*%
X16725000Y-51000000D03*
D31*
X19265000Y-51000000D03*
%TD*%
D21*
%TO.C,H1*%
X107000000Y-17500000D03*
%TD*%
D14*
%TO.C,D2*%
X85195000Y-31727056D03*
D15*
X85195000Y-29187056D03*
%TD*%
D16*
%TO.C,C7*%
X100920000Y-38530000D03*
X100920000Y-41030000D03*
%TD*%
%TO.C,C11*%
X48765000Y-58000000D03*
X51265000Y-58000000D03*
%TD*%
%TO.C,R21*%
X25960000Y-33880000D03*
D15*
X23420000Y-33880000D03*
%TD*%
D14*
%TO.C,C22*%
X98000000Y-74500000D03*
D16*
X98000000Y-77000000D03*
%TD*%
D33*
%TO.C,RV1*%
X56450000Y-64000000D03*
X58990000Y-64000000D03*
X61530000Y-64000000D03*
%TD*%
D24*
%TO.C,Q1*%
X89000000Y-26085000D03*
D25*
X89000000Y-23545000D03*
X89000000Y-21005000D03*
%TD*%
D30*
%TO.C,D9*%
X16725000Y-42440000D03*
D31*
X19265000Y-42440000D03*
%TD*%
D14*
%TO.C,D3*%
X55920000Y-16050000D03*
D15*
X55920000Y-18590000D03*
%TD*%
D28*
%TO.C,Q5*%
X93420000Y-54500000D03*
D29*
X95710000Y-54500000D03*
X98000000Y-54500000D03*
%TD*%
D34*
%TO.C,U6*%
X74462500Y-87100000D03*
D35*
X71922500Y-87100000D03*
X69382500Y-87100000D03*
%TD*%
D16*
%TO.C,C20*%
X82500000Y-40500000D03*
X87500000Y-40500000D03*
%TD*%
D10*
%TO.C,J2*%
X46740000Y-17100000D03*
D11*
X44200000Y-17100000D03*
%TD*%
D33*
%TO.C,RV4*%
X37000000Y-18000000D03*
X34460000Y-18000000D03*
X31920000Y-18000000D03*
%TD*%
D21*
%TO.C,H3*%
X107000000Y-86500000D03*
%TD*%
D10*
%TO.C,J7*%
X33000000Y-45725000D03*
D11*
X33000000Y-48265000D03*
%TD*%
D16*
%TO.C,C10*%
X105250000Y-41500000D03*
X107750000Y-41500000D03*
%TD*%
%TO.C,R22*%
X38955000Y-61270000D03*
D15*
X41495000Y-61270000D03*
%TD*%
D33*
%TO.C,RV2*%
X56420000Y-50000000D03*
X58960000Y-50000000D03*
X61500000Y-50000000D03*
%TD*%
D16*
%TO.C,C1*%
X82145000Y-31375685D03*
X82145000Y-28875685D03*
%TD*%
D10*
%TO.C,J5*%
X17797500Y-57920000D03*
D11*
X17797500Y-60460000D03*
X17797500Y-63000000D03*
X17797500Y-65540000D03*
X17797500Y-68080000D03*
X17797500Y-70620000D03*
%TD*%
M02*
