%TF.GenerationSoftware,KiCad,Pcbnew,9.0.0*%
%TF.CreationDate,2025-04-11T23:35:18+03:30*%
%TF.ProjectId,sstc-v3,73737463-2d76-4332-9e6b-696361645f70,rev?*%
%TF.SameCoordinates,Original*%
%TF.FileFunction,Copper,L1,Top*%
%TF.FilePolarity,Positive*%
%FSLAX46Y46*%
G04 Gerber Fmt 4.6, Leading zero omitted, Abs format (unit mm)*
G04 Created by KiCad (PCBNEW 9.0.0) date 2025-04-11 23:35:18*
%MOMM*%
%LPD*%
G01*
G04 APERTURE LIST*
G04 Aperture macros list*
%AMRoundRect*
0 Rectangle with rounded corners*
0 $1 Rounding radius*
0 $2 $3 $4 $5 $6 $7 $8 $9 X,Y pos of 4 corners*
0 Add a 4 corners polygon primitive as box body*
4,1,4,$2,$3,$4,$5,$6,$7,$8,$9,$2,$3,0*
0 Add four circle primitives for the rounded corners*
1,1,$1+$1,$2,$3*
1,1,$1+$1,$4,$5*
1,1,$1+$1,$6,$7*
1,1,$1+$1,$8,$9*
0 Add four rect primitives between the rounded corners*
20,1,$1+$1,$2,$3,$4,$5,0*
20,1,$1+$1,$4,$5,$6,$7,0*
20,1,$1+$1,$6,$7,$8,$9,0*
20,1,$1+$1,$8,$9,$2,$3,0*%
G04 Aperture macros list end*
%TA.AperFunction,ComponentPad*%
%ADD10R,1.700000X1.700000*%
%TD*%
%TA.AperFunction,ComponentPad*%
%ADD11O,1.700000X1.700000*%
%TD*%
%TA.AperFunction,ComponentPad*%
%ADD12R,2.030000X1.730000*%
%TD*%
%TA.AperFunction,ComponentPad*%
%ADD13O,2.030000X1.730000*%
%TD*%
%TA.AperFunction,ComponentPad*%
%ADD14R,1.600000X1.600000*%
%TD*%
%TA.AperFunction,ComponentPad*%
%ADD15O,1.600000X1.600000*%
%TD*%
%TA.AperFunction,ComponentPad*%
%ADD16C,1.600000*%
%TD*%
%TA.AperFunction,ComponentPad*%
%ADD17RoundRect,0.250000X-0.550000X-0.550000X0.550000X-0.550000X0.550000X0.550000X-0.550000X0.550000X0*%
%TD*%
%TA.AperFunction,ComponentPad*%
%ADD18R,3.500000X3.500000*%
%TD*%
%TA.AperFunction,ComponentPad*%
%ADD19RoundRect,0.750000X1.000000X-0.750000X1.000000X0.750000X-1.000000X0.750000X-1.000000X-0.750000X0*%
%TD*%
%TA.AperFunction,ComponentPad*%
%ADD20RoundRect,0.875000X0.875000X-0.875000X0.875000X0.875000X-0.875000X0.875000X-0.875000X-0.875000X0*%
%TD*%
%TA.AperFunction,ComponentPad*%
%ADD21C,5.000000*%
%TD*%
%TA.AperFunction,ComponentPad*%
%ADD22R,3.000000X3.000000*%
%TD*%
%TA.AperFunction,ComponentPad*%
%ADD23C,3.000000*%
%TD*%
%TA.AperFunction,ComponentPad*%
%ADD24R,1.500000X1.500000*%
%TD*%
%TA.AperFunction,ComponentPad*%
%ADD25C,1.500000*%
%TD*%
%TA.AperFunction,ComponentPad*%
%ADD26RoundRect,0.250000X-0.600000X-0.750000X0.600000X-0.750000X0.600000X0.750000X-0.600000X0.750000X0*%
%TD*%
%TA.AperFunction,ComponentPad*%
%ADD27O,1.700000X2.000000*%
%TD*%
%TA.AperFunction,ComponentPad*%
%ADD28R,1.717500X1.800000*%
%TD*%
%TA.AperFunction,ComponentPad*%
%ADD29O,1.717500X1.800000*%
%TD*%
%TA.AperFunction,ComponentPad*%
%ADD30R,1.800000X1.800000*%
%TD*%
%TA.AperFunction,ComponentPad*%
%ADD31C,1.800000*%
%TD*%
%TA.AperFunction,ComponentPad*%
%ADD32RoundRect,0.250000X-0.550000X0.550000X-0.550000X-0.550000X0.550000X-0.550000X0.550000X0.550000X0*%
%TD*%
%TA.AperFunction,ComponentPad*%
%ADD33C,1.440000*%
%TD*%
%TA.AperFunction,ComponentPad*%
%ADD34R,1.905000X2.000000*%
%TD*%
%TA.AperFunction,ComponentPad*%
%ADD35O,1.905000X2.000000*%
%TD*%
%TA.AperFunction,Conductor*%
%ADD36C,1.000000*%
%TD*%
%TA.AperFunction,Conductor*%
%ADD37C,0.300000*%
%TD*%
G04 APERTURE END LIST*
D10*
%TO.P,JP1,1,A*%
%TO.N,Net-(JP1-A)*%
X67000000Y-22500000D03*
D11*
%TO.P,JP1,2,C*%
%TO.N,Net-(JP1-C)*%
X64460000Y-22500000D03*
%TO.P,JP1,3,B*%
%TO.N,Net-(JP1-B)*%
X61920000Y-22500000D03*
%TD*%
D12*
%TO.P,M1,1,-*%
%TO.N,GND*%
X108000000Y-71960000D03*
D13*
%TO.P,M1,2,+*%
%TO.N,+12V*%
X108000000Y-74500000D03*
%TO.P,M1,3,Tacho*%
%TO.N,unconnected-(M1-Tacho-Pad3)*%
X108000000Y-77040000D03*
%TD*%
D14*
%TO.P,D1,1,K*%
%TO.N,+12V*%
X98330686Y-29187056D03*
D15*
%TO.P,D1,2,A*%
%TO.N,Net-(D1-A)*%
X95790686Y-29187056D03*
%TD*%
D16*
%TO.P,R6,1*%
%TO.N,Net-(D2-K)*%
X88505000Y-31415685D03*
D15*
%TO.P,R6,2*%
%TO.N,Net-(D2-A)*%
X88505000Y-28875685D03*
%TD*%
D16*
%TO.P,C6,1*%
%TO.N,+12V*%
X100920000Y-61730000D03*
%TO.P,C6,2*%
%TO.N,GND*%
X100920000Y-59230000D03*
%TD*%
D14*
%TO.P,C17,1*%
%TO.N,+5V*%
X69500000Y-75000000D03*
D16*
%TO.P,C17,2*%
%TO.N,GND*%
X72000000Y-75000000D03*
%TD*%
%TO.P,C14,1*%
%TO.N,+5V*%
X43250000Y-36000000D03*
%TO.P,C14,2*%
%TO.N,GND*%
X40750000Y-36000000D03*
%TD*%
%TO.P,C13,1*%
%TO.N,Net-(U5-C1)*%
X34000000Y-52400000D03*
%TO.P,C13,2*%
%TO.N,Net-(U5-C2)*%
X34000000Y-54900000D03*
%TD*%
%TO.P,R14,1*%
%TO.N,+12V*%
X97750000Y-65651750D03*
D15*
%TO.P,R14,2*%
%TO.N,Net-(D7-A)*%
X95210000Y-65651750D03*
%TD*%
D16*
%TO.P,R3,1*%
%TO.N,+5V*%
X82395000Y-26045000D03*
D15*
%TO.P,R3,2*%
%TO.N,Net-(D2-A)*%
X84935000Y-26045000D03*
%TD*%
D16*
%TO.P,C25,1*%
%TO.N,GND*%
X73500000Y-31000000D03*
%TO.P,C25,2*%
%TO.N,+5V*%
X73500000Y-33500000D03*
%TD*%
%TO.P,C5,1*%
%TO.N,Net-(U3-Z1)*%
X26722500Y-66720000D03*
%TO.P,C5,2*%
%TO.N,Net-(C5-Pad2)*%
X26722500Y-69220000D03*
%TD*%
D17*
%TO.P,U5,1,PCP*%
%TO.N,unconnected-(U5-PCP-Pad1)*%
X37195000Y-39700000D03*
D16*
%TO.P,U5,2,PC1*%
%TO.N,Net-(U5-PC1)*%
X37195000Y-42240000D03*
%TO.P,U5,3,RefIn*%
%TO.N,SIGNAL*%
X37195000Y-44780000D03*
%TO.P,U5,4,FOUT*%
X37195000Y-47320000D03*
%TO.P,U5,5,Inh*%
%TO.N,GND*%
X37195000Y-49860000D03*
%TO.P,U5,6,C1*%
%TO.N,Net-(U5-C1)*%
X37195000Y-52400000D03*
%TO.P,U5,7,C2*%
%TO.N,Net-(U5-C2)*%
X37195000Y-54940000D03*
%TO.P,U5,8,VSS*%
%TO.N,GND*%
X37195000Y-57480000D03*
%TO.P,U5,9,VCOin*%
%TO.N,AUDIO*%
X44815000Y-57480000D03*
%TO.P,U5,10,SFout*%
%TO.N,unconnected-(U5-SFout-Pad10)*%
X44815000Y-54940000D03*
%TO.P,U5,11,R1*%
%TO.N,Net-(U5-R1)*%
X44815000Y-52400000D03*
%TO.P,U5,12,R2*%
%TO.N,Net-(U5-R2)*%
X44815000Y-49860000D03*
%TO.P,U5,13,PC2*%
%TO.N,unconnected-(U5-PC2-Pad13)*%
X44815000Y-47320000D03*
%TO.P,U5,14,SigIn*%
%TO.N,FEEDBACK*%
X44815000Y-44780000D03*
%TO.P,U5,15,ZOUT*%
%TO.N,unconnected-(U5-ZOUT-Pad15)*%
X44815000Y-42240000D03*
%TO.P,U5,16,VDD*%
%TO.N,+5V*%
X44815000Y-39700000D03*
%TD*%
%TO.P,C8,1*%
%TO.N,Net-(D6-A)*%
X90420000Y-38530000D03*
%TO.P,C8,2*%
%TO.N,Net-(Q3-G)*%
X90420000Y-41030000D03*
%TD*%
%TO.P,C9,1*%
%TO.N,Net-(D7-A)*%
X90170000Y-61730000D03*
%TO.P,C9,2*%
%TO.N,Net-(Q5-G)*%
X90170000Y-59230000D03*
%TD*%
D18*
%TO.P,J9,1*%
%TO.N,+12V*%
X86042500Y-76500000D03*
D19*
%TO.P,J9,2*%
%TO.N,GND*%
X86042500Y-82500000D03*
D20*
%TO.P,J9,3*%
%TO.N,N/C*%
X90742500Y-79500000D03*
%TD*%
D16*
%TO.P,R25,1*%
%TO.N,FM_MODE*%
X23870000Y-53545000D03*
D15*
%TO.P,R25,2*%
%TO.N,Net-(D10-A)*%
X23870000Y-51005000D03*
%TD*%
D21*
%TO.P,H4,1,1*%
%TO.N,GND*%
X19000000Y-86500000D03*
%TD*%
D16*
%TO.P,R11,1*%
%TO.N,AUDIO  LEFT*%
X21377500Y-68770000D03*
D15*
%TO.P,R11,2*%
%TO.N,Net-(C5-Pad2)*%
X23917500Y-68770000D03*
%TD*%
D16*
%TO.P,R16,1*%
%TO.N,Net-(U5-R1)*%
X48960000Y-53250000D03*
D15*
%TO.P,R16,2*%
%TO.N,Net-(R16-Pad2)*%
X51500000Y-53250000D03*
%TD*%
D10*
%TO.P,J12,1,Pin_1*%
%TO.N,+5V*%
X55540000Y-86500000D03*
D11*
%TO.P,J12,2,Pin_2*%
%TO.N,FM_MODE*%
X53000000Y-86500000D03*
%TO.P,J12,3,Pin_3*%
%TO.N,GND*%
X50460000Y-86500000D03*
%TD*%
D22*
%TO.P,J1,1,Pin_1*%
%TO.N,Net-(J1-Pin_1)*%
X78500000Y-17000000D03*
D23*
%TO.P,J1,2,Pin_2*%
%TO.N,GND*%
X73420000Y-17000000D03*
%TD*%
D17*
%TO.P,U4,1,NC*%
%TO.N,unconnected-(U4-NC-Pad1)*%
X81195000Y-46190000D03*
D16*
%TO.P,U4,2,IN_A*%
%TO.N,DRV2*%
X81195000Y-48730000D03*
%TO.P,U4,3,GND*%
%TO.N,GND*%
X81195000Y-51270000D03*
%TO.P,U4,4,IN_B*%
%TO.N,DRV1*%
X81195000Y-53810000D03*
%TO.P,U4,5,OUT_B*%
%TO.N,Net-(Q5-G)*%
X88815000Y-53810000D03*
%TO.P,U4,6,VDD*%
%TO.N,+12V*%
X88815000Y-51270000D03*
%TO.P,U4,7,OUT_A*%
%TO.N,Net-(Q3-G)*%
X88815000Y-48730000D03*
%TO.P,U4,8,NC*%
%TO.N,unconnected-(U4-NC-Pad8)*%
X88815000Y-46190000D03*
%TD*%
D24*
%TO.P,Q6,1,S*%
%TO.N,GND*%
X27640000Y-42460000D03*
D25*
%TO.P,Q6,2,G*%
%TO.N,INT*%
X27640000Y-45000000D03*
%TO.P,Q6,3,D*%
%TO.N,Net-(D9-K)*%
X27640000Y-47540000D03*
%TD*%
D16*
%TO.P,R26,1*%
%TO.N,CW_MODE*%
X55840000Y-80455000D03*
D15*
%TO.P,R26,2*%
%TO.N,GND*%
X55840000Y-82995000D03*
%TD*%
D14*
%TO.P,C21,1*%
%TO.N,+12V*%
X86000000Y-66000000D03*
D16*
%TO.P,C21,2*%
%TO.N,GND*%
X83500000Y-66000000D03*
%TD*%
D10*
%TO.P,J11,1,Pin_1*%
%TO.N,+5V*%
X55540000Y-76000000D03*
D11*
%TO.P,J11,2,Pin_2*%
%TO.N,CW_MODE*%
X53000000Y-76000000D03*
%TO.P,J11,3,Pin_3*%
%TO.N,GND*%
X50460000Y-76000000D03*
%TD*%
D16*
%TO.P,C19,1*%
%TO.N,Net-(Q2-D)*%
X105250000Y-45510000D03*
%TO.P,C19,2*%
%TO.N,Net-(J4-Pin_1)*%
X107750000Y-45510000D03*
%TD*%
%TO.P,C26,1*%
%TO.N,GND*%
X42620000Y-66000000D03*
%TO.P,C26,2*%
%TO.N,+5V*%
X45120000Y-66000000D03*
%TD*%
%TO.P,R17,1*%
%TO.N,TEMP_GOOD*%
X25960000Y-26000000D03*
D15*
%TO.P,R17,2*%
%TO.N,Net-(D8-A)*%
X23420000Y-26000000D03*
%TD*%
D10*
%TO.P,J3,1,Pin_1*%
%TO.N,Net-(J3-Pin_1)*%
X50200000Y-70000000D03*
D11*
%TO.P,J3,2,Pin_2*%
%TO.N,GND*%
X52740000Y-70000000D03*
%TO.P,J3,3,Pin_3*%
X55280000Y-70000000D03*
%TO.P,J3,4,Pin_4*%
%TO.N,Net-(J3-Pin_1)*%
X57820000Y-70000000D03*
%TD*%
D12*
%TO.P,M2,1,-*%
%TO.N,GND*%
X107875000Y-25540000D03*
D13*
%TO.P,M2,2,+*%
%TO.N,+12V*%
X107875000Y-28080000D03*
%TO.P,M2,3,Tacho*%
%TO.N,unconnected-(M2-Tacho-Pad3)*%
X107875000Y-30620000D03*
%TD*%
D26*
%TO.P,J6,1,Pin_1*%
%TO.N,+12V*%
X95500000Y-86500000D03*
D27*
%TO.P,J6,2,Pin_2*%
%TO.N,GND*%
X98000000Y-86500000D03*
%TD*%
D16*
%TO.P,R9,1*%
%TO.N,+5V*%
X31540000Y-38500000D03*
D15*
%TO.P,R9,2*%
%TO.N,Net-(D9-A)*%
X29000000Y-38500000D03*
%TD*%
D22*
%TO.P,J4,1,Pin_1*%
%TO.N,Net-(J4-Pin_1)*%
X107000000Y-54960000D03*
D23*
%TO.P,J4,2,Pin_2*%
%TO.N,Net-(J4-Pin_2)*%
X107000000Y-60040000D03*
%TD*%
D16*
%TO.P,C4,1*%
%TO.N,GND*%
X83750000Y-57000000D03*
%TO.P,C4,2*%
%TO.N,+12V*%
X86250000Y-57000000D03*
%TD*%
D10*
%TO.P,J10,1,Pin_1*%
%TO.N,DRV2*%
X77500000Y-48420000D03*
D11*
%TO.P,J10,2,Pin_2*%
%TO.N,GND*%
X77500000Y-50960000D03*
%TO.P,J10,3,Pin_3*%
%TO.N,DRV1*%
X77500000Y-53500000D03*
%TD*%
D16*
%TO.P,R2,1*%
%TO.N,Net-(Q1-B)*%
X93000000Y-26045000D03*
D15*
%TO.P,R2,2*%
%TO.N,GND*%
X93000000Y-23505000D03*
%TD*%
D28*
%TO.P,Q2,1,G*%
%TO.N,Net-(D6-A)*%
X93420000Y-39000000D03*
D29*
%TO.P,Q2,2,D*%
%TO.N,Net-(Q2-D)*%
X95710000Y-39000000D03*
%TO.P,Q2,3,S*%
%TO.N,+12V*%
X98000000Y-39000000D03*
%TD*%
D16*
%TO.P,R13,1*%
%TO.N,+12V*%
X97750000Y-35460000D03*
D15*
%TO.P,R13,2*%
%TO.N,Net-(D6-A)*%
X95210000Y-35460000D03*
%TD*%
D17*
%TO.P,U3,1,Y1*%
%TO.N,GND*%
X37500000Y-70000000D03*
D16*
%TO.P,U3,2,Y0*%
X37500000Y-72540000D03*
%TO.P,U3,3,Z1*%
%TO.N,Net-(U3-Z1)*%
X37500000Y-75080000D03*
%TO.P,U3,4,Z*%
%TO.N,AUDIO*%
X37500000Y-77620000D03*
%TO.P,U3,5,Z0*%
%TO.N,unconnected-(U3-Z0-Pad5)*%
X37500000Y-80160000D03*
%TO.P,U3,6,Inh*%
%TO.N,GND*%
X37500000Y-82700000D03*
%TO.P,U3,7,VEE*%
X37500000Y-85240000D03*
%TO.P,U3,8,VSS*%
X37500000Y-87780000D03*
%TO.P,U3,9,C*%
X45120000Y-87780000D03*
%TO.P,U3,10,B*%
%TO.N,FM_MODE*%
X45120000Y-85240000D03*
%TO.P,U3,11,A*%
%TO.N,CW_MODE*%
X45120000Y-82700000D03*
%TO.P,U3,12,X0*%
%TO.N,Net-(J3-Pin_1)*%
X45120000Y-80160000D03*
%TO.P,U3,13,X1*%
%TO.N,+5V*%
X45120000Y-77620000D03*
%TO.P,U3,14,X*%
%TO.N,INT*%
X45120000Y-75080000D03*
%TO.P,U3,15,Y*%
%TO.N,GND*%
X45120000Y-72540000D03*
%TO.P,U3,16,VDD*%
%TO.N,+5V*%
X45120000Y-70000000D03*
%TD*%
%TO.P,R24,1*%
%TO.N,FM_MODE*%
X52000000Y-80455000D03*
D15*
%TO.P,R24,2*%
%TO.N,GND*%
X52000000Y-82995000D03*
%TD*%
D16*
%TO.P,R27,1*%
%TO.N,INT*%
X23870000Y-45045000D03*
D15*
%TO.P,R27,2*%
%TO.N,GND*%
X23870000Y-42505000D03*
%TD*%
D16*
%TO.P,C24,1*%
%TO.N,+5V*%
X73500000Y-36500000D03*
%TO.P,C24,2*%
%TO.N,GND*%
X71000000Y-36500000D03*
%TD*%
%TO.P,C12,1*%
%TO.N,FEEDBACK*%
X57000000Y-41730000D03*
%TO.P,C12,2*%
%TO.N,GND*%
X57000000Y-39230000D03*
%TD*%
D14*
%TO.P,D6,1,K*%
%TO.N,+12V*%
X98200000Y-32460000D03*
D15*
%TO.P,D6,2,A*%
%TO.N,Net-(D6-A)*%
X95660000Y-32460000D03*
%TD*%
D16*
%TO.P,R18,1*%
%TO.N,+5V*%
X49000000Y-39680000D03*
D15*
%TO.P,R18,2*%
%TO.N,FEEDBACK*%
X49000000Y-42220000D03*
%TD*%
D16*
%TO.P,R12,1*%
%TO.N,AUDIO  RIGHT*%
X21377500Y-72520000D03*
D15*
%TO.P,R12,2*%
%TO.N,Net-(C5-Pad2)*%
X23917500Y-72520000D03*
%TD*%
D16*
%TO.P,C15,1*%
%TO.N,+5V*%
X45800000Y-36000000D03*
%TO.P,C15,2*%
%TO.N,GND*%
X48300000Y-36000000D03*
%TD*%
D14*
%TO.P,D7,1,K*%
%TO.N,+12V*%
X98200000Y-68651750D03*
D15*
%TO.P,D7,2,A*%
%TO.N,Net-(D7-A)*%
X95660000Y-68651750D03*
%TD*%
D21*
%TO.P,H2,1,1*%
%TO.N,GND*%
X19000000Y-17500000D03*
%TD*%
D16*
%TO.P,C23,1*%
%TO.N,+5V*%
X21222500Y-63020000D03*
%TO.P,C23,2*%
%TO.N,GND*%
X21222500Y-65520000D03*
%TD*%
%TO.P,R7,1*%
%TO.N,+5V*%
X52920000Y-16500000D03*
D15*
%TO.P,R7,2*%
%TO.N,Net-(D3-A)*%
X52920000Y-19040000D03*
%TD*%
D16*
%TO.P,C16,1*%
%TO.N,AUDIO*%
X39750000Y-64500000D03*
%TO.P,C16,2*%
%TO.N,GND*%
X37250000Y-64500000D03*
%TD*%
%TO.P,R5,1*%
%TO.N,Net-(C2-Pad2)*%
X68920000Y-18590000D03*
D15*
%TO.P,R5,2*%
%TO.N,Net-(J1-Pin_1)*%
X68920000Y-16050000D03*
%TD*%
D30*
%TO.P,D8,1,K*%
%TO.N,GND*%
X16725000Y-26000000D03*
D31*
%TO.P,D8,2,A*%
%TO.N,Net-(D8-A)*%
X19265000Y-26000000D03*
%TD*%
D16*
%TO.P,R20,1*%
%TO.N,Net-(U5-R2)*%
X48920000Y-49750000D03*
D15*
%TO.P,R20,2*%
%TO.N,Net-(R20-Pad2)*%
X51460000Y-49750000D03*
%TD*%
D14*
%TO.P,D4,1,K*%
%TO.N,Net-(D3-A)*%
X62420000Y-18901371D03*
D15*
%TO.P,D4,2,A*%
%TO.N,GND*%
X62420000Y-16361371D03*
%TD*%
D16*
%TO.P,C2,1*%
%TO.N,Net-(D3-A)*%
X65420000Y-18550000D03*
%TO.P,C2,2*%
%TO.N,Net-(C2-Pad2)*%
X65420000Y-16050000D03*
%TD*%
%TO.P,R8,1*%
%TO.N,Net-(D3-A)*%
X58920000Y-18590000D03*
D15*
%TO.P,R8,2*%
%TO.N,GND*%
X58920000Y-16050000D03*
%TD*%
D17*
%TO.P,U1,1*%
%TO.N,TEMP_GOOD*%
X65880000Y-40380000D03*
D16*
%TO.P,U1,2*%
%TO.N,POWER_GOOD*%
X65880000Y-42920000D03*
%TO.P,U1,3*%
%TO.N,Net-(U1-Pad3)*%
X65880000Y-45460000D03*
%TO.P,U1,4*%
X65880000Y-48000000D03*
%TO.P,U1,5*%
%TO.N,INT*%
X65880000Y-50540000D03*
%TO.P,U1,6*%
%TO.N,Net-(U1-Pad10)*%
X65880000Y-53080000D03*
%TO.P,U1,7,GND*%
%TO.N,GND*%
X65880000Y-55620000D03*
%TO.P,U1,8*%
%TO.N,DRV1*%
X73500000Y-55620000D03*
%TO.P,U1,9*%
%TO.N,Net-(U1-Pad9)*%
X73500000Y-53080000D03*
%TO.P,U1,10*%
%TO.N,Net-(U1-Pad10)*%
X73500000Y-50540000D03*
%TO.P,U1,11*%
%TO.N,DRV2*%
X73500000Y-48000000D03*
%TO.P,U1,12*%
%TO.N,Net-(U1-Pad10)*%
X73500000Y-45460000D03*
%TO.P,U1,13*%
%TO.N,SIGNAL*%
X73500000Y-42920000D03*
%TO.P,U1,14,VCC*%
%TO.N,+5V*%
X73500000Y-40380000D03*
%TD*%
%TO.P,R4,1*%
%TO.N,Net-(J1-Pin_1)*%
X83800000Y-19040000D03*
D15*
%TO.P,R4,2*%
%TO.N,GND*%
X83800000Y-21580000D03*
%TD*%
D16*
%TO.P,R23,1*%
%TO.N,AUDIO*%
X44315000Y-61270000D03*
D15*
%TO.P,R23,2*%
%TO.N,Net-(R23-Pad2)*%
X46855000Y-61270000D03*
%TD*%
D30*
%TO.P,D5,1,K*%
%TO.N,GND*%
X16725000Y-34000000D03*
D31*
%TO.P,D5,2,A*%
%TO.N,Net-(D5-A)*%
X19265000Y-34000000D03*
%TD*%
D16*
%TO.P,R19,1*%
%TO.N,FEEDBACK*%
X53000000Y-41770000D03*
D15*
%TO.P,R19,2*%
%TO.N,GND*%
X53000000Y-39230000D03*
%TD*%
D32*
%TO.P,U2,1*%
%TO.N,Net-(D3-A)*%
X69700000Y-25880000D03*
D16*
%TO.P,U2,2*%
%TO.N,Net-(JP1-A)*%
X67160000Y-25880000D03*
%TO.P,U2,3*%
X64620000Y-25880000D03*
%TO.P,U2,4*%
%TO.N,Net-(JP1-B)*%
X62080000Y-25880000D03*
%TO.P,U2,5*%
%TO.N,Net-(J2-Pin_2)*%
X59540000Y-25880000D03*
%TO.P,U2,6*%
%TO.N,TEMP_GOOD*%
X57000000Y-25880000D03*
%TO.P,U2,7,GND*%
%TO.N,GND*%
X54460000Y-25880000D03*
%TO.P,U2,8*%
%TO.N,Net-(U1-Pad9)*%
X54460000Y-33500000D03*
%TO.P,U2,9*%
%TO.N,SIGNAL*%
X57000000Y-33500000D03*
%TO.P,U2,10*%
%TO.N,POWER_GOOD*%
X59540000Y-33500000D03*
%TO.P,U2,11*%
%TO.N,Net-(D2-K)*%
X62080000Y-33500000D03*
%TO.P,U2,12*%
%TO.N,unconnected-(U2-Pad12)*%
X64620000Y-33500000D03*
%TO.P,U2,13*%
%TO.N,+5V*%
X67160000Y-33500000D03*
%TO.P,U2,14,VCC*%
X69700000Y-33500000D03*
%TD*%
D33*
%TO.P,RV3,1,1*%
%TO.N,Net-(R16-Pad2)*%
X56420000Y-56500000D03*
%TO.P,RV3,2,2*%
%TO.N,GND*%
X58960000Y-56500000D03*
%TO.P,RV3,3,3*%
X61500000Y-56500000D03*
%TD*%
D16*
%TO.P,R15,1*%
%TO.N,Net-(Q2-D)*%
X105700000Y-49460000D03*
D15*
%TO.P,R15,2*%
%TO.N,Net-(J4-Pin_1)*%
X108240000Y-49460000D03*
%TD*%
D28*
%TO.P,Q3,1,G*%
%TO.N,Net-(Q3-G)*%
X93420000Y-46000000D03*
D29*
%TO.P,Q3,2,D*%
%TO.N,Net-(Q2-D)*%
X95710000Y-46000000D03*
%TO.P,Q3,3,S*%
%TO.N,GND*%
X98000000Y-46000000D03*
%TD*%
D16*
%TO.P,R1,1*%
%TO.N,Net-(D1-A)*%
X92505000Y-31415685D03*
D15*
%TO.P,R1,2*%
%TO.N,Net-(Q1-B)*%
X92505000Y-28875685D03*
%TD*%
D16*
%TO.P,R10,1*%
%TO.N,Net-(J3-Pin_1)*%
X49900000Y-66290000D03*
D15*
%TO.P,R10,2*%
%TO.N,GND*%
X52440000Y-66290000D03*
%TD*%
D16*
%TO.P,C3,1*%
%TO.N,Net-(JP1-C)*%
X60500000Y-39230000D03*
%TO.P,C3,2*%
%TO.N,FEEDBACK*%
X60500000Y-41730000D03*
%TD*%
%TO.P,C18,1*%
%TO.N,+5V*%
X69250000Y-83000000D03*
%TO.P,C18,2*%
%TO.N,GND*%
X71750000Y-83000000D03*
%TD*%
D28*
%TO.P,Q4,1,G*%
%TO.N,Net-(D7-A)*%
X93420000Y-61500000D03*
D29*
%TO.P,Q4,2,D*%
%TO.N,Net-(J4-Pin_2)*%
X95710000Y-61500000D03*
%TO.P,Q4,3,S*%
%TO.N,+12V*%
X98000000Y-61500000D03*
%TD*%
D16*
%TO.P,C27,1*%
%TO.N,Net-(U5-C1)*%
X29315000Y-52400000D03*
%TO.P,C27,2*%
%TO.N,Net-(U5-C2)*%
X29315000Y-54900000D03*
%TD*%
D30*
%TO.P,D10,1,K*%
%TO.N,GND*%
X16725000Y-51000000D03*
D31*
%TO.P,D10,2,A*%
%TO.N,Net-(D10-A)*%
X19265000Y-51000000D03*
%TD*%
D21*
%TO.P,H1,1,1*%
%TO.N,GND*%
X107000000Y-17500000D03*
%TD*%
D14*
%TO.P,D2,1,K*%
%TO.N,Net-(D2-K)*%
X85195000Y-31727056D03*
D15*
%TO.P,D2,2,A*%
%TO.N,Net-(D2-A)*%
X85195000Y-29187056D03*
%TD*%
D16*
%TO.P,C7,1*%
%TO.N,+12V*%
X100920000Y-38530000D03*
%TO.P,C7,2*%
%TO.N,GND*%
X100920000Y-41030000D03*
%TD*%
%TO.P,C11,1*%
%TO.N,Net-(U5-R1)*%
X48765000Y-58000000D03*
%TO.P,C11,2*%
%TO.N,GND*%
X51265000Y-58000000D03*
%TD*%
%TO.P,R21,1*%
%TO.N,POWER_GOOD*%
X25960000Y-33880000D03*
D15*
%TO.P,R21,2*%
%TO.N,Net-(D5-A)*%
X23420000Y-33880000D03*
%TD*%
D14*
%TO.P,C22,1*%
%TO.N,+12V*%
X98000000Y-74500000D03*
D16*
%TO.P,C22,2*%
%TO.N,GND*%
X98000000Y-77000000D03*
%TD*%
D33*
%TO.P,RV1,1,1*%
%TO.N,+5V*%
X56450000Y-64000000D03*
%TO.P,RV1,2,2*%
%TO.N,Net-(R23-Pad2)*%
X58990000Y-64000000D03*
%TO.P,RV1,3,3*%
%TO.N,GND*%
X61530000Y-64000000D03*
%TD*%
D24*
%TO.P,Q1,1,C*%
%TO.N,Net-(D2-A)*%
X89000000Y-26085000D03*
D25*
%TO.P,Q1,2,B*%
%TO.N,Net-(Q1-B)*%
X89000000Y-23545000D03*
%TO.P,Q1,3,E*%
%TO.N,GND*%
X89000000Y-21005000D03*
%TD*%
D30*
%TO.P,D9,1,K*%
%TO.N,Net-(D9-K)*%
X16725000Y-42440000D03*
D31*
%TO.P,D9,2,A*%
%TO.N,Net-(D9-A)*%
X19265000Y-42440000D03*
%TD*%
D14*
%TO.P,D3,1,K*%
%TO.N,+5V*%
X55920000Y-16050000D03*
D15*
%TO.P,D3,2,A*%
%TO.N,Net-(D3-A)*%
X55920000Y-18590000D03*
%TD*%
D28*
%TO.P,Q5,1,G*%
%TO.N,Net-(Q5-G)*%
X93420000Y-54500000D03*
D29*
%TO.P,Q5,2,D*%
%TO.N,Net-(J4-Pin_2)*%
X95710000Y-54500000D03*
%TO.P,Q5,3,S*%
%TO.N,GND*%
X98000000Y-54500000D03*
%TD*%
D34*
%TO.P,U6,1,VI*%
%TO.N,+12V*%
X74462500Y-87100000D03*
D35*
%TO.P,U6,2,GND*%
%TO.N,GND*%
X71922500Y-87100000D03*
%TO.P,U6,3,VO*%
%TO.N,+5V*%
X69382500Y-87100000D03*
%TD*%
D16*
%TO.P,C20,1*%
%TO.N,GND*%
X82500000Y-40500000D03*
%TO.P,C20,2*%
%TO.N,+12V*%
X87500000Y-40500000D03*
%TD*%
D10*
%TO.P,J2,1,Pin_1*%
%TO.N,+5V*%
X46740000Y-17100000D03*
D11*
%TO.P,J2,2,Pin_2*%
%TO.N,Net-(J2-Pin_2)*%
X44200000Y-17100000D03*
%TD*%
D33*
%TO.P,RV4,1,1*%
%TO.N,Net-(J2-Pin_2)*%
X37000000Y-18000000D03*
%TO.P,RV4,2,2*%
%TO.N,GND*%
X34460000Y-18000000D03*
%TO.P,RV4,3,3*%
X31920000Y-18000000D03*
%TD*%
D21*
%TO.P,H3,1,1*%
%TO.N,GND*%
X107000000Y-86500000D03*
%TD*%
D10*
%TO.P,J7,1,Pin_1*%
%TO.N,SIGNAL*%
X33000000Y-45725000D03*
D11*
%TO.P,J7,2,Pin_2*%
%TO.N,GND*%
X33000000Y-48265000D03*
%TD*%
D16*
%TO.P,C10,1*%
%TO.N,Net-(Q2-D)*%
X105250000Y-41500000D03*
%TO.P,C10,2*%
%TO.N,Net-(J4-Pin_1)*%
X107750000Y-41500000D03*
%TD*%
%TO.P,R22,1*%
%TO.N,Net-(U5-PC1)*%
X38955000Y-61270000D03*
D15*
%TO.P,R22,2*%
%TO.N,AUDIO*%
X41495000Y-61270000D03*
%TD*%
D33*
%TO.P,RV2,1,1*%
%TO.N,Net-(R20-Pad2)*%
X56420000Y-50000000D03*
%TO.P,RV2,2,2*%
%TO.N,GND*%
X58960000Y-50000000D03*
%TO.P,RV2,3,3*%
X61500000Y-50000000D03*
%TD*%
D16*
%TO.P,C1,1*%
%TO.N,Net-(D2-K)*%
X82145000Y-31375685D03*
%TO.P,C1,2*%
%TO.N,+5V*%
X82145000Y-28875685D03*
%TD*%
D10*
%TO.P,J5,1,Pin_1*%
%TO.N,unconnected-(J5-Pin_1-Pad1)*%
X17797500Y-57920000D03*
D11*
%TO.P,J5,2,Pin_2*%
%TO.N,unconnected-(J5-Pin_2-Pad2)*%
X17797500Y-60460000D03*
%TO.P,J5,3,Pin_3*%
%TO.N,+5V*%
X17797500Y-63000000D03*
%TO.P,J5,4,Pin_4*%
%TO.N,GND*%
X17797500Y-65540000D03*
%TO.P,J5,5,Pin_5*%
%TO.N,AUDIO  LEFT*%
X17797500Y-68080000D03*
%TO.P,J5,6,Pin_6*%
%TO.N,AUDIO  RIGHT*%
X17797500Y-70620000D03*
%TD*%
D36*
%TO.N,+12V*%
X95500000Y-86500000D02*
X95000000Y-86000000D01*
X95000000Y-86000000D02*
X95000000Y-76000000D01*
X95000000Y-76000000D02*
X96500000Y-74500000D01*
X98200000Y-73000000D02*
X98000000Y-73000000D01*
X98000000Y-73000000D02*
X96500000Y-74500000D01*
X98200000Y-73000000D02*
X98200000Y-74300000D01*
X99500000Y-74500000D02*
X100500000Y-74500000D01*
X98200000Y-73000000D02*
X98200000Y-73200000D01*
X98200000Y-73200000D02*
X99500000Y-74500000D01*
X86250000Y-52500000D02*
X86250000Y-56000000D01*
X86250000Y-52500000D02*
X86290000Y-52500000D01*
X86250000Y-51500000D02*
X86250000Y-52500000D01*
X86250000Y-50000000D02*
X86250000Y-41750000D01*
X87520000Y-51270000D02*
X88815000Y-51270000D01*
X86250000Y-56000000D02*
X86250000Y-57805000D01*
X86250000Y-56000000D02*
X86250000Y-50000000D01*
X86250000Y-41750000D02*
X87500000Y-40500000D01*
%TO.N,+5V*%
X86500000Y-17500000D02*
X86500000Y-21940000D01*
X45800000Y-18200000D02*
X45800000Y-36000000D01*
X30740001Y-47759999D02*
X26500000Y-52000000D01*
X56140000Y-87100000D02*
X55540000Y-86500000D01*
X43519000Y-71601000D02*
X45120000Y-70000000D01*
X47120000Y-64000000D02*
X56450000Y-64000000D01*
X59471000Y-67021000D02*
X59471000Y-75741500D01*
X30740001Y-39299999D02*
X30740001Y-47759999D01*
X43519000Y-76019000D02*
X43519000Y-71601000D01*
X26500000Y-52000000D02*
X26500000Y-63020000D01*
X56450000Y-64000000D02*
X59471000Y-67021000D01*
X73500000Y-36500000D02*
X73500000Y-35000000D01*
X44815000Y-37500000D02*
X44815000Y-36315000D01*
X45120000Y-70000000D02*
X45120000Y-66000000D01*
X44815000Y-39700000D02*
X48980000Y-39700000D01*
X82395000Y-26045000D02*
X82395000Y-28625685D01*
X69382500Y-44497500D02*
X73500000Y-40380000D01*
X47790000Y-16050000D02*
X46740000Y-17100000D01*
X57521000Y-14449000D02*
X83449000Y-14449000D01*
X59471000Y-75741500D02*
X59212500Y-76000000D01*
X32339999Y-37700001D02*
X44614999Y-37700001D01*
X72000000Y-33500000D02*
X73500000Y-33500000D01*
X55920000Y-16050000D02*
X57521000Y-14449000D01*
X26500000Y-63020000D02*
X30121000Y-63020000D01*
X59212500Y-76000000D02*
X60212500Y-75000000D01*
X86500000Y-21940000D02*
X82395000Y-26045000D01*
X67160000Y-33500000D02*
X72000000Y-33500000D01*
X60212500Y-75000000D02*
X69500000Y-75000000D01*
X73500000Y-35000000D02*
X73500000Y-33500000D01*
X45120000Y-66000000D02*
X47120000Y-64000000D01*
X69382500Y-87100000D02*
X69382500Y-44497500D01*
X21222500Y-63020000D02*
X26500000Y-63020000D01*
X44815000Y-39700000D02*
X44815000Y-37500000D01*
X44614999Y-37700001D02*
X44815000Y-37500000D01*
X55540000Y-76000000D02*
X59212500Y-76000000D01*
X55920000Y-16050000D02*
X47790000Y-16050000D01*
X46740000Y-17260000D02*
X45800000Y-18200000D01*
X82395000Y-28625685D02*
X82145000Y-28875685D01*
X30121000Y-63020000D02*
X35500000Y-68399000D01*
X73500000Y-40380000D02*
X73500000Y-35000000D01*
X17797500Y-63000000D02*
X21202500Y-63000000D01*
X44500000Y-36000000D02*
X45800000Y-36000000D01*
X45120000Y-77620000D02*
X43519000Y-76019000D01*
X77520685Y-33500000D02*
X72000000Y-33500000D01*
X83449000Y-14449000D02*
X86500000Y-17500000D01*
X31540000Y-38500000D02*
X32339999Y-37700001D01*
X43250000Y-36000000D02*
X44500000Y-36000000D01*
X44815000Y-36315000D02*
X44500000Y-36000000D01*
X69382500Y-87100000D02*
X56140000Y-87100000D01*
X31540000Y-38500000D02*
X30740001Y-39299999D01*
X45120000Y-70000000D02*
X43519000Y-68399000D01*
X82145000Y-28875685D02*
X77520685Y-33500000D01*
X43519000Y-68399000D02*
X35500000Y-68399000D01*
D37*
%TO.N,Net-(D2-K)*%
X88505000Y-31415685D02*
X82185000Y-31415685D01*
%TO.N,Net-(D3-A)*%
X65420000Y-18550000D02*
X53410000Y-18550000D01*
X66050000Y-18550000D02*
X69700000Y-22200000D01*
X69700000Y-22200000D02*
X69700000Y-25880000D01*
X53410000Y-18550000D02*
X52920000Y-19040000D01*
%TO.N,Net-(C2-Pad2)*%
X68920000Y-18590000D02*
X66380000Y-16050000D01*
X66380000Y-16050000D02*
X65420000Y-16050000D01*
%TO.N,FEEDBACK*%
X47865000Y-41730000D02*
X44815000Y-44780000D01*
X60500000Y-41730000D02*
X47865000Y-41730000D01*
%TO.N,Net-(JP1-C)*%
X64460000Y-22500000D02*
X62960000Y-21000000D01*
X55500000Y-21000000D02*
X52000000Y-24500000D01*
X52000000Y-24500000D02*
X52000000Y-34500000D01*
X55000000Y-37500000D02*
X58770000Y-37500000D01*
X58770000Y-37500000D02*
X60500000Y-39230000D01*
X62960000Y-21000000D02*
X55500000Y-21000000D01*
X52000000Y-34500000D02*
X55000000Y-37500000D01*
D36*
%TO.N,+12V*%
X107875000Y-28080000D02*
X109080000Y-28080000D01*
X98330686Y-38669314D02*
X98000000Y-39000000D01*
X108942000Y-74500000D02*
X108000000Y-74500000D01*
X100500000Y-74500000D02*
X108000000Y-74500000D01*
X94500000Y-76500000D02*
X96500000Y-74500000D01*
X98000000Y-61500000D02*
X98000000Y-68451750D01*
X98330686Y-29187056D02*
X98330686Y-38669314D01*
X100920000Y-61730000D02*
X98230000Y-61730000D01*
X98000000Y-74500000D02*
X99500000Y-74500000D01*
X96500000Y-74500000D02*
X98000000Y-74500000D01*
X110000000Y-73442000D02*
X108942000Y-74500000D01*
X110000000Y-29000000D02*
X110000000Y-73442000D01*
X98470000Y-38530000D02*
X98000000Y-39000000D01*
X100920000Y-38530000D02*
X98470000Y-38530000D01*
X98200000Y-68651750D02*
X98200000Y-73000000D01*
X100500000Y-74500000D02*
X102621000Y-72379000D01*
X85062500Y-76500000D02*
X74462500Y-87100000D01*
X100920000Y-38530000D02*
X102621000Y-40231000D01*
X109080000Y-28080000D02*
X110000000Y-29000000D01*
X102621000Y-40231000D02*
X102621000Y-72379000D01*
X86042500Y-76500000D02*
X94500000Y-76500000D01*
X86250000Y-57805000D02*
X86250000Y-76292500D01*
D37*
%TO.N,Net-(C5-Pad2)*%
X23917500Y-68770000D02*
X23917500Y-72520000D01*
X23917500Y-68770000D02*
X26272500Y-68770000D01*
%TO.N,Net-(Q3-G)*%
X88815000Y-48730000D02*
X90690000Y-48730000D01*
X90420000Y-42920000D02*
X90420000Y-41030000D01*
X93420000Y-45920000D02*
X90420000Y-42920000D01*
X90690000Y-48730000D02*
X93420000Y-46000000D01*
%TO.N,Net-(D6-A)*%
X90420000Y-38530000D02*
X92950000Y-38530000D01*
X95210000Y-35460000D02*
X95210000Y-32910000D01*
X93420000Y-37250000D02*
X95210000Y-35460000D01*
X93420000Y-39000000D02*
X93420000Y-37250000D01*
%TO.N,Net-(D7-A)*%
X90170000Y-61730000D02*
X93190000Y-61730000D01*
X95660000Y-63740000D02*
X93420000Y-61500000D01*
X95660000Y-68651750D02*
X95660000Y-63740000D01*
%TO.N,Net-(Q5-G)*%
X88815000Y-53810000D02*
X92730000Y-53810000D01*
X93420000Y-55980000D02*
X90170000Y-59230000D01*
X93420000Y-54500000D02*
X93420000Y-55980000D01*
%TO.N,Net-(U5-R1)*%
X48110000Y-52400000D02*
X48960000Y-53250000D01*
X48765000Y-58000000D02*
X48765000Y-53445000D01*
X44815000Y-52400000D02*
X48110000Y-52400000D01*
%TO.N,Net-(U5-C1)*%
X29315000Y-52400000D02*
X37195000Y-52400000D01*
%TO.N,Net-(U5-C2)*%
X29315000Y-54900000D02*
X37155000Y-54900000D01*
%TO.N,AUDIO*%
X39750000Y-64500000D02*
X39750000Y-63015000D01*
X39750000Y-63015000D02*
X41495000Y-61270000D01*
X44815000Y-57480000D02*
X44815000Y-60770000D01*
X41495000Y-61270000D02*
X44315000Y-61270000D01*
X44815000Y-60770000D02*
X44315000Y-61270000D01*
%TO.N,Net-(D1-A)*%
X93562057Y-31415685D02*
X92505000Y-31415685D01*
X95790686Y-29187056D02*
X93562057Y-31415685D01*
%TO.N,Net-(D2-A)*%
X89000000Y-26085000D02*
X89000000Y-28380685D01*
X85195000Y-29187056D02*
X85195000Y-26305000D01*
X89000000Y-28380685D02*
X88505000Y-28875685D01*
X88505000Y-28875685D02*
X85506371Y-28875685D01*
%TO.N,Net-(J1-Pin_1)*%
X83800000Y-19040000D02*
X80540000Y-19040000D01*
X71821000Y-18951000D02*
X68920000Y-16050000D01*
X80540000Y-19040000D02*
X78500000Y-17000000D01*
X76549000Y-18951000D02*
X71821000Y-18951000D01*
X78500000Y-17000000D02*
X76549000Y-18951000D01*
%TO.N,Net-(J3-Pin_1)*%
X51700000Y-71500000D02*
X50200000Y-70000000D01*
X56320000Y-71500000D02*
X51700000Y-71500000D01*
X50200000Y-70000000D02*
X50200000Y-69200000D01*
X49900000Y-68900000D02*
X49900000Y-66290000D01*
X47500000Y-77780000D02*
X47500000Y-72700000D01*
X50200000Y-69200000D02*
X49900000Y-68900000D01*
X45120000Y-80160000D02*
X47500000Y-77780000D01*
X57820000Y-70000000D02*
X56320000Y-71500000D01*
X47500000Y-72700000D02*
X50200000Y-70000000D01*
%TO.N,AUDIO  RIGHT*%
X21377500Y-72520000D02*
X19697500Y-72520000D01*
X19697500Y-72520000D02*
X17797500Y-70620000D01*
%TO.N,AUDIO  LEFT*%
X21377500Y-68770000D02*
X18487500Y-68770000D01*
X18487500Y-68770000D02*
X17797500Y-68080000D01*
%TO.N,FM_MODE*%
X52000000Y-80455000D02*
X54000000Y-82455000D01*
X49905000Y-80455000D02*
X45120000Y-85240000D01*
X23870000Y-53545000D02*
X19570500Y-53545000D01*
X45120000Y-85240000D02*
X43869000Y-83989000D01*
X54000000Y-85500000D02*
X53000000Y-86500000D01*
X19570500Y-53545000D02*
X16496500Y-56619000D01*
X29326608Y-83989000D02*
X16496500Y-71158892D01*
X52000000Y-80455000D02*
X49905000Y-80455000D01*
X54000000Y-82455000D02*
X54000000Y-85500000D01*
X16496500Y-71158892D02*
X16496500Y-56619000D01*
X43869000Y-83989000D02*
X29326608Y-83989000D01*
%TO.N,CW_MODE*%
X55840000Y-80455000D02*
X55840000Y-78840000D01*
X53000000Y-76000000D02*
X46300000Y-82700000D01*
X46300000Y-82700000D02*
X45120000Y-82700000D01*
X55840000Y-78840000D02*
X53000000Y-76000000D01*
%TO.N,Net-(JP1-B)*%
X62080000Y-25880000D02*
X62080000Y-22660000D01*
%TO.N,Net-(JP1-A)*%
X67000000Y-22500000D02*
X67000000Y-25720000D01*
X64620000Y-25880000D02*
X67160000Y-25880000D01*
%TO.N,Net-(Q1-B)*%
X92505000Y-28875685D02*
X92505000Y-26540000D01*
X93000000Y-26045000D02*
X91500000Y-26045000D01*
X91500000Y-26045000D02*
X89000000Y-23545000D01*
X92505000Y-26540000D02*
X93000000Y-26045000D01*
%TO.N,Net-(R16-Pad2)*%
X51500000Y-53250000D02*
X53170000Y-53250000D01*
X53170000Y-53250000D02*
X56420000Y-56500000D01*
%TO.N,Net-(U5-R2)*%
X44815000Y-49860000D02*
X48810000Y-49860000D01*
%TO.N,Net-(R20-Pad2)*%
X51460000Y-49750000D02*
X56170000Y-49750000D01*
%TO.N,Net-(U5-PC1)*%
X37195000Y-42240000D02*
X40000000Y-45045000D01*
X40000000Y-45045000D02*
X40000000Y-60225000D01*
X40000000Y-60225000D02*
X38955000Y-61270000D01*
%TO.N,Net-(R23-Pad2)*%
X56260000Y-61270000D02*
X46855000Y-61270000D01*
X58990000Y-64000000D02*
X56260000Y-61270000D01*
%TO.N,INT*%
X23870000Y-45045000D02*
X27595000Y-45045000D01*
%TO.N,POWER_GOOD*%
X67500000Y-36950854D02*
X67500000Y-41300000D01*
X67500000Y-41300000D02*
X65880000Y-42920000D01*
X61540000Y-35500000D02*
X66049146Y-35500000D01*
X59540000Y-33500000D02*
X61540000Y-35500000D01*
X66049146Y-35500000D02*
X67500000Y-36950854D01*
%TO.N,TEMP_GOOD*%
X64650818Y-40380000D02*
X58289000Y-34018182D01*
X58289000Y-27169000D02*
X57000000Y-25880000D01*
X58289000Y-34018182D02*
X58289000Y-27169000D01*
X65880000Y-40380000D02*
X64650818Y-40380000D01*
%TO.N,SIGNAL*%
X36720000Y-44780000D02*
X35775000Y-45725000D01*
X33000000Y-45725000D02*
X35775000Y-45725000D01*
X37195000Y-44780000D02*
X37195000Y-47320000D01*
%TO.N,DRV2*%
X73500000Y-48000000D02*
X80465000Y-48000000D01*
X80465000Y-48000000D02*
X81195000Y-48730000D01*
%TO.N,DRV1*%
X75380000Y-55620000D02*
X77500000Y-53500000D01*
X73500000Y-55620000D02*
X75380000Y-55620000D01*
X81195000Y-53810000D02*
X77810000Y-53810000D01*
%TO.N,Net-(D5-A)*%
X19265000Y-34000000D02*
X23300000Y-34000000D01*
%TO.N,Net-(D8-A)*%
X19265000Y-26000000D02*
X23420000Y-26000000D01*
%TO.N,Net-(D9-A)*%
X19265000Y-42440000D02*
X23205000Y-38500000D01*
X23205000Y-38500000D02*
X29000000Y-38500000D01*
%TO.N,Net-(D10-A)*%
X19265000Y-51000000D02*
X23865000Y-51000000D01*
%TO.N,Net-(U1-Pad3)*%
X65880000Y-45460000D02*
X65880000Y-48000000D01*
%TO.N,Net-(U1-Pad10)*%
X72000000Y-49040000D02*
X73500000Y-50540000D01*
X73500000Y-45460000D02*
X72000000Y-46960000D01*
X72000000Y-46960000D02*
X72000000Y-49040000D01*
%TO.N,Net-(D9-K)*%
X16725000Y-42440000D02*
X21825000Y-47540000D01*
X21825000Y-47540000D02*
X27640000Y-47540000D01*
D36*
%TO.N,+12V*%
X88815000Y-51270000D02*
X86480000Y-51270000D01*
X86480000Y-51270000D02*
X86250000Y-51500000D01*
X86290000Y-52500000D02*
X87520000Y-51270000D01*
X86250000Y-50000000D02*
X87520000Y-51270000D01*
%TD*%
M02*
